<svg xmlns="http://www.w3.org/2000/svg" xmlns:xlink="http://www.w3.org/1999/xlink" width="233.039" height="226.86" viewBox="0 0 233.039 226.86"><defs><clipPath id="a"><rect width="233.039" height="226.86" fill="none"/></clipPath></defs><g clip-path="url(#a)"><path d="M28.222,216.187A64.471,64.471,0,0,0,80.5,224.631a64.471,64.471,0,0,0,40.532-34.074c4-8.456,6.15-17.811,11.2-25.686,8.961-13.974,25.61-22.507,38.295-32.7,14.091-11.32,15.516-32.236,21.234-48.671,4.051-11.642,9.55-22.718,15.035-33.758l11.023-22.191a32.3,32.3,0,0,0,2.726-7.878A107.84,107.84,0,0,0,222.718.724a.716.716,0,0,0-1.332-.375,34.633,34.633,0,0,1-19.017,14.759c-3.268,1.009-7.033,1.461-9.933-.352a7.421,7.421,0,0,1-3.331-7.183,6.8,6.8,0,0,1,.461-1.652.754.754,0,0,0-1.026-.977,242.692,242.692,0,0,0-40.473,25.879c-11.3,8.915-22.487,19.242-36.607,22.025-11.644,2.295-24.765-.675-34.761,5.724-12.647,8.1-14.006,27.311-26.352,35.858-9.048,6.265-21.568,5.036-31.054,10.615C10.851,110.011,6.2,119.565,3.556,129c-8.649,30.812-1.93,69.393,24.666,87.191" transform="translate(0 0)" fill="#f3a536"/><path d="M170.341,191.881c4.959-.215,9.376-3.339,12.61-7.1s5.561-8.21,8.419-12.268a56.683,56.683,0,0,1,28.421-21.043c-7.238-2.892-14.825-1.292-21.652,2.468s-12.377,9.421-17.82,15l-13.053,13.381c-1.813,1.858-3.747,4-3.735,6.6s4.941,4.771,6.81,2.969" transform="translate(-96.138 -88.171)" fill="#fcdf5f"/><path d="M28.222,292.985A64.471,64.471,0,0,0,80.5,301.43a64.471,64.471,0,0,0,40.532-34.074c4-8.456,6.15-17.811,11.2-25.686,7.264-11.327,19.577-19.079,30.738-27.037a22.254,22.254,0,0,0-10.907.936,49.263,49.263,0,0,0-28.2,23.409c-3.95,7.367-5.985,15.713-10.555,22.712-10.547,16.151-32.356,21.41-51.484,18.916-11.218-1.463-22.3-5.191-31.374-11.943s-16.011-16.7-17.943-27.847c-2.877-16.6,5.449-33.27,16.369-46.1s28.45-16,35.381-36.069c2.905-8.41,10.8-14.423,18.139-19.448,4.852-3.32,10.458-5.332,15.995-7.309l3.5-1.25c-8.868.385-17.866.048-25.188,4.735-12.647,8.1-14.006,27.311-26.352,35.858-9.048,6.265-21.568,5.036-31.054,10.615-8.443,4.966-13.09,14.52-15.737,23.95-8.649,30.812-1.93,69.393,24.666,87.191" transform="translate(0 -76.799)" fill="#f28c38"/><path d="M188.85,107.652l-16.265,17.007c-5.9,6.169-11.963,12.461-19.605,16.264-8.317,4.139-17.81,5-26.93,6.769s-18.609,4.879-24.472,12.085a24.363,24.363,0,0,0-.5,29.2c5.864,7.738,15.725,11.076,24.982,14l42.559,13.456A60.623,60.623,0,0,1,187.683,172.5c5.679-5.286,12.4-9.484,17.374-15.439,9.484-11.353,11.146-27.054,15.7-41.131,5.84-18.065,16.757-33.983,27.53-49.616-24.007,5.011-42.484,23.611-59.434,41.335" transform="translate(-56.708 -38.987)" fill="#fcdf5f"/><path d="M11.846,298.255a60.3,60.3,0,1,1,60.3,60.3,60.3,60.3,0,0,1-60.3-60.3" transform="translate(-6.964 -139.889)" fill="#30b780"/><path d="M108.4,237.952a60.026,60.026,0,0,0-34.888,11.111c12.512-.256,25.078-.9,37.5.585s24.907,5.253,34.793,12.95c10.375,8.077,17.052,19.69,22.759,31.683A60.3,60.3,0,0,0,108.4,237.952" transform="translate(-43.218 -139.889)" fill="#28a06d"/><path d="M72.148,380.983a60.146,60.146,0,0,0,44.582-19.7A60.3,60.3,0,0,1,31.543,276.1,60.3,60.3,0,0,0,72.148,380.983" transform="translate(-6.964 -162.315)" fill="#65d1a2"/><path d="M151.761,462.075a51.059,51.059,0,0,0,20.589-7.669c4.285-2.773,8.307-6.425,9.943-11.259s.156-10.987-4.352-13.383c-3.721-1.977-8.336-.981-12.166.775s-7.374,4.232-11.457,5.272c-4.105,1.046-8.422.556-12.657.665s-8.785,1-11.668,4.1c-4.554,4.9-2.605,13.509,2.627,17.68s12.514,4.742,19.141,3.816" transform="translate(-74.921 -252.013)" fill="#1baf6f"/><path d="M132.62,471.667c5.232,4.171,12.514,4.742,19.141,3.816a51.06,51.06,0,0,0,20.59-7.669,28.181,28.181,0,0,0,7.751-7.031c-.778.591-1.58,1.148-2.392,1.673a51.058,51.058,0,0,1-20.589,7.669c-6.627.926-13.909.355-19.141-3.816-4.321-3.445-6.4-9.914-4.427-14.824a10.987,10.987,0,0,0-3.558,2.5c-4.554,4.9-2.606,13.509,2.626,17.68" transform="translate(-74.921 -265.422)" fill="#099153"/><path d="M119.25,383c3.252.593,7.038,1.046,9.472-1.191a7.244,7.244,0,0,0,2.092-4.928,21.533,21.533,0,0,0-.6-5.439c-.754-3.827-1.834-8.126-5.237-10.034a8.855,8.855,0,0,0-6.528-.584,12.7,12.7,0,0,0-9.073,9.88c-.806,4.655,5.223,11.448,9.87,12.3" transform="translate(-64.26 -211.913)" fill="#1baf6f"/><path d="M119.25,386.81c3.252.593,7.038,1.046,9.472-1.191a5.715,5.715,0,0,0,1.022-1.278c-2.4,1.4-5.653.992-8.5.472-4.647-.849-10.676-7.641-9.87-12.3a12.328,12.328,0,0,1,2.552-5.568,12.626,12.626,0,0,0-4.548,7.564c-.806,4.655,5.223,11.448,9.87,12.3" transform="translate(-64.26 -215.725)" fill="#099153"/><path d="M60.722,371.9a14.753,14.753,0,0,0-2.349-3.673c-2.516-2.609-6.829-2.979-10.067-1.348a12.868,12.868,0,0,0-6.3,8.452,24.58,24.58,0,0,0,.106,10.783c.9,4.491,2.569,8.991,5.8,12.236a16.038,16.038,0,0,0,13.671,4.44c3.269-.525,6.543-2.3,7.915-5.314,1.839-4.039-.2-8.7-2.211-12.652L60.722,371.9" transform="translate(-24.368 -215.104)" fill="#1baf6f"/><path d="M42.111,388.716c.9,4.491,2.569,8.991,5.8,12.236a16.038,16.038,0,0,0,13.671,4.441,10.743,10.743,0,0,0,7.429-4.427,12.418,12.418,0,0,1-4.844,1.843A16.041,16.041,0,0,1,50.5,398.367c-3.233-3.245-4.9-7.745-5.8-12.236a24.568,24.568,0,0,1-.106-10.783,14.527,14.527,0,0,1,2.338-5.023A13.415,13.415,0,0,0,42,377.932a24.58,24.58,0,0,0,.106,10.783" transform="translate(-24.368 -217.709)" fill="#099153"/><path d="M184.716,336.462c2.309,3.247,7.105,3.205,11.014,2.434,5.435-1.072,10.845-2.975,15.085-6.541s7.159-9.006,6.687-14.526c-.428-5.006-3.5-9.419-7.077-12.949a44.545,44.545,0,0,0-14.7-9.63c-3.941-1.578-8.327-2.588-12.426-1.479s-7.7,4.86-7.468,9.1c.36,6.494,8.646,10.1,9.716,16.511.482,2.89-.619,5.774-1.388,8.6s-1.144,6.091.554,8.48" transform="translate(-103.364 -172.428)" fill="#1baf6f"/><path d="M185.55,321.205c.482,2.891-.619,5.774-1.388,8.6s-1.144,6.091.554,8.48c2.308,3.247,7.105,3.205,11.014,2.434,5.435-1.072,10.845-2.975,15.085-6.541a20.348,20.348,0,0,0,3.411-3.685,34.653,34.653,0,0,1-13.849,5.577c-3.908.771-8.706.813-11.014-2.434-1.7-2.389-1.323-5.652-.554-8.48s1.871-5.711,1.388-8.6c-1.07-6.414-9.357-10.017-9.717-16.51a7.5,7.5,0,0,1,.748-3.641c-3.161,1.621-5.59,4.786-5.4,8.289.359,6.493,8.646,10.1,9.716,16.51" transform="translate(-103.364 -174.253)" fill="#099153"/><path d="M79.623,256.05a117.1,117.1,0,0,0-21.277,17.362,21.1,21.1,0,0,0-4.628,6.309l-.03.073a5.747,5.747,0,0,0,5.525,7.852,24.833,24.833,0,0,0,19.246-10.364c2.358-3.409,3.936-7.529,7.276-9.982,1.8-1.321,3.962-2.036,5.91-3.125,2.519-1.409,4.871-3.779,4.051-7.033a6.029,6.029,0,0,0-4.148-4.192c-4.334-1.332-8.358.831-11.925,3.1" transform="translate(-31.317 -148.466)" fill="#1baf6f"/><path d="M95.443,261.827a8.624,8.624,0,0,1-3.791,3.742c-1.948,1.089-4.111,1.8-5.91,3.125-3.341,2.453-4.918,6.574-7.277,9.983a24.833,24.833,0,0,1-19.245,10.364,5.74,5.74,0,0,1-5.554-3.7,5.745,5.745,0,0,0,5.554,7.764,24.833,24.833,0,0,0,19.245-10.364c2.359-3.409,3.936-7.529,7.277-9.983,1.8-1.321,3.962-2.036,5.91-3.125,2.519-1.409,4.871-3.779,4.051-7.033a5.458,5.458,0,0,0-.261-.774" transform="translate(-31.325 -153.924)" fill="#099153"/><path d="M253.858,45.784A28.028,28.028,0,0,0,275.475,34.1c2.869-4.073,4.657-8.946,8.211-12.436,2.889-2.837,6.694-4.506,10.1-6.691s6.659-5.264,7.268-9.268c-5.659,6.1-14.85,5.012-22.392,8.525-5.6,2.609-9.938,7.262-14.125,11.8L254.5,36.925,250.747,41a2.866,2.866,0,0,0,2.139,4.809c.338-.005.663-.014.972-.024" transform="translate(-146.962 -3.356)" fill="#f3a536"/><path d="M398.773,209.595c8.755-4.878,12.777-15.176,15.477-24.827s5.051-20.039,12.182-27.08A17.711,17.711,0,0,0,417.09,165a52.7,52.7,0,0,0-5.221,10.886l-13.1,33.713" transform="translate(-234.433 -92.702)" fill="#fcdf5f"/><path d="M513.259,121.42a75.111,75.111,0,0,0-6.453,10.126,98.449,98.449,0,0,0-5.221,10.143c2.562,2.218,6.733,1.488,9.285-.741s3.847-5.54,4.911-8.757,2.039-6.572,4.178-9.2c1.643-2.018,3.875-3.479,5.611-5.418s2.967-4.711,2.008-7.13a37.725,37.725,0,0,0-14.319,10.976" transform="translate(-294.875 -64.928)" fill="#f3a536"/></g></svg>