<svg xmlns="http://www.w3.org/2000/svg" width="953" height="666" viewBox="0 0 953 666"><g transform="translate(-391 -150)"><rect width="953" height="666" transform="translate(391 150)" fill="none"/><g transform="translate(391.001 299.981)"><path d="M499.658,113.01q-1.95-8.97-3.907-17.939a.908.908,0,0,0-1.027-.748c-5.5,1.418-11.235,2.908-16.406,5.328-.3-.468-1.173-.2-1.03.4,1.165,4.879,2.7,9.67,3.978,14.523.571,2.169,1.147,4.348,1.582,6.55a3.136,3.136,0,0,0-4.3,1.415c-1.407,2.91,1.6,5.877,4.559,4.938,1.654-.526,2.106-1.962,2-3.555a45.184,45.184,0,0,0-1.668-8.087c-.91-3.541-1.861-7.11-3.021-10.6,2.43-.432,4.834-1.009,7.223-1.625s5.277-1.047,7.44-2.287a.811.811,0,0,0,.164-.133q1.142,5.271,2.288,10.542c.315,1.449.874,3.116,1.164,4.739a4.145,4.145,0,0,0-4.348.751,3.528,3.528,0,0,0,3.288,5.735c4.633-.8,2.652-7.046,2.022-9.944" transform="translate(-86.869 -17.164)" fill="#3c3c3b"/><path d="M42.37,349.95q-4.416-16.312-8.847-32.619a1.67,1.67,0,0,0-1.956-1.28c-9.988,3.117-20.387,6.388-29.668,11.316-.589-.832-2.177-.266-1.858.824,2.6,8.864,5.864,17.529,8.661,26.331,1.25,3.934,2.511,7.886,3.515,11.9a5.77,5.77,0,0,0-7.779,3c-2.318,5.48,3.49,10.657,8.84,8.655,2.991-1.12,3.689-3.8,3.347-6.721-.584-4.993-2.327-9.934-3.815-14.713-2-6.425-4.08-12.9-6.537-19.2,4.427-1.019,8.793-2.3,13.128-3.657,4.363-1.365,9.6-2.415,13.467-4.895a1.543,1.543,0,0,0,.29-.259q2.59,9.585,5.184,19.17c.713,2.634,1.9,5.647,2.58,8.6-2.622-.9-6.32-.285-7.924,1.784-3.7,4.763.78,11.541,6.576,10.238,8.444-1.9,4.222-13.2,2.8-18.47" transform="translate(0 -57.515)" fill="#3c3c3b"/><path d="M251.125,18.374A80.22,80.22,0,0,0,240.347,11.1q-.575-.353-1.147-.712a26.419,26.419,0,0,0,3.334-2.193c.648-.471,1.854-1.051,2.051-1.924a1.252,1.252,0,0,0,.023-.412.848.848,0,0,0,.033-1.233c-1.521-1.364-3.108-2.684-4.712-3.949a.687.687,0,0,0-.191-.106.557.557,0,0,0-.956-.384A50.363,50.363,0,0,0,234.9,5.3c-.654.933-1.845,2.079-1.218,3.29.66,1.274,2.871,2.245,4.03,2.984,1.807,1.151,3.656,2.236,5.477,3.364,3.539,2.192,7.83,4.717,10.032,8.379a6.073,6.073,0,0,1,.53,1.171,3.222,3.222,0,0,0-.681-.53,3.653,3.653,0,0,0-5.26,1.742,4.032,4.032,0,0,0,3.082,5.319,4.549,4.549,0,0,0,5.177-4.4c.114-3.38-2.573-6.192-4.944-8.241M237.636,4.512c.171.214.35.417.529.62l-.116-.051c-.158-.083-.32-.161-.488-.235l-.052-.026h0c-.061-.025-.118-.053-.179-.078.091-.119.172-.231.241-.332a1.148,1.148,0,0,0,.066.1m.1,4.934a.879.879,0,0,0,.29-.232,4.942,4.942,0,0,0,.56,0,.918.918,0,0,0,.141-.023c-.213.162-.422.327-.622.5l-.369-.237m14.739,16.62a1.944,1.944,0,0,0-.322-.511c.474.224.58.393.322.511M251.7,29.28a1.95,1.95,0,0,0,.19-.244,2.786,2.786,0,0,0,1.559-.419,2.287,2.287,0,0,1-1.749.663" transform="translate(-42.501)" fill="#3c3c3b"/></g></g></svg>