<svg xmlns="http://www.w3.org/2000/svg" xmlns:xlink="http://www.w3.org/1999/xlink" width="953" height="666" viewBox="0 0 953 666"><defs><clipPath id="a"><rect width="114.619" height="114.04" fill="none"/></clipPath><clipPath id="b"><rect width="114.619" height="114.039" fill="none"/></clipPath><clipPath id="c"><rect width="25.929" height="10.577" fill="none"/></clipPath></defs><g transform="translate(-391 -150)"><rect width="953" height="666" transform="translate(391 150)" fill="none"/><g transform="translate(390.887 299.143)"><path d="M167.8,271.8c11.951-13.734,22.747-24.371,30.329-61.2s9.206-92.512,27.62-98.026,27.079,2.166,35.2,14.081,34.661,82.862,79.071,75.822,50.908-23.288,66.073-23.83,22.891,15.58,13.539,42.243c-10.456,29.811-36.827,77.987-31.953,106.691s21.121,67.7,16.788,82.32-11.993,20.236-36.828,14.623c-19.763-4.467-49.284-22.2-80.7-7.582S229,469.472,209.5,469.472s-24.371-17.331-21.122-36.286,4.746-49.874-1.083-58.49c-12.456-18.414-31.91-23.321-62.823-32.5-8.343-2.476-28.487-13.488-3.25-34.661,10.081-8.457,31.2-18.068,46.576-35.745" transform="translate(-19.829 -20.158)" fill="#ffa600"/><g transform="translate(219.098 309.226)" opacity="0.2"><g clip-path="url(#a)"><g clip-path="url(#b)"><path d="M282.291,403.575c-25.334,31.245-11.166,72.033-3.692,88.495,11.651-10.146,24.4-20.929,38.082-27.3,22.6-10.519,44.211-4.293,61.921,1.693,8.567-30.057,1.473-54.691-7.493-69.932-10.831-18.414-56.324-33.035-88.819,7.04" transform="translate(-267.849 -378.031)" fill="#fff"/></g></g></g><path d="M248.573,308.86a10.832,10.832,0,1,1-10.832-10.831,10.832,10.832,0,0,1,10.832,10.831" transform="translate(-41.3 -54.245)"/><path d="M246.5,307.327a4.332,4.332,0,1,1-4.333-4.333,4.332,4.332,0,0,1,4.333,4.333" transform="translate(-43.289 -55.148)" fill="#fff"/><path d="M371.722,259.2a10.832,10.832,0,1,1-10.832-10.832A10.832,10.832,0,0,1,371.722,259.2" transform="translate(-63.714 -45.207)"/><path d="M369.648,257.671a4.332,4.332,0,1,1-4.333-4.333,4.332,4.332,0,0,1,4.333,4.333" transform="translate(-65.703 -46.11)" fill="#fff"/><path d="M268.221,331.661S265.242,317.31,277.7,314.6s23.829.27,34.931-13.811c0,0,5.687-13,20.038-9.207,0,0,14.856,5.958,5.957,33.179-2.166,6.627-20.58,25.312-49.555,23.417,0,0-16.788-.812-20.851-16.518" transform="translate(-48.763 -52.945)" fill="#611417"/><path d="M274.948,347.994c6.415,6.391,15.4,6.833,15.4,6.833,27.351,1.79,45.284-14.754,49.031-22.19-30.662-14.391-54.119,4.35-64.435,15.356" transform="translate(-50.043 -59.593)" fill="#ed1c24"/><g transform="translate(183.206 270.313)"><g clip-path="url(#c)"><g transform="translate(0.001)"><g clip-path="url(#c)"><path d="M249.86,332.746c.559,2.4-4.775,5.7-11.912,7.356s-13.378,1.056-13.936-1.347,4.775-5.7,11.912-7.356,13.377-1.056,13.936,1.347" transform="translate(-223.972 -330.461)" fill="#f86879"/></g></g></g></g><g transform="translate(295.313 227.258)"><g clip-path="url(#c)"><g transform="translate(0.001)"><g clip-path="url(#c)"><path d="M386.912,280.11c.559,2.4-4.775,5.7-11.912,7.356s-13.377,1.056-13.936-1.347,4.775-5.7,11.912-7.356,13.377-1.056,13.936,1.347" transform="translate(-361.024 -277.825)" fill="#f86879"/></g></g></g></g><path d="M202.045,510.8c1.645,9.992-3.978,19.548-8.846,28.429a6.767,6.767,0,0,0-1.117,3.349c.074,2.425,2.59,4.007,4.915,4.7,6.134,1.825,12.71.614,18.991-.608,8.58-1.668,18.1-3.952,22.81-11.319" transform="translate(-34.961 -92.971)" fill="#ffa600"/><path d="M458.426,454.249c3.063,11.8,5.081,20.71,11.3,30.117a6.392,6.392,0,0,1,1.427,3.548c-.1,2.57-3.308,4.245-6.279,4.978-7.834,1.933-16.233.65-24.256-.644-10.959-1.767-23.124-4.187-29.133-11.991" transform="translate(-74.895 -82.679)" fill="#ffa600"/><path d="M316.491,118.094a15.291,15.291,0,0,0,4.58-2.268,5.648,5.648,0,0,0,2.292-4.392c-.105-3.395-3.954-5.274-7.269-6.017a46.451,46.451,0,0,0-26.158,1.771,5.509,5.509,0,0,0-1.661.858,5.857,5.857,0,0,0-1.185,1.571q-2.607,4.418-5.216,8.835c-.98,1.66-1.916,3.917-.618,5.34.9.992,2.441.992,3.78.895a120.364,120.364,0,0,0,31.455-6.592" transform="translate(-51.076 -18.986)" fill="#ce5121"/><path d="M242.16,66.925c-41.678,4.163-9.774,57.468-9.774,57.468,31.806,12.137,46.054-9.719,46.054-9.719,3.389-15.62,5.4-51.911-36.279-47.748m22.025,54.118a16.808,16.808,0,0,1-17,2.082l-2.359-8.788s12,1.387,19.359-3.007Z" transform="translate(-40.172 -12.121)" fill="#f15a24"/></g></g></svg>