<svg xmlns="http://www.w3.org/2000/svg" xmlns:xlink="http://www.w3.org/1999/xlink" width="953" height="666" viewBox="0 0 953 666"><defs><clipPath id="a"><rect width="171.812" height="158.829" fill="none"/></clipPath><clipPath id="c"><rect width="62.478" height="34.629" fill="none"/></clipPath><clipPath id="d"><rect width="62.477" height="34.629" fill="none"/></clipPath><clipPath id="e"><rect width="35.145" height="17.958" fill="none"/></clipPath><clipPath id="f"><rect width="35.145" height="17.957" fill="none"/></clipPath></defs><g transform="translate(-391 -150)"><rect width="953" height="666" transform="translate(391 150)" fill="none"/><g transform="translate(1103 657.171)" clip-path="url(#a)"><g clip-path="url(#a)"><path d="M143.619,162.894a10.214,10.214,0,0,1-5-.049,7.56,7.56,0,0,1-3.816-2.012l23.331-96.559,7.666,1.9Z" transform="translate(-32.158 -15.333)" fill="#dfbe93"/><path d="M173.244,66.712c-.276.97-2.523,1.179-5.019.468s-3.149-1.917-2.871-2.887,1.377-1.339,3.872-.628,4.294,2.076,4.017,3.047" transform="translate(-39.43 -15.099)" fill="#ead3aa"/><path d="M170.756,1.256a39.8,39.8,0,1,1-48.444,28.675A39.8,39.8,0,0,1,170.756,1.256" transform="translate(-28.878)" fill="#ed1c24" fill-rule="evenodd"/><path d="M210.5,66.564A41.28,41.28,0,0,1,173.347,52.29a41.286,41.286,0,0,0,25.042,30.942A39.586,39.586,0,0,0,210.5,66.564" transform="translate(-41.351 -12.474)" fill="#fff" fill-rule="evenodd"/><path d="M204.293,19.4a41.293,41.293,0,0,1-30.947,25.046,41.278,41.278,0,0,0,39.325-6.22A39.977,39.977,0,0,0,204.293,19.4" transform="translate(-41.351 -4.627)" fill="#fff" fill-rule="evenodd"/><path d="M165.178.491a41.278,41.278,0,0,1,6.22,39.326A41.277,41.277,0,0,0,185.675,2.655a40.439,40.439,0,0,0-4.393-1.4,39.644,39.644,0,0,0-16.1-.766" transform="translate(-39.402)" fill="#fff" fill-rule="evenodd"/><path d="M124.549,28.32A41.279,41.279,0,0,1,161.706,42.6a41.269,41.269,0,0,0-25.045-30.943A39.613,39.613,0,0,0,124.549,28.32" transform="translate(-29.711 -2.78)" fill="#fff" fill-rule="evenodd"/><path d="M130.086,76.562a41.278,41.278,0,0,1,30.942-25.043,41.27,41.27,0,0,0-39.322,6.221,39.94,39.94,0,0,0,8.381,18.822" transform="translate(-29.032 -11.704)" fill="#fff" fill-rule="evenodd"/><path d="M174.978,91.614a41.285,41.285,0,0,1-6.222-39.324A41.294,41.294,0,0,0,154.48,89.448a40.5,40.5,0,0,0,4.394,1.4,39.66,39.66,0,0,0,16.1.768" transform="translate(-36.761 -12.474)" fill="#fff" fill-rule="evenodd"/><g transform="translate(105.493 3.198)" opacity="0.4"><g clip-path="url(#c)"><g clip-path="url(#d)"><path d="M138.542,13.9c8.047-4.059,48.119-16.192,62.478,24.93-.246-23.41-28.772-49.045-62.478-24.93" transform="translate(-138.542 -4.2)" fill="#fff"/></g></g></g><path d="M58.034,175.931a5.6,5.6,0,0,1-2.128,1.732,4.141,4.141,0,0,1-2.318.488L29.581,129.167l3.907-1.885Z" transform="translate(-7.056 -30.363)" fill="#dfbe93"/><path d="M33.828,127.521c.224.506-.653,1.384-1.956,1.958s-2,.294-2.226-.213.112-1.049,1.416-1.623,2.542-.629,2.766-.122" transform="translate(-7.057 -30.337)" fill="#ead3aa"/><path d="M12.518,95.311A21.859,21.859,0,1,1,2.1,124.418,21.859,21.859,0,0,1,12.518,95.311" transform="translate(0 -22.234)" fill="#ed1c24" fill-rule="evenodd"/><path d="M49.424,112.728a22.669,22.669,0,0,1-20.708,7,22.672,22.672,0,0,0,21.433,4.292,21.735,21.735,0,0,0-.726-11.292" transform="translate(-6.85 -26.891)" fill="#fff" fill-rule="evenodd"/><path d="M33.008,93.768a22.675,22.675,0,0,1-4.293,21.437A22.668,22.668,0,0,0,43.151,98.784a21.95,21.95,0,0,0-10.143-5.016" transform="translate(-6.85 -22.368)" fill="#fff" fill-rule="evenodd"/><path d="M7.15,101a22.666,22.666,0,0,1,16.421,14.436,22.666,22.666,0,0,0-7-20.711,22.294,22.294,0,0,0-2.347.95A21.784,21.784,0,0,0,7.15,101" transform="translate(-1.706 -22.595)" fill="#fff" fill-rule="evenodd"/><path d="M1.158,127.248a22.666,22.666,0,0,1,20.708-7A22.661,22.661,0,0,0,.431,115.957a21.738,21.738,0,0,0,.727,11.291" transform="translate(-0.001 -27.411)" fill="#fff" fill-rule="evenodd"/><path d="M19.9,143.355a22.667,22.667,0,0,1,4.292-21.434,22.664,22.664,0,0,0-14.434,16.42A21.932,21.932,0,0,0,19.9,143.355" transform="translate(-2.328 -29.084)" fill="#fff" fill-rule="evenodd"/><path d="M45.025,136.356A22.67,22.67,0,0,1,28.6,121.921a22.674,22.674,0,0,0,7,20.709,22.217,22.217,0,0,0,2.347-.95,21.787,21.787,0,0,0,7.074-5.324" transform="translate(-6.738 -29.084)" fill="#fff" fill-rule="evenodd"/><g transform="translate(1.225 72.8)" opacity="0.4"><g clip-path="url(#e)"><g clip-path="url(#f)"><path d="M1.61,113.564c1.976-4.538,14.653-23.719,35.144-11.378C28.439,92.379,7.395,91.552,1.61,113.564" transform="translate(-1.609 -95.606)" fill="#fff"/></g></g></g><path d="M162.45,76.634l1.05.906a3.245,3.245,0,0,1,.334,4.564l-15.6,18.072a5.953,5.953,0,0,1-.984,6.153l-3.157,3.656a5.95,5.95,0,0,1-8.368.614l-1.926-1.663a5.951,5.951,0,0,1-.613-8.368l3.158-3.657a5.951,5.951,0,0,1,5.943-1.871l15.6-18.072a3.245,3.245,0,0,1,4.563-.334" transform="translate(-31.427 -18.094)" fill="#49d1cc" fill-rule="evenodd"/><path d="M92.569,96.942A21.2,21.2,0,1,1,95.74,126.75a21.2,21.2,0,0,1-3.171-29.808" transform="translate(-20.959 -21.246)" fill="#ffd494" fill-rule="evenodd"/><path d="M90.636,95.38a22.93,22.93,0,0,1,40.73,15.72c-.1,1.825-3.5,1.8-6.836-2.475-3.256-4.178-5.658-9.818-7.557-7.47-7.956,9.851-13.944-1.47-17.309-.7-4.913,1.129-7.129,7.582-9.8,9.527-2.455,1.784-4.628.141-4.062-3.625A22.814,22.814,0,0,1,90.636,95.38" transform="translate(-20.445 -20.72)" fill="#8a321f" fill-rule="evenodd"/><path d="M129.586,121.449A21.2,21.2,0,1,1,117.1,148.7a21.2,21.2,0,0,1,12.486-27.251" transform="translate(-27.616 -28.653)" fill="#f24660" fill-rule="evenodd"/><path d="M129.528,119.3a22.93,22.93,0,0,1,27.007,34.3c-1.02,1.517-3.931-.243-4.615-5.617-.668-5.254.145-11.331-2.686-10.28-11.87,4.411-11.244-8.379-14.533-9.431-4.8-1.535-10,2.884-13.292,3.19-3.022.283-4.053-2.239-1.644-5.19a22.828,22.828,0,0,1,9.763-6.973" transform="translate(-28.251 -28.113)" fill="#8a321f" fill-rule="evenodd"/><path d="M67.747,130.018a21.2,21.2,0,1,1,6.623,29.236,21.2,21.2,0,0,1-6.623-29.236" transform="translate(-15.381 -28.655)" fill="#fff" fill-rule="evenodd"/><path d="M65.655,128.632a22.93,22.93,0,0,1,42.285,10.861c.11,1.825-3.272,2.2-7.078-1.661-3.72-3.768-6.764-9.089-8.375-6.537-6.754,10.711-14.02.167-17.272,1.328-4.749,1.7-6.2,8.362-8.627,10.6-2.23,2.058-4.581.68-4.457-3.127a22.813,22.813,0,0,1,3.524-11.467" transform="translate(-14.82 -28.132)" fill="#8a321f" fill-rule="evenodd"/><path d="M78.666,196.641h53.389l13.4-38.131H65.264Z" transform="translate(-15.568 -37.812)" fill="#49d1cc" fill-rule="evenodd"/></g></g></g></svg>