<svg xmlns="http://www.w3.org/2000/svg" xmlns:xlink="http://www.w3.org/1999/xlink" width="953" height="666" viewBox="0 0 953 666"><defs><clipPath id="a"><rect width="218" height="221.925" fill="none"/></clipPath><clipPath id="b"><rect width="44.178" height="36.488" fill="none"/></clipPath><clipPath id="d"><rect width="10.526" height="4.294" fill="none"/></clipPath><clipPath id="f"><rect width="15.385" height="6.53" fill="none"/></clipPath><clipPath id="g"><rect width="8.12" height="7.509" fill="none"/></clipPath></defs><g transform="translate(-391 -150)"><rect width="953" height="666" transform="translate(391 150)" fill="none"/><g transform="translate(1126 152)" clip-path="url(#a)"><line x1="2.621" y2="70.848" transform="translate(171.318 36.488)" fill="none" stroke="#f6864d" stroke-width="1"/><g transform="translate(151.139)"><g clip-path="url(#b)"><g clip-path="url(#b)"><path d="M463.761,0a11.572,11.572,0,0,0-10.32,7.05,11.576,11.576,0,0,0-21.315,8.916C434.809,28.231,454,36.52,454.291,36.488c.289.015,18.973-9.367,20.944-21.761A11.583,11.583,0,0,0,463.761,0" transform="translate(-431.491)" fill="#ee778a"/></g></g></g><path d="M488.737,99.962s.266,3.146-1.8,4.52c0,0,1.921-.23,2.426-.946a6.2,6.2,0,0,0,1.016,1.81,7.226,7.226,0,0,0,.822-1.863,4.259,4.259,0,0,0,2.311,1.16s-2.437-2.47-1.2-5.222Z" transform="translate(-316.378 -64.597)" fill="#ee778a"/><path d="M494.93,101.584a4.033,4.033,0,0,0-3.389.352c-.455-1.252.86-1.027,1.7-1.1.645-.057,1.888-.413,2.191.45-.04.065-.128.224-.169.275-.149,0-.207.076-.332.112" transform="translate(-319.307 -65.437)" fill="#f6864d"/><path d="M475.956,101.583c-2.216-.219-4.9-.618-6.575,1.233-.378.418-.657,1.3-.2,1.77.708.726,1.738.862,2.388,1.72a3.389,3.389,0,0,1-1.853,5.187c-1.558.462-2.766-1.382-2.44-2.728a1.823,1.823,0,0,1,1.056-1.139,2.239,2.239,0,0,1,.948-.246c1.114-.049.624,1.3-.165,1.5a.175.175,0,1,0,.093.338c.8-.207,1.853-1.317.757-1.985a2.3,2.3,0,0,0-2.632.684,2.488,2.488,0,0,0,3.114,3.68,3.739,3.739,0,0,0,1.284-5.656,4.2,4.2,0,0,0-1.443-1.074c-.361-.173-.794-.323-.959-.727-.2-.493.285-1.085.6-1.377,1.58-1.481,4.1-1.023,6.034-.832.225.022.223-.328,0-.35" transform="translate(-303.32 -65.875)" fill="#f6864d"/><path d="M497.776,101.392c1.983.059,6.578-.046,6.659,2.9.028,1.04-1.054,1.945-1.708,2.627a7.732,7.732,0,0,0-1.342,1.906,4.848,4.848,0,0,0-.5,3.821,2.84,2.84,0,0,0,3.069,1.514c2.351-.382,4.224-4.493,1.11-5.194-2.082-.469-2.947,3.04-.872,2.935a1.968,1.968,0,0,0,.5-.117c.214-.07.123-.408-.093-.338-1.3.423-1.618-.934-.875-1.773a1.5,1.5,0,0,1,1.74-.212,1.563,1.563,0,0,1,.88,1.818,3.329,3.329,0,0,1-2.779,2.579,2.371,2.371,0,0,1-2.533-2.691,6.578,6.578,0,0,1,1.505-3.521c.807-.988,1.954-1.779,2.222-3.1.243-1.2-.789-2.144-1.722-2.663-1.567-.874-3.529-.792-5.262-.844a.175.175,0,0,0,0,.35" transform="translate(-323.308 -65.65)" fill="#f6864d"/><path d="M480.767,89.293a11.032,11.032,0,0,0-4.07-4.768c-.672-.468-3.082-2.2-3.813-.972-.885,1.484,1.091,2.825,2.1,3.526a14.025,14.025,0,0,0,5.335,2.552c.221.033.316-.3.093-.338a12.343,12.343,0,0,1-4.038-1.755c-1.119-.644-3.379-1.8-3.336-3.326.049-1.747,3.044.31,3.612.707a10.4,10.4,0,0,1,3.777,4.466c.082.207.421.117.338-.093" transform="translate(-307.101 -54.007)" fill="#f6864d"/><path d="M494.8,87.478c.767-.784.868-1.949,1.3-2.915a12.931,12.931,0,0,1,1.178-2,6.842,6.842,0,0,1,2.108-2.13,1.252,1.252,0,0,1,1.931.833c.121,1.462-2.069,2.945-3.056,3.7-1.105.846-2.287,1.573-3.44,2.348-.186.125-.012.429.177.3,1.418-.952,2.859-1.854,4.186-2.935.971-.791,2.943-2.356,2.393-3.849-.682-1.853-2.763-.574-3.611.314a12.82,12.82,0,0,0-1.823,2.571c-.616,1.092-.723,2.625-1.593,3.515-.158.161.09.409.248.248" transform="translate(-321.289 -51.901)" fill="#f6864d"/><line x2="14.857" y2="39.108" transform="translate(156.933 68.097)" fill="none" stroke="#f6864d" stroke-width="1"/><path d="M398.954,110.265a8.977,8.977,0,0,0-5.3,8.124,8.981,8.981,0,0,0-12.618,12.734c5.572,7.985,21.792,8.209,21.988,8.1.211-.076,10.8-12.36,8.528-21.827a8.987,8.987,0,0,0-12.6-7.133" transform="translate(-246.096 -71.127)" fill="#8cc63f"/><path d="M443.846,190.763s1.127,2.175.058,3.773c0,0,1.308-.738,1.456-1.4a4.821,4.821,0,0,0,1.267,1,5.6,5.6,0,0,0,.034-1.58,3.3,3.3,0,0,0,2,.143s-2.481-1.044-2.416-3.383Z" transform="translate(-288.379 -123.001)" fill="#8cc63f"/><path d="M446.437,191.224a3.131,3.131,0,0,0-2.324,1.261c-.7-.761.311-.992.891-1.3.446-.233,1.23-.858,1.7-.33-.009.058-.025.2-.04.247-.105.047-.125.116-.2.179" transform="translate(-288.398 -123.873)" fill="#f6864d"/><path d="M436.44,193.781c-1.585.482-3.187.9-4.15,2.357a1.581,1.581,0,0,0-.208,1.472c.255.5.714.542,1.235.567a2.6,2.6,0,0,1,2.313,3.683,1.7,1.7,0,0,1-2.787.616,1.433,1.433,0,0,1-.356-1.571,2.039,2.039,0,0,1,.394-.543l.14-.13q.654-.639.677.816c-.176.136,0,.44.177.3.458-.353.994-1.25.209-1.625a1.415,1.415,0,0,0-1.721.711c-1.1,1.65.868,3.427,2.529,2.719,1.831-.78,1.562-3.445.375-4.6a2.8,2.8,0,0,0-1.078-.606c-.651-.219-1.731.146-1.856-.859-.106-.852.993-1.679,1.622-2.041a12.259,12.259,0,0,1,2.579-.935.175.175,0,0,0-.093-.338" transform="translate(-280.666 -125.899)" fill="#f6864d"/><path d="M448.07,190.092c1.357-.518,5.436-2.167,5.687.507a6.9,6.9,0,0,1-.729,2.507,5.717,5.717,0,0,0-.2,1.884,2.854,2.854,0,0,0,1.305,2.583,2.286,2.286,0,0,0,2.734-.7,2.917,2.917,0,0,0,.465-2.764,1.583,1.583,0,0,0-2.074-.747c-1.568.706-.593,3.356.908,2.1.173-.145-.076-.392-.248-.248-.922.774-1.464-.563-.906-1.263a1.32,1.32,0,0,1,1.519-.224,1.364,1.364,0,0,1,.626,1.28,2.415,2.415,0,0,1-1.461,2.31c-1.3.437-2.179-.454-2.439-1.636a5.373,5.373,0,0,1,.258-2.907c.3-.824.953-2.038.406-2.907-1.275-2.028-4.274-.741-5.945-.1-.209.08-.118.418.093.338" transform="translate(-290.986 -122.644)" fill="#f6864d"/><path d="M432.706,187.541a8.771,8.771,0,0,0-4.575-2.249c-.724-.144-2.654-.551-2.844.569-.223,1.316,1.76,1.717,2.634,1.9a10.974,10.974,0,0,0,4.58.228c.219-.054.126-.391-.093-.338a9.519,9.519,0,0,1-3.266-.043c-1-.12-3.07-.281-3.472-1.408-.422-1.183,2.347-.582,2.819-.477a8.105,8.105,0,0,1,3.97,2.064c.159.161.406-.087.248-.248" transform="translate(-276.309 -120.265)" fill="#f6864d"/><path d="M445.851,179.555a7.968,7.968,0,0,0,.064-2.517,10.044,10.044,0,0,1,.264-1.811,5.99,5.99,0,0,1,.7-1.859c.367-.6,1.26-.932,1.7-.21.586.965-.641,2.8-1.1,3.6-.535.924-1.157,1.787-1.747,2.675-.125.189.178.364.3.177a37.086,37.086,0,0,0,2.268-3.627c.438-.859,1.278-2.548.288-3.332-1.084-.858-2.02.417-2.392,1.31a9.053,9.053,0,0,0-.566,2.355c-.127,1.026.227,2.193-.119,3.151-.077.213.262.3.338.093" transform="translate(-289.455 -111.988)" fill="#f6864d"/><line x1="21.962" y2="35.608" transform="translate(170.825 71.771)" fill="none" stroke="#f6864d" stroke-width="1"/><path d="M556.917,128.988a8.979,8.979,0,0,0-9.669.75,8.981,8.981,0,0,0-17.785-2.248c-2.937,9.283,6.766,22.282,6.971,22.372.189.122,16.385,1.039,22.5-6.534a8.988,8.988,0,0,0-2.021-14.34" transform="translate(-343.647 -78.091)" fill="#f6cb21"/><path d="M543.114,201s-1.038,2.219-2.957,2.345c0,0,1.381.588,2,.3a4.829,4.829,0,0,0-.017,1.611,5.613,5.613,0,0,0,1.275-.936,3.3,3.3,0,0,0,1.1,1.68s-.683-2.6,1.211-3.977Z" transform="translate(-350.955 -130.596)" fill="#f6b881"/><path d="M549.521,203.1a3.13,3.13,0,0,0-2.416-1.074c.178-1.018.976-.358,1.571-.082.456.211,1.43.453,1.3,1.15-.052.028-.173.1-.22.119-.1-.055-.169-.029-.267-.053" transform="translate(-355.469 -130.904)" fill="#f6864d"/><path d="M531.376,198.439c-1.4-1-2.79-2.07-4.593-1.811a1.435,1.435,0,0,0-1.178.919c-.161.587.472,1.158.714,1.627,1.032,2-1.663,4.8-3.542,3.173a1.685,1.685,0,0,1,.194-2.539,1.62,1.62,0,0,1,1.211-.143c.979.174.786,1.314-.242,1.03a.175.175,0,0,0-.093.337c.682.188,1.358-.008,1.4-.788.039-.752-.97-.956-1.517-.976-1.853-.068-2.288,2.381-1.063,3.445,1.573,1.367,4.048-.419,4.21-2.172a2.753,2.753,0,0,0-.167-1.339c-.316-.737-1.315-1.75-.031-2.192,1.63-.562,3.3.86,4.521,1.729.184.132.359-.172.176-.3" transform="translate(-339.142 -127.729)" fill="#f6864d"/><path d="M547.887,203.536c1.323.813,4.439,2.506,3.323,4.507-.378.677-1.452.862-2.132,1.06a6.188,6.188,0,0,0-1.812.884c-.824.57-1.865,1.634-1.661,2.748a2.324,2.324,0,0,0,2.244,1.9c1.823.067,3.848-2.151,1.762-3.446-1.377-.855-3.006,1.58-1.084,2.021.22.051.313-.287.093-.338-1.371-.315-.226-1.845.814-1.381,1.388.62.513,2.058-.414,2.527a2.139,2.139,0,0,1-2.9-.8c-.8-1.272.794-2.6,1.722-3.193,1.265-.808,3.582-.682,3.91-2.5.365-2.02-2.33-3.455-3.692-4.292a.174.174,0,0,0-.177.3" transform="translate(-354.477 -132.029)" fill="#f6864d"/><path d="M544.3,189.309a8.828,8.828,0,0,0-.985-4.995c-.339-.7-1.161-2.426-2.2-1.938-1.178.555-.3,2.409.057,3.165a10.992,10.992,0,0,0,2.631,3.839c.174.14.424-.106.248-.248a9.3,9.3,0,0,1-1.906-2.52c-.536-.891-1.485-2.335-1.223-3.433.4-1.7,1.938,1,2.161,1.458a8.21,8.21,0,0,1,.878,4.578c-.03.221.308.316.338.093" transform="translate(-351.192 -118.439)" fill="#f6864d"/><path d="M550.2,196.743a6.934,6.934,0,0,0,1.971-1.43,9.471,9.471,0,0,1,1.558-.9,5.223,5.223,0,0,1,2.332-.633.9.9,0,0,1,.747,1.44c-.728.86-2.421.98-3.45,1.11s-2.057.16-3.088.231c-.224.015-.225.366,0,.35,1.33-.091,2.655-.143,3.974-.358,1-.163,2.722-.433,3.092-1.575.468-1.443-1.422-1.635-2.321-1.42a9.169,9.169,0,0,0-2.389,1.043c-.872.5-1.569,1.51-2.518,1.8a.175.175,0,0,0,.093.338" transform="translate(-357.341 -125.714)" fill="#f6864d"/><path d="M488.344,302.113a4.438,4.438,0,0,1,1.146,3.174l.518,6.248a69.608,69.608,0,0,1,.334,10.837,51.606,51.606,0,0,1-1.249,7.691" transform="translate(-317.29 -196.291)" fill="none" stroke="#f6864d" stroke-width="1"/><path d="M476.749,329.687a2.243,2.243,0,0,0,1.346-1.024,8.674,8.674,0,0,0,1.1-4.147q.425-4.741.743-9.491c.115-1.7-.464-6.99,1.145-7.841a17.728,17.728,0,0,1,2.3,10.148c-.34,2.243-1.618,4.222-2.34,6.373-.992,2.957-.908,6.152-.813,9.269a3.112,3.112,0,0,1,.674-1.531" transform="translate(-309.757 -199.586)" fill="none" stroke="#f6864d" stroke-width="1"/><path d="M195.078,147.348a4.409,4.409,0,1,1-4.409-4.409,4.409,4.409,0,0,1,4.409,4.409" transform="translate(-121.019 -92.871)" fill="#91d028"/><path d="M178.167,135.154a4.409,4.409,0,1,1-4.409-4.409,4.409,4.409,0,0,1,4.409,4.409" transform="translate(-110.031 -84.949)" fill="#91d028"/><path d="M183.673,114.7a4.409,4.409,0,1,1-4.409-4.409,4.409,4.409,0,0,1,4.409,4.409" transform="translate(-113.609 -71.658)" fill="#91d028"/><path d="M206.881,113.52a4.409,4.409,0,1,1-4.409-4.409,4.409,4.409,0,0,1,4.409,4.409" transform="translate(-128.688 -70.892)" fill="#91d028"/><path d="M212.389,135.152a4.409,4.409,0,1,1-4.409-4.409,4.409,4.409,0,0,1,4.409,4.409" transform="translate(-132.266 -84.947)" fill="#91d028"/><path d="M193.9,128.073a4.409,4.409,0,1,1-4.409-4.409,4.409,4.409,0,0,1,4.409,4.409" transform="translate(-120.253 -80.348)" fill="#f6d23f"/><path d="M17.879,428.649a3.063,3.063,0,1,1-3.063-3.063,3.063,3.063,0,0,1,3.063,3.063" transform="translate(-7.636 -276.515)" fill="#f6d23f"/><path d="M6.127,420.175a3.063,3.063,0,1,1-3.063-3.064,3.063,3.063,0,0,1,3.063,3.064" transform="translate(0 -271.009)" fill="#f6d23f"/><path d="M9.953,405.961A3.063,3.063,0,1,1,6.889,402.9a3.063,3.063,0,0,1,3.064,3.061" transform="translate(-2.486 -261.773)" fill="#f6d23f"/><path d="M26.08,405.141a3.063,3.063,0,1,1-3.063-3.063,3.063,3.063,0,0,1,3.063,3.063" transform="translate(-12.964 -261.241)" fill="#f6d23f"/><path d="M29.908,420.173a3.063,3.063,0,1,1-3.063-3.063,3.063,3.063,0,0,1,3.063,3.063" transform="translate(-15.451 -271.008)" fill="#f6d23f"/><path d="M17.059,415.255A3.063,3.063,0,1,1,14,412.191a3.063,3.063,0,0,1,3.059,3.064" transform="translate(-7.103 -267.812)" fill="#ce541f"/><path d="M488.69,483.733a3.063,3.063,0,1,1-3.064-3.064,3.063,3.063,0,0,1,3.064,3.064" transform="translate(-313.534 -312.304)" fill="#f6d23f"/><path d="M476.938,475.258a3.063,3.063,0,1,1-3.063-3.064,3.063,3.063,0,0,1,3.063,3.064" transform="translate(-305.899 -306.797)" fill="#f6d23f"/><path d="M480.764,461.045a3.064,3.064,0,1,1-3.064-3.064,3.064,3.064,0,0,1,3.064,3.064" transform="translate(-308.385 -297.563)" fill="#f6d23f"/><path d="M496.891,460.225a3.063,3.063,0,1,1-3.063-3.063,3.063,3.063,0,0,1,3.063,3.063" transform="translate(-318.863 -297.03)" fill="#f6d23f"/><path d="M500.719,475.257a3.063,3.063,0,1,1-3.063-3.064,3.063,3.063,0,0,1,3.063,3.064" transform="translate(-321.35 -306.797)" fill="#f6d23f"/><path d="M487.87,470.338a3.063,3.063,0,1,1-3.063-3.063,3.063,3.063,0,0,1,3.063,3.063" transform="translate(-313.002 -303.601)" fill="#ce541f"/><path d="M252.48,276.456c-6.156.22-9.1,5.288-26.823,9.674-10.113,2.5-17.591-9.262-20.89-14.1s-18.026-2.1-25.5.135-8.135,2.311-11.213,17.262-7.461,19.269-12.312,24.844c-6.244,7.176-14.815,11.078-18.908,14.511-10.245,8.6-2.068,13.066,1.319,14.071,12.55,3.724,20.447,5.716,25.5,13.192,2.366,3.5,1.759,16.05.44,23.745-.125.73-.21,1.45-.274,2.162l-.321-.214c.668,4.056-1.615,7.936-3.591,11.541a2.749,2.749,0,0,0-.454,1.359c.03.985,1.052,1.627,2,1.908,2.49.741,5.16.249,7.71-.247,2.808-.546,5.864-1.257,7.944-3.078,7.33-3.827,16.494-15.135,27-20.027,11.818-5.5,22.974.278,30.932,2.6,2.577,1.446,5.957,2.088,9.1,2.6,3.257.525,6.667,1.046,9.847.261,1.206-.3,2.51-.978,2.549-2.021a2.6,2.6,0,0,0-.579-1.44c-2.172-3.286-3.082-6.429-4.086-10.292-1.063-7.5-5.339-18.982-6.866-27.978-1.979-11.653,8.727-31.211,12.972-43.313,3.8-10.824.66-17.369-5.5-17.149" transform="translate(-85.665 -175)" fill="#f08"/><path d="M288.36,474.725c-10.285,12.685-4.533,29.243-1.5,35.926,4.73-4.119,9.907-8.5,15.46-11.081,9.173-4.27,17.948-1.743,25.138.687,3.478-12.2.6-22.2-3.042-28.39-4.4-7.475-22.866-13.412-36.057,2.858" transform="translate(-183.546 -301.704)" fill="#e2769f"/><path d="M214.952,257.961a11.143,11.143,0,0,1,6.967-2.241,27.26,27.26,0,0,0-12.26,17.612,24.564,24.564,0,0,1,12.375-5.967,13.947,13.947,0,0,0,.637,14.808,18.511,18.511,0,0,1,6.831-12.6,36.553,36.553,0,0,0,10.117,12.06,20.214,20.214,0,0,1,3.024-18.9,14.437,14.437,0,0,0,13.319,6.223c-2.909-1.785-5.282-4.814-5.355-8.227s2.808-6.885,6.213-6.647a25.926,25.926,0,0,0-21.22-18.655l6.2,4.52a25.658,25.658,0,0,0-21.682,5.03l9.954.417a25.8,25.8,0,0,0-15.127,12.568" transform="translate(-136.221 -152.963)" fill="#e2769f"/><path d="M250.335,399.34a4.4,4.4,0,1,1-4.4-4.4,4.4,4.4,0,0,1,4.4,4.4" transform="translate(-156.936 -256.605)"/><path d="M255.416,401.41a1.759,1.759,0,1,1-1.759-1.759,1.759,1.759,0,0,1,1.759,1.759" transform="translate(-163.665 -259.664)" fill="#fff"/><path d="M367.085,352.263a4.4,4.4,0,1,1-4.4-4.4,4.4,4.4,0,0,1,4.4,4.4" transform="translate(-232.791 -226.018)"/><path d="M372.166,354.333a1.759,1.759,0,1,1-1.759-1.759,1.759,1.759,0,0,1,1.759,1.759" transform="translate(-239.521 -229.077)" fill="#fff"/><g transform="translate(83.629 149.108)" opacity="0.5"><g clip-path="url(#d)"><path d="M249.265,426.617c.227.976-1.938,2.313-4.836,2.986s-5.431.429-5.658-.547,1.938-2.313,4.836-2.986,5.43-.429,5.657.547" transform="translate(-238.755 -425.69)" fill="#f9d3e6"/></g></g><g transform="translate(129.141 131.629)" opacity="0.5"><g clip-path="url(#d)"><path d="M379.2,376.716c.227.976-1.938,2.313-4.836,2.986s-5.431.429-5.658-.547,1.938-2.313,4.836-2.986,5.43-.429,5.657.547" transform="translate(-368.686 -375.789)" fill="#f9d3e6"/></g></g><g transform="translate(106.514 142.024)"><g clip-path="url(#f)"><path d="M304.588,412.011a16.79,16.79,0,0,0,15.035-6.044" transform="translate(-304.413 -405.792)" fill="none" stroke="#754c24" stroke-linecap="round" stroke-miterlimit="10" stroke-width="1"/></g></g><g transform="translate(120.852 136.407)"><g clip-path="url(#g)"><path d="M345.908,389.93a5.173,5.173,0,0,0,7.384,6.477" transform="translate(-345.348 -389.755)" fill="none" stroke="#754c24" stroke-linecap="round" stroke-miterlimit="10" stroke-width="1"/></g></g></g></g></svg>