<svg xmlns="http://www.w3.org/2000/svg" width="953" height="666" viewBox="0 0 953 666"><g transform="translate(-391 -150)"><rect width="953" height="666" transform="translate(391 150)" fill="none"/><g transform="translate(391.05 295.999)"><path d="M389,25.293a80.234,80.234,0,0,0,2.682-12.727q.11-.665.227-1.33A26.347,26.347,0,0,0,395.2,13.5c.68.424,1.672,1.323,2.554,1.175a1.241,1.241,0,0,0,.391-.134.848.848,0,0,0,1.154-.434c.691-1.924,1.315-3.89,1.884-5.854a.734.734,0,0,0,.026-.218.557.557,0,0,0,0-1.03A50.362,50.362,0,0,0,395,5.342c-1.112-.255-2.621-.926-3.507.111-.932,1.09-1,3.505-1.246,4.856-.385,2.108-.694,4.229-1.054,6.341-.7,4.1-1.42,9.031-3.983,12.45a6.053,6.053,0,0,1-.884.932,3.214,3.214,0,0,0,.234-.831,3.653,3.653,0,0,0-3.593-4.222,4.032,4.032,0,0,0-3.767,4.859,4.549,4.549,0,0,0,6.027,3.138C386.4,31.808,388,28.26,389,25.293m7.759-17.718c-.134.239-.254.481-.375.723V8.171q.026-.265.034-.541V7.572h0v-.2c.145.038.278.072.4.1a1.026,1.026,0,0,0-.067.1m-4.533,1.948a.853.853,0,0,0,.325.181,4.82,4.82,0,0,0,.215.518.878.878,0,0,0,.074.121c-.231-.135-.462-.267-.7-.389q.042-.216.082-.431M382.37,29.44a1.947,1.947,0,0,0,.352-.492c-.029.524-.146.685-.352.492m-3.269.492a1.976,1.976,0,0,0,.3.083,2.943,2.943,0,0,0,.489.837,3,3,0,0,0,.487.45,2.287,2.287,0,0,1-1.273-1.37" transform="translate(-68.637 -0.891)" fill="#3c3c3b"/><path d="M163.043,125.886q2.7-8.772,5.4-17.547a.908.908,0,0,0-.527-1.156c-5.492-1.467-11.216-2.982-16.909-3.413-.029-.553-.923-.754-1.092-.161-1.381,4.824-2.394,9.751-3.664,14.605-.568,2.17-1.135,4.351-1.838,6.483a3.135,3.135,0,0,0-4.443-.879c-2.655,1.844-1.49,5.907,1.548,6.54,1.7.354,2.8-.675,3.488-2.114a45.088,45.088,0,0,0,2.518-7.864c.946-3.531,1.869-7.107,2.571-10.716,2.329.817,4.706,1.494,7.09,2.13,2.4.64,5.112,1.679,7.606,1.661a.842.842,0,0,0,.209-.034q-1.593,5.153-3.183,10.308c-.437,1.416-.769,3.143-1.312,4.7a4.144,4.144,0,0,0-4.157-1.48,3.527,3.527,0,0,0,.049,6.61c4.429,1.579,5.769-4.838,6.644-7.671" transform="translate(-25.208 -18.793)" fill="#3c3c3b"/><path d="M553.881,273.864c-1.935,7.5,4.82,12.565,10.555,16.545l1.851,6.137.189.629c-4,.6-7.888,4.259-9.2,7.674-2.047,5.325,1.442,10.841,6.882,12.014a9.866,9.866,0,0,0,7.778-1.695q1.365,4.335,2.83,8.639c-3.354-.861-6.427,3.421-3.629,6.1,3.177,3.043,8.07-2.217,5.189-5.322-.915-3.56-1.9-7.1-2.915-10.636a12.039,12.039,0,0,0,3.381-6.015c1.418-6.543-2.323-12.348-7.332-16.18-1.047-.8-2.232-1.6-3.46-2.416l-2.25-7.463c-.83-2.753-1.387-5.859-2.684-8.443-1.759-3.507-6.142-3.619-7.186.429m15.1,25.261a3.306,3.306,0,0,1,1.426.726,2.958,2.958,0,0,0-1.221-.056c-.068-.223-.136-.447-.2-.671m2.39,14.232a8.014,8.014,0,0,1-6.7,1.772c-5.721-1.144-7.858-7.293-4.463-11.876a10.628,10.628,0,0,1,6.752-4.209l.071-.008q.245.82.492,1.638a2.566,2.566,0,0,0,.52,4,3.344,3.344,0,0,0,.785.354q1.251,4.168,2.537,8.325m3.885-7.458a10.677,10.677,0,0,1-2.429,6.011q-1-3.432-2.043-6.855a3.157,3.157,0,0,0,2.234-2.108,4.607,4.607,0,0,0-2.649-5.26,6.391,6.391,0,0,0-2-.555q-.774-2.531-1.543-5.063c.383.27.753.535,1.106.8,4.221,3.12,7.671,7.5,7.321,13.033M559.91,275.413c.79,2.249,1.387,4.584,2.076,6.866l1.643,5.452c-4.14-2.89-8.063-6.3-8.194-11.462a6.239,6.239,0,0,1,.336-2.438c1.255-3.054,3.569-.038,4.138,1.581" transform="translate(-100.751 -49.291)" fill="#3c3c3b"/></g></g></svg>