<svg xmlns="http://www.w3.org/2000/svg" xmlns:xlink="http://www.w3.org/1999/xlink" width="100.487" height="93.145" viewBox="0 0 100.487 93.145"><defs><clipPath id="a"><rect width="98.906" height="91.432" fill="none"/></clipPath><clipPath id="c"><rect width="35.967" height="19.935" fill="none"/></clipPath><clipPath id="d"><rect width="35.966" height="19.935" fill="none"/></clipPath><clipPath id="e"><rect width="20.232" height="10.338" fill="none"/></clipPath><clipPath id="f"><rect width="20.232" height="10.337" fill="none"/></clipPath></defs><g transform="matrix(1, 0.017, -0.017, 1, 1.596, 0)"><g clip-path="url(#a)"><g clip-path="url(#a)"><path d="M139.88,121.047a5.88,5.88,0,0,1-2.876-.028,4.352,4.352,0,0,1-2.2-1.158l13.431-55.585,4.413,1.1Z" transform="translate(-75.715 -36.1)" fill="#dfbe93"/><path d="M169.871,65.262c-.159.558-1.453.679-2.889.27s-1.813-1.1-1.653-1.662.793-.771,2.229-.362,2.472,1.195,2.313,1.754" transform="translate(-92.839 -35.55)" fill="#ead3aa"/><path d="M149.667.723A22.914,22.914,0,1,1,121.78,17.23,22.915,22.915,0,0,1,149.667.723" transform="translate(-67.993 0)" fill="#ed1c24" fill-rule="evenodd"/><path d="M194.737,60.507a23.764,23.764,0,0,1-21.39-8.217A23.767,23.767,0,0,0,187.763,70.1a22.789,22.789,0,0,0,6.974-9.595" transform="translate(-97.361 -29.369)" fill="#fff" fill-rule="evenodd"/><path d="M191.161,19.4a23.771,23.771,0,0,1-17.815,14.418,23.763,23.763,0,0,0,22.638-3.581A23.014,23.014,0,0,0,191.161,19.4" transform="translate(-97.361 -10.895)" fill="#fff" fill-rule="evenodd"/><path d="M165.178.283a23.762,23.762,0,0,1,3.581,22.639,23.762,23.762,0,0,0,8.219-21.393,23.28,23.28,0,0,0-2.529-.8,22.822,22.822,0,0,0-9.271-.441" transform="translate(-92.773 -0.001)" fill="#fff" fill-rule="evenodd"/><path d="M124.549,21.247a23.763,23.763,0,0,1,21.39,8.219,23.757,23.757,0,0,0-14.418-17.813,22.8,22.8,0,0,0-6.973,9.594" transform="translate(-69.954 -6.545)" fill="#fff" fill-rule="evenodd"/><path d="M126.529,64.893a23.762,23.762,0,0,1,17.812-14.416,23.758,23.758,0,0,0-22.636,3.581,22.992,22.992,0,0,0,4.824,10.835" transform="translate(-68.356 -27.556)" fill="#fff" fill-rule="evenodd"/><path d="M166.121,74.927a23.766,23.766,0,0,1-3.582-22.637,23.771,23.771,0,0,0-8.218,21.391,23.314,23.314,0,0,0,2.529.8,22.831,22.831,0,0,0,9.271.442" transform="translate(-86.554 -29.369)" fill="#fff" fill-rule="evenodd"/><g transform="translate(60.729 1.841)" opacity="0.4"><g clip-path="url(#c)"><g clip-path="url(#d)"><path d="M138.542,9.784c4.632-2.337,27.7-9.321,35.967,14.351C174.367,10.659,157.945-4.1,138.542,9.784" transform="translate(-138.542 -4.2)" fill="#fff"/></g></g></g><path d="M45.961,155.287a3.224,3.224,0,0,1-1.225,1,2.384,2.384,0,0,1-1.334.281l-13.82-28.2,2.249-1.085Z" transform="translate(-16.614 -71.489)" fill="#dfbe93"/><path d="M32.026,127.374c.129.291-.376.8-1.126,1.127s-1.153.169-1.281-.123.064-.6.815-.935,1.464-.362,1.593-.07" transform="translate(-16.615 -71.428)" fill="#ead3aa"/><path d="M7.207,94.417a12.584,12.584,0,1,1-5.995,16.756A12.584,12.584,0,0,1,7.207,94.417" transform="translate(0 -52.35)" fill="#ed1c24" fill-rule="evenodd"/><path d="M40.637,112.728a13.05,13.05,0,0,1-11.921,4.03,13.051,13.051,0,0,0,12.338,2.471,12.512,12.512,0,0,0-.418-6.5" transform="translate(-16.129 -63.314)" fill="#fff" fill-rule="evenodd"/><path d="M31.186,93.768a13.053,13.053,0,0,1-2.471,12.341,13.049,13.049,0,0,0,8.311-9.453,12.636,12.636,0,0,0-5.839-2.888" transform="translate(-16.128 -52.665)" fill="#fff" fill-rule="evenodd"/><path d="M7.15,98.334a13.048,13.048,0,0,1,9.453,8.311,13.048,13.048,0,0,0-4.03-11.922,12.835,12.835,0,0,0-1.351.547A12.54,12.54,0,0,0,7.15,98.334" transform="translate(-4.016 -53.201)" fill="#fff" fill-rule="evenodd"/><path d="M.667,122.013a13.048,13.048,0,0,1,11.921-4.029,13.045,13.045,0,0,0-12.339-2.47,12.514,12.514,0,0,0,.419,6.5" transform="translate(-0.001 -64.54)" fill="#fff" fill-rule="evenodd"/><path d="M15.6,134.26a13.048,13.048,0,0,1,2.471-12.339,13.047,13.047,0,0,0-8.309,9.452A12.626,12.626,0,0,0,15.6,134.26" transform="translate(-5.481 -68.478)" fill="#fff" fill-rule="evenodd"/><path d="M37.906,130.231a13.051,13.051,0,0,1-9.453-8.31,13.053,13.053,0,0,0,4.03,11.921,12.79,12.79,0,0,0,1.351-.547,12.542,12.542,0,0,0,4.072-3.065" transform="translate(-15.865 -68.478)" fill="#fff" fill-rule="evenodd"/><g transform="translate(0.705 41.908)" opacity="0.4"><g clip-path="url(#e)"><g transform="translate(0)"><g clip-path="url(#f)"><path d="M1.61,105.944c1.138-2.612,8.435-13.654,20.231-6.55-4.787-5.645-16.9-6.121-20.231,6.55" transform="translate(-1.61 -95.606)" fill="#fff"/></g></g></g></g><path d="M149.421,76.3l.6.522a1.868,1.868,0,0,1,.192,2.627l-8.983,10.4a3.427,3.427,0,0,1-.566,3.542l-1.817,2.1a3.425,3.425,0,0,1-4.817.353l-1.109-.957a3.426,3.426,0,0,1-.353-4.817l1.818-2.1A3.426,3.426,0,0,1,137.81,86.9l8.983-10.4a1.868,1.868,0,0,1,2.627-.192" transform="translate(-73.995 -42.602)" fill="#49d1cc" fill-rule="evenodd"/><path d="M90.571,93.6A12.2,12.2,0,1,1,92.4,110.758,12.2,12.2,0,0,1,90.571,93.6" transform="translate(-49.348 -50.023)" fill="#ffd494" fill-rule="evenodd"/><path d="M88.545,91.764a13.2,13.2,0,0,1,23.447,9.048c-.059,1.051-2.018,1.036-3.935-1.425-1.874-2.405-3.257-5.652-4.35-4.3-4.58,5.671-8.027-.846-9.964-.4-2.828.65-4.1,4.365-5.644,5.484-1.413,1.027-2.664.081-2.338-2.087a13.133,13.133,0,0,1,2.785-6.32" transform="translate(-48.138 -48.785)" fill="#8a321f" fill-rule="evenodd"/><path d="M123.723,120.883a12.2,12.2,0,1,1-7.186,15.689,12.2,12.2,0,0,1,7.186-15.689" transform="translate(-65.022 -67.464)" fill="#f24660" fill-rule="evenodd"/><path d="M124.819,118.683a13.2,13.2,0,0,1,15.547,19.746c-.587.873-2.263-.14-2.657-3.234-.384-3.025.083-6.523-1.546-5.918-6.833,2.539-6.473-4.824-8.366-5.429-2.764-.884-5.756,1.66-7.652,1.837-1.74.163-2.333-1.289-.946-2.988a13.141,13.141,0,0,1,5.62-4.014" transform="translate(-66.517 -66.192)" fill="#8a321f" fill-rule="evenodd"/><path d="M66.36,125.82a12.2,12.2,0,1,1,3.813,16.83,12.2,12.2,0,0,1-3.813-16.83" transform="translate(-36.214 -67.469)" fill="#fff" fill-rule="evenodd"/><path d="M64.157,124.091A13.2,13.2,0,0,1,88.5,130.343c.064,1.051-1.884,1.265-4.075-.956-2.141-2.169-3.894-5.233-4.821-3.763-3.888,6.166-8.071.1-9.943.764-2.734.976-3.567,4.813-4.966,6.1-1.284,1.185-2.637.391-2.566-1.8a13.133,13.133,0,0,1,2.029-6.6" transform="translate(-34.893 -66.236)" fill="#8a321f" fill-rule="evenodd"/><path d="M72.979,180.46h30.734l7.715-21.95H65.264Z" transform="translate(-36.656 -89.028)" fill="#49d1cc" fill-rule="evenodd"/></g></g></g></svg>