<svg xmlns="http://www.w3.org/2000/svg" xmlns:xlink="http://www.w3.org/1999/xlink" width="104.578" height="106.461" viewBox="0 0 104.578 106.461"><defs><clipPath id="a"><rect width="104.578" height="106.461" fill="none"/></clipPath><clipPath id="c"><rect width="21.193" height="17.504" fill="none"/></clipPath><clipPath id="e"><rect width="5.049" height="2.06" fill="none"/></clipPath><clipPath id="g"><rect width="5.05" height="2.06" fill="none"/></clipPath><clipPath id="i"><rect width="7.38" height="3.132" fill="none"/></clipPath><clipPath id="k"><rect width="3.895" height="3.602" fill="none"/></clipPath></defs><g clip-path="url(#a)"><line x1="1.257" y2="33.987" transform="translate(82.184 17.504)" fill="none" stroke="#f6864d" stroke-width="1"/><g clip-path="url(#a)"><g transform="translate(72.504)" style="mix-blend-mode:multiply;isolation:isolate"><g clip-path="url(#c)"><g transform="translate(0 0)"><g clip-path="url(#c)"><path d="M446.971,0a5.551,5.551,0,0,0-4.951,3.382A5.553,5.553,0,0,0,431.8,7.662c1.287,5.881,10.495,9.857,10.633,9.842.138.007,9.1-4.494,10.047-10.439A5.557,5.557,0,0,0,446.971,0" transform="translate(-431.491 0)" fill="#ee778a"/></g></g></g></g><path d="M487.8,99.681a2.571,2.571,0,0,1-.862,2.168s.921-.111,1.164-.454a2.975,2.975,0,0,0,.487.868,3.464,3.464,0,0,0,.395-.894,2.043,2.043,0,0,0,1.109.556,2.438,2.438,0,0,1-.577-2.5Z" transform="translate(-405.119 -82.715)" fill="#ee778a"/><path d="M493.118,101.132a1.935,1.935,0,0,0-1.626.169c-.218-.6.413-.493.816-.528.309-.027.906-.2,1.051.216-.019.031-.061.107-.081.132-.071,0-.1.036-.159.054" transform="translate(-408.869 -83.791)" fill="#f6864d"/><path d="M471.214,101.482c-1.063-.105-2.352-.3-3.154.591-.181.2-.315.626-.1.849.34.348.834.413,1.146.825a1.626,1.626,0,0,1-.889,2.488c-.748.221-1.327-.663-1.171-1.309a.874.874,0,0,1,.507-.546,1.073,1.073,0,0,1,.455-.118c.534-.024.3.623-.079.721a.084.084,0,0,0,.045.162c.385-.1.889-.632.363-.952a1.1,1.1,0,0,0-1.263.328,1.194,1.194,0,0,0,1.494,1.765,1.793,1.793,0,0,0,.616-2.713,2.016,2.016,0,0,0-.692-.515c-.173-.083-.381-.155-.46-.349-.1-.237.137-.52.286-.661.758-.71,1.967-.491,2.895-.4.108.011.107-.157,0-.168" transform="translate(-388.398 -84.352)" fill="#f6864d"/><path d="M497.687,101.21c.951.028,3.155-.022,3.194,1.393.014.5-.506.933-.819,1.26a3.709,3.709,0,0,0-.644.914,2.326,2.326,0,0,0-.242,1.833,1.362,1.362,0,0,0,1.472.726c1.128-.183,2.026-2.155.532-2.492-1-.225-1.414,1.458-.418,1.408a.945.945,0,0,0,.242-.056c.1-.033.059-.2-.045-.162-.624.2-.776-.448-.42-.851a.72.72,0,0,1,.835-.1.75.75,0,0,1,.422.872,1.6,1.6,0,0,1-1.333,1.237,1.138,1.138,0,0,1-1.215-1.291,3.156,3.156,0,0,1,.722-1.689c.387-.474.937-.854,1.066-1.487.116-.574-.379-1.028-.826-1.278a5.493,5.493,0,0,0-2.524-.4.084.084,0,0,0,0,.168" transform="translate(-413.993 -84.064)" fill="#f6864d"/><path d="M476.55,86.083A5.292,5.292,0,0,0,474.6,83.8c-.322-.225-1.478-1.054-1.829-.466-.425.712.523,1.355,1.009,1.691a6.729,6.729,0,0,0,2.559,1.224c.106.016.151-.146.044-.162a5.921,5.921,0,0,1-1.937-.842c-.537-.309-1.621-.865-1.6-1.6.023-.838,1.46.149,1.733.339a4.991,4.991,0,0,1,1.812,2.142c.039.1.2.056.162-.045" transform="translate(-393.24 -69.156)" fill="#f6864d"/><path d="M494.642,83.526a4.355,4.355,0,0,0,.625-1.4,6.2,6.2,0,0,1,.565-.96,3.282,3.282,0,0,1,1.011-1.022.6.6,0,0,1,.926.4c.058.7-.993,1.413-1.466,1.775-.53.406-1.1.755-1.65,1.126-.089.06-.006.206.085.145.68-.457,1.371-.889,2.008-1.408.466-.38,1.412-1.13,1.148-1.846-.327-.889-1.325-.276-1.732.151a6.149,6.149,0,0,0-.874,1.233c-.3.524-.347,1.259-.764,1.686-.076.077.043.2.119.119" transform="translate(-411.408 -66.459)" fill="#f6864d"/><line x2="7.127" y2="18.761" transform="translate(75.283 32.667)" fill="none" stroke="#f6864d" stroke-width="1"/><path d="M388.452,109.852a4.306,4.306,0,0,0-2.54,3.9,4.308,4.308,0,0,0-6.053,6.109c2.673,3.83,10.454,3.938,10.548,3.887.1-.036,5.183-5.929,4.091-10.47a4.311,4.311,0,0,0-6.046-3.422" transform="translate(-315.123 -91.078)" fill="#8cc63f"/><path d="M443.846,190.008a2,2,0,0,1,.028,1.81s.627-.354.7-.672a2.313,2.313,0,0,0,.608.477,2.685,2.685,0,0,0,.016-.758,1.585,1.585,0,0,0,.96.069A1.892,1.892,0,0,1,445,189.311Z" transform="translate(-369.266 -157.501)" fill="#8cc63f"/><path d="M445.1,190.927a1.5,1.5,0,0,0-1.115.605c-.335-.365.149-.476.428-.621.214-.112.59-.412.818-.158,0,.028-.012.1-.019.119-.051.023-.06.056-.1.086" transform="translate(-369.29 -158.618)" fill="#f6864d"/><path d="M434.117,193.777a3.265,3.265,0,0,0-1.991,1.131.758.758,0,0,0-.1.706c.122.242.343.26.592.272a1.246,1.246,0,0,1,1.11,1.767.816.816,0,0,1-1.337.3.688.688,0,0,1-.171-.754.979.979,0,0,1,.189-.26l.067-.063q.313-.306.325.391c-.085.065,0,.211.085.145.22-.169.477-.6.1-.779a.679.679,0,0,0-.826.341c-.529.792.416,1.644,1.213,1.3.878-.374.749-1.653.18-2.2a1.343,1.343,0,0,0-.517-.291c-.312-.1-.831.07-.89-.412-.051-.409.476-.805.778-.979a5.881,5.881,0,0,1,1.237-.448c.1-.031.059-.194-.045-.162" transform="translate(-359.389 -161.213)" fill="#f6864d"/><path d="M447.96,189.4c.651-.249,2.608-1.04,2.728.243a3.312,3.312,0,0,1-.349,1.2,2.741,2.741,0,0,0-.1.9,1.369,1.369,0,0,0,.626,1.239,1.1,1.1,0,0,0,1.312-.338,1.4,1.4,0,0,0,.223-1.326.759.759,0,0,0-1-.359c-.752.339-.284,1.61.436,1.005.083-.07-.036-.188-.119-.119-.442.371-.7-.27-.435-.606a.633.633,0,0,1,.729-.107.654.654,0,0,1,.3.614,1.158,1.158,0,0,1-.7,1.108c-.625.21-1.045-.218-1.17-.785a2.578,2.578,0,0,1,.124-1.395c.143-.4.457-.978.195-1.395-.612-.973-2.05-.356-2.852-.05-.1.038-.057.2.045.162" transform="translate(-372.604 -157.044)" fill="#f6864d"/><path d="M428.837,186.271a4.207,4.207,0,0,0-2.195-1.079c-.347-.069-1.273-.264-1.364.273-.107.631.845.824,1.263.912a5.264,5.264,0,0,0,2.2.109c.105-.026.06-.188-.045-.162a4.567,4.567,0,0,1-1.567-.021c-.479-.058-1.473-.135-1.666-.675-.2-.568,1.126-.279,1.352-.229a3.888,3.888,0,0,1,1.9.99c.076.077.195-.042.119-.119" transform="translate(-353.811 -153.998)" fill="#f6864d"/><path d="M445.669,175.812a3.823,3.823,0,0,0,.031-1.207,4.813,4.813,0,0,1,.126-.869,2.873,2.873,0,0,1,.338-.892c.176-.286.6-.447.815-.1.281.463-.307,1.343-.528,1.725-.256.443-.555.857-.838,1.283-.06.091.085.175.145.085a17.809,17.809,0,0,0,1.088-1.74c.21-.412.613-1.222.138-1.6-.52-.412-.969.2-1.147.628a4.343,4.343,0,0,0-.272,1.13,7.2,7.2,0,0,1-.057,1.512c-.037.1.126.146.162.045" transform="translate(-370.644 -143.399)" fill="#f6864d"/><line x1="10.536" y2="17.082" transform="translate(81.947 34.43)" fill="none" stroke="#f6864d" stroke-width="1"/><path d="M542.345,124.411a4.308,4.308,0,0,0-4.638.36,4.308,4.308,0,0,0-8.532-1.078c-1.409,4.453,3.246,10.689,3.344,10.732.091.058,7.86.5,10.8-3.134a4.312,4.312,0,0,0-.97-6.879" transform="translate(-440.037 -99.995)" fill="#f6cb21"/><path d="M541.576,201s-.5,1.064-1.419,1.125c0,0,.663.282.958.145a2.313,2.313,0,0,0-.008.773,2.692,2.692,0,0,0,.611-.449,1.585,1.585,0,0,0,.53.8,1.892,1.892,0,0,1,.581-1.908Z" transform="translate(-449.394 -167.227)" fill="#f6b881"/><path d="M548.264,202.253a1.5,1.5,0,0,0-1.159-.515c.085-.488.468-.172.753-.039.219.1.686.217.624.552-.025.014-.083.048-.106.057-.049-.026-.081-.014-.128-.025" transform="translate(-455.174 -167.621)" fill="#f6864d"/><path d="M526.486,197.476a3.072,3.072,0,0,0-2.2-.869.688.688,0,0,0-.565.441c-.077.281.226.556.343.78.5.959-.8,2.305-1.7,1.522a.808.808,0,0,1,.093-1.218.777.777,0,0,1,.581-.068c.47.084.377.63-.116.494a.084.084,0,0,0-.045.162c.327.09.652,0,.671-.378s-.465-.459-.728-.468c-.889-.033-1.1,1.142-.51,1.653.755.656,1.942-.2,2.02-1.042a1.32,1.32,0,0,0-.08-.642c-.152-.354-.631-.839-.015-1.051.782-.269,1.586.412,2.169.83.088.063.172-.083.085-.145" transform="translate(-434.268 -163.556)" fill="#f6864d"/><path d="M546.686,203.365c.635.39,2.129,1.2,1.594,2.162-.181.325-.7.413-1.023.508a2.97,2.97,0,0,0-.869.424c-.4.273-.895.784-.8,1.318a1.115,1.115,0,0,0,1.077.91c.875.032,1.846-1.032.845-1.653-.661-.41-1.442.758-.52.97.105.024.15-.138.045-.162-.658-.151-.108-.885.391-.663.666.3.246.987-.2,1.212a1.026,1.026,0,0,1-1.39-.384c-.381-.61.381-1.247.826-1.532.607-.387,1.718-.327,1.876-1.2.175-.969-1.118-1.658-1.771-2.059-.093-.057-.177.088-.085.145" transform="translate(-453.904 -169.062)" fill="#f6864d"/><path d="M542.333,185.657a4.235,4.235,0,0,0-.473-2.4c-.162-.334-.557-1.164-1.055-.93-.565.266-.142,1.156.027,1.518a5.274,5.274,0,0,0,1.262,1.841c.084.067.2-.051.119-.119a4.46,4.46,0,0,1-.914-1.209c-.257-.427-.713-1.12-.587-1.647.194-.813.93.48,1.037.7a3.938,3.938,0,0,1,.421,2.2c-.014.106.148.152.162.045" transform="translate(-449.697 -151.66)" fill="#f6864d"/><path d="M550.09,195.049a3.326,3.326,0,0,0,.945-.686,4.544,4.544,0,0,1,.747-.43,2.506,2.506,0,0,1,1.119-.3.431.431,0,0,1,.358.691c-.349.412-1.161.47-1.655.532s-.987.077-1.481.111c-.107.007-.108.176,0,.168.638-.044,1.274-.069,1.906-.172.48-.078,1.306-.208,1.483-.755.225-.692-.682-.784-1.114-.681a4.4,4.4,0,0,0-1.146.5c-.419.242-.753.724-1.208.864-.1.032-.059.194.045.162" transform="translate(-457.571 -160.976)" fill="#f6864d"/><path d="M488.344,302.113a2.129,2.129,0,0,1,.55,1.523q.124,1.5.249,3a33.383,33.383,0,0,1,.16,5.2,24.756,24.756,0,0,1-.6,3.69" transform="translate(-406.287 -251.349)" fill="none" stroke="#f6864d" stroke-width="1"/><path d="M476.749,317.979a1.076,1.076,0,0,0,.646-.491,4.162,4.162,0,0,0,.526-1.99q.2-2.274.356-4.553c.055-.818-.222-3.353.549-3.761a8.5,8.5,0,0,1,1.106,4.868,18.918,18.918,0,0,1-1.122,3.057,12.72,12.72,0,0,0-.39,4.446,1.493,1.493,0,0,1,.323-.734" transform="translate(-396.641 -255.568)" fill="none" stroke="#f6864d" stroke-width="1"/><path d="M190.491,145.054a2.115,2.115,0,1,1-2.115-2.115,2.115,2.115,0,0,1,2.115,2.115" transform="translate(-154.963 -118.921)" fill="#91d028"/><path d="M173.58,132.86a2.115,2.115,0,1,1-2.115-2.115,2.115,2.115,0,0,1,2.115,2.115" transform="translate(-140.894 -108.776)" fill="#91d028"/><path d="M179.086,112.4a2.115,2.115,0,1,1-2.115-2.115,2.115,2.115,0,0,1,2.115,2.115" transform="translate(-145.475 -91.758)" fill="#91d028"/><path d="M202.294,111.226a2.115,2.115,0,1,1-2.115-2.115,2.115,2.115,0,0,1,2.115,2.115" transform="translate(-164.783 -90.777)" fill="#91d028"/><path d="M207.8,132.858a2.115,2.115,0,1,1-2.115-2.115,2.115,2.115,0,0,1,2.115,2.115" transform="translate(-169.366 -108.774)" fill="#91d028"/><path d="M189.312,125.779a2.115,2.115,0,1,1-2.115-2.115,2.115,2.115,0,0,1,2.115,2.115" transform="translate(-153.983 -102.885)" fill="#f6d23f"/><path d="M14.691,427.056a1.47,1.47,0,1,1-1.47-1.47,1.47,1.47,0,0,1,1.47,1.47" transform="translate(-9.777 -354.074)" fill="#f6d23f"/><path d="M2.939,418.581a1.47,1.47,0,1,1-1.47-1.47,1.47,1.47,0,0,1,1.47,1.47" transform="translate(0 -347.024)" fill="#f6d23f"/><path d="M6.765,404.367A1.47,1.47,0,1,1,5.3,402.9a1.47,1.47,0,0,1,1.47,1.47" transform="translate(-3.183 -335.198)" fill="#f6d23f"/><path d="M22.892,403.548a1.47,1.47,0,1,1-1.47-1.47,1.47,1.47,0,0,1,1.47,1.47" transform="translate(-16.6 -334.517)" fill="#f6d23f"/><path d="M26.72,418.58a1.47,1.47,0,1,1-1.47-1.47,1.47,1.47,0,0,1,1.47,1.47" transform="translate(-19.785 -347.023)" fill="#f6d23f"/><path d="M13.871,413.661a1.47,1.47,0,1,1-1.47-1.47,1.469,1.469,0,0,1,1.47,1.47" transform="translate(-9.095 -342.93)" fill="#ce541f"/><path d="M485.5,482.139a1.47,1.47,0,1,1-1.47-1.47,1.47,1.47,0,0,1,1.47,1.47" transform="translate(-401.478 -399.902)" fill="#f6d23f"/><path d="M473.75,473.664a1.47,1.47,0,1,1-1.47-1.47,1.47,1.47,0,0,1,1.47,1.47" transform="translate(-391.7 -392.851)" fill="#f6d23f"/><path d="M477.576,459.451a1.47,1.47,0,1,1-1.47-1.47,1.47,1.47,0,0,1,1.47,1.47" transform="translate(-394.883 -381.026)" fill="#f6d23f"/><path d="M493.7,458.631a1.47,1.47,0,1,1-1.47-1.47,1.47,1.47,0,0,1,1.47,1.47" transform="translate(-408.301 -380.344)" fill="#f6d23f"/><path d="M497.531,473.663a1.47,1.47,0,1,1-1.47-1.47,1.469,1.469,0,0,1,1.47,1.47" transform="translate(-411.485 -392.85)" fill="#f6d23f"/><path d="M484.682,468.744a1.47,1.47,0,1,1-1.47-1.47,1.469,1.469,0,0,1,1.47,1.47" transform="translate(-400.795 -388.758)" fill="#ce541f"/><path d="M189.717,272.756c-2.953.106-4.367,2.537-12.867,4.641-4.852,1.2-8.439-4.443-10.021-6.763s-8.647-1.009-12.233.065-3.9,1.109-5.379,8.281-3.579,9.243-5.906,11.918c-3,3.443-7.107,5.314-9.07,6.961-4.915,4.123-.992,6.268.633,6.75,6.02,1.787,9.809,2.742,12.235,6.328,1.135,1.678.844,7.7.211,11.391-.06.35-.1.7-.131,1.037l-.154-.1c.32,1.946-.775,3.807-1.723,5.536a1.319,1.319,0,0,0-.218.652c.015.472.5.78.957.915a7.821,7.821,0,0,0,3.7-.118,8.123,8.123,0,0,0,3.811-1.476c3.516-1.836,7.912-7.26,12.954-9.607,5.669-2.639,11.021.133,14.839,1.246a13.618,13.618,0,0,0,4.364,1.245,11.986,11.986,0,0,0,4.724.125c.579-.143,1.2-.469,1.223-.97a1.245,1.245,0,0,0-.278-.691,15.219,15.219,0,0,1-1.96-4.937c-.51-3.6-2.561-9.106-3.294-13.421-.949-5.59,4.186-14.972,6.223-20.778,1.821-5.193.316-8.332-2.637-8.227" transform="translate(-109.693 -224.086)" fill="#f08"/><path d="M285.31,469.33c-4.934,6.085-2.175,14.028-.719,17.234a33.668,33.668,0,0,1,7.416-5.316c4.4-2.048,8.61-.836,12.059.33a17.293,17.293,0,0,0-1.459-13.619c-2.109-3.586-10.969-6.434-17.3,1.371" transform="translate(-235.029 -386.329)" fill="#e2769f"/><path d="M212.2,246.237a5.345,5.345,0,0,1,3.342-1.075,13.077,13.077,0,0,0-5.881,8.449,11.784,11.784,0,0,1,5.937-2.862,6.691,6.691,0,0,0,.305,7.1,8.88,8.88,0,0,1,3.277-6.043,17.535,17.535,0,0,0,4.853,5.785,9.7,9.7,0,0,1,1.45-9.065,6.925,6.925,0,0,0,6.39,2.985,5.012,5.012,0,0,1-2.569-3.947,3.082,3.082,0,0,1,2.981-3.189,12.437,12.437,0,0,0-10.177-8.952l2.975,2.168a12.309,12.309,0,0,0-10.4,2.413l4.775.2a12.378,12.378,0,0,0-7.257,6.029" transform="translate(-174.429 -195.868)" fill="#e2769f"/><path d="M245.76,397.052a2.109,2.109,0,1,1-2.109-2.109,2.109,2.109,0,0,1,2.109,2.109" transform="translate(-200.955 -328.58)"/><path d="M253.585,400.495a.844.844,0,1,1-.844-.844.844.844,0,0,1,.844.844" transform="translate(-209.571 -332.497)" fill="#fff"/><path d="M362.509,349.975a2.109,2.109,0,1,1-2.109-2.109,2.11,2.11,0,0,1,2.109,2.109" transform="translate(-298.086 -289.414)"/><path d="M370.336,353.418a.844.844,0,1,1-.844-.844.844.844,0,0,1,.844.844" transform="translate(-306.704 -293.331)" fill="#fff"/><g transform="translate(40.118 71.529)" opacity="0.5" style="mix-blend-mode:hard-light;isolation:isolate"><g clip-path="url(#e)"><g clip-path="url(#e)"><path d="M243.8,426.134c.109.468-.93,1.11-2.32,1.433s-2.605.206-2.714-.262.93-1.109,2.32-1.433,2.6-.206,2.714.262" transform="translate(-238.755 -425.689)" fill="#f9d3e6"/></g></g></g><g transform="translate(61.951 63.144)" opacity="0.5" style="mix-blend-mode:hard-light;isolation:isolate"><g clip-path="url(#g)"><g clip-path="url(#g)"><path d="M373.728,376.233c.109.468-.93,1.11-2.32,1.433s-2.605.206-2.714-.262.93-1.109,2.32-1.433,2.6-.206,2.714.262" transform="translate(-368.687 -375.788)" fill="#f9d3e6"/></g></g></g><g transform="translate(51.096 68.131)" style="mix-blend-mode:multiply;isolation:isolate"><g clip-path="url(#i)"><g clip-path="url(#i)"><path d="M304.588,408.867a8.054,8.054,0,0,0,7.212-2.9" transform="translate(-304.504 -405.883)" fill="none" stroke="#754c24" stroke-linecap="round" stroke-miterlimit="10" stroke-width="1"/></g></g></g><g transform="translate(57.974 65.436)" style="mix-blend-mode:multiply;isolation:isolate"><g clip-path="url(#k)"><g clip-path="url(#k)"><path d="M345.708,389.93a2.482,2.482,0,0,0,3.542,3.107" transform="translate(-345.439 -389.846)" fill="none" stroke="#754c24" stroke-linecap="round" stroke-miterlimit="10" stroke-width="1"/></g></g></g></g></g></svg>