<svg xmlns="http://www.w3.org/2000/svg" xmlns:xlink="http://www.w3.org/1999/xlink" width="124.584" height="119.036" viewBox="0 0 124.584 119.036"><defs><clipPath id="a"><rect width="124.584" height="119.036" fill="none"/></clipPath><clipPath id="c"><rect width="29.971" height="29.819" fill="none"/></clipPath><clipPath id="e"><rect width="6.78" height="2.766" fill="none"/></clipPath></defs><g clip-path="url(#a)"><g clip-path="url(#a)"><path d="M124.332,152.86c3.125-3.591,5.948-6.373,7.93-16s2.407-24.19,7.222-25.632,7.081.566,9.205,3.682,9.063,21.667,20.676,19.826,13.312-6.089,17.277-6.231,5.986,4.074,3.54,11.046c-2.734,7.8-9.63,20.392-8.355,27.9s5.523,17.7,4.39,21.525-3.136,5.291-9.63,3.824c-5.168-1.168-12.887-5.806-21.1-1.983s-15.153,13.736-20.251,13.736-6.373-4.532-5.523-9.488,1.241-13.041-.283-15.294c-3.257-4.815-8.344-6.1-16.427-8.5-2.182-.647-7.449-3.527-.85-9.063,2.636-2.211,8.157-4.724,12.179-9.347" transform="translate(-85.641 -87.061)" fill="#ffa600"/><g transform="translate(57.29 80.857)" opacity="0.2"><g clip-path="url(#c)"><g clip-path="url(#c)"><path d="M271.625,384.71c-6.624,8.17-2.92,18.835-.965,23.14,3.047-2.653,6.381-5.473,9.958-7.138,5.908-2.75,11.56-1.122,16.191.443a23.219,23.219,0,0,0-1.959-18.286c-2.832-4.815-14.728-8.638-23.225,1.841" transform="translate(-267.849 -378.031)" fill="#fff"/></g></g></g><path d="M232.574,300.861a2.832,2.832,0,1,1-2.832-2.832,2.832,2.832,0,0,1,2.832,2.832" transform="translate(-178.375 -234.283)"/><path d="M240.1,304.127a1.133,1.133,0,1,1-1.133-1.133,1.133,1.133,0,0,1,1.133,1.133" transform="translate(-186.964 -238.186)" fill="#fff"/><path d="M355.723,251.2a2.832,2.832,0,1,1-2.832-2.832,2.832,2.832,0,0,1,2.832,2.832" transform="translate(-275.184 -195.248)"/><path d="M363.249,254.471a1.133,1.133,0,1,1-1.133-1.133,1.133,1.133,0,0,1,1.133,1.133" transform="translate(-283.772 -199.151)" fill="#fff"/><path d="M267.991,301.552s-.779-3.753,2.478-4.461,6.231.071,9.134-3.611a4.418,4.418,0,0,1,5.24-2.408s3.885,1.558,1.558,8.676c-.566,1.733-5.381,6.619-12.958,6.123,0,0-4.39-.212-5.452-4.319" transform="translate(-210.606 -228.672)" fill="#611417"/><path d="M274.948,332.795a6.766,6.766,0,0,0,4.028,1.787c7.152.468,11.841-3.858,12.821-5.8-8.018-3.763-14.151,1.137-16.849,4.015" transform="translate(-216.139 -257.383)" fill="#ed1c24"/><g transform="translate(47.905 70.683)" style="mix-blend-mode:color;isolation:isolate"><g clip-path="url(#e)"><g transform="translate(0)"><g clip-path="url(#e)"><path d="M230.74,331.059c.146.628-1.248,1.49-3.115,1.924s-3.5.276-3.644-.352,1.248-1.49,3.115-1.924,3.5-.276,3.644.352" transform="translate(-223.971 -330.461)" fill="#f86879"/></g></g></g></g><g transform="translate(77.22 59.424)" style="mix-blend-mode:color;isolation:isolate"><g clip-path="url(#e)"><g transform="translate(0)"><g clip-path="url(#e)"><path d="M367.792,278.423c.146.628-1.249,1.49-3.115,1.924s-3.5.276-3.644-.352,1.248-1.49,3.115-1.924,3.5-.276,3.644.352" transform="translate(-361.023 -277.826)" fill="#f86879"/></g></g></g></g><path d="M194.686,510.8c.43,2.613-1.04,5.112-2.313,7.434a1.769,1.769,0,0,0-.292.876c.019.634.677,1.048,1.285,1.229a10.5,10.5,0,0,0,4.966-.159c2.244-.436,4.734-1.033,5.964-2.96" transform="translate(-150.997 -401.542)" fill="#ffa600"/><path d="M423.758,454.249c.8,3.084,1.329,5.415,2.954,7.875a1.671,1.671,0,0,1,.373.928c-.025.672-.865,1.11-1.642,1.3a16.089,16.089,0,0,1-6.342-.168c-2.866-.462-6.046-1.095-7.618-3.135" transform="translate(-323.47 -357.089)" fill="#ffa600"/><path d="M290,107.916a4,4,0,0,0,1.2-.593,1.477,1.477,0,0,0,.6-1.148c-.028-.888-1.034-1.379-1.9-1.573a12.146,12.146,0,0,0-6.84.463,1.44,1.44,0,0,0-.434.224,1.532,1.532,0,0,0-.31.411l-1.364,2.31c-.256.434-.5,1.024-.162,1.4a1.189,1.189,0,0,0,.988.234A31.474,31.474,0,0,0,290,107.916" transform="translate(-220.598 -82.001)" fill="#ce5121"/><path d="M226.32,66.682c-10.9,1.088-2.556,15.027-2.556,15.027,8.317,3.174,12.042-2.541,12.042-2.541.886-4.084,1.412-13.574-9.486-12.485m5.759,14.151a4.4,4.4,0,0,1-4.445.544l-.617-2.3s3.137.363,5.062-.786Z" transform="translate(-173.504 -52.351)" fill="#f15a24"/><path d="M380.215,10.227a20.986,20.986,0,0,0,.7-3.328q.029-.174.059-.348a6.892,6.892,0,0,0,.86.591c.178.111.437.346.668.307a.325.325,0,0,0,.1-.035.222.222,0,0,0,.3-.113c.181-.5.344-1.017.493-1.531a.192.192,0,0,0,.007-.057.146.146,0,0,0,0-.269,13.168,13.168,0,0,0-1.622-.435c-.291-.067-.685-.242-.917.029a3.045,3.045,0,0,0-.326,1.27c-.1.551-.182,1.106-.276,1.658a7.6,7.6,0,0,1-1.041,3.255,1.583,1.583,0,0,1-.231.244.842.842,0,0,0,.061-.217.955.955,0,0,0-.94-1.1,1.054,1.054,0,0,0-.985,1.271,1.19,1.19,0,0,0,1.576.82,3,3,0,0,0,1.509-2.009m2.029-4.633c-.035.062-.066.126-.1.189,0-.011,0-.022,0-.033q.007-.069.009-.141c0-.005,0-.01,0-.015h0c0-.017,0-.034,0-.051l.1.026a.266.266,0,0,0-.018.026m-1.185.509a.223.223,0,0,0,.085.047,1.273,1.273,0,0,0,.056.135.226.226,0,0,0,.019.032c-.06-.035-.121-.07-.182-.1l.021-.113m-2.574,5.207a.509.509,0,0,0,.092-.129c-.007.137-.038.179-.092.129m-.855.129a.515.515,0,0,0,.078.022.769.769,0,0,0,.128.219.783.783,0,0,0,.127.118.6.6,0,0,1-.333-.358" transform="translate(-296.445 -3.846)" fill="#3c3c3b"/><path d="M144.914,109.169q.707-2.294,1.413-4.588a.237.237,0,0,0-.138-.3,24.6,24.6,0,0,0-4.421-.892c-.007-.145-.241-.2-.286-.042-.361,1.261-.626,2.55-.958,3.819-.149.567-.3,1.138-.481,1.7a.82.82,0,0,0-1.162-.23.962.962,0,0,0,.4,1.71.806.806,0,0,0,.912-.553,11.792,11.792,0,0,0,.658-2.056c.247-.923.489-1.858.672-2.8.609.214,1.231.391,1.854.557a7.994,7.994,0,0,0,1.989.434.22.22,0,0,0,.055-.009q-.416,1.348-.832,2.7c-.114.37-.2.822-.343,1.229a1.084,1.084,0,0,0-1.087-.387.922.922,0,0,0,.013,1.728c1.158.413,1.509-1.265,1.737-2.006" transform="translate(-108.872 -81.166)" fill="#3c3c3b"/><path d="M483.126,99.192q-.51-2.346-1.022-4.691a.237.237,0,0,0-.268-.2,24.617,24.617,0,0,0-4.29,1.393c-.077-.122-.307-.053-.269.1.3,1.276.706,2.529,1.04,3.8.149.567.3,1.137.414,1.713a.82.82,0,0,0-1.125.37.962.962,0,0,0,1.192,1.291.806.806,0,0,0,.523-.93,11.819,11.819,0,0,0-.436-2.115c-.238-.926-.487-1.859-.79-2.771.635-.113,1.264-.264,1.889-.425a8,8,0,0,0,1.946-.6.211.211,0,0,0,.043-.035q.3,1.378.6,2.757c.082.379.228.815.3,1.239a1.084,1.084,0,0,0-1.137.2.923.923,0,0,0,.86,1.5c1.211-.209.693-1.842.529-2.6" transform="translate(-375.189 -74.13)" fill="#3c3c3b"/><path d="M11.079,324.872q-1.155-4.265-2.313-8.529a.437.437,0,0,0-.511-.335A45.3,45.3,0,0,0,.5,318.967c-.154-.217-.569-.07-.486.215.678,2.318,1.533,4.583,2.265,6.885.327,1.029.657,2.062.919,3.11a1.509,1.509,0,0,0-2.034.785,1.771,1.771,0,0,0,2.312,2.263,1.483,1.483,0,0,0,.875-1.757,21.727,21.727,0,0,0-1-3.847c-.523-1.68-1.067-3.373-1.709-5.021,1.158-.267,2.3-.6,3.433-.956a14.735,14.735,0,0,0,3.521-1.28.4.4,0,0,0,.076-.068q.677,2.506,1.355,5.013c.187.689.5,1.476.675,2.25a1.994,1.994,0,0,0-2.072.467,1.7,1.7,0,0,0,1.719,2.677c2.208-.5,1.1-3.452.731-4.83" transform="translate(0 -248.404)" fill="#3c3c3b"/><path d="M553.631,271.612c-.506,1.962,1.26,3.286,2.76,4.326l.484,1.6.049.164a3.416,3.416,0,0,0-2.406,2.007,2.372,2.372,0,0,0,1.8,3.142,2.58,2.58,0,0,0,2.034-.443q.357,1.134.74,2.259a.967.967,0,0,0-.949,1.6c.831.8,2.11-.58,1.357-1.392-.239-.931-.5-1.857-.762-2.781a3.148,3.148,0,0,0,.884-1.573,4.286,4.286,0,0,0-1.917-4.231c-.274-.21-.584-.417-.9-.632l-.588-1.952a13.821,13.821,0,0,0-.7-2.208c-.46-.917-1.606-.946-1.879.112m3.948,6.605a.865.865,0,0,1,.373.19.775.775,0,0,0-.319-.015l-.053-.175m.625,3.721a2.1,2.1,0,0,1-1.751.463,1.918,1.918,0,0,1-1.167-3.105,2.779,2.779,0,0,1,1.766-1.1l.019,0,.129.428a.671.671,0,0,0,.136,1.047.876.876,0,0,0,.205.093q.327,1.09.664,2.177m1.016-1.95a2.792,2.792,0,0,1-.635,1.572q-.262-.9-.534-1.792a.826.826,0,0,0,.584-.551,1.2,1.2,0,0,0-.693-1.376,1.67,1.67,0,0,0-.522-.145q-.2-.662-.4-1.324c.1.071.2.14.289.208a4.023,4.023,0,0,1,1.914,3.408m-4.013-7.971c.207.588.363,1.2.543,1.8l.43,1.426c-1.083-.756-2.108-1.648-2.143-3a1.633,1.633,0,0,1,.088-.637c.328-.8.933-.01,1.082.414" transform="translate(-435.145 -212.89)" fill="#3c3c3b"/><path d="M238.116,4.8A20.974,20.974,0,0,0,235.3,2.9l-.3-.186a6.907,6.907,0,0,0,.872-.573c.169-.123.485-.275.536-.5a.328.328,0,0,0,.006-.108.222.222,0,0,0,.009-.322c-.4-.357-.813-.7-1.232-1.033a.18.18,0,0,0-.05-.028.146.146,0,0,0-.25-.1,13.171,13.171,0,0,0-1.013,1.338c-.171.244-.482.544-.318.86.173.333.751.587,1.054.78.472.3.956.585,1.432.88A7.6,7.6,0,0,1,238.665,6.1a1.588,1.588,0,0,1,.139.306.842.842,0,0,0-.178-.139.955.955,0,0,0-1.377.455,1.054,1.054,0,0,0,.806,1.391,1.189,1.189,0,0,0,1.354-1.151A3,3,0,0,0,238.116,4.8m-3.527-3.625c.045.056.092.109.138.162l-.03-.013c-.041-.022-.084-.042-.128-.061l-.014-.007h0l-.047-.02c.024-.031.045-.06.063-.087a.3.3,0,0,0,.017.026m.025,1.29a.23.23,0,0,0,.076-.061,1.292,1.292,0,0,0,.147,0,.24.24,0,0,0,.037-.006c-.056.042-.11.086-.163.13l-.1-.062m3.854,4.346a.508.508,0,0,0-.084-.134c.124.059.152.1.084.134m-.2.84a.511.511,0,0,0,.05-.064.728.728,0,0,0,.408-.11.6.6,0,0,1-.457.173" transform="translate(-183.564 0)" fill="#3c3c3b"/></g></g></svg>