<svg xmlns="http://www.w3.org/2000/svg" xmlns:xlink="http://www.w3.org/1999/xlink" width="134" height="134" viewBox="0 0 134 134"><defs><filter id="a" x="0" y="0" width="134" height="134" filterUnits="userSpaceOnUse"><feOffset dy="2" input="SourceAlpha"/><feGaussianBlur stdDeviation="1" result="b"/><feFlood flood-opacity="0.051"/><feComposite operator="in" in2="b"/><feComposite in="SourceGraphic"/></filter></defs><g transform="translate(-615 -1882)"><g transform="matrix(1, 0, 0, 1, 615, 1882)" filter="url(#a)"><circle cx="64" cy="64" r="64" transform="translate(3 1)" fill="#fff"/></g><g transform="translate(647 1914.756)"><path d="M43.332,38.88H3.2A3.2,3.2,0,0,1,0,35.68V3.2A3.2,3.2,0,0,1,3.2,0H43.332a3.2,3.2,0,0,1,3.2,3.2V35.68A3.2,3.2,0,0,1,43.332,38.88Zm0,0" transform="translate(0 -0.001)" fill="#d9e0ed"/><path d="M43.331,0h-3.2V9.041A25.213,25.213,0,0,1,14.917,34.253H0V35.68a3.2,3.2,0,0,0,3.2,3.2H43.331a3.2,3.2,0,0,0,3.2-3.2V3.2a3.2,3.2,0,0,0-3.2-3.2Zm0,0" transform="translate(0 0)" fill="#cfd6e5"/><path d="M66.542,208.724H30.154a1.063,1.063,0,1,1,0-2.126H66.542a1.063,1.063,0,1,1,0,2.126Zm0,0" transform="translate(-25.082 -178.133)" fill="#86a4b7"/><path d="M48.885,238.595H30.154a1.063,1.063,0,1,1,0-2.126H48.885a1.063,1.063,0,1,1,0,2.126Zm0,0" transform="translate(-25.082 -203.888)" fill="#86a4b7"/><path d="M39.984,47.948a1.063,1.063,0,0,1-.727-1.84l7.137-6.674a1.064,1.064,0,0,1,1.229-.16l6.982,3.75,5.495-6.73a1.063,1.063,0,0,1,1.6-.059l5.067,5.349,6.609-8.195a1.063,1.063,0,1,1,1.655,1.335l-7.372,9.141a1.063,1.063,0,0,1-1.6.064l-5.072-5.354L55.7,45.048a1.063,1.063,0,0,1-1.327.264l-7.082-3.8L40.71,47.661a1.059,1.059,0,0,1-.725.287Zm0,0" transform="translate(-33.558 -28.448)" fill="#7885ed"/><g transform="translate(4.477 3.703)"><path d="M36.393,121.627a1.948,1.948,0,1,1-1.948-1.948A1.948,1.948,0,0,1,36.393,121.627Zm0,0" transform="translate(-32.496 -106.893)" fill="#ffa91e"/><path d="M88.2,73.187a1.948,1.948,0,1,1-1.948-1.948A1.948,1.948,0,0,1,88.2,73.187Zm0,0" transform="translate(-77.163 -65.126)" fill="#ffa91e"/><path d="M144.478,103.416a1.948,1.948,0,1,1-1.948-1.948A1.948,1.948,0,0,1,144.478,103.416Zm0,0" transform="translate(-125.69 -91.191)" fill="#ffa91e"/><path d="M188.385,49.64a1.948,1.948,0,1,1-1.948-1.948A1.948,1.948,0,0,1,188.385,49.64Zm0,0" transform="translate(-163.547 -44.823)" fill="#ffa91e"/><path d="M231.228,94.87a1.948,1.948,0,1,1-1.948-1.948A1.948,1.948,0,0,1,231.228,94.87Zm0,0" transform="translate(-200.488 -83.822)" fill="#ffa91e"/><path d="M284.658,28.823a1.948,1.948,0,1,1-1.948-1.948A1.948,1.948,0,0,1,284.658,28.823Zm0,0" transform="translate(-246.556 -26.875)" fill="#ffa91e"/></g><path d="M22.179,423.918v4.031a1.563,1.563,0,0,1-1.564,1.561H1.564A1.563,1.563,0,0,1,0,427.949v-4.031a6.4,6.4,0,0,1,6.4-6.394h9.384a6.4,6.4,0,0,1,6.4,6.394Zm0,0" transform="translate(0 -359.998)" fill="#7885ed"/><path d="M36.348,471.929v3.4H33.816v-3.4a1.266,1.266,0,0,1,2.531,0Zm0,0" transform="translate(-29.157 -405.817)" fill="#676fce"/><path d="M58.753,417.523v.524a2.4,2.4,0,0,1-2.4,2.4H52.887a2.4,2.4,0,0,1-2.4-2.4v-.524Zm0,0" transform="translate(-43.529 -359.997)" fill="#5656b2"/><path d="M110.936,471.929v3.4h-2.531v-3.4a1.265,1.265,0,0,1,2.531,0Zm0,0" transform="translate(-93.47 -405.817)" fill="#676fce"/><path d="M63.965,394.6H61.593a1.644,1.644,0,0,1-1.644-1.644v-3.925H65.61v3.925A1.644,1.644,0,0,1,63.965,394.6Zm0,0" transform="translate(-51.69 -335.431)" fill="#fcc1b9"/><path d="M49.248,286.476v5.659a5.942,5.942,0,0,1-11.884,0v-5.659a4.289,4.289,0,0,1,4.291-4.288h3.3a4.288,4.288,0,0,1,4.291,4.288Zm0,0" transform="translate(-32.216 -243.308)" fill="#fcc1b9"/><path d="M49.248,286.476V287.7a5.942,5.942,0,0,1-11.884,0v-1.221a4.289,4.289,0,0,1,4.291-4.288h3.3a4.288,4.288,0,0,1,4.291,4.288Zm0,0" transform="translate(-32.216 -243.308)" fill="#354968"/><path d="M183.16,423.918v4.031a1.563,1.563,0,0,1-1.564,1.561H162.545a1.563,1.563,0,0,1-1.564-1.561v-4.031a6.4,6.4,0,0,1,6.4-6.394h9.385a6.4,6.4,0,0,1,6.4,6.394Zm0,0" transform="translate(-138.801 -359.998)" fill="#48bbed"/><path d="M197.331,471.929v3.4H194.8v-3.4a1.265,1.265,0,0,1,2.531,0Zm0,0" transform="translate(-167.962 -405.817)" fill="#009be6"/><path d="M219.733,417.523v.524a2.4,2.4,0,0,1-2.4,2.4h-3.464a2.4,2.4,0,0,1-2.4-2.4v-.524Zm0,0" transform="translate(-182.329 -359.997)" fill="#0082bd"/><path d="M271.917,471.929v3.4h-2.531v-3.4a1.265,1.265,0,0,1,2.531,0Zm0,0" transform="translate(-232.271 -405.817)" fill="#009be6"/><path d="M224.946,394.6h-2.372a1.644,1.644,0,0,1-1.644-1.644v-3.925h5.661v3.925A1.644,1.644,0,0,1,224.946,394.6Zm0,0" transform="translate(-190.49 -335.431)" fill="#fcc1b9"/><path d="M210.229,286.476v5.659a5.942,5.942,0,0,1-11.884,0v-5.659a4.289,4.289,0,0,1,4.291-4.288h3.3A4.289,4.289,0,0,1,210.229,286.476Zm0,0" transform="translate(-171.017 -243.309)" fill="#fcc1b9"/><path d="M210.229,286.476V287.7a5.942,5.942,0,0,1-11.884,0v-1.221a4.289,4.289,0,0,1,4.291-4.288h3.3A4.289,4.289,0,0,1,210.229,286.476Zm0,0" transform="translate(-171.017 -243.309)" fill="#354968"/><path d="M239.824,126.2v2.717a2.645,2.645,0,0,0,2.644,2.645h16.927a.409.409,0,0,1,.41.41V147.66H272.95a4.375,4.375,0,0,0,4.374-4.374V130.7a4.506,4.506,0,0,0-4.507-4.505H239.823Zm0,0" transform="translate(-206.781 -108.808)" fill="#48bbed"/><path d="M463.445,177.381v13.458h2.214V177.381a1.107,1.107,0,0,0-2.214,0Zm0,0" transform="translate(-399.592 -151.987)" fill="#009be6"/><path d="M421.271,99.633v3.621a2.638,2.638,0,0,1-5.275,0V99.633Zm0,0" transform="translate(-358.681 -85.906)" fill="#fcc1b9"/><path d="M421.271,99.633V101.5a5.547,5.547,0,0,1-5.275-.071v-1.8Zm0,0" transform="translate(-358.681 -85.906)" fill="#f2aa99"/><path d="M400.967,14.817A5.538,5.538,0,0,0,406.5,9.28V2.89A2.885,2.885,0,0,0,403.619,0h-5.3A2.885,2.885,0,0,0,395.43,2.89V9.28A5.537,5.537,0,0,0,400.967,14.817Zm0,0" transform="translate(-340.948 -0.004)" fill="#fcc1b9"/><path d="M395.422,2.886V8.058a2.885,2.885,0,0,1,2.836-2.885c.016,0,.034,0,.05,0h5.306A2.885,2.885,0,0,1,406.5,8.058V2.886A2.885,2.885,0,0,0,403.613,0h-5.306a2.886,2.886,0,0,0-2.886,2.886Zm0,0" transform="translate(-340.941)" fill="#354968"/><path d="M416,22.322v1.144c.016,0,.034,0,.05,0h2.164V22.322a1.107,1.107,0,1,0-2.214,0Zm0,0" transform="translate(-358.688 -18.292)" fill="#2a3a51"/><path d="M384.859,281.98h11.935v30.155H384.859Zm0,0" transform="translate(-331.834 -243.129)" fill="#354968"/><path d="M394.549,285.682v5.66a8.082,8.082,0,0,1-1.246,4.606c-.645.965-1.211,1.256-1.489,2.3-.405,1.53.424,2.33-.106,3.19-.553.895-2.1,1.082-3.1.857-2.011-.454-3.552-2.989-3.747-6.349V281.981h7.565a4.283,4.283,0,0,1,2.125,3.7Zm0,0" transform="translate(-331.834 -243.13)" fill="#2a3a51"/><path d="M344.141,423.918v4.031a1.563,1.563,0,0,1-1.564,1.561H323.525a1.563,1.563,0,0,1-1.564-1.561v-4.031a6.4,6.4,0,0,1,6.4-6.394h9.384a6.4,6.4,0,0,1,6.4,6.394Zm0,0" transform="translate(-277.602 -359.998)" fill="#7885ed"/><path d="M358.308,471.929v3.4h-2.531v-3.4a1.266,1.266,0,0,1,2.531,0Zm0,0" transform="translate(-306.759 -405.817)" fill="#676fce"/><path d="M380.714,417.523v.524a2.4,2.4,0,0,1-2.4,2.4h-3.464a2.4,2.4,0,0,1-2.4-2.4v-.524Zm0,0" transform="translate(-321.131 -359.997)" fill="#5656b2"/><path d="M432.9,471.929v3.4h-2.531v-3.4a1.265,1.265,0,0,1,2.531,0Zm0,0" transform="translate(-371.072 -405.817)" fill="#676fce"/><path d="M385.927,394.6h-2.371a1.644,1.644,0,0,1-1.645-1.644v-3.925h5.661v3.925A1.644,1.644,0,0,1,385.927,394.6Zm0,0" transform="translate(-329.292 -335.431)" fill="#fcc1b9"/><path d="M371.209,290.972v5.659a5.942,5.942,0,0,1-11.884,0v-5.659c0-2.369,1.922-3.569,4.29-3.569h3.3C369.289,287.4,371.209,288.6,371.209,290.972Zm0,0" transform="translate(-309.817 -247.805)" fill="#fcc1b9"/><path d="M371.209,286.476V287.7a5.942,5.942,0,0,1-11.884,0v-1.221a4.289,4.289,0,0,1,4.29-4.288h3.3A4.288,4.288,0,0,1,371.209,286.476Zm0,0" transform="translate(-309.817 -243.308)" fill="#354968"/></g></g></svg>