<svg xmlns="http://www.w3.org/2000/svg" xmlns:xlink="http://www.w3.org/1999/xlink" width="134" height="134" viewBox="0 0 134 134"><defs><filter id="a" x="0" y="0" width="134" height="134" filterUnits="userSpaceOnUse"><feOffset dy="2" input="SourceAlpha"/><feGaussianBlur stdDeviation="1" result="b"/><feFlood flood-opacity="0.051"/><feComposite operator="in" in2="b"/><feComposite in="SourceGraphic"/></filter></defs><g transform="translate(-1012 -1556)"><g transform="matrix(1, 0, 0, 1, 1012, 1556)" filter="url(#a)"><circle cx="64" cy="64" r="64" transform="translate(3 1)" fill="#fff"/></g><g transform="translate(1040 1584.189)"><path d="M129,262.169a19.169,19.169,0,0,0,19.169,19.169l1.786-19.784L148.169,243A19.169,19.169,0,0,0,129,262.169Z" transform="translate(-109.529 -206.322)" fill="#ffe370"/><path d="M256,243v38.339A19.169,19.169,0,0,0,256,243Z" transform="translate(-217.359 -206.322)" fill="#fc0"/><path d="M15.283,111.3V95.565H4.98V111.3H0l10.132,12.879L20.263,111.3Z" transform="translate(0 -81.14)" fill="#c6ea4b"/><path d="M393.038,111.3V95.565h-10.3V111.3h-4.98l10.131,12.879L398.018,111.3Z" transform="translate(-320.737 -81.14)" fill="#59c87f"/><path d="M212.61,394.664l-1.895-1.239-2.479,3.789,1.895,1.24A8.164,8.164,0,0,0,213.3,399.8v2.463h2.15l1.451-4.421-1.451-2.418a4.482,4.482,0,0,1-2.836-.764Z" transform="translate(-176.805 -334.041)" fill="#fc0"/><path d="M222.221,295.739a1.153,1.153,0,0,1-.388-.355c-.375-.6.31-1.424.848-1.633a2.269,2.269,0,0,1,.376-.105l.916-2.83L223.056,287h-2.15v2.588a6.05,6.05,0,0,0-3.642,4.689,4.979,4.979,0,0,0,1.757,4.739,15.617,15.617,0,0,0,4.036,2.079l1.251-1.567-1.251-3.334C222.77,296.054,222.491,295.9,222.221,295.739Z" transform="translate(-184.415 -243.68)" fill="#fc0"/><path d="M259,294.276,261,295.35l2.149-3.986-1.993-1.074a10.787,10.787,0,0,0-2.774-1.028V287H256v6.646a5.086,5.086,0,0,1,3,.63Z" transform="translate(-217.359 -243.68)" fill="#ff9e00"/><path d="M258.608,348.941A24.658,24.658,0,0,1,256,347.908v4.9c.365.139.733.272,1.1.4a1.47,1.47,0,0,1,1.113,1.77,2.058,2.058,0,0,1-1.336,1.64,4.36,4.36,0,0,1-.876.161v6.838h2.378V360.9a6.669,6.669,0,0,0,4.3-5.169A6,6,0,0,0,258.608,348.941Z" transform="translate(-217.359 -295.395)" fill="#ff9e00"/><path d="M118.528,249.433a16.924,16.924,0,0,1,16.905-16.905l2.6-2.088-2.6-2.441a21.433,21.433,0,0,0,0,42.867l1.786-1.971-1.786-2.557A16.924,16.924,0,0,1,118.528,249.433Z" transform="translate(-96.793 -193.586)" fill="#fc0"/><path d="M256,228v4.528a16.905,16.905,0,0,1,0,33.811v4.528A21.433,21.433,0,0,0,256,228Z" transform="translate(-217.359 -193.586)" fill="#ff9e00"/><path d="M193.857,0V15.738h-4.98l10.132,12.879,3.385-15.145L199.009,0Z" transform="translate(-160.368)" fill="#c6ea4b"/><path d="M261.152,15.738V0H256V28.617l10.132-12.879Z" transform="translate(-217.359 0)" fill="#59c87f"/></g></g></svg>