<svg xmlns="http://www.w3.org/2000/svg" xmlns:xlink="http://www.w3.org/1999/xlink" width="134" height="134" viewBox="0 0 134 134"><defs><filter id="a" x="0" y="0" width="134" height="134" filterUnits="userSpaceOnUse"><feOffset dy="2" input="SourceAlpha"/><feGaussianBlur stdDeviation="1" result="b"/><feFlood flood-opacity="0.051"/><feComposite operator="in" in2="b"/><feComposite in="SourceGraphic"/></filter></defs><g transform="translate(-615 -1556)"><g transform="matrix(1, 0, 0, 1, 615, 1556)" filter="url(#a)"><circle cx="64" cy="64" r="64" transform="translate(3 1)" fill="#fff"/></g><g transform="translate(628 1558.832)"><path d="M93,274.783a6.26,6.26,0,0,0-8.422-2.313l-15.631,7.7L56.63,278.831l4.478-1.767c2.577-1.012,3.988-3.006,3.684-5.2a4.709,4.709,0,0,0-1.824-3.1,6.039,6.039,0,0,0-4.662-.956l-19.683,2.85a20.6,20.6,0,0,0-11.085,4.594l-7.05,6.242-.008.009-.258-.276a1.5,1.5,0,0,0-2.11-.069l-4.788,4.468a1.018,1.018,0,0,0-.049,1.439l16.158,17.3a1.018,1.018,0,0,0,1.439.049l4.788-4.472a1.5,1.5,0,0,0,.074-2.11l-.694-.743c.011-.01.022-.018.032-.029l.437-.491a4.709,4.709,0,0,1,3.676-1.612c11.758.138,18.52-1.092,30.427-3.461a.5.5,0,0,0,.154-.058l22.6-13.051c1.192-.687,1.444-2.1.643-3.6Z" transform="translate(-0.001 -201.559)" fill="#ffccbc"/><g transform="translate(18.752 25.225)"><path d="M188.149,25.225l5.537,10.507,11.7,2.021-8.278,8.51,1.7,11.749-10.655-5.241-10.655,5.241,1.7-11.749-8.278-8.51,11.7-2.021Z" transform="translate(-150.012 -25.225)" fill="#ffd550"/><path d="M379.332,111.519l-3.545,6.72-7.485,1.3,5.3,5.443-1.085,7.519,6.819-3.353,6.814,3.353-1.085-7.519,5.3-5.443-7.489-1.292Z" transform="translate(-314.086 -96.954)" fill="#ffd550"/><path d="M58.109,111.519l3.54,6.72,7.489,1.3-5.3,5.443,1.085,7.519-6.814-3.353L51.29,132.5l1.085-7.519-5.3-5.443,7.485-1.292Z" transform="translate(-47.079 -96.954)" fill="#ffd550"/></g><path d="M35.732,362.046,20.221,345.44a1.5,1.5,0,0,0-2.11-.069l-4.788,4.468a1.018,1.018,0,0,0-.049,1.439l16.158,17.3a1.018,1.018,0,0,0,1.439.049l4.788-4.472a1.5,1.5,0,0,0,.074-2.11Z" transform="translate(0 -265.777)" fill="#4a80aa"/><path d="M57.069,362.046,41.558,345.44a1.5,1.5,0,0,0-2.11-.069l-.779.727a1.466,1.466,0,0,1,.149.137L54.329,362.84a1.5,1.5,0,0,1-.074,2.11l-3.672,3.43.186.2a1.018,1.018,0,0,0,1.439.049L57,364.156A1.5,1.5,0,0,0,57.069,362.046Z" transform="translate(-21.337 -265.777)" fill="#3e759b"/><path d="M104.36,453.783a1.181,1.181,0,1,0-1.181-1.181A1.181,1.181,0,0,0,104.36,453.783Z" transform="translate(-74.959 -354.262)" fill="#fff" fill-rule="evenodd"/><g transform="translate(32.794 66.388)"><path d="M231.153,271.128c.3,2.2-1.107,4.193-3.684,5.2l-10.207,4.028a1.377,1.377,0,1,0,1.011,2.562l11.9-4.695c2.577-1.012,3.988-3.006,3.684-5.2a4.709,4.709,0,0,0-1.824-3.1,5.059,5.059,0,0,0-1.664-.811,4.692,4.692,0,0,1,.788,2.016Z" transform="translate(-201.856 -269.112)" fill="#f4b5a4"/><path d="M190.49,296.276a6.061,6.061,0,0,0-3.247-2.708,5.058,5.058,0,0,1,.547.812c.8,1.5.549,2.912-.643,3.6l-22.6,13.051a.505.505,0,0,1-.154.058c-11.907,2.37-18.669,3.6-30.427,3.461a4.709,4.709,0,0,0-3.676,1.612l-.012.014,2.244,2.4c.011-.01.022-.018.032-.029l.437-.491a4.709,4.709,0,0,1,3.676-1.612c11.758.138,18.52-1.092,30.427-3.461a.505.505,0,0,0,.154-.058l22.6-13.051c1.192-.687,1.444-2.1.643-3.6Z" transform="translate(-130.281 -289.44)" fill="#f4b5a4"/></g><path d="M278.577,35.732,273.04,25.225V52.772l10.655,5.241L282,46.264l8.278-8.51Z" transform="translate(-216.151 0)" fill="#efc44b"/><path d="M440.465,132.5l-1.085-7.519,5.3-5.443-7.489-1.292-3.54-6.725v17.627Z" transform="translate(-349.654 -71.729)" fill="#efc44b"/><path d="M119.242,132.5l-1.085-7.519,5.3-5.443-7.489-1.292-3.54-6.725v17.627Z" transform="translate(-82.647 -71.729)" fill="#efc44b"/></g></g></svg>