<svg xmlns="http://www.w3.org/2000/svg" xmlns:xlink="http://www.w3.org/1999/xlink" width="134" height="134" viewBox="0 0 134 134"><defs><filter id="a" x="0" y="0" width="134" height="134" filterUnits="userSpaceOnUse"><feOffset dy="2" input="SourceAlpha"/><feGaussianBlur stdDeviation="1" result="b"/><feFlood flood-opacity="0.051"/><feComposite operator="in" in2="b"/><feComposite in="SourceGraphic"/></filter></defs><g transform="translate(-814 -1882)"><g transform="matrix(1, 0, 0, 1, 814, 1882)" filter="url(#a)"><circle cx="64" cy="64" r="64" transform="translate(3 1)" fill="#fff"/></g><g transform="translate(838 1911.825)"><g transform="translate(27.549)"><path d="M159.252,0A15.268,15.268,0,0,0,144,15.252v6.733a2.062,2.062,0,0,0,2.061,2.061h26.381a2.062,2.062,0,0,0,2.061-2.061V15.252A15.268,15.268,0,0,0,159.252,0Z" transform="translate(-144)" fill="#fdb500"/></g><g transform="translate(42.801)"><path d="M270.252,15.252v6.733a2.062,2.062,0,0,1-2.061,2.061H255V0A15.268,15.268,0,0,1,270.252,15.252Z" transform="translate(-255)" fill="#ff9100"/></g><g transform="translate(36.445 10.823)"><circle cx="2.165" cy="2.165" r="2.165" transform="translate(0 0)" fill="#54489b"/></g><g transform="translate(45.103 10.823)"><circle cx="2.165" cy="2.165" r="2.165" transform="translate(0 0)" fill="#463d83"/></g><g transform="translate(61.625)"><path d="M402.855,0a2.061,2.061,0,0,0-2.061,2.061v3.5l-2.336,1.752-2.336-1.752v-3.5a2.061,2.061,0,0,0-4.122,0V6.6a2.061,2.061,0,0,0,.824,1.649l3.572,2.679v12.16a2.061,2.061,0,0,0,4.122,0V10.924l3.572-2.679a2.061,2.061,0,0,0,.824-1.649V2.061A2.061,2.061,0,0,0,402.855,0Z" transform="translate(-392)" fill="#463d83"/></g><g transform="translate(11.061)"><path d="M34.855,0a2.061,2.061,0,0,0-2.061,2.061v3.5L30.458,7.317,28.122,5.565v-3.5a2.061,2.061,0,0,0-4.122,0V6.6a2.061,2.061,0,0,0,.824,1.649L28.4,10.924v12.16a2.061,2.061,0,0,0,4.122,0V10.924l3.572-2.679A2.061,2.061,0,0,0,36.916,6.6V2.061A2.061,2.061,0,0,0,34.855,0Z" transform="translate(-24)" fill="#54489b"/></g><g transform="translate(9 19.923)"><path d="M57.366,145H28.236a6.182,6.182,0,0,0-5.2,2.844,8.653,8.653,0,1,0-.983,14.226v15.906a2.062,2.062,0,0,0,2.061,2.061H61.488a2.062,2.062,0,0,0,2.061-2.061V151.183A6.191,6.191,0,0,0,57.366,145Z" transform="translate(-9 -145)" fill="#fed330"/></g><g transform="translate(42.801 19.923)"><path d="M280.419,145.962a8.617,8.617,0,0,0-5.561,2.03A6.186,6.186,0,0,0,269.565,145H255v35.038h18.687a2.062,2.062,0,0,0,2.061-2.061V161.9a8.654,8.654,0,1,0,4.672-15.938Z" transform="translate(-255 -145)" fill="#fdb500"/></g><g transform="translate(34.007 32.977)"><path d="M191,240h17.588v10.992H191Z" transform="translate(-191 -240)" fill="#e0f1fb"/></g><g transform="translate(42.801 32.977)"><path d="M255,240h8.794v10.992H255Z" transform="translate(-255 -240)" fill="#b2dcfd"/></g><g transform="translate(31.946 30.916)"><path d="M195.649,225H178.061A2.062,2.062,0,0,0,176,227.061v10.992a2.062,2.062,0,0,0,2.061,2.061h17.588a2.062,2.062,0,0,0,2.061-2.061V227.061A2.062,2.062,0,0,0,195.649,225Zm-2.061,10.992H180.122v-6.87h13.465Z" transform="translate(-176 -225)" fill="#fdb500"/></g><g transform="translate(42.801 30.916)"><path d="M265.855,227.061v10.992a2.062,2.062,0,0,1-2.061,2.061H255v-4.122h6.733v-6.87H255V225h8.794A2.062,2.062,0,0,1,265.855,227.061Z" transform="translate(-255 -225)" fill="#ff9100"/></g><g transform="translate(15.321 52.9)"><path d="M109.961,392.695a7.7,7.7,0,0,1-7.695,7.695H62.695a7.695,7.695,0,1,1,0-15.389h39.572A7.694,7.694,0,0,1,109.961,392.695Z" transform="translate(-55 -385)" fill="#463d83"/></g><g transform="translate(42.801 52.9)"><path d="M282.481,392.695a7.7,7.7,0,0,1-7.695,7.695H255V385h19.786A7.694,7.694,0,0,1,282.481,392.695Z" transform="translate(-255 -385)" fill="#282e66"/></g><g transform="translate(13.259 50.839)"><path d="M89.328,370H49.756a9.756,9.756,0,0,0,0,19.511H89.328a9.756,9.756,0,0,0,0-19.511Zm0,15.389H49.756a5.633,5.633,0,1,1,0-11.267H89.328a5.633,5.633,0,1,1,0,11.267Z" transform="translate(-40 -370)" fill="#54489b"/></g><g transform="translate(42.801 50.839)"><path d="M284.542,379.756a9.767,9.767,0,0,1-9.756,9.756H255v-4.122h19.786a5.633,5.633,0,1,0,0-11.267H255V370h19.786A9.767,9.767,0,0,1,284.542,379.756Z" transform="translate(-255 -370)" fill="#463d83"/></g><g transform="translate(15.339 53.033)"><circle cx="7.576" cy="7.576" r="7.576" transform="translate(0 0)" fill="#463d83"/></g><g transform="translate(54.844 53.033)"><ellipse cx="7.847" cy="7.576" rx="7.847" ry="7.576" transform="translate(0 0)" fill="#282e66"/></g><g transform="translate(13.259 50.839)"><path d="M49.756,389.511a9.756,9.756,0,1,1,9.756-9.756A9.767,9.767,0,0,1,49.756,389.511Zm0-15.389a5.633,5.633,0,1,0,5.634,5.633A5.64,5.64,0,0,0,49.756,374.122Z" transform="translate(-40 -370)" fill="#54489b"/></g><g transform="translate(52.831 50.839)"><path d="M337.756,389.511a9.756,9.756,0,1,1,9.756-9.756A9.767,9.767,0,0,1,337.756,389.511Zm0-15.389a5.633,5.633,0,1,0,5.633,5.633A5.64,5.64,0,0,0,337.756,374.122Z" transform="translate(-328 -370)" fill="#463d83"/></g><g transform="translate(20.751 58.445)"><circle cx="2.165" cy="2.165" r="2.165" transform="translate(0 0)" fill="#54489b"/></g><g transform="translate(60.255 58.445)"><circle cx="2.165" cy="2.165" r="2.165" transform="translate(0 0)" fill="#463d83"/></g><g transform="translate(62.659 20.885)"><path d="M405.082,152a8.615,8.615,0,0,0-5.562,2.028,6.15,6.15,0,0,1,.89,3.193V167.94A8.655,8.655,0,1,0,405.082,152Z" transform="translate(-399.52 -152)" fill="#ff9100"/></g><g transform="translate(9 20.885)"><path d="M17.656,152a8.656,8.656,0,1,0,4.4,16.11V157.221a6.154,6.154,0,0,1,.982-3.342A8.606,8.606,0,0,0,17.656,152Z" transform="translate(-9 -152)" fill="#fdb500"/></g></g></g></svg>