<svg xmlns="http://www.w3.org/2000/svg" xmlns:xlink="http://www.w3.org/1999/xlink" width="134" height="134" viewBox="0 0 134 134"><defs><filter id="a" x="0" y="0" width="134" height="134" filterUnits="userSpaceOnUse"><feOffset dy="2" input="SourceAlpha"/><feGaussianBlur stdDeviation="1" result="b"/><feFlood flood-opacity="0.051"/><feComposite operator="in" in2="b"/><feComposite in="SourceGraphic"/></filter></defs><g transform="translate(-379 -1556)"><g transform="matrix(1, 0, 0, 1, 379, 1556)" filter="url(#a)"><circle cx="64" cy="64" r="64" transform="translate(3 1)" fill="#fff"/></g><g transform="translate(406.5 1530.1)"><g transform="translate(20.653 88.897)"><path d="M132.188,266.315c0-5.711,12.993-10.345,29.026-10.345s29.022,4.634,29.022,10.345v9.508c0,5.711-12.993,10.345-29.022,10.345s-29.026-4.634-29.026-10.345v-9.508Z" transform="translate(-132.188 -255.971)" fill="#fe9923" fill-rule="evenodd"/></g><g transform="translate(20.653 88.897)"><path d="M161.215,255.971c16.029,0,29.022,4.634,29.022,10.345s-12.993,10.344-29.022,10.344-29.026-4.629-29.026-10.344S145.182,255.971,161.215,255.971Z" transform="translate(-132.189 -255.971)" fill="#fecd3d" fill-rule="evenodd"/></g><g transform="translate(26.586 93.731)"><path d="M194.053,287.558c12.753,0,23.088,2.47,23.088,5.511s-10.336,5.51-23.088,5.51-23.093-2.466-23.093-5.51S181.3,287.558,194.053,287.558Z" transform="translate(-170.96 -287.558)" fill="#fea832" fill-rule="evenodd"/></g><path d="M176.206,401.368l2.479,0v4.816c-.85-.138-1.674-.294-2.479-.463Zm35.867-2.55v5.061q1.342-.514,2.484-1.082v-3.984Zm-26.9,8.128c.819.062,1.647.107,2.484.138v-4.6l-2.484,0ZM167.237,402.8q1.142.568,2.484,1.082v-5.065l-2.484,0Zm26.9,4.286c.841-.031,1.665-.08,2.479-.138v-4.46l-2.479,0Zm8.969-.895q1.275-.207,2.479-.463v-4.353l-2.479,0Z" transform="translate(-141.22 -288.056)" fill="#c85929"/><g transform="translate(3.743 110.734)"><path d="M26.969,398.667v3.08h3.076v2.2H26.969v3.08h-2.2v-3.08H21.69v-2.2h3.08v-3.08Z" transform="translate(-21.69 -398.667)" fill="#fea832"/></g><g transform="translate(60.019 76.999)"><path d="M394.7,178.224v3.08h3.08V183.5H394.7v3.08h-2.2V183.5h-3.076V181.3H392.5v-3.08Z" transform="translate(-389.426 -178.224)" fill="#fea832"/></g><g transform="translate(5.221 58.709)"><path d="M36.626,58.709v3.08H39.7v2.194H36.626v3.08h-2.2v-3.08h-3.08V61.789h3.08v-3.08Z" transform="translate(-31.347 -58.709)" fill="#fea832"/></g><g transform="translate(0.5 62.295)"><path d="M1.032,113.708C-1.825,108.759,7.113,98.249,21,90.237s27.45-10.5,30.308-5.555q2.377,4.12,4.754,8.23c2.858,4.95-6.08,15.459-19.963,23.471s-27.45,10.5-30.308,5.555q-2.377-4.113-4.754-8.23Z" transform="translate(-0.5 -82.139)" fill="#fe9923" fill-rule="evenodd"/></g><g transform="translate(0.5 62.295)"><path d="M21,90.237c13.883-8.017,27.45-10.5,30.308-5.555s-6.08,15.459-19.963,23.471-27.45,10.5-30.308,5.555S7.113,98.249,21,90.237Z" transform="translate(-0.5 -82.139)" fill="#fecd3d" fill-rule="evenodd"/></g><g transform="translate(5.982 66.857)"><path d="M53.751,119.67c11.043-6.374,21.232-9.405,22.754-6.77s-6.2,9.939-17.244,16.318-21.228,9.405-22.75,6.77,6.2-9.94,17.239-16.318Z" transform="translate(-36.321 -111.949)" fill="#fea832" fill-rule="evenodd"/></g><path d="M91.494,198.082l2.3,3.984q-1.115.588-2.221,1.122l-2.23-3.864ZM71.98,205.114l1.99,3.445a26.868,26.868,0,0,0,2.688-.3l-2.528-4.384Zm9.04-2.275,2.181,3.775q1.168-.381,2.377-.837L83.17,201.6Zm16.091-8,2.3,3.984q1.062-.668,2.079-1.358l-2.23-3.859Zm15.846-13.385-2.15,1.246,2.533,4.38c.6-.739,1.139-1.469,1.607-2.177Zm-8.635,7.937,2.408,4.175q1-.815,1.914-1.638l-2.177-3.77Z" transform="translate(-60.541 -103.959)" fill="#c85929"/></g></g></svg>