<svg xmlns="http://www.w3.org/2000/svg" xmlns:xlink="http://www.w3.org/1999/xlink" width="134" height="134" viewBox="0 0 134 134"><defs><filter id="a" x="0" y="0" width="134" height="134" filterUnits="userSpaceOnUse"><feOffset dy="2" input="SourceAlpha"/><feGaussianBlur stdDeviation="1" result="b"/><feFlood flood-opacity="0.051"/><feComposite operator="in" in2="b"/><feComposite in="SourceGraphic"/></filter></defs><g transform="translate(-379 -1882)"><g transform="matrix(1, 0, 0, 1, 379, 1882)" filter="url(#a)"><circle cx="64" cy="64" r="64" transform="translate(3 1)" fill="#fff"/></g><g transform="translate(415 1915.49)"><path d="M326.35,322.149l9.957,9.957a2.961,2.961,0,0,1,0,4.187l-.8.8a2.961,2.961,0,0,1-4.187,0l-9.9-9.9-7.127-7.235,5.6-4.724Z" transform="translate(-274.619 -275.204)" fill="#d7d0d6"/><circle cx="29.182" cy="29.182" r="29.182" transform="translate(0 0.266)" fill="#fee45a"/><path d="M10.5,100.156a29.042,29.042,0,0,1,4.85-16.114H6.7A29.189,29.189,0,0,0,41.074,129.3c-.462.022-.928.034-1.4.034A29.182,29.182,0,0,1,10.5,100.156Z" transform="translate(0 -73.2)" fill="#fedf30"/><g transform="translate(9.866 28.868)"><path d="M118.213,227.144l-32.619-.311-7.447,10.689.541,4.175a23.325,23.325,0,0,0,2.1,2.349l8.185,2.092h18.716l5.642-2.092a23.19,23.19,0,0,0,6.916-14.678Z" transform="translate(-78.148 -226.833)" fill="#97da7b"/></g><path d="M80.343,286.54l-2.2,3.151.541,4.175a23.325,23.325,0,0,0,2.1,2.349l6.762,1.729A29.192,29.192,0,0,1,80.343,286.54Z" transform="translate(-68.282 -250.134)" fill="#80d261"/><path d="M47.711,216.495l-3.434,3.84a23.1,23.1,0,0,0,1.908,7.474h0l4.97-.795,4.844-8.9Z" transform="translate(-38.687 -188.932)" fill="#97da7b"/><path d="M51.284,226.777a29.064,29.064,0,0,1-2.086-9.992l-1.487-.29-3.434,3.84a23.1,23.1,0,0,0,1.908,7.474h0l4.97-.795Z" transform="translate(-38.687 -188.932)" fill="#80d261"/><path d="M33.244,18.37a12.161,12.161,0,0,0,1.722,3.252l4.37,6.026a6.26,6.26,0,0,1,1.058,2.367l.328,1.517a4.151,4.151,0,0,0,8.116,0l.328-1.516a6.258,6.258,0,0,1,1.058-2.367l4.371-6.026A12.185,12.185,0,0,0,53.438,5.766a12.447,12.447,0,0,0-1.017-.915A29.215,29.215,0,0,0,33.244,18.37Z" transform="translate(-29.047 -4.007)" fill="#fedf30"/><path d="M84.259,56.3l-1.107-3.981A23.271,23.271,0,0,0,45.428,67.109h0l4.744,2.681H77.679l8.637-6.634Z" transform="translate(-39.693 -40.922)" fill="#97da7b"/><path d="M50.252,102.069c-.041-.632-.064-1.269-.064-1.912a29.042,29.042,0,0,1,4.85-16.114h-.543a23.25,23.25,0,0,0-9.068,15.346h0l4.744,2.681Z" transform="translate(-39.692 -73.201)" fill="#80d261"/><path d="M72.122,68.806l.328-1.516a6.259,6.259,0,0,1,1.058-2.367L77.878,58.9a12.2,12.2,0,0,0,1.678-11.385,23.279,23.279,0,0,0-19.662,13.65l2.727,3.761a6.26,6.26,0,0,1,1.058,2.367l.328,1.517a4.1,4.1,0,0,0,.554,1.343h7.007a4.107,4.107,0,0,0,.554-1.343Z" transform="translate(-52.333 -41.281)" fill="#80d261"/><path d="M298.255,118.36l-3.141.462-7.733,11.634,8.736,1.91,6.8-2.992A23.13,23.13,0,0,0,298.255,118.36Z" transform="translate(-251.101 -103.185)" fill="#97da7b"/><g transform="translate(5.508 11.395)"><path d="M90.165,106.473q0,.988-.082,1.956H58.139a1.167,1.167,0,0,0-.942.478l-8.67,11.851a23.225,23.225,0,0,1-2.91-4.855h0l5.139-7.025a.282.282,0,0,0-.228-.449h-6.82q-.081-.968-.082-1.956a23.338,23.338,0,0,1,.227-3.26h26.8a.2.2,0,0,0,.157-.08L81.577,88.421h0a23.31,23.31,0,0,1,3.7,3.78l-7.831,10.7a.2.2,0,0,0,.157.31H89.938A23.342,23.342,0,0,1,90.165,106.473Z" transform="translate(-43.627 -88.42)" fill="#fdf6ec"/></g><g transform="translate(5.508 26.188)"><path d="M65.284,271.09a28.972,28.972,0,0,1-2.112-5.944l-3.783,5.171h0a23.225,23.225,0,0,0,2.91,4.855Z" transform="translate(-57.397 -257.629)" fill="#fef1da"/><path d="M48.952,210.815a29.409,29.409,0,0,1-.337-4.447c0-.257,0-.513.011-.768H43.854a23.337,23.337,0,0,0-.227,3.26q0,.988.082,1.955Z" transform="translate(-43.627 -205.6)" fill="#fef1da"/></g><path d="M98.876,205.6H90.183l.289,1.338a4.151,4.151,0,0,0,8.116,0Z" transform="translate(-78.798 -179.412)" fill="#fef1da"/><path d="M57.813,3.425A9.685,9.685,0,0,0,49.8,18.88l4.378,6.037a8.823,8.823,0,0,1,1.482,3.316l.328,1.517a1.626,1.626,0,0,0,3.18,0l.328-1.517a8.821,8.821,0,0,1,1.482-3.316l4.378-6.037A9.685,9.685,0,0,0,57.813,3.425Z" transform="translate(-41.848 -2.758)" fill="#ee6161"/><path d="M59.022,27.558a8.823,8.823,0,0,0-1.482-3.316L53.162,18.2a9.687,9.687,0,0,1,4.116-14.74A9.685,9.685,0,0,0,49.8,18.916l4.378,6.037a8.823,8.823,0,0,1,1.482,3.316l.328,1.517a1.626,1.626,0,0,0,3.18,0l.167-.773Z" transform="translate(-41.848 -2.794)" fill="#e94444"/><g transform="translate(10.481 5.098)"><path d="M84.3,40.359A5.251,5.251,0,1,1,83.019,43.8,5.236,5.236,0,0,1,84.3,40.359Z" transform="translate(-83.019 -38.544)" fill="#f9f7f8"/><path d="M131.6,363.18a23.268,23.268,0,0,1-32.543,0Z" transform="translate(-97.032 -322.197)" fill="#fdf6ec"/><path d="M104.188,363.18H99.057a23.2,23.2,0,0,0,13.042,6.411A29.308,29.308,0,0,1,104.188,363.18Z" transform="translate(-97.032 -322.197)" fill="#fef1da"/><g transform="translate(17.755 33.712)"><path d="M224.6,314.888a.947.947,0,0,1-.947-.947v-7.407a.947.947,0,0,1,1.894,0v7.407A.947.947,0,0,1,224.6,314.888Z" transform="translate(-223.657 -305.587)" fill="#fddeb0"/></g></g><circle cx="3.046" cy="3.046" r="3.046" transform="translate(26.136 36.511)" fill="#ee6161"/></g></g></svg>