<svg xmlns="http://www.w3.org/2000/svg" xmlns:xlink="http://www.w3.org/1999/xlink" width="134" height="134" viewBox="0 0 134 134"><defs><filter id="a" x="0" y="0" width="134" height="134" filterUnits="userSpaceOnUse"><feOffset dy="2" input="SourceAlpha"/><feGaussianBlur stdDeviation="1" result="b"/><feFlood flood-opacity="0.051"/><feComposite operator="in" in2="b"/><feComposite in="SourceGraphic"/></filter></defs><g transform="translate(-1213 -1882)"><g transform="matrix(1, 0, 0, 1, 1213, 1882)" filter="url(#a)"><circle cx="64" cy="64" r="64" transform="translate(3 1)" fill="#fff"/></g><g transform="translate(1175.806 1909.756)"><g transform="translate(81.195 0)"><path d="M186.406,7.48V.673a.672.672,0,0,0-.835-.652L155.733,7.48,173.07,8.648Z" transform="translate(-146.054 0)" fill="#e69644"/><path d="M81.195,60.017l24.551,1.169,15.8-1.169V57.6H90.874Z" transform="translate(-81.195 -50.118)" fill="#d48339"/><path d="M126.6,130.4V76.9a.672.672,0,0,0-.672-.672H81.2V130.4l22.095,1.169Z" transform="translate(-81.195 -66.331)" fill="#f1cd65"/><path d="M81.867,495.787h44.056a.672.672,0,0,0,.672-.672v-1.747h-45.4v1.747a.672.672,0,0,0,.672.672Z" transform="translate(-81.195 -429.299)" fill="#ebb34f"/></g><g transform="translate(90.234 21.399)"><path d="M157.844,176.294a4.326,4.326,0,0,0,2.143-.531l3.372,3.372L156.6,185.9a1.01,1.01,0,0,0,1.429,1.429l6.763-6.763,6.763,6.763a1.01,1.01,0,1,0,1.429-1.429l-6.763-6.763L169,176.35a3.823,3.823,0,0,0,1.96.524q.093,0,.186,0c3.537-.153,7.333-4.552,7.754-5.053a1.01,1.01,0,0,0-1.546-1.3c-.988,1.173-4.047,4.239-6.3,4.335a2.074,2.074,0,0,1-.517-.042l5.614-5.614a1.01,1.01,0,0,0-1.429-1.429l-5.615,5.615a2.055,2.055,0,0,1-.042-.517c.1-2.25,3.162-5.308,4.334-6.3a1.01,1.01,0,1,0-1.3-1.547c-.5.421-4.9,4.218-5.053,7.754a3.851,3.851,0,0,0,.52,2.147l-2.784,2.784-3.372-3.372a4.647,4.647,0,0,0,.454-3.064,7.931,7.931,0,0,0-1.879-3.847,6.12,6.12,0,0,0-4.336-2.271A4.671,4.671,0,0,0,150.8,170a6.12,6.12,0,0,0,2.271,4.336,7.932,7.932,0,0,0,3.847,1.879,5.742,5.742,0,0,0,.922.077Z" transform="translate(-150.801 -164.784)" fill="#315771"/><g transform="translate(2.396 28.316)"><path d="M190.772,384.858a1.01,1.01,0,0,0,0-2.02h-20.51a1.01,1.01,0,1,0,0,2.02Z" transform="translate(-169.252 -382.838)" fill="#c23756"/><path d="M198.267,424.1a1.01,1.01,0,1,0,0,2.02H211.5a1.01,1.01,0,1,0,0-2.02Z" transform="translate(-193.62 -418.74)" fill="#c23756"/></g></g></g></g></svg>