<svg xmlns="http://www.w3.org/2000/svg" xmlns:xlink="http://www.w3.org/1999/xlink" width="134" height="134" viewBox="0 0 134 134"><defs><filter id="a" x="0" y="0" width="134" height="134" filterUnits="userSpaceOnUse"><feOffset dy="2" input="SourceAlpha"/><feGaussianBlur stdDeviation="1" result="b"/><feFlood flood-opacity="0.051"/><feComposite operator="in" in2="b"/><feComposite in="SourceGraphic"/></filter></defs><g transform="translate(-1405 -1556)"><g transform="matrix(1, 0, 0, 1, 1405, 1556)" filter="url(#a)"><circle cx="64" cy="64" r="64" transform="translate(3 1)" fill="#fff"/></g><g transform="translate(1428 1498.993)"><path d="M176.3,139.21l-2.253-18.3-4.222.52,0,0-8.186-4.607a4.933,4.933,0,0,0-2.873-.613l-12.925,1.2a4.932,4.932,0,0,0-3.81,2.433l-9.11,15.68a2.167,2.167,0,0,0,1.108,3.116l.373.141a8.082,8.082,0,0,0,2.19.489l-1.154,1.005-2.309,2.012-6.568,5.6a2.806,2.806,0,0,0-.272,3.96l.666.763a3.607,3.607,0,0,0,5.087.347l2.51,2.879a3.6,3.6,0,0,0,5.087.347l2.508,2.879a3.608,3.608,0,0,0,5.09.35l1.363,1.178a3.608,3.608,0,0,0,5.09.35l1.852-1.616,15.574-12.129.017-.015,6.145-.006Z" transform="translate(-103.839 -11.883)" fill="#f29f5c"/><path d="M169.634,263.955l-.017.015L154.043,276.1l-1.852,1.616a3.608,3.608,0,0,1-5.09-.35l-1.363-1.178a3.608,3.608,0,0,1-5.09-.35l-2.507-2.879a3.6,3.6,0,0,1-5.087-.347l-2.51-2.879a3.606,3.606,0,0,1-4.466.213,2.805,2.805,0,0,0,.222,3.392l.666.763a3.607,3.607,0,0,0,5.087.347l2.51,2.879a3.6,3.6,0,0,0,5.087.347l2.508,2.88a3.608,3.608,0,0,0,5.09.35l1.363,1.178a3.608,3.608,0,0,0,5.09.35l1.852-1.616,15.574-12.129.017-.015,6.145-.006-.68-5.522Z" transform="translate(-103.849 -133.383)" fill="#d37d42"/><path d="M132.056,153.827l-8.344-7.195-2.32-2-1.66-1.43-7.139-6.154.824-7.018A4.843,4.843,0,0,0,109.9,124.8l-15.561-4.306a3.6,3.6,0,0,0-4.166,1.829l-1.957,3.82-8.4-.57-2.152,18.316-.935,7.96,8.177.544.017.015L102,167.13l1.861,1.606a3.608,3.608,0,0,0,5.088-.378l2.491-2.891a3.608,3.608,0,0,0,5.088-.378l2.492-2.893a3.6,3.6,0,0,0,5.085-.376l2.494-2.893a3.607,3.607,0,0,0,5.085-.376l.662-.767A2.806,2.806,0,0,0,132.056,153.827Z" transform="translate(-63.435 -15.338)" fill="#f9c295"/><g transform="translate(39.304 136.298)"><path d="M256.19,303.075l-2.542-2.191a2.979,2.979,0,0,1-.123,3.736l-.7.814a3.829,3.829,0,0,1-5.4.4l-2.648,3.071a3.822,3.822,0,0,1-5.4.4l-2.645,3.072a3.83,3.83,0,0,1-5.4.4l-2.645,3.069a3.8,3.8,0,0,1-1.815,1.17l1.126.971a3.608,3.608,0,0,0,5.088-.378l2.491-2.891a3.608,3.608,0,0,0,5.088-.378l2.492-2.893a3.6,3.6,0,0,0,5.085-.376l2.494-2.893a3.606,3.606,0,0,0,5.085-.376l.662-.767A2.806,2.806,0,0,0,256.19,303.075Z" transform="translate(-226.872 -300.883)" fill="#e59f6a"/><path d="M337.43,317.1l-4.572-3.942a1.3,1.3,0,0,0-1.7,1.968l4.564,3.935.86-1a3.6,3.6,0,0,0,1.13.657A1.3,1.3,0,0,0,337.43,317.1Z" transform="translate(-312.721 -310.769)" fill="#e59f6a"/><path d="M296.161,339.385a1.3,1.3,0,0,0-.271-1.642l-4.107-3.541a1.3,1.3,0,1,0-1.7,1.968l4.107,3.541.005,0,.849-.985A3.592,3.592,0,0,0,296.161,339.385Z" transform="translate(-278.762 -328.169)" fill="#e59f6a"/></g><g transform="translate(20.25 104.3)"><path d="M118.532,299.021l-.99,1.307a3.233,3.233,0,0,0,.625,4.529h0a3.233,3.233,0,0,0,4.529-.625l.99-1.307a3.233,3.233,0,0,0-.625-4.529h0A3.233,3.233,0,0,0,118.532,299.021Z" transform="translate(-116.887 -266.287)" fill="#f29f5c"/><path d="M149.157,314.888l-1.864,2.461a3.233,3.233,0,0,0,.625,4.529h0a3.233,3.233,0,0,0,4.529-.625l1.864-2.461a3.233,3.233,0,0,0-.625-4.529h0A3.233,3.233,0,0,0,149.157,314.888Z" transform="translate(-141.483 -279.405)" fill="#f29f5c"/><path d="M179.582,332.263l-2.54,3.354a3.233,3.233,0,0,0,.625,4.529h0a3.233,3.233,0,0,0,4.529-.625l2.54-3.354a3.233,3.233,0,0,0-.625-4.529h0A3.233,3.233,0,0,0,179.582,332.263Z" transform="translate(-166.078 -293.77)" fill="#f29f5c"/><path d="M209.479,353.669l-2.688,3.549a3.233,3.233,0,0,0,.625,4.529h0a3.233,3.233,0,0,0,4.529-.625l2.688-3.549a3.233,3.233,0,0,0-.625-4.529h0A3.233,3.233,0,0,0,209.479,353.669Z" transform="translate(-190.674 -311.468)" fill="#f29f5c"/><path d="M203.374,121.424l-8.186-4.607a4.933,4.933,0,0,0-2.873-.613l-12.925,1.2a4.932,4.932,0,0,0-3.81,2.433l-9.11,15.68a2.167,2.167,0,0,0,1.108,3.116l.373.141a8.1,8.1,0,0,0,9.285-2.642l3.49-4.542s8.39,9.714,17.627-1.63" transform="translate(-157.637 -116.183)" fill="#f29f5c"/></g><path d="M416.92,137.73l-4.281-34.778a1.3,1.3,0,0,0-1.448-1.131l-10.011,1.232a4.756,4.756,0,0,0-4.135,5.3l3.438,27.927a4.749,4.749,0,0,0,5.3,4.135l10.011-1.232A1.3,1.3,0,0,0,416.92,137.73Z" transform="translate(-328.23 -0.001)" fill="#5c9cee"/><path d="M431.826,288.626l-.47-3.818a1.357,1.357,0,0,1-.958.586L419.9,286.686a4.975,4.975,0,0,1-4.866-2.36l.35,2.845a4.749,4.749,0,0,0,5.3,4.135l10.011-1.232A1.3,1.3,0,0,0,431.826,288.626Z" transform="translate(-343.135 -150.897)" fill="#3580d3"/><path d="M15.751,103.052,5.74,101.82a1.3,1.3,0,0,0-1.448,1.131L.01,137.729a1.3,1.3,0,0,0,1.131,1.448l10.011,1.232a4.749,4.749,0,0,0,5.3-4.135l3.438-27.927A4.756,4.756,0,0,0,15.751,103.052Z" transform="translate(0)" fill="#ed5575"/><path d="M.01,288.626l.47-3.818a1.357,1.357,0,0,0,.958.586l10.494,1.292a4.975,4.975,0,0,0,4.866-2.36l-.35,2.845a4.749,4.749,0,0,1-5.3,4.135L1.141,290.074A1.3,1.3,0,0,1,.01,288.626Z" transform="translate(0 -150.897)" fill="#cc3a60"/><g transform="translate(5.664 129.649)"><circle cx="2.512" cy="2.512" r="2.512" transform="translate(72.209 0)" fill="#ebeef2"/><circle cx="2.512" cy="2.512" r="2.512" transform="translate(0 0)" fill="#ebeef2"/></g></g></g></svg>