<svg xmlns="http://www.w3.org/2000/svg" xmlns:xlink="http://www.w3.org/1999/xlink" width="134" height="134" viewBox="0 0 134 134"><defs><filter id="a" x="0" y="0" width="134" height="134" filterUnits="userSpaceOnUse"><feOffset dy="2" input="SourceAlpha"/><feGaussianBlur stdDeviation="1" result="b"/><feFlood flood-opacity="0.051"/><feComposite operator="in" in2="b"/><feComposite in="SourceGraphic"/></filter></defs><g transform="translate(-814 -1556)"><g transform="matrix(1, 0, 0, 1, 814, 1556)" filter="url(#a)"><circle cx="64" cy="64" r="64" transform="translate(3 1)" fill="#fff"/></g><g transform="translate(844 1585.809)"><path d="M6.011,53.618H2.253A1.253,1.253,0,0,1,1,52.365V15.973a2.506,2.506,0,0,1,1.341-2.217l23.8-12.465a2.483,2.483,0,0,1,2.33,0l23.8,12.465a2.506,2.506,0,0,1,1.34,2.217V53.618Z" transform="translate(0)" fill="#b9bfcc"/><path d="M5,50.079V16.253A1.253,1.253,0,0,1,6.253,15h40.09A1.253,1.253,0,0,1,47.6,16.253V50.079Z" transform="translate(1.011 3.539)" fill="#8991a0"/><path d="M9,35H19.022V45.022H9Z" transform="translate(2.022 8.595)" fill="#ce8d51"/><path d="M10.253,27H17.77a1.253,1.253,0,0,1,1.253,1.253v8.77H9v-8.77A1.253,1.253,0,0,1,10.253,27Z" transform="translate(2.022 6.573)" fill="#e59f5a"/><path d="M17,35h8.77a1.253,1.253,0,0,1,1.253,1.253v8.77H17Z" transform="translate(4.045 8.595)" fill="#e59f5a"/><rect width="9.715" height="5.299" rx="2" transform="translate(22.317 8.185)" fill="#8991a0"/><path d="M47.792,29A18.792,18.792,0,1,0,66.584,47.792,18.792,18.792,0,0,0,47.792,29Zm-13.7,17.277a13.781,13.781,0,0,1,20.09-10.694,1.253,1.253,0,0,1,.279,1.989L37.573,54.466a1.253,1.253,0,0,1-1.989-.279,13.736,13.736,0,0,1-1.492-7.909ZM49.307,61.493A13.736,13.736,0,0,1,41.4,60a1.253,1.253,0,0,1-.279-1.989L58.011,41.118A1.253,1.253,0,0,1,60,41.4a13.781,13.781,0,0,1-10.694,20.1Z" transform="translate(7.079 7.079)" fill="#d92936"/><path d="M47.6,16.253v8.77H5v-8.77A1.253,1.253,0,0,1,6.253,15h40.09A1.253,1.253,0,0,1,47.6,16.253Z" transform="translate(1.011 3.539)" fill="#f0f2f5"/><path d="M5,18H47.6v2.506H5Z" transform="translate(1.011 4.298)" fill="#d6dbe3"/><g transform="translate(14.781 33.573)"><path d="M20,35h2.506v3.758H20Z" transform="translate(-9.978 -24.978)" fill="#fcdec3"/><path d="M12,35h2.506v3.758H12Z" transform="translate(-12 -24.978)" fill="#fcdec3"/><path d="M12,27h2.506v3.758H12Z" transform="translate(-12 -27)" fill="#fcdec3"/></g></g></g></svg>