<svg xmlns="http://www.w3.org/2000/svg" xmlns:xlink="http://www.w3.org/1999/xlink" width="134" height="134" viewBox="0 0 134 134"><defs><filter id="a" x="0" y="0" width="134" height="134" filterUnits="userSpaceOnUse"><feOffset dy="2" input="SourceAlpha"/><feGaussianBlur stdDeviation="1" result="b"/><feFlood flood-opacity="0.051"/><feComposite operator="in" in2="b"/><feComposite in="SourceGraphic"/></filter></defs><g transform="translate(-1012 -1882)"><g transform="matrix(1, 0, 0, 1, 1012, 1882)" filter="url(#a)"><circle cx="64" cy="64" r="64" transform="translate(3 1)" fill="#fff"/></g><g transform="translate(1040 1907.529)"><g transform="translate(0 0)"><path d="M64.94,7.4,57,2.431,54.717.231A.818.818,0,0,0,53.332.82V2.251A37.224,37.224,0,0,0,16.343,35.716l9.491-.444c1.041-12.76,11.571-24.252,29.651-24.733l5-.6,4.4-1.312A.818.818,0,0,0,64.94,7.4ZM53.376,2.251h0Z" transform="translate(-13.823 0)" fill="#ffe27a"/><path d="M106.732,64.01l2.935-2.372,2.743-1.1.144-1.238A27.543,27.543,0,0,0,77.9,84.637l.335-.016a27.581,27.581,0,0,1,27.206-23.312l-.044.015v2.05A.818.818,0,0,0,106.732,64.01Z" transform="translate(-65.891 -49.365)" fill="#f9cf58"/><path d="M314.992,52.841H313.6c0-.013,0-.025,0-.038a37.224,37.224,0,0,0-33.55-37.04l5.163,4.972a.818.818,0,0,1-.053,1.226l-1.624,1.312,3.828,3.081c9.514,4.334,16.544,12.368,16.544,23.5q0,.745-.04,1.48c.025.485.04.974.04,1.465,0,.013,0,.025,0,.038h-2.1a.818.818,0,0,0-.636,1.332l2.4,2.968,3.619,5.867a.818.818,0,0,0,1.226.053l5.01-6.59,2.162-2.245a.818.818,0,0,0-.589-1.385Z" transform="translate(-236.87 -13.333)" fill="#ffba57"/><g transform="translate(43.776 9.94)"><path d="M286.812,64.468,283.924,66.8a27.535,27.535,0,0,1,23.22,25.732q.039-.735.04-1.48A27.537,27.537,0,0,0,286.812,64.468Z" transform="translate(-283.924 -64.468)" fill="#ffac3e"/></g><g transform="translate(0 30.35)"><path d="M14.841,255.754c0,.013,0,.025,0,.038C14.848,255.781,14.841,255.767,14.841,255.754Z" transform="translate(-12.553 -246.671)" fill="#8bcaff"/><path d="M.82,205.925H2.4c1.059,18.535,12.029,29.895,26.551,34.182l3.178-.6,2.795-2.935.252-3.421a27.533,27.533,0,0,1-23.2-27.187c0-.013,0-.025,0-.038h2.027a.818.818,0,0,0,.636-1.332l-6.017-7.447a.818.818,0,0,0-1.225-.053L.231,204.539a.818.818,0,0,0,.589,1.385Z" transform="translate(0 -196.842)" fill="#8bcaff"/></g><path d="M44.685,289.335a37.239,37.239,0,0,1-29.729-33.581h-.114c0,.013,0,.025,0,.038a37.224,37.224,0,0,0,33.467,37.033l-.35-1.673Z" transform="translate(-12.554 -216.321)" fill="#6cc4ff"/><path d="M172.7,152.752l-3.113-.468a14.52,14.52,0,0,0-2.289-5.524l1.871-2.533a1.114,1.114,0,0,0-.108-1.449l-1.611-1.611a1.114,1.114,0,0,0-1.449-.108l-2.533,1.871a14.52,14.52,0,0,0-5.524-2.289l-.468-3.113a1.114,1.114,0,0,0-1.1-.948H154.1a1.114,1.114,0,0,0-1.1.948l-.468,3.113A14.521,14.521,0,0,0,147,142.93l-2.533-1.871a1.114,1.114,0,0,0-1.449.108l-1.611,1.611a1.114,1.114,0,0,0-.108,1.449l1.871,2.533a14.52,14.52,0,0,0-2.289,5.524l-3.113.468a1.114,1.114,0,0,0-.948,1.1v2.279a1.114,1.114,0,0,0,.948,1.1l3.113.468a14.522,14.522,0,0,0,2.289,5.524l-1.871,2.533a1.114,1.114,0,0,0,.108,1.449l1.611,1.611a1.114,1.114,0,0,0,1.449.108L147,167.055a14.52,14.52,0,0,0,5.524,2.289l.468,3.113a1.114,1.114,0,0,0,1.1.948h2.279a1.114,1.114,0,0,0,1.1-.948l.468-3.113a14.525,14.525,0,0,0,5.524-2.289L166,168.926a1.114,1.114,0,0,0,1.449-.108l1.611-1.611a1.114,1.114,0,0,0,.108-1.449l-1.871-2.533a14.52,14.52,0,0,0,2.289-5.524l3.113-.468a1.114,1.114,0,0,0,.948-1.1v-2.279A1.114,1.114,0,0,0,172.7,152.752Zm-10.311,5.185a7.435,7.435,0,0,1-7.154,5.929,7.079,7.079,0,0,1-7.1-5.929l-.121-1.472a7.37,7.37,0,1,1,14.445,0Z" transform="translate(-115.728 -115.522)" fill="#ff4755"/><path d="M223.186,267.022a7.4,7.4,0,0,0-.147-1.472,7.371,7.371,0,0,1-14.445,0,7.37,7.37,0,1,0,14.592,1.472Z" transform="translate(-176.307 -224.607)" fill="#fc2b3a"/><path d="M215.775,310.4a37.394,37.394,0,0,1-7.377-.732l5.916,5.7a.818.818,0,0,0,1.385-.589v-1.432h.076a37.224,37.224,0,0,0,37.041-33.552l-.507.526A37.231,37.231,0,0,1,215.775,310.4Z" transform="translate(-176.267 -236.653)" fill="#82d361"/><path d="M238.031,286.4a.818.818,0,0,1-1.226-.053l-3.619-4.479A27.533,27.533,0,0,1,206,305.058h-.076v-2.064a.818.818,0,0,0-1.332-.636l-7.447,6.017a.818.818,0,0,0-.053,1.226l1.531,1.475c2.256,1.127,5.274,2.392,7.8,2.392,18.114,0,32.989-14.44,36.319-31.58l.052-.431Z" transform="translate(-166.492 -238.06)" fill="#98db7c"/></g></g></g></svg>