<svg xmlns="http://www.w3.org/2000/svg" xmlns:xlink="http://www.w3.org/1999/xlink" width="134" height="134" viewBox="0 0 134 134"><defs><filter id="a" x="0" y="0" width="134" height="134" filterUnits="userSpaceOnUse"><feOffset dy="2" input="SourceAlpha"/><feGaussianBlur stdDeviation="1" result="b"/><feFlood flood-opacity="0.051"/><feComposite operator="in" in2="b"/><feComposite in="SourceGraphic"/></filter></defs><g transform="translate(-1213 -1556)"><g transform="matrix(1, 0, 0, 1, 1213, 1556)" filter="url(#a)"><circle cx="64" cy="64" r="64" transform="translate(3 1)" fill="#fff"/></g><g transform="translate(1243 1583.189)"><g transform="translate(0)"><path d="M40.54,207.642H16.521A16.432,16.432,0,0,1,0,191.39v-.153c0-13.045,9.324-24.3,18.444-33.6A2.14,2.14,0,0,1,19.971,157H37.09a2.14,2.14,0,0,1,1.527.641c9.121,9.292,18.444,20.551,18.444,33.6v.155A16.431,16.431,0,0,1,40.54,207.642Z" transform="translate(0 -134.604)" fill="#6b61b1"/><path d="M208.559,157H200v50.642h12.01a16.431,16.431,0,0,0,16.52-16.25v-.155c0-13.045-9.324-24.3-18.444-33.6a2.14,2.14,0,0,0-1.527-.641Z" transform="translate(-171.469 -134.604)" fill="#453d81"/><path d="M118.538,18.117H101.419a2.14,2.14,0,0,1-1.712-.856A22.438,22.438,0,0,1,95,3.566V2.14A2.14,2.14,0,0,1,97.14,0h1.427c3.963,0,9.132,2.567,11.412,3.815C112.259,2.567,117.428,0,121.391,0h1.427a2.14,2.14,0,0,1,2.14,2.14V3.566a22.438,22.438,0,0,1-4.708,13.695A2.14,2.14,0,0,1,118.538,18.117Z" transform="translate(-81.448)" fill="#6b61b1"/><path d="M208.559,18.117a2.14,2.14,0,0,0,1.712-.856,22.438,22.438,0,0,0,4.708-13.695V2.14A2.14,2.14,0,0,0,212.839,0h-1.427C207.449,0,202.28,2.567,200,3.815v14.3Z" transform="translate(-171.469)" fill="#453d81"/><path d="M125,116.872h21.4v6.993H125Z" transform="translate(-107.168 -100.2)" fill="#ef5ca2"/><path d="M200,116.872h10.7v6.993H200Z" transform="translate(-171.469 -100.2)" fill="#ea1c81"/><path d="M159.456,246.326c-.331-.117-.667-.238-1-.364v-6.034a2.618,2.618,0,0,1,.982.567,1.783,1.783,0,0,0,2.679-2.353,6.328,6.328,0,0,0-3.661-1.875v-.983a1.783,1.783,0,1,0-3.566,0v1.181q-.187.049-.378.106a6.128,6.128,0,0,0-4.2,4.8,5.438,5.438,0,0,0,1.8,5.356,13.539,13.539,0,0,0,2.785,1.625v7.833a5.607,5.607,0,0,1-2.519-1.058,1.783,1.783,0,0,0-1.952,2.984,8.829,8.829,0,0,0,4.472,1.661v1.185a1.783,1.783,0,0,0,3.566,0v-1.352a7.1,7.1,0,0,0,3.14-1.683,7.447,7.447,0,0,0,2.293-4.23,6.439,6.439,0,0,0-4.429-7.37Zm-5.154-2.4a1.95,1.95,0,0,1-.491-1.889,2.759,2.759,0,0,1,1.075-1.734v4.028A6.739,6.739,0,0,1,154.3,243.924Zm6.066,9.181a3.835,3.835,0,0,1-1.916,2.712v-6.058A2.892,2.892,0,0,1,160.368,253.1Z" transform="translate(-128.265 -200.191)" fill="#fffa8c"/><path d="M202.661,246.364c-.331-.117-.667-.238-1-.364v-6.034a2.619,2.619,0,0,1,.982.567,1.783,1.783,0,0,0,2.679-2.353,6.328,6.328,0,0,0-3.661-1.875v-.983A1.782,1.782,0,0,0,200,233.545v29.231A1.782,1.782,0,0,0,201.656,261v-1.352a7.1,7.1,0,0,0,3.14-1.683,7.447,7.447,0,0,0,2.293-4.23A6.439,6.439,0,0,0,202.661,246.364Zm.912,6.779a3.835,3.835,0,0,1-1.916,2.712V249.8A2.892,2.892,0,0,1,203.573,253.143Z" transform="translate(-171.469 -200.229)" fill="#ffc178"/></g><g transform="translate(40.228 31.669)"><path d="M298.405,263.369a2.138,2.138,0,0,1-.615-.09A22.157,22.157,0,0,1,282,242.057V229.846a2.14,2.14,0,0,1,2.14-2.14,7.054,7.054,0,0,0,6.344-3.921l.3-.6A2.14,2.14,0,0,1,292.7,222h11.412a2.14,2.14,0,0,1,1.914,1.183l.3.6a7.054,7.054,0,0,0,6.344,3.921,2.14,2.14,0,0,1,2.14,2.14v12.211a22.157,22.157,0,0,1-15.79,21.222A2.138,2.138,0,0,1,298.405,263.369Z" transform="translate(-282 -222)" fill="#9ddff6"/><path d="M411.265,227.706a7.054,7.054,0,0,1-6.344-3.921l-.3-.6A2.14,2.14,0,0,0,402.706,222H397v41.369a2.138,2.138,0,0,0,.615-.09,22.157,22.157,0,0,0,15.79-21.222V229.846A2.14,2.14,0,0,0,411.265,227.706Z" transform="translate(-380.595 -222)" fill="#6ba7ff"/><path d="M312,257.507v10.27A17.761,17.761,0,0,0,324.125,284.7a17.761,17.761,0,0,0,12.125-16.927v-10.27A11.29,11.29,0,0,1,328.53,252h-8.809A11.29,11.29,0,0,1,312,257.507Z" transform="translate(-307.72 -247.72)" fill="#f5f5ff"/><path d="M401.4,252H397v32.7a17.761,17.761,0,0,0,12.125-16.927v-10.27A11.29,11.29,0,0,1,401.4,252Z" transform="translate(-380.595 -247.72)" fill="#e2e7fa"/><path d="M345.749,336.065a2.132,2.132,0,0,1-1.513-.627L340.2,331.4a2.14,2.14,0,0,1,3.026-3.026l2.522,2.522,6.557-6.556a2.14,2.14,0,1,1,3.026,3.026l-8.07,8.07A2.133,2.133,0,0,1,345.749,336.065Z" transform="translate(-331.361 -309.206)" fill="#6b61b1"/><path d="M401.539,324.342,397,328.881v6.052l7.565-7.565a2.14,2.14,0,1,0-3.026-3.026Z" transform="translate(-380.595 -309.206)" fill="#453d81"/></g></g></g></svg>