<svg xmlns="http://www.w3.org/2000/svg" width="1900" height="431.996" viewBox="0 0 1900 431.996"><g transform="translate(-41 -66)"><g transform="translate(41 230.004)"><path d="M402.432,69.158a32.556,32.556,0,0,0-20,6.856,53.516,53.516,0,0,0-28.265-16.923A38.493,38.493,0,0,0,297.736,31.2a18.942,18.942,0,0,0-28.955,2.173,78.687,78.687,0,0,0-31.6-6.842,46.808,46.808,0,0,0-88.1,11.135A76.958,76.958,0,0,0,44.15,70.862a35.1,35.1,0,1,0-.706,68.007,76.949,76.949,0,0,0,129.944,14.147,79.024,79.024,0,0,0,129.833-4.974,53.54,53.54,0,0,0,88.049-15.424,32.714,32.714,0,1,0,11.162-63.46" transform="matrix(1, 0.017, -0.017, 1, 297.187, 14.954)" fill="#f6f3dd"/><path d="M402.432,115.435a32.556,32.556,0,0,1-20-6.856A53.516,53.516,0,0,1,354.171,125.5a38.493,38.493,0,0,1-56.434,27.888,18.942,18.942,0,0,1-28.955-2.173,78.687,78.687,0,0,1-31.6,6.842,46.808,46.808,0,0,1-88.1-11.135A76.958,76.958,0,0,1,44.15,113.731a35.1,35.1,0,1,1-.706-68.007A76.948,76.948,0,0,1,173.387,31.576a79.024,79.024,0,0,1,129.833,4.974A53.54,53.54,0,0,1,391.27,51.974a32.714,32.714,0,1,1,11.162,63.46" transform="translate(0 85.196) rotate(-8)" fill="#f6f3dd"/><path d="M402.431,69.158a32.556,32.556,0,0,0-20,6.856A53.515,53.515,0,0,0,354.17,59.09,38.493,38.493,0,0,0,297.736,31.2a18.942,18.942,0,0,0-28.955,2.174,78.687,78.687,0,0,0-31.6-6.842,46.808,46.808,0,0,0-88.1,11.135A76.958,76.958,0,0,0,44.15,70.862a35.1,35.1,0,1,0-.706,68.007,76.948,76.948,0,0,0,129.943,14.147,79.024,79.024,0,0,0,129.833-4.974,53.54,53.54,0,0,0,88.048-15.424,32.714,32.714,0,1,0,11.162-63.46" transform="matrix(-0.998, -0.07, 0.07, -0.998, 1293.051, 216.501)" fill="#f6f3dd"/><path d="M402.431,115.434a32.556,32.556,0,0,1-20-6.856A53.515,53.515,0,0,1,354.17,125.5a38.493,38.493,0,0,1-56.434,27.888,18.942,18.942,0,0,1-28.955-2.174,78.687,78.687,0,0,1-31.6,6.842,46.808,46.808,0,0,1-88.1-11.135A76.958,76.958,0,0,1,44.15,113.73a35.1,35.1,0,1,1-.706-68.007A76.948,76.948,0,0,1,173.387,31.576,79.024,79.024,0,0,1,303.221,36.55a53.54,53.54,0,0,1,88.048,15.424,32.714,32.714,0,1,1,11.162,63.46" transform="translate(1552.233 207.114) rotate(-177)" fill="#f6f3dd"/><path d="M402.431,69.158a32.556,32.556,0,0,0-20,6.856A53.515,53.515,0,0,0,354.17,59.09,38.493,38.493,0,0,0,297.736,31.2a18.942,18.942,0,0,0-28.955,2.174,78.687,78.687,0,0,0-31.6-6.842,46.808,46.808,0,0,0-88.1,11.135A76.958,76.958,0,0,0,44.15,70.862a35.1,35.1,0,1,0-.706,68.007,76.948,76.948,0,0,0,129.943,14.147,79.024,79.024,0,0,0,129.833-4.974,53.54,53.54,0,0,0,88.048-15.424,32.714,32.714,0,1,0,11.162-63.46" transform="matrix(-0.985, -0.174, 0.174, -0.985, 1867.946, 267.992)" fill="#f6f3dd"/><path d="M312.251,53.66a25.26,25.26,0,0,0-15.515,5.319A41.523,41.523,0,0,0,274.8,45.849a29.867,29.867,0,0,0-43.788-21.638A14.7,14.7,0,0,0,208.55,25.9a61.054,61.054,0,0,0-24.516-5.309,36.319,36.319,0,0,0-68.356,8.64A59.712,59.712,0,0,0,34.256,54.982a27.233,27.233,0,1,0-.548,52.768,59.705,59.705,0,0,0,100.825,10.977,61.316,61.316,0,0,0,100.739-3.86A41.542,41.542,0,0,0,303.59,102.9a25.383,25.383,0,1,0,8.661-49.239" transform="translate(962.053 195.826) rotate(-172)" fill="#f6f3dd"/></g><rect width="1900" height="298" transform="translate(41 66)" fill="none"/></g></svg>