<svg xmlns="http://www.w3.org/2000/svg" xmlns:xlink="http://www.w3.org/1999/xlink" width="324.818" height="233.299" viewBox="0 0 324.818 233.299"><defs><clipPath id="a"><rect x="57" width="324.818" height="233.299" fill="none"/></clipPath></defs><g transform="translate(-57)" clip-path="url(#a)" style="isolation:isolate"><g transform="translate(4014.932 13609.585)"><path d="M586.126,172.777c-.039.007-.076.022-.115.029a8.38,8.38,0,0,1-9.4-7.033c-.286-2.578.253-6.005-2.13-7.029-1.616-.693-3.537.529-4.242,2.141a10.2,10.2,0,0,0-.333,5.2q1.13,10.283,2.261,20.565c.3,2.706.587,5.509-.26,8.1s-3.158,4.9-5.879,4.844c-4.279-.1-6.339-5.544-5.727-9.78s2.716-8.343,2.134-12.582a3.756,3.756,0,0,0-1.444-2.775c-2.172-1.359-4.565,1.462-5.393,3.887a39.236,39.236,0,0,0-2.079,11.313c-.157,4.562.48,9.179-.349,13.668s-3.613,9.049-8.043,10.151a3.282,3.282,0,0,1-2.712-.279,3.606,3.606,0,0,1-1.169-2.134c-2.731-10.99,6.254-21.582,6.6-32.9.045-1.494-.966-3.576-2.294-2.889a9.572,9.572,0,0,1-4.09,8.625c-8.405,55.055-47.075,65.364-46.808,65.346l134.237,3.37c-32,0-40.913-43.385-42.76-79.835" transform="translate(-4361.465 -13654.457)" fill="#22b573"/><path d="M785.338,296.267l14.452-46.408,10.585,46.408Z" transform="translate(-4443.736 -13680.3)" fill="#ed6d62"/><path d="M308.416,298.077q35.964-5.936,72.214-9.916c47.69-5.235,95.7-7.913,143.663-6.774,66.554,1.581,132.733,10.5,198.349,21.75l-27.662,6.2c-8.5,1.906-18.06,4.6-22,12.371-3.846,7.583-.763,17.341-4.772,24.838-.908,1.7-2.429,3.348-4.353,3.344-2.71,0-4.337-3.129-6.888-4.039-1.7-.606-3.567-.154-5.309.3-9.993,2.614-20.25,5.35-28.591,11.443C616,362.764,610.778,370,605.48,376.968A467.537,467.537,0,0,1,565.972,422.5c-3.335,3.377-6.813,6.767-11.112,8.778-11.343,5.3-26.994.5-35.589,9.605-2.935,3.108-4.88,7.725-9.027,8.76-7.158,1.786-10.871-7.853-14.512-14.269-4.268-7.52-11.964-12.333-19.348-16.832l-28.491-17.358a6.874,6.874,0,0,0-3.1-1.248c-3.15-.163-4.75,3.562-6.4,6.252a15.466,15.466,0,0,1-14.938,7.07c-11.661-1.61-16.928-14.963-24.463-24.007C389.026,377.3,372.963,371.726,363,359.771c-3.244-3.892-5.759-8.375-9.251-12.046s-8.371-6.55-13.4-5.908-9.439,6.046-7.626,10.777a35.814,35.814,0,0,1-12.856-22.684c-.485-3.47-.516-7.2-2.462-10.11-1.635-2.449-4.361-3.9-6.975-5.261l-19.693-10.223,37.153-10.021" transform="translate(-4303.756 -13689.148)" fill="#22b573"/><path d="M289.982,309.4s39.813,2.347,45.376,8.838,15.3,3.245,39.409,0,53.318,29.672,97.363,13.909,85.308-19.936,130.744-12.055,25.5-4.173,46.827-6.491,72.184-5.379,72.184-5.379-170.938-8.993-198.293-8.993-190.089-1.854-235.525,8.809" transform="translate(-4303 -13694.238)" fill="#22b573"/><path d="M374.072,292.2l9.768-31.369L391,292.2Z" transform="translate(-4327.34 -13683.405)" fill="#8cc63f"/><path d="M482.708,289.2l9.768-31.369,7.155,31.369Z" transform="translate(-4358.086 -13682.559)" fill="#8cc63f"/><path d="M505.988,302.2l9.768-31.369L522.91,302.2Z" transform="translate(-4364.674 -13686.236)" fill="#8cc63f"/><path d="M647.6,270.2l9.768-31.369,7.154,31.369Z" transform="translate(-4404.755 -13677.181)" fill="#8cc63f"/><path d="M604.924,299.2l9.768-31.369,7.154,31.369Z" transform="translate(-4392.677 -13685.389)" fill="#8cc63f"/><path d="M676.7,289.2l9.768-31.369,7.154,31.369Z" transform="translate(-4412.991 -13682.559)" fill="#8cc63f"/><path d="M773.7,297.2l9.768-31.369L790.62,297.2Z" transform="translate(-4440.442 -13684.821)" fill="#8cc63f"/><path d="M742.66,279.2l9.768-31.369,7.154,31.369Z" transform="translate(-4431.657 -13679.728)" fill="#8cc63f"/><path d="M428.391,284.563l12.64-40.592,9.258,40.592Z" transform="translate(-4342.714 -13678.634)" fill="#fbb03b"/><path d="M525.387,293.563l12.64-40.592,9.258,40.592Z" transform="translate(-4370.166 -13681.181)" fill="#fbb03b"/><path d="M628.2,284.563l12.64-40.592,9.258,40.592Z" transform="translate(-4399.265 -13678.634)" fill="#fbb03b"/><path d="M688.341,288.563l12.64-40.592,9.258,40.592Z" transform="translate(-4416.284 -13679.764)" fill="#fbb03b"/><path d="M754.3,284.563l12.64-40.592,9.258,40.592Z" transform="translate(-4434.952 -13678.634)" fill="#fbb03b"/><path d="M424.511,286.816l9.768-45.018,7.154,45.018Z" transform="translate(-4341.615 -13678.017)" fill="#5f4495"/><path d="M517.627,303.816,527.4,258.8l7.155,45.018Z" transform="translate(-4367.969 -13682.83)" fill="#5f4495"/><path d="M641.783,293.816l9.768-45.018,7.154,45.018Z" transform="translate(-4403.108 -13680)" fill="#5f4495"/><path d="M746.539,286.816l9.768-45.018,7.155,45.018Z" transform="translate(-4432.755 -13678.017)" fill="#5f4495"/><path d="M393.472,287.267l14.451-46.408,10.585,46.408Z" transform="translate(-4332.832 -13677.752)" fill="#ed6d62"/><path d="M653.422,296.267l14.451-46.408,10.585,46.408Z" transform="translate(-4406.401 -13680.3)" fill="#ed6d62"/><path d="M447.79,273.267l14.451-46.408,10.585,46.408Z" transform="translate(-4348.204 -13673.79)" fill="#ed6d62"/><path d="M711.62,273.267l14.451-46.408,10.585,46.408Z" transform="translate(-4422.873 -13673.79)" fill="#ed6d62"/><path d="M416.751,302.2l9.768-31.369,7.154,31.369Z" transform="translate(-4339.419 -13686.236)" fill="#8cc63f"/><path d="M453.61,292.2l9.768-31.369,7.155,31.369Z" transform="translate(-4349.851 -13683.405)" fill="#8cc63f"/><path d="M478.829,282.816,488.6,237.8l7.154,45.018Z" transform="translate(-4356.989 -13676.886)" fill="#5f4495"/><path d="M465.249,301.563l12.64-40.592,9.258,40.592Z" transform="translate(-4353.145 -13683.445)" fill="#fbb03b"/><path d="M699.981,293.816l9.768-45.018,7.155,45.018Z" transform="translate(-4419.578 -13680)" fill="#5f4495"/><path d="M717.44,297.2l9.768-31.369,7.154,31.369Z" transform="translate(-4424.521 -13684.821)" fill="#8cc63f"/><path d="M731.02,301.563l12.64-40.592,9.258,40.592Z" transform="translate(-4428.363 -13683.445)" fill="#fbb03b"/><path d="M444.359,302.107l-.387-.067a1.172,1.172,0,0,1-.88-.946,2.835,2.835,0,0,1,.063-1.132l.021-.108c-.083-.205-.17-.412-.258-.621-.119-.281-.237-.561-.347-.845a31.052,31.052,0,0,1-1.56-7.315l.575-.075a30.665,30.665,0,0,0,1.526,7.179c.085.218.175.435.266.652l.4-2.04a23.264,23.264,0,0,1,2.164-6.993l.507.283a22.828,22.828,0,0,0-2.1,6.822l-.571,2.9a7.916,7.916,0,0,1,.532,1.919Z" transform="translate(-4346.285 -13691.602)" fill="#534741"/><path d="M445.337,287.17c.851-.8.54-2.466,1.553-3.043a4.04,4.04,0,0,1,1.359-.277,2.853,2.853,0,0,0,2.292-2.471c.122-1.288-.657-2.531-.552-3.82a11.151,11.151,0,0,0,.227-1.722c-.1-1.262-1.366-2.054-2.489-2.638l-3.237-1.682a5.062,5.062,0,0,0-1.134-.475c-1.113-.265-2.266.248-3.408.181-1.237-.074-2.583-.8-3.622-.124a10.422,10.422,0,0,1-.906.7,3.83,3.83,0,0,1-1.407.2,3.259,3.259,0,0,0-2.286,5.248,4.347,4.347,0,0,0-.432,7.37,11.181,11.181,0,0,1,1.55,1.058c.356.356.594.812.941,1.177a4.478,4.478,0,0,0,3.979.889,14.413,14.413,0,0,1,4.2-.483c1.162.163,2.522.713,3.378-.089" transform="translate(-4343.014 -13686.231)" fill="#f3a1b0"/><path d="M518.513,314.869l-.3-.052a.9.9,0,0,1-.678-.728,2.177,2.177,0,0,1,.048-.87l.017-.082c-.064-.158-.131-.317-.2-.478-.091-.216-.182-.432-.266-.65a23.876,23.876,0,0,1-1.2-5.625l.442-.057a23.575,23.575,0,0,0,1.174,5.522c.065.168.135.335.205.5l.308-1.569a17.888,17.888,0,0,1,1.665-5.378l.389.218a17.575,17.575,0,0,0-1.616,5.246l-.439,2.228a6.111,6.111,0,0,1,.409,1.476Z" transform="translate(-4367.492 -13696.02)" fill="#534741"/><path d="M519.265,303.382c.654-.613.415-1.9,1.195-2.34a3.107,3.107,0,0,1,1.045-.213,2.193,2.193,0,0,0,1.762-1.9c.094-.99-.505-1.946-.425-2.937a8.545,8.545,0,0,0,.175-1.324c-.075-.971-1.05-1.579-1.914-2.028l-2.489-1.294a3.869,3.869,0,0,0-.872-.366c-.855-.2-1.743.191-2.62.138-.951-.057-1.986-.614-2.785-.1a7.95,7.95,0,0,1-.7.542,2.939,2.939,0,0,1-1.082.151,2.506,2.506,0,0,0-1.759,4.035,3.343,3.343,0,0,0-.332,5.668,8.505,8.505,0,0,1,1.192.814c.273.273.457.625.723.9a3.445,3.445,0,0,0,3.06.683,11.071,11.071,0,0,1,3.227-.371c.894.125,1.939.549,2.6-.068" transform="translate(-4364.976 -13691.887)" fill="#f3a1b0"/><path d="M639.646,301.053l-.47-.082a1.425,1.425,0,0,1-1.072-1.151,3.424,3.424,0,0,1,.077-1.378l.025-.13c-.1-.25-.206-.5-.314-.756-.144-.341-.289-.683-.422-1.027a37.807,37.807,0,0,1-1.9-8.9l.7-.091a37.274,37.274,0,0,0,1.858,8.737c.1.265.213.53.324.793l.489-2.482a28.3,28.3,0,0,1,2.633-8.51l.616.344a27.828,27.828,0,0,0-2.557,8.3l-.695,3.525a9.687,9.687,0,0,1,.648,2.335Z" transform="translate(-4401.349 -13690.549)" fill="#534741"/><path d="M640.835,282.876c1.035-.97.657-3,1.89-3.7a4.916,4.916,0,0,1,1.653-.338,3.472,3.472,0,0,0,2.789-3.006c.148-1.567-.8-3.08-.672-4.649a13.639,13.639,0,0,0,.276-2.1c-.117-1.536-1.662-2.5-3.029-3.211l-3.939-2.046a6.079,6.079,0,0,0-1.38-.579c-1.354-.322-2.758.3-4.147.219-1.5-.09-3.143-.971-4.408-.151a12.535,12.535,0,0,1-1.1.858,4.662,4.662,0,0,1-1.712.24,3.965,3.965,0,0,0-2.784,6.385,5.289,5.289,0,0,0-.525,8.969,13.556,13.556,0,0,1,1.886,1.288c.432.432.723.989,1.144,1.432,1.187,1.248,3.142,1.351,4.843,1.081s3.4-.825,5.108-.586c1.414.2,3.068.868,4.11-.108" transform="translate(-4397.369 -13684.011)" fill="#f3a1b0"/><path d="M795.335,302.789l-.332-.058a1.006,1.006,0,0,1-.757-.813,2.434,2.434,0,0,1,.054-.973l.019-.092c-.072-.176-.146-.354-.222-.534-.1-.241-.2-.483-.3-.726a26.715,26.715,0,0,1-1.341-6.288l.495-.065a26.334,26.334,0,0,0,1.311,6.172c.073.188.151.374.229.561l.346-1.754a20.007,20.007,0,0,1,1.861-6.012l.435.244a19.617,19.617,0,0,0-1.806,5.864l-.49,2.49a6.872,6.872,0,0,1,.458,1.65Z" transform="translate(-4445.75 -13692.286)" fill="#534741"/><path d="M796.175,289.949c.731-.685.464-2.119,1.335-2.616a3.5,3.5,0,0,1,1.168-.239,2.453,2.453,0,0,0,1.97-2.124c.1-1.107-.565-2.175-.475-3.284a9.5,9.5,0,0,0,.2-1.48c-.083-1.085-1.174-1.766-2.139-2.268l-2.783-1.445a4.324,4.324,0,0,0-.974-.409c-.957-.227-1.949.213-2.93.155-1.063-.063-2.22-.686-3.114-.107a8.782,8.782,0,0,1-.779.606,3.3,3.3,0,0,1-1.21.17,2.8,2.8,0,0,0-1.966,4.511,3.736,3.736,0,0,0-.371,6.336,9.526,9.526,0,0,1,1.332.91c.306.305.511.7.809,1.011a3.85,3.85,0,0,0,3.421.764,12.4,12.4,0,0,1,3.608-.414c1,.139,2.168.613,2.9-.077" transform="translate(-4442.939 -13687.667)" fill="#f3a1b0"/><path d="M688.859,304.657l-.338-.059a1.025,1.025,0,0,1-.77-.827,2.462,2.462,0,0,1,.055-.99l.018-.094c-.072-.179-.148-.361-.226-.544-.1-.245-.207-.491-.3-.738a27.2,27.2,0,0,1-1.364-6.4l.5-.065a26.758,26.758,0,0,0,1.334,6.278c.074.191.153.381.232.57l.351-1.784a20.372,20.372,0,0,1,1.893-6.115l.442.248a19.97,19.97,0,0,0-1.837,5.965l-.5,2.532a6.966,6.966,0,0,1,.465,1.678Z" transform="translate(-4415.602 -13692.762)" fill="#534741"/><path d="M689.713,291.6c.744-.7.472-2.156,1.358-2.661a3.541,3.541,0,0,1,1.188-.242,2.494,2.494,0,0,0,2-2.16c.107-1.126-.574-2.213-.483-3.34a9.78,9.78,0,0,0,.2-1.506c-.084-1.1-1.194-1.8-2.177-2.307l-2.831-1.471a4.378,4.378,0,0,0-.991-.416c-.973-.232-1.982.217-2.98.157-1.082-.064-2.258-.7-3.168-.108a9.111,9.111,0,0,1-.792.617,3.363,3.363,0,0,1-1.23.172,2.849,2.849,0,0,0-2,4.589,3.8,3.8,0,0,0-.378,6.444,9.764,9.764,0,0,1,1.355.926c.311.31.52.711.822,1.029a3.916,3.916,0,0,0,3.48.776,12.625,12.625,0,0,1,3.67-.422c1.016.143,2.2.624,2.953-.077" transform="translate(-4412.742 -13688.063)" fill="#f3a1b0"/><path d="M480.769,306.267l14.451-46.408L505.8,306.267Z" transform="translate(-4357.538 -13683.129)" fill="#ed6d62"/><path d="M601.1,132.465c-.728,2.768-1.859,6.279-4.716,6.445-2.218.129-3.875-2.023-4.708-4.082s-1.38-4.407-3.114-5.8a5.024,5.024,0,0,0-7.294,1.59c-.841,1.673-.64,3.652-.547,5.522.164,3.3-.2,6.927-2.5,9.311s-7.037,2.424-8.386-.6c-.8-1.782-.179-3.852.527-5.673s1.506-3.766,1.04-5.662-2.91-3.363-4.424-2.131a4.746,4.746,0,0,0-1.257,2.841,18.632,18.632,0,0,1-4.745,9.024,156.384,156.384,0,0,1-1.333,31.878,9.574,9.574,0,0,0,4.089-8.626c1.329-.686,2.339,1.4,2.294,2.89-.343,11.319-9.329,21.91-6.6,32.9a3.606,3.606,0,0,0,1.169,2.135,3.282,3.282,0,0,0,2.712.278c4.43-1.1,7.214-5.662,8.043-10.151s.192-9.106.349-13.669a39.247,39.247,0,0,1,2.079-11.313c.829-2.426,3.221-5.247,5.393-3.887a3.753,3.753,0,0,1,1.444,2.774c.582,4.24-1.523,8.347-2.134,12.583s1.448,9.684,5.727,9.78c2.721.061,5.033-2.256,5.88-4.843s.558-5.39.26-8.1q-1.132-10.283-2.262-20.565a10.2,10.2,0,0,1,.333-5.2c.7-1.611,2.625-2.834,4.242-2.14,2.383,1.023,1.844,4.45,2.131,7.028a8.379,8.379,0,0,0,9.4,7.033c.038-.007.075-.021.114-.029a360.691,360.691,0,0,1,.112-36.425c-1.588.809-2.825,2.968-3.326,4.874" transform="translate(-4379.655 -13645.695)" fill="#42210b"/><path d="M557.073,110.586a220.6,220.6,0,0,1,3.386,28.135,19.077,19.077,0,0,0,4.745-9.162,4.942,4.942,0,0,1,1.257-2.911c1.514-1.231,3.958.2,4.424,2.1s-.335,3.825-1.04,5.645-1.324,3.882-.527,5.663c1.35,3.019,6.1,2.976,8.387.592s2.661-6.01,2.5-9.314c-.092-1.871-.294-3.851.547-5.524a5.024,5.024,0,0,1,7.294-1.59c1.734,1.39,2.28,3.737,3.114,5.8s2.49,4.212,4.708,4.082c2.857-.167,3.989-3.677,4.716-6.445a7.322,7.322,0,0,1,3.326-4.6c.413-7.86.921-12.468.921-12.468Z" transform="translate(-4379.133 -13640.882)" fill="#603813"/><path d="M607.5,108.345c.12-1.177-1.076-2.042-2.175-2.481-3.216-1.282-6.786-1.235-10.248-1.17l-37.4.7a5.646,5.646,0,0,0-2.636.478,1.936,1.936,0,0,0-1.029,2.251c.378.949,1.587,1.187,2.6,1.286,9.063.879,18.144,1.544,27.225,2.208,7.133.522,14.48,1.02,21.281-1.2,1.063-.347,2.271-.964,2.385-2.076" transform="translate(-4378.238 -13639.209)" fill="#42210b"/><path d="M546.418,12.6c50.733,8.408,84.985,56.71,76.635,107.084l11.2,1.856c9.331-56.3-29.06-110.7-85.975-120.134S437.471,31.078,428.14,87.38l11.194,1.855C447.683,38.861,495.685,4.192,546.418,12.6" transform="translate(-4342.642 -13609.585)" fill="#f3a1b0"/><path d="M550.837,17.077C500.1,8.669,452.1,43.337,443.753,93.712l14.487,2.4a78.428,78.428,0,1,1,154.746,25.646l14.487,2.4c8.349-50.374-25.9-98.676-76.635-107.084" transform="translate(-4347.062 -13614.063)" fill="#29abe2"/><path d="M551.018,56.286c32.279,5.35,54,36.526,48.761,68.133l18.926,3.137a78.428,78.428,0,0,0-154.746-25.646l18.926,3.137c5.238-31.608,35.854-54.111,68.133-48.76" transform="translate(-4352.78 -13619.858)" fill="#ffd000"/><path d="M506.881,119.588a10.385,10.385,0,0,0-6.378,2.187,17.07,17.07,0,0,0-9.016-5.4,12.279,12.279,0,0,0-18-8.9,6.042,6.042,0,0,0-9.236.693,25.1,25.1,0,0,0-10.079-2.182,14.931,14.931,0,0,0-28.1,3.552A24.548,24.548,0,0,0,392.6,120.132a11.2,11.2,0,1,0-.225,21.693,24.545,24.545,0,0,0,41.449,4.513,25.207,25.207,0,0,0,41.414-1.587,17.078,17.078,0,0,0,28.086-4.92,10.435,10.435,0,1,0,3.56-20.243" transform="translate(-4328.597 -13637.188)" fill="#fff"/><path d="M644.286,56.455A4.866,4.866,0,0,0,641.3,57.48a7.994,7.994,0,0,0-4.224-2.529,5.753,5.753,0,0,0-8.434-4.168,2.83,2.83,0,0,0-4.327.325,11.754,11.754,0,0,0-4.722-1.022,6.995,6.995,0,0,0-13.165,1.664,11.5,11.5,0,0,0-15.683,4.96,5.246,5.246,0,1,0-.105,10.163,11.5,11.5,0,0,0,19.419,2.114,11.809,11.809,0,0,0,19.4-.743,8,8,0,0,0,13.159-2.305,4.889,4.889,0,1,0,1.668-9.484" transform="translate(-4386.795 -13622.636)" fill="#fffffe"/><path d="M706.2,156.863a6.621,6.621,0,0,0-4.067,1.395,10.883,10.883,0,0,0-5.75-3.442,7.831,7.831,0,0,0-11.482-5.674,3.853,3.853,0,0,0-5.891.442,16,16,0,0,0-6.428-1.392,9.523,9.523,0,0,0-17.923,2.265,15.658,15.658,0,0,0-21.35,6.753,7.141,7.141,0,1,0-.143,13.835,15.655,15.655,0,0,0,26.437,2.879,16.076,16.076,0,0,0,26.413-1.012,10.894,10.894,0,0,0,17.913-3.138,6.655,6.655,0,1,0,2.271-12.911" transform="translate(-4398.167 -13649.999)" fill="#bae3fa"/></g></g></svg>