<svg xmlns="http://www.w3.org/2000/svg" width="53.822" height="53.822" viewBox="0 0 53.822 53.822"><g transform="translate(-122.478 -111.147)"><path d="M444.968,381.871a26.911,26.911,0,1,1-26.911-26.911,26.911,26.911,0,0,1,26.911,26.911" transform="translate(-268.668 -243.813)" fill="#fff"/><path d="M418.507,385.436l-.463-10.428,8.714-6.331,9.775,3.663v8.551l-9.775,7.1Z" transform="translate(-287.144 -253.234)" fill="#f2f2f2"/><path d="M511.542,440.607l-10.061,2.782-5.1-7.143,3.734-11.49,8.251-2.557,6.5,8.164Z" transform="translate(-340.951 -289.997)" fill="#fafafa"/><path d="M486.864,387.993l-9.775-7.1v-8.551l9.775-3.663,8.714,6.331-.463,10.428Z" transform="translate(-327.7 -253.234)" fill="#fafafa"/><path d="M412.141,443.388l-10.061-2.782-3.328-10.244,6.5-8.164,8.251,2.557,3.733,11.49Z" transform="translate(-273.892 -289.997)" fill="#fafafa"/><path d="M463.793,474.2l-5.755,8.709H447.267l-5.755-8.709,5.1-7.143h12.082Z" transform="translate(-303.263 -320.812)" fill="#f2f2f2"/><path d="M399.607,365.586l-3.842,1.262A26.77,26.77,0,0,0,391.2,380.9l2.364,3.276,6.5-8.164Zm28.263-6.331-2.392-3.269a27.081,27.081,0,0,0-14.766,0l-2.392,3.269,9.775,3.663Zm-3.734,30.807,3.734-11.49-9.775-7.1-9.775,7.1,3.733,11.49Zm16.29-23.214-3.842-1.262-.463,10.428,6.5,8.164,2.364-3.276a26.77,26.77,0,0,0-4.563-14.055m-16.945,39.065,3.857,1.24a26.972,26.972,0,0,0,11.945-8.689l.013-4.041L429.236,397.2Zm-26.587-11.491.013,4.041a26.975,26.975,0,0,0,11.945,8.689l3.857-1.24-5.755-8.709Z" transform="translate(-268.707 -243.813)" fill="#404041"/></g></svg>