<svg xmlns="http://www.w3.org/2000/svg" xmlns:xlink="http://www.w3.org/1999/xlink" width="1296.239" height="66.48" viewBox="0 0 1296.239 66.48"><defs><clipPath id="a"><rect width="444" height="66.48" fill="#22b573"/></clipPath></defs><g transform="translate(-316 -1966.836)"><g transform="translate(741 1966.836)"><g transform="translate(0 0)" clip-path="url(#a)"><path d="M6.98,45.472s1.957,6.085,4.146,12.121c1.191,3.306,2.449,6.587,3.345,8.887H429.528c.9-2.3,2.155-5.581,3.345-8.887,2.19-6.036,4.146-12.121,4.146-12.121s1.972-6.084,3.709-12.208S444,20.984,444,20.984s-2.938,5.623-6.066,11.108-6.421,10.847-6.421,10.847-1.565,2.548-3.674,5.838l-.449-6.649-1.556-23.067-4.493,22.679-1.323,6.678c-.847-2.545-1.407-4.387-1.407-4.387s-1.589-5.162-2.861-10.461c-1.29-5.288-2.252-10.7-2.252-10.7s-.555,5.459-.764,10.993c-.231,5.525-.112,11.105-.112,11.105s.06,3.359.3,7.481c-.381-1.048-.768-2.131-1.146-3.22-2.151-6.133-4.037-12.39-4.037-12.39s-1.9-6.248-3.53-12.609c-1.644-6.353-3.01-12.808-3.01-12.808s-.144,6.592.008,13.219c.134,6.623.566,13.269.566,13.269s.414,6.643,1.128,13.3c.153,1.455.319,2.907.487,4.294-.393-1.978-.837-4.2-1.281-6.436-1.39-6.594-2.779-13.188-2.779-13.188s-1.461-6.57-2.923-13.14c-1.533-6.545-3.065-13.09-3.065-13.09s.026,6.714.053,13.427c-.048,6.706-.1,13.411-.1,13.411l-.246,13.392c-.084,2.848-.168,5.691-.237,8.022h-.05c.015-1.259.025-2.58.021-3.9,0-5.885-.257-11.73-.257-11.73s-.239-5.851-.724-11.651-1.185-11.554-1.185-11.554-.8,5.741-1.842,11.408-2.287,11.266-2.287,11.266-1.248,5.6-2.724,11.107l-.066.247c.082-1.354.143-2.761.177-4.168.036-3.451-.089-6.871-.311-9.419-.078-1.274-.233-2.332-.3-3.07l-.125-1.159-.166-1.155c-.118-.734-.228-1.783-.466-3.029-.412-2.5-1.13-5.79-1.99-9.014-.907-3.219-1.954-6.368-2.857-8.676-.42-1.163-.857-2.1-1.121-2.771L376.1,9.588s.067.406.184,1.115.312,1.712.453,2.934c.348,2.427.638,5.677.78,8.9.095,3.237.041,6.447-.122,8.841-.049,1.2-.177,2.191-.226,2.885s-.1,1.088-.1,1.088-.049.4-.135,1.086-.18,1.675-.383,2.847c-.227,1.565-.583,3.471-1.012,5.46-1.452-3.846-2.449-6.865-2.449-6.865s-2.072-6.183-3.66-12.572c-1.616-6.373-2.73-12.919-2.73-12.919s-.4,6.62-.276,13.313c.1,6.686.73,13.407.73,13.407s.471,5.268,1.374,11.133c-.049-.074-.1-.144-.149-.218a66.586,66.586,0,0,1-3.439-6c-.85-1.7-1.369-2.876-1.369-2.876s-.515-1.166-1.211-2.968c-.524-1.34-1.1-3.048-1.643-4.877.019-.415.037-.85.055-1.321.116-2.849.1-6.646-.054-10.411-.2-3.77-.553-7.506-.938-10.286-.16-1.391-.382-2.543-.5-3.349l-.2-1.265s-.022.465-.062,1.28-.068,1.974-.192,3.363c-.184,2.778-.594,6.461-1.142,10.1-.595,3.637-1.324,7.224-1.987,9.881s-1.152,4.4-1.152,4.4-.5,1.753-1.333,4.338c-.08.249-.181.537-.268.8-.148-.9-.249-1.432-.249-1.432a106.192,106.192,0,0,0-2.508-10.4,102.585,102.585,0,0,0-3.574-9.915,102.03,102.03,0,0,1,.577,10.362c.015,4.222-.363,8.358-.5,9.728-.674-3.691-1.125-6.416-1.125-6.416s-1.123-6.7-2.011-13.469S342,5.719,342,5.719s-.213,1.7-.5,4.251c.373-3.582.695-6.108.695-6.108s-2.44,7.2-4.476,14.576c-2.06,7.361-3.707,14.873-3.707,14.873S332.4,40.526,331.161,48c.287-7.392.167-13.908.167-13.908s-.1-8.617-.839-17.144C329.808,8.41,328.5,0,328.5,0s-.21,8.514-1.046,16.93c-.78,8.428-2.175,16.72-2.175,16.72s-.595,3.675-1.561,8.519c-.5-1.742-.93-3.392-1.247-4.8-.332-1.306-.512-2.411-.684-3.181s-.249-1.214-.249-1.214-.075-.444-.206-1.22-.35-1.889-.512-3.233c-.4-2.686-.744-6.3-.928-9.953-.131-3.648-.1-7.33.075-10.092.048-1.387.191-2.53.244-3.34l.106-1.27-.362,1.221c-.215.78-.592,1.886-.923,3.24-.736,2.7-1.533,6.346-2.164,10.058-.579,3.711-.993,7.477-1.158,10.319-.12,1.421-.119,2.607-.165,3.441s-.049,1.31-.049,1.31,0,.476,0,1.31-.038,2.032.024,3.464c.005.281.014.577.023.876-.052-.283-.107-.579-.168-.9-.368-1.883-.936-4.367-1.62-6.8s-1.474-4.817-2.134-6.571-1.128-2.9-1.128-2.9a84.075,84.075,0,0,1,.255,9.845c-.079,2.442-.277,4.859-.481,6.656-.112.95-.215,1.72-.289,2.244l-.7-4.852L305.039,6.665l-1.5,24.089c-.21-1.013-.435-2.057-.67-3.1-1.265-5.786-2.846-11.453-2.846-11.453s.08,5.886-.172,11.726c-.213,5.845-.746,11.63-.746,11.63s-.107,1.241-.3,3.13c-1.24-3.847-2.051-7.083-2.051-7.083s-1.383-5.386-2.195-10.97c-.846-5.568-1.092-11.283-1.092-11.283s-1.268,5.567-1.938,11.321c-.584,4.737-.748,9.554-.788,11.093-.006-.48-.016-.945-.033-1.367-.072-1.89-.18-3.134-.18-3.134a66.357,66.357,0,0,0-1.628-9.751,62.689,62.689,0,0,0-2-6.36c-.641-1.686-1.119-2.775-1.119-2.775a61.706,61.706,0,0,1,.1,9.411,60.785,60.785,0,0,1-.818,6.287c-.32,1.685-.583,2.784-.583,2.784a60.837,60.837,0,0,1-2.6,8.083c-1.155-3.528-2.048-6.764-2.048-6.764s-1.157-4.133-2.073-8.374-1.614-8.558-1.614-8.558-.834,4.294-1.415,8.675c-.6,4.373-.934,8.822-.934,8.822s-.017.21-.043.57c-.418-1.374-.658-2.238-.658-2.238s-1.671-5.887-2.7-12.008c-1.063-6.1-1.447-12.376-1.447-12.376s-1.135,6.171-1.581,12.516c-.487,6.33-.271,12.767-.271,12.767s.011.4.04,1.1c-.456-2.162-1.193-5.5-2.05-8.794-1.418-5.543-3.158-10.942-3.158-10.942s.249,5.674.149,11.3c-.078,5.636-.5,11.208-.5,11.208s-.4,5.581-1.135,11.076c-.024.183-.049.364-.073.546C259.947,46,259.5,44.409,259.1,42.8c-1.581-6.111-2.631-12.409-2.631-12.409s-1.081-6.283-1.611-12.706c-.563-6.411-.557-12.918-.557-12.918s-1.515,6.32-2.472,12.817c-.992,6.483-1.414,13.1-1.414,13.1s-.26,3.749-.333,8.459c-.255-1.027-.4-1.654-.4-1.654s-1.349-5.674-2.305-11.483c-.98-5.8-1.554-11.707-1.554-11.707s-.942,5.854-1.475,11.816c-.557,5.952-.7,11.985-.7,11.985s-.024.908-.04,2.366c-.248-1.029-.5-2.006-.739-2.843-.611-2.148-1.074-3.551-1.074-3.551s-.465-1.41-1.243-3.476-1.939-4.763-3.216-7.371c-1.317-2.6-2.741-5.106-3.9-6.922s-1.969-2.987-1.969-2.987a83.725,83.725,0,0,1,3,10.9c.526,2.756.919,5.505,1.107,7.572s.266,3.435.266,3.435.056,1.086.084,2.76l-7.438-16.995,1.735,18.89.909,9.9c-.12-.275-.242-.544-.36-.821-1.185-2.924-2.24-5.936-2.9-8.241-.367-1.146-.579-2.123-.773-2.8s-.284-1.07-.284-1.07l-.241-1.079c-.14-.689-.406-1.668-.609-2.861-.479-2.381-.942-5.6-1.249-8.86a90.15,90.15,0,0,1-.28-9.047c0-1.246.1-2.276.122-3s.059-1.145.059-1.145l-.316,1.1c-.186.7-.521,1.7-.8,2.921a91.838,91.838,0,0,0-1.812,9.084c-.068.5-.125,1-.185,1.5-.278-1.88-.631-3.9-1.091-5.9a60.679,60.679,0,0,0-2.994-9.684c-.468-1.288-1.031-2.3-1.359-3.02l-.541-1.124.3,1.214c.171.776.5,1.85.694,3.2a58.779,58.779,0,0,1,.894,9.778,88.323,88.323,0,0,1-.471,9.744c-.3,2.643-.545,4.391-.545,4.391s-.071.437-.193,1.2-.269,1.855-.535,3.159c-.472,2.609-1.222,6.064-2.1,9.481-.252.991-.517,1.974-.786,2.935l1-10.945,1.735-18.89-7.437,16.995c.027-1.674.084-2.76.084-2.76s.071-1.37.266-3.435.582-4.816,1.108-7.572a83.607,83.607,0,0,1,3-10.9s-.815,1.168-1.97,2.987-2.584,4.325-3.9,6.922c-1.277,2.608-2.445,5.3-3.217,7.371s-1.243,3.476-1.243,3.476-.463,1.4-1.074,3.551c-.24.837-.491,1.814-.739,2.843-.015-1.457-.04-2.365-.04-2.365s-.14-6.033-.7-11.985c-.532-5.962-1.475-11.816-1.475-11.816s-.575,5.909-1.554,11.707c-.956,5.809-2.305,11.483-2.305,11.483s-.147.627-.4,1.654c-.074-4.71-.333-8.459-.333-8.459s-.423-6.618-1.414-13.1c-.958-6.5-2.473-12.817-2.473-12.817s.006,6.508-.557,12.918c-.53,6.423-1.611,12.706-1.611,12.706s-1.05,6.3-2.631,12.409c-.407,1.608-.849,3.2-1.281,4.671-.024-.182-.049-.364-.073-.546-.734-5.5-1.135-11.076-1.135-11.076s-.42-5.572-.5-11.208c-.1-5.629.149-11.3.149-11.3s-1.741,5.4-3.158,10.942c-.857,3.3-1.593,6.632-2.05,8.794.03-.7.04-1.1.04-1.1s.216-6.436-.271-12.767c-.445-6.346-1.581-12.516-1.581-12.516s-.383,6.274-1.446,12.376c-1.025,6.121-2.7,12.008-2.7,12.008s-.24.864-.658,2.239c-.026-.36-.043-.57-.043-.57s-.338-4.449-.933-8.822-1.416-8.675-1.416-8.675-.683,4.326-1.614,8.558-2.073,8.374-2.073,8.374-.893,3.236-2.048,6.764a60.835,60.835,0,0,1-2.6-8.083s-.263-1.1-.582-2.784a60.774,60.774,0,0,1-.819-6.287,61.707,61.707,0,0,1,.1-9.411s-.478,1.089-1.119,2.775a62.543,62.543,0,0,0-2,6.36,66.315,66.315,0,0,0-1.629,9.751s-.107,1.244-.18,3.134c-.017.422-.027.887-.033,1.367-.04-1.539-.2-6.355-.788-11.093-.67-5.754-1.938-11.321-1.938-11.321s-.246,5.715-1.092,11.283c-.811,5.585-2.195,10.97-2.195,10.97s-.81,3.236-2.051,7.083c-.195-1.889-.3-3.13-.3-3.13s-.533-5.785-.746-11.63c-.252-5.84-.172-11.726-.172-11.726s-1.581,5.667-2.846,11.453c-.235,1.041-.46,2.085-.67,3.1l-1.5-24.089-4.231,29.159-.7,4.851c-.074-.523-.177-1.293-.289-2.243-.2-1.8-.4-4.213-.481-6.656a84.069,84.069,0,0,1,.255-9.845s-.482,1.144-1.128,2.9-1.458,4.136-2.134,6.571-1.252,4.917-1.62,6.8c-.062.321-.116.617-.168.9.009-.3.018-.595.022-.875.062-1.432.012-2.631.024-3.464s0-1.31,0-1.31l-.05-1.31c-.046-.833-.045-2.019-.165-3.441-.166-2.841-.579-6.607-1.158-10.319-.632-3.711-1.428-7.362-2.165-10.058-.331-1.354-.707-2.46-.923-3.24s-.361-1.221-.361-1.221.039.462.105,1.27.2,1.954.244,3.34c.172,2.762.206,6.444.075,10.092-.184,3.653-.531,7.268-.928,9.953-.162,1.344-.4,2.454-.512,3.233l-.205,1.22s-.091.441-.249,1.214-.352,1.875-.685,3.181c-.318,1.407-.749,3.057-1.247,4.8-.966-4.845-1.561-8.519-1.561-8.519s-1.4-8.292-2.175-16.72C115.706,8.514,115.5,0,115.5,0s-1.306,8.41-1.986,16.948c-.736,8.528-.839,17.144-.839,17.144s-.121,6.516.166,13.908c-1.239-7.475-2.847-14.691-2.847-14.691s-1.647-7.512-3.707-14.873c-2.037-7.374-4.477-14.576-4.477-14.576s.322,2.529.7,6.115c-.29-2.557-.5-4.258-.5-4.258s-.663,6.817-1.565,13.578-2.011,13.469-2.011,13.469-.451,2.726-1.125,6.416c-.139-1.37-.517-5.506-.5-9.728a101.932,101.932,0,0,1,.577-10.362A102.507,102.507,0,0,0,93.8,29.006a106.093,106.093,0,0,0-2.507,10.4s-.1.533-.249,1.432c-.087-.263-.188-.551-.268-.8-.834-2.585-1.333-4.338-1.333-4.338s-.5-1.746-1.151-4.4S86.9,25.052,86.3,21.415c-.548-3.637-.958-7.32-1.142-10.1-.124-1.389-.14-2.548-.192-3.363s-.062-1.28-.062-1.28l-.2,1.265c-.114.806-.335,1.958-.5,3.349-.384,2.78-.734,6.516-.937,10.286-.159,3.765-.17,7.562-.055,10.411.018.471.037.905.055,1.32-.541,1.83-1.119,3.537-1.643,4.877-.7,1.8-1.212,2.968-1.212,2.968s-.519,1.174-1.369,2.876a66.428,66.428,0,0,1-3.439,6c-.049.074-.1.144-.148.218.9-5.865,1.373-11.133,1.373-11.133s.634-6.722.73-13.407c.129-6.693-.276-13.313-.276-13.313s-1.113,6.546-2.73,12.919C72.977,31.7,70.9,37.884,70.9,37.884s-1,3.019-2.449,6.865c-.428-1.989-.785-3.9-1.012-5.46-.2-1.173-.284-2.157-.383-2.847s-.135-1.086-.135-1.086-.035-.4-.1-1.088-.178-1.689-.227-2.885c-.163-2.394-.217-5.6-.122-8.841.141-3.227.432-6.476.78-8.9.141-1.222.349-2.222.454-2.934L67.9,9.588s-.158.379-.434,1.042-.7,1.608-1.12,2.771c-.9,2.309-1.951,5.457-2.858,8.676-.86,3.224-1.578,6.515-1.99,9.014-.238,1.246-.348,2.3-.466,3.029s-.165,1.155-.165,1.155-.046.422-.126,1.159-.222,1.8-.3,3.07c-.222,2.548-.346,5.968-.311,9.419.033,1.407.1,2.814.177,4.168-.022-.082-.044-.164-.066-.247-1.477-5.507-2.724-11.107-2.724-11.107s-1.261-5.592-2.287-11.266-1.842-11.408-1.842-11.408S52.67,24.81,52.2,30.616s-.723,11.651-.723,11.651-.254,5.846-.257,11.73c0,1.324.005,2.645.021,3.9H51l-.45-19.951L50.007,13.5,44.515,37.331,40.9,53.06q.1-.921.2-1.85c.714-6.654,1.128-13.3,1.128-13.3s.433-6.647.566-13.269c.152-6.627.008-13.219.008-13.219s-1.366,6.455-3.011,12.808c-1.628,6.361-3.53,12.609-3.53,12.609s-1.886,6.258-4.037,12.39c-.379,1.089-.766,2.172-1.146,3.22.238-4.122.3-7.481.3-7.481s.119-5.58-.112-11.105c-.21-5.534-.764-10.993-.764-10.993s-.962,5.409-2.253,10.7c-1.272,5.3-2.86,10.461-2.86,10.461s-.561,1.842-1.408,4.387l-1.323-6.678L18.167,19.061,16.61,42.128l-.449,6.649c-2.109-3.29-3.674-5.838-3.674-5.838s-3.3-5.352-6.422-10.847S0,20.984,0,20.984s1.518,6.156,3.271,12.28S6.98,45.472,6.98,45.472" transform="translate(0 0)" fill="#22b573"/></g></g><g transform="translate(316 1966.836)"><g transform="translate(0 0)" clip-path="url(#a)"><path d="M6.98,45.472s1.957,6.085,4.146,12.121c1.191,3.306,2.449,6.587,3.345,8.887H429.528c.9-2.3,2.155-5.581,3.345-8.887,2.19-6.036,4.146-12.121,4.146-12.121s1.972-6.084,3.709-12.208S444,20.984,444,20.984s-2.938,5.623-6.066,11.108-6.421,10.847-6.421,10.847-1.565,2.548-3.674,5.838l-.449-6.649-1.556-23.067-4.493,22.679-1.323,6.678c-.847-2.545-1.407-4.387-1.407-4.387s-1.589-5.162-2.861-10.461c-1.29-5.288-2.252-10.7-2.252-10.7s-.555,5.459-.764,10.993c-.231,5.525-.112,11.105-.112,11.105s.06,3.359.3,7.481c-.381-1.048-.768-2.131-1.146-3.22-2.151-6.133-4.037-12.39-4.037-12.39s-1.9-6.248-3.53-12.609c-1.644-6.353-3.01-12.808-3.01-12.808s-.144,6.592.008,13.219c.134,6.623.566,13.269.566,13.269s.414,6.643,1.128,13.3c.153,1.455.319,2.907.487,4.294-.393-1.978-.837-4.2-1.281-6.436-1.39-6.594-2.779-13.188-2.779-13.188s-1.461-6.57-2.923-13.14c-1.533-6.545-3.065-13.09-3.065-13.09s.026,6.714.053,13.427c-.048,6.706-.1,13.411-.1,13.411l-.246,13.392c-.084,2.848-.168,5.691-.237,8.022h-.05c.015-1.259.025-2.58.021-3.9,0-5.885-.257-11.73-.257-11.73s-.239-5.851-.724-11.651-1.185-11.554-1.185-11.554-.8,5.741-1.842,11.408-2.287,11.266-2.287,11.266-1.248,5.6-2.724,11.107l-.066.247c.082-1.354.143-2.761.177-4.168.036-3.451-.089-6.871-.311-9.419-.078-1.274-.233-2.332-.3-3.07l-.125-1.159-.166-1.155c-.118-.734-.228-1.783-.466-3.029-.412-2.5-1.13-5.79-1.99-9.014-.907-3.219-1.954-6.368-2.857-8.676-.42-1.163-.857-2.1-1.121-2.771L376.1,9.588s.067.406.184,1.115.312,1.712.453,2.934c.348,2.427.638,5.677.78,8.9.095,3.237.041,6.447-.122,8.841-.049,1.2-.177,2.191-.226,2.885s-.1,1.088-.1,1.088-.049.4-.135,1.086-.18,1.675-.383,2.847c-.227,1.565-.583,3.471-1.012,5.46-1.452-3.846-2.449-6.865-2.449-6.865s-2.072-6.183-3.66-12.572c-1.616-6.373-2.73-12.919-2.73-12.919s-.4,6.62-.276,13.313c.1,6.686.73,13.407.73,13.407s.471,5.268,1.374,11.133c-.049-.074-.1-.144-.149-.218a66.586,66.586,0,0,1-3.439-6c-.85-1.7-1.369-2.876-1.369-2.876s-.515-1.166-1.211-2.968c-.524-1.34-1.1-3.048-1.643-4.877.019-.415.037-.85.055-1.321.116-2.849.1-6.646-.054-10.411-.2-3.77-.553-7.506-.938-10.286-.16-1.391-.382-2.543-.5-3.349l-.2-1.265s-.022.465-.062,1.28-.068,1.974-.192,3.363c-.184,2.778-.594,6.461-1.142,10.1-.595,3.637-1.324,7.224-1.987,9.881s-1.152,4.4-1.152,4.4-.5,1.753-1.333,4.338c-.08.249-.181.537-.268.8-.148-.9-.249-1.432-.249-1.432a106.192,106.192,0,0,0-2.508-10.4,102.585,102.585,0,0,0-3.574-9.915,102.03,102.03,0,0,1,.577,10.362c.015,4.222-.363,8.358-.5,9.728-.674-3.691-1.125-6.416-1.125-6.416s-1.123-6.7-2.011-13.469S342,5.719,342,5.719s-.213,1.7-.5,4.251c.373-3.582.695-6.108.695-6.108s-2.44,7.2-4.476,14.576c-2.06,7.361-3.707,14.873-3.707,14.873S332.4,40.526,331.161,48c.287-7.392.167-13.908.167-13.908s-.1-8.617-.839-17.144C329.808,8.41,328.5,0,328.5,0s-.21,8.514-1.046,16.93c-.78,8.428-2.175,16.72-2.175,16.72s-.595,3.675-1.561,8.519c-.5-1.742-.93-3.392-1.247-4.8-.332-1.306-.512-2.411-.684-3.181s-.249-1.214-.249-1.214-.075-.444-.206-1.22-.35-1.889-.512-3.233c-.4-2.686-.744-6.3-.928-9.953-.131-3.648-.1-7.33.075-10.092.048-1.387.191-2.53.244-3.34l.106-1.27-.362,1.221c-.215.78-.592,1.886-.923,3.24-.736,2.7-1.533,6.346-2.164,10.058-.579,3.711-.993,7.477-1.158,10.319-.12,1.421-.119,2.607-.165,3.441s-.049,1.31-.049,1.31,0,.476,0,1.31-.038,2.032.024,3.464c.005.281.014.577.023.876-.052-.283-.107-.579-.168-.9-.368-1.883-.936-4.367-1.62-6.8s-1.474-4.817-2.134-6.571-1.128-2.9-1.128-2.9a84.075,84.075,0,0,1,.255,9.845c-.079,2.442-.277,4.859-.481,6.656-.112.95-.215,1.72-.289,2.244l-.7-4.852L305.039,6.665l-1.5,24.089c-.21-1.013-.435-2.057-.67-3.1-1.265-5.786-2.846-11.453-2.846-11.453s.08,5.886-.172,11.726c-.213,5.845-.746,11.63-.746,11.63s-.107,1.241-.3,3.13c-1.24-3.847-2.051-7.083-2.051-7.083s-1.383-5.386-2.195-10.97c-.846-5.568-1.092-11.283-1.092-11.283s-1.268,5.567-1.938,11.321c-.584,4.737-.748,9.554-.788,11.093-.006-.48-.016-.945-.033-1.367-.072-1.89-.18-3.134-.18-3.134a66.357,66.357,0,0,0-1.628-9.751,62.689,62.689,0,0,0-2-6.36c-.641-1.686-1.119-2.775-1.119-2.775a61.706,61.706,0,0,1,.1,9.411,60.785,60.785,0,0,1-.818,6.287c-.32,1.685-.583,2.784-.583,2.784a60.837,60.837,0,0,1-2.6,8.083c-1.155-3.528-2.048-6.764-2.048-6.764s-1.157-4.133-2.073-8.374-1.614-8.558-1.614-8.558-.834,4.294-1.415,8.675c-.6,4.373-.934,8.822-.934,8.822s-.017.21-.043.57c-.418-1.374-.658-2.238-.658-2.238s-1.671-5.887-2.7-12.008c-1.063-6.1-1.447-12.376-1.447-12.376s-1.135,6.171-1.581,12.516c-.487,6.33-.271,12.767-.271,12.767s.011.4.04,1.1c-.456-2.162-1.193-5.5-2.05-8.794-1.418-5.543-3.158-10.942-3.158-10.942s.249,5.674.149,11.3c-.078,5.636-.5,11.208-.5,11.208s-.4,5.581-1.135,11.076c-.024.183-.049.364-.073.546C259.947,46,259.5,44.409,259.1,42.8c-1.581-6.111-2.631-12.409-2.631-12.409s-1.081-6.283-1.611-12.706c-.563-6.411-.557-12.918-.557-12.918s-1.515,6.32-2.472,12.817c-.992,6.483-1.414,13.1-1.414,13.1s-.26,3.749-.333,8.459c-.255-1.027-.4-1.654-.4-1.654s-1.349-5.674-2.305-11.483c-.98-5.8-1.554-11.707-1.554-11.707s-.942,5.854-1.475,11.816c-.557,5.952-.7,11.985-.7,11.985s-.024.908-.04,2.366c-.248-1.029-.5-2.006-.739-2.843-.611-2.148-1.074-3.551-1.074-3.551s-.465-1.41-1.243-3.476-1.939-4.763-3.216-7.371c-1.317-2.6-2.741-5.106-3.9-6.922s-1.969-2.987-1.969-2.987a83.725,83.725,0,0,1,3,10.9c.526,2.756.919,5.505,1.107,7.572s.266,3.435.266,3.435.056,1.086.084,2.76l-7.438-16.995,1.735,18.89.909,9.9c-.12-.275-.242-.544-.36-.821-1.185-2.924-2.24-5.936-2.9-8.241-.367-1.146-.579-2.123-.773-2.8s-.284-1.07-.284-1.07l-.241-1.079c-.14-.689-.406-1.668-.609-2.861-.479-2.381-.942-5.6-1.249-8.86a90.15,90.15,0,0,1-.28-9.047c0-1.246.1-2.276.122-3s.059-1.145.059-1.145l-.316,1.1c-.186.7-.521,1.7-.8,2.921a91.838,91.838,0,0,0-1.812,9.084c-.068.5-.125,1-.185,1.5-.278-1.88-.631-3.9-1.091-5.9a60.679,60.679,0,0,0-2.994-9.684c-.468-1.288-1.031-2.3-1.359-3.02l-.541-1.124.3,1.214c.171.776.5,1.85.694,3.2a58.779,58.779,0,0,1,.894,9.778,88.323,88.323,0,0,1-.471,9.744c-.3,2.643-.545,4.391-.545,4.391s-.071.437-.193,1.2-.269,1.855-.535,3.159c-.472,2.609-1.222,6.064-2.1,9.481-.252.991-.517,1.974-.786,2.935l1-10.945,1.735-18.89-7.437,16.995c.027-1.674.084-2.76.084-2.76s.071-1.37.266-3.435.582-4.816,1.108-7.572a83.607,83.607,0,0,1,3-10.9s-.815,1.168-1.97,2.987-2.584,4.325-3.9,6.922c-1.277,2.608-2.445,5.3-3.217,7.371s-1.243,3.476-1.243,3.476-.463,1.4-1.074,3.551c-.24.837-.491,1.814-.739,2.843-.015-1.457-.04-2.365-.04-2.365s-.14-6.033-.7-11.985c-.532-5.962-1.475-11.816-1.475-11.816s-.575,5.909-1.554,11.707c-.956,5.809-2.305,11.483-2.305,11.483s-.147.627-.4,1.654c-.074-4.71-.333-8.459-.333-8.459s-.423-6.618-1.414-13.1c-.958-6.5-2.473-12.817-2.473-12.817s.006,6.508-.557,12.918c-.53,6.423-1.611,12.706-1.611,12.706s-1.05,6.3-2.631,12.409c-.407,1.608-.849,3.2-1.281,4.671-.024-.182-.049-.364-.073-.546-.734-5.5-1.135-11.076-1.135-11.076s-.42-5.572-.5-11.208c-.1-5.629.149-11.3.149-11.3s-1.741,5.4-3.158,10.942c-.857,3.3-1.593,6.632-2.05,8.794.03-.7.04-1.1.04-1.1s.216-6.436-.271-12.767c-.445-6.346-1.581-12.516-1.581-12.516s-.383,6.274-1.446,12.376c-1.025,6.121-2.7,12.008-2.7,12.008s-.24.864-.658,2.239c-.026-.36-.043-.57-.043-.57s-.338-4.449-.933-8.822-1.416-8.675-1.416-8.675-.683,4.326-1.614,8.558-2.073,8.374-2.073,8.374-.893,3.236-2.048,6.764a60.835,60.835,0,0,1-2.6-8.083s-.263-1.1-.582-2.784a60.774,60.774,0,0,1-.819-6.287,61.707,61.707,0,0,1,.1-9.411s-.478,1.089-1.119,2.775a62.543,62.543,0,0,0-2,6.36,66.315,66.315,0,0,0-1.629,9.751s-.107,1.244-.18,3.134c-.017.422-.027.887-.033,1.367-.04-1.539-.2-6.355-.788-11.093-.67-5.754-1.938-11.321-1.938-11.321s-.246,5.715-1.092,11.283c-.811,5.585-2.195,10.97-2.195,10.97s-.81,3.236-2.051,7.083c-.195-1.889-.3-3.13-.3-3.13s-.533-5.785-.746-11.63c-.252-5.84-.172-11.726-.172-11.726s-1.581,5.667-2.846,11.453c-.235,1.041-.46,2.085-.67,3.1l-1.5-24.089-4.231,29.159-.7,4.851c-.074-.523-.177-1.293-.289-2.243-.2-1.8-.4-4.213-.481-6.656a84.069,84.069,0,0,1,.255-9.845s-.482,1.144-1.128,2.9-1.458,4.136-2.134,6.571-1.252,4.917-1.62,6.8c-.062.321-.116.617-.168.9.009-.3.018-.595.022-.875.062-1.432.012-2.631.024-3.464s0-1.31,0-1.31l-.05-1.31c-.046-.833-.045-2.019-.165-3.441-.166-2.841-.579-6.607-1.158-10.319-.632-3.711-1.428-7.362-2.165-10.058-.331-1.354-.707-2.46-.923-3.24s-.361-1.221-.361-1.221.039.462.105,1.27.2,1.954.244,3.34c.172,2.762.206,6.444.075,10.092-.184,3.653-.531,7.268-.928,9.953-.162,1.344-.4,2.454-.512,3.233l-.205,1.22s-.091.441-.249,1.214-.352,1.875-.685,3.181c-.318,1.407-.749,3.057-1.247,4.8-.966-4.845-1.561-8.519-1.561-8.519s-1.4-8.292-2.175-16.72C115.706,8.514,115.5,0,115.5,0s-1.306,8.41-1.986,16.948c-.736,8.528-.839,17.144-.839,17.144s-.121,6.516.166,13.908c-1.239-7.475-2.847-14.691-2.847-14.691s-1.647-7.512-3.707-14.873c-2.037-7.374-4.477-14.576-4.477-14.576s.322,2.529.7,6.115c-.29-2.557-.5-4.258-.5-4.258s-.663,6.817-1.565,13.578-2.011,13.469-2.011,13.469-.451,2.726-1.125,6.416c-.139-1.37-.517-5.506-.5-9.728a101.932,101.932,0,0,1,.577-10.362A102.507,102.507,0,0,0,93.8,29.006a106.093,106.093,0,0,0-2.507,10.4s-.1.533-.249,1.432c-.087-.263-.188-.551-.268-.8-.834-2.585-1.333-4.338-1.333-4.338s-.5-1.746-1.151-4.4S86.9,25.052,86.3,21.415c-.548-3.637-.958-7.32-1.142-10.1-.124-1.389-.14-2.548-.192-3.363s-.062-1.28-.062-1.28l-.2,1.265c-.114.806-.335,1.958-.5,3.349-.384,2.78-.734,6.516-.937,10.286-.159,3.765-.17,7.562-.055,10.411.018.471.037.905.055,1.32-.541,1.83-1.119,3.537-1.643,4.877-.7,1.8-1.212,2.968-1.212,2.968s-.519,1.174-1.369,2.876a66.428,66.428,0,0,1-3.439,6c-.049.074-.1.144-.148.218.9-5.865,1.373-11.133,1.373-11.133s.634-6.722.73-13.407c.129-6.693-.276-13.313-.276-13.313s-1.113,6.546-2.73,12.919C72.977,31.7,70.9,37.884,70.9,37.884s-1,3.019-2.449,6.865c-.428-1.989-.785-3.9-1.012-5.46-.2-1.173-.284-2.157-.383-2.847s-.135-1.086-.135-1.086-.035-.4-.1-1.088-.178-1.689-.227-2.885c-.163-2.394-.217-5.6-.122-8.841.141-3.227.432-6.476.78-8.9.141-1.222.349-2.222.454-2.934L67.9,9.588s-.158.379-.434,1.042-.7,1.608-1.12,2.771c-.9,2.309-1.951,5.457-2.858,8.676-.86,3.224-1.578,6.515-1.99,9.014-.238,1.246-.348,2.3-.466,3.029s-.165,1.155-.165,1.155-.046.422-.126,1.159-.222,1.8-.3,3.07c-.222,2.548-.346,5.968-.311,9.419.033,1.407.1,2.814.177,4.168-.022-.082-.044-.164-.066-.247-1.477-5.507-2.724-11.107-2.724-11.107s-1.261-5.592-2.287-11.266-1.842-11.408-1.842-11.408S52.67,24.81,52.2,30.616s-.723,11.651-.723,11.651-.254,5.846-.257,11.73c0,1.324.005,2.645.021,3.9H51l-.45-19.951L50.007,13.5,44.515,37.331,40.9,53.06q.1-.921.2-1.85c.714-6.654,1.128-13.3,1.128-13.3s.433-6.647.566-13.269c.152-6.627.008-13.219.008-13.219s-1.366,6.455-3.011,12.808c-1.628,6.361-3.53,12.609-3.53,12.609s-1.886,6.258-4.037,12.39c-.379,1.089-.766,2.172-1.146,3.22.238-4.122.3-7.481.3-7.481s.119-5.58-.112-11.105c-.21-5.534-.764-10.993-.764-10.993s-.962,5.409-2.253,10.7c-1.272,5.3-2.86,10.461-2.86,10.461s-.561,1.842-1.408,4.387l-1.323-6.678L18.167,19.061,16.61,42.128l-.449,6.649c-2.109-3.29-3.674-5.838-3.674-5.838s-3.3-5.352-6.422-10.847S0,20.984,0,20.984s1.518,6.156,3.271,12.28S6.98,45.472,6.98,45.472" transform="translate(0 0)" fill="#22b573"/></g></g><g transform="translate(1168.239 1966.836)"><g transform="translate(0 0)" clip-path="url(#a)"><path d="M6.98,45.472s1.957,6.085,4.146,12.121c1.191,3.306,2.449,6.587,3.345,8.887H429.528c.9-2.3,2.155-5.581,3.345-8.887,2.19-6.036,4.146-12.121,4.146-12.121s1.972-6.084,3.709-12.208S444,20.984,444,20.984s-2.938,5.623-6.066,11.108-6.421,10.847-6.421,10.847-1.565,2.548-3.674,5.838l-.449-6.649-1.556-23.067-4.493,22.679-1.323,6.678c-.847-2.545-1.407-4.387-1.407-4.387s-1.589-5.162-2.861-10.461c-1.29-5.288-2.252-10.7-2.252-10.7s-.555,5.459-.764,10.993c-.231,5.525-.112,11.105-.112,11.105s.06,3.359.3,7.481c-.381-1.048-.768-2.131-1.146-3.22-2.151-6.133-4.037-12.39-4.037-12.39s-1.9-6.248-3.53-12.609c-1.644-6.353-3.01-12.808-3.01-12.808s-.144,6.592.008,13.219c.134,6.623.566,13.269.566,13.269s.414,6.643,1.128,13.3c.153,1.455.319,2.907.487,4.294-.393-1.978-.837-4.2-1.281-6.436-1.39-6.594-2.779-13.188-2.779-13.188s-1.461-6.57-2.923-13.14c-1.533-6.545-3.065-13.09-3.065-13.09s.026,6.714.053,13.427c-.048,6.706-.1,13.411-.1,13.411l-.246,13.392c-.084,2.848-.168,5.691-.237,8.022h-.05c.015-1.259.025-2.58.021-3.9,0-5.885-.257-11.73-.257-11.73s-.239-5.851-.724-11.651-1.185-11.554-1.185-11.554-.8,5.741-1.842,11.408-2.287,11.266-2.287,11.266-1.248,5.6-2.724,11.107l-.066.247c.082-1.354.143-2.761.177-4.168.036-3.451-.089-6.871-.311-9.419-.078-1.274-.233-2.332-.3-3.07l-.125-1.159-.166-1.155c-.118-.734-.228-1.783-.466-3.029-.412-2.5-1.13-5.79-1.99-9.014-.907-3.219-1.954-6.368-2.857-8.676-.42-1.163-.857-2.1-1.121-2.771L376.1,9.588s.067.406.184,1.115.312,1.712.453,2.934c.348,2.427.638,5.677.78,8.9.095,3.237.041,6.447-.122,8.841-.049,1.2-.177,2.191-.226,2.885s-.1,1.088-.1,1.088-.049.4-.135,1.086-.18,1.675-.383,2.847c-.227,1.565-.583,3.471-1.012,5.46-1.452-3.846-2.449-6.865-2.449-6.865s-2.072-6.183-3.66-12.572c-1.616-6.373-2.73-12.919-2.73-12.919s-.4,6.62-.276,13.313c.1,6.686.73,13.407.73,13.407s.471,5.268,1.374,11.133c-.049-.074-.1-.144-.149-.218a66.586,66.586,0,0,1-3.439-6c-.85-1.7-1.369-2.876-1.369-2.876s-.515-1.166-1.211-2.968c-.524-1.34-1.1-3.048-1.643-4.877.019-.415.037-.85.055-1.321.116-2.849.1-6.646-.054-10.411-.2-3.77-.553-7.506-.938-10.286-.16-1.391-.382-2.543-.5-3.349l-.2-1.265s-.022.465-.062,1.28-.068,1.974-.192,3.363c-.184,2.778-.594,6.461-1.142,10.1-.595,3.637-1.324,7.224-1.987,9.881s-1.152,4.4-1.152,4.4-.5,1.753-1.333,4.338c-.08.249-.181.537-.268.8-.148-.9-.249-1.432-.249-1.432a106.192,106.192,0,0,0-2.508-10.4,102.585,102.585,0,0,0-3.574-9.915,102.03,102.03,0,0,1,.577,10.362c.015,4.222-.363,8.358-.5,9.728-.674-3.691-1.125-6.416-1.125-6.416s-1.123-6.7-2.011-13.469S342,5.719,342,5.719s-.213,1.7-.5,4.251c.373-3.582.695-6.108.695-6.108s-2.44,7.2-4.476,14.576c-2.06,7.361-3.707,14.873-3.707,14.873S332.4,40.526,331.161,48c.287-7.392.167-13.908.167-13.908s-.1-8.617-.839-17.144C329.808,8.41,328.5,0,328.5,0s-.21,8.514-1.046,16.93c-.78,8.428-2.175,16.72-2.175,16.72s-.595,3.675-1.561,8.519c-.5-1.742-.93-3.392-1.247-4.8-.332-1.306-.512-2.411-.684-3.181s-.249-1.214-.249-1.214-.075-.444-.206-1.22-.35-1.889-.512-3.233c-.4-2.686-.744-6.3-.928-9.953-.131-3.648-.1-7.33.075-10.092.048-1.387.191-2.53.244-3.34l.106-1.27-.362,1.221c-.215.78-.592,1.886-.923,3.24-.736,2.7-1.533,6.346-2.164,10.058-.579,3.711-.993,7.477-1.158,10.319-.12,1.421-.119,2.607-.165,3.441s-.049,1.31-.049,1.31,0,.476,0,1.31-.038,2.032.024,3.464c.005.281.014.577.023.876-.052-.283-.107-.579-.168-.9-.368-1.883-.936-4.367-1.62-6.8s-1.474-4.817-2.134-6.571-1.128-2.9-1.128-2.9a84.075,84.075,0,0,1,.255,9.845c-.079,2.442-.277,4.859-.481,6.656-.112.95-.215,1.72-.289,2.244l-.7-4.852L305.039,6.665l-1.5,24.089c-.21-1.013-.435-2.057-.67-3.1-1.265-5.786-2.846-11.453-2.846-11.453s.08,5.886-.172,11.726c-.213,5.845-.746,11.63-.746,11.63s-.107,1.241-.3,3.13c-1.24-3.847-2.051-7.083-2.051-7.083s-1.383-5.386-2.195-10.97c-.846-5.568-1.092-11.283-1.092-11.283s-1.268,5.567-1.938,11.321c-.584,4.737-.748,9.554-.788,11.093-.006-.48-.016-.945-.033-1.367-.072-1.89-.18-3.134-.18-3.134a66.357,66.357,0,0,0-1.628-9.751,62.689,62.689,0,0,0-2-6.36c-.641-1.686-1.119-2.775-1.119-2.775a61.706,61.706,0,0,1,.1,9.411,60.785,60.785,0,0,1-.818,6.287c-.32,1.685-.583,2.784-.583,2.784a60.837,60.837,0,0,1-2.6,8.083c-1.155-3.528-2.048-6.764-2.048-6.764s-1.157-4.133-2.073-8.374-1.614-8.558-1.614-8.558-.834,4.294-1.415,8.675c-.6,4.373-.934,8.822-.934,8.822s-.017.21-.043.57c-.418-1.374-.658-2.238-.658-2.238s-1.671-5.887-2.7-12.008c-1.063-6.1-1.447-12.376-1.447-12.376s-1.135,6.171-1.581,12.516c-.487,6.33-.271,12.767-.271,12.767s.011.4.04,1.1c-.456-2.162-1.193-5.5-2.05-8.794-1.418-5.543-3.158-10.942-3.158-10.942s.249,5.674.149,11.3c-.078,5.636-.5,11.208-.5,11.208s-.4,5.581-1.135,11.076c-.024.183-.049.364-.073.546C259.947,46,259.5,44.409,259.1,42.8c-1.581-6.111-2.631-12.409-2.631-12.409s-1.081-6.283-1.611-12.706c-.563-6.411-.557-12.918-.557-12.918s-1.515,6.32-2.472,12.817c-.992,6.483-1.414,13.1-1.414,13.1s-.26,3.749-.333,8.459c-.255-1.027-.4-1.654-.4-1.654s-1.349-5.674-2.305-11.483c-.98-5.8-1.554-11.707-1.554-11.707s-.942,5.854-1.475,11.816c-.557,5.952-.7,11.985-.7,11.985s-.024.908-.04,2.366c-.248-1.029-.5-2.006-.739-2.843-.611-2.148-1.074-3.551-1.074-3.551s-.465-1.41-1.243-3.476-1.939-4.763-3.216-7.371c-1.317-2.6-2.741-5.106-3.9-6.922s-1.969-2.987-1.969-2.987a83.725,83.725,0,0,1,3,10.9c.526,2.756.919,5.505,1.107,7.572s.266,3.435.266,3.435.056,1.086.084,2.76l-7.438-16.995,1.735,18.89.909,9.9c-.12-.275-.242-.544-.36-.821-1.185-2.924-2.24-5.936-2.9-8.241-.367-1.146-.579-2.123-.773-2.8s-.284-1.07-.284-1.07l-.241-1.079c-.14-.689-.406-1.668-.609-2.861-.479-2.381-.942-5.6-1.249-8.86a90.15,90.15,0,0,1-.28-9.047c0-1.246.1-2.276.122-3s.059-1.145.059-1.145l-.316,1.1c-.186.7-.521,1.7-.8,2.921a91.838,91.838,0,0,0-1.812,9.084c-.068.5-.125,1-.185,1.5-.278-1.88-.631-3.9-1.091-5.9a60.679,60.679,0,0,0-2.994-9.684c-.468-1.288-1.031-2.3-1.359-3.02l-.541-1.124.3,1.214c.171.776.5,1.85.694,3.2a58.779,58.779,0,0,1,.894,9.778,88.323,88.323,0,0,1-.471,9.744c-.3,2.643-.545,4.391-.545,4.391s-.071.437-.193,1.2-.269,1.855-.535,3.159c-.472,2.609-1.222,6.064-2.1,9.481-.252.991-.517,1.974-.786,2.935l1-10.945,1.735-18.89-7.437,16.995c.027-1.674.084-2.76.084-2.76s.071-1.37.266-3.435.582-4.816,1.108-7.572a83.607,83.607,0,0,1,3-10.9s-.815,1.168-1.97,2.987-2.584,4.325-3.9,6.922c-1.277,2.608-2.445,5.3-3.217,7.371s-1.243,3.476-1.243,3.476-.463,1.4-1.074,3.551c-.24.837-.491,1.814-.739,2.843-.015-1.457-.04-2.365-.04-2.365s-.14-6.033-.7-11.985c-.532-5.962-1.475-11.816-1.475-11.816s-.575,5.909-1.554,11.707c-.956,5.809-2.305,11.483-2.305,11.483s-.147.627-.4,1.654c-.074-4.71-.333-8.459-.333-8.459s-.423-6.618-1.414-13.1c-.958-6.5-2.473-12.817-2.473-12.817s.006,6.508-.557,12.918c-.53,6.423-1.611,12.706-1.611,12.706s-1.05,6.3-2.631,12.409c-.407,1.608-.849,3.2-1.281,4.671-.024-.182-.049-.364-.073-.546-.734-5.5-1.135-11.076-1.135-11.076s-.42-5.572-.5-11.208c-.1-5.629.149-11.3.149-11.3s-1.741,5.4-3.158,10.942c-.857,3.3-1.593,6.632-2.05,8.794.03-.7.04-1.1.04-1.1s.216-6.436-.271-12.767c-.445-6.346-1.581-12.516-1.581-12.516s-.383,6.274-1.446,12.376c-1.025,6.121-2.7,12.008-2.7,12.008s-.24.864-.658,2.239c-.026-.36-.043-.57-.043-.57s-.338-4.449-.933-8.822-1.416-8.675-1.416-8.675-.683,4.326-1.614,8.558-2.073,8.374-2.073,8.374-.893,3.236-2.048,6.764a60.835,60.835,0,0,1-2.6-8.083s-.263-1.1-.582-2.784a60.774,60.774,0,0,1-.819-6.287,61.707,61.707,0,0,1,.1-9.411s-.478,1.089-1.119,2.775a62.543,62.543,0,0,0-2,6.36,66.315,66.315,0,0,0-1.629,9.751s-.107,1.244-.18,3.134c-.017.422-.027.887-.033,1.367-.04-1.539-.2-6.355-.788-11.093-.67-5.754-1.938-11.321-1.938-11.321s-.246,5.715-1.092,11.283c-.811,5.585-2.195,10.97-2.195,10.97s-.81,3.236-2.051,7.083c-.195-1.889-.3-3.13-.3-3.13s-.533-5.785-.746-11.63c-.252-5.84-.172-11.726-.172-11.726s-1.581,5.667-2.846,11.453c-.235,1.041-.46,2.085-.67,3.1l-1.5-24.089-4.231,29.159-.7,4.851c-.074-.523-.177-1.293-.289-2.243-.2-1.8-.4-4.213-.481-6.656a84.069,84.069,0,0,1,.255-9.845s-.482,1.144-1.128,2.9-1.458,4.136-2.134,6.571-1.252,4.917-1.62,6.8c-.062.321-.116.617-.168.9.009-.3.018-.595.022-.875.062-1.432.012-2.631.024-3.464s0-1.31,0-1.31l-.05-1.31c-.046-.833-.045-2.019-.165-3.441-.166-2.841-.579-6.607-1.158-10.319-.632-3.711-1.428-7.362-2.165-10.058-.331-1.354-.707-2.46-.923-3.24s-.361-1.221-.361-1.221.039.462.105,1.27.2,1.954.244,3.34c.172,2.762.206,6.444.075,10.092-.184,3.653-.531,7.268-.928,9.953-.162,1.344-.4,2.454-.512,3.233l-.205,1.22s-.091.441-.249,1.214-.352,1.875-.685,3.181c-.318,1.407-.749,3.057-1.247,4.8-.966-4.845-1.561-8.519-1.561-8.519s-1.4-8.292-2.175-16.72C115.706,8.514,115.5,0,115.5,0s-1.306,8.41-1.986,16.948c-.736,8.528-.839,17.144-.839,17.144s-.121,6.516.166,13.908c-1.239-7.475-2.847-14.691-2.847-14.691s-1.647-7.512-3.707-14.873c-2.037-7.374-4.477-14.576-4.477-14.576s.322,2.529.7,6.115c-.29-2.557-.5-4.258-.5-4.258s-.663,6.817-1.565,13.578-2.011,13.469-2.011,13.469-.451,2.726-1.125,6.416c-.139-1.37-.517-5.506-.5-9.728a101.932,101.932,0,0,1,.577-10.362A102.507,102.507,0,0,0,93.8,29.006a106.093,106.093,0,0,0-2.507,10.4s-.1.533-.249,1.432c-.087-.263-.188-.551-.268-.8-.834-2.585-1.333-4.338-1.333-4.338s-.5-1.746-1.151-4.4S86.9,25.052,86.3,21.415c-.548-3.637-.958-7.32-1.142-10.1-.124-1.389-.14-2.548-.192-3.363s-.062-1.28-.062-1.28l-.2,1.265c-.114.806-.335,1.958-.5,3.349-.384,2.78-.734,6.516-.937,10.286-.159,3.765-.17,7.562-.055,10.411.018.471.037.905.055,1.32-.541,1.83-1.119,3.537-1.643,4.877-.7,1.8-1.212,2.968-1.212,2.968s-.519,1.174-1.369,2.876a66.428,66.428,0,0,1-3.439,6c-.049.074-.1.144-.148.218.9-5.865,1.373-11.133,1.373-11.133s.634-6.722.73-13.407c.129-6.693-.276-13.313-.276-13.313s-1.113,6.546-2.73,12.919C72.977,31.7,70.9,37.884,70.9,37.884s-1,3.019-2.449,6.865c-.428-1.989-.785-3.9-1.012-5.46-.2-1.173-.284-2.157-.383-2.847s-.135-1.086-.135-1.086-.035-.4-.1-1.088-.178-1.689-.227-2.885c-.163-2.394-.217-5.6-.122-8.841.141-3.227.432-6.476.78-8.9.141-1.222.349-2.222.454-2.934L67.9,9.588s-.158.379-.434,1.042-.7,1.608-1.12,2.771c-.9,2.309-1.951,5.457-2.858,8.676-.86,3.224-1.578,6.515-1.99,9.014-.238,1.246-.348,2.3-.466,3.029s-.165,1.155-.165,1.155-.046.422-.126,1.159-.222,1.8-.3,3.07c-.222,2.548-.346,5.968-.311,9.419.033,1.407.1,2.814.177,4.168-.022-.082-.044-.164-.066-.247-1.477-5.507-2.724-11.107-2.724-11.107s-1.261-5.592-2.287-11.266-1.842-11.408-1.842-11.408S52.67,24.81,52.2,30.616s-.723,11.651-.723,11.651-.254,5.846-.257,11.73c0,1.324.005,2.645.021,3.9H51l-.45-19.951L50.007,13.5,44.515,37.331,40.9,53.06q.1-.921.2-1.85c.714-6.654,1.128-13.3,1.128-13.3s.433-6.647.566-13.269c.152-6.627.008-13.219.008-13.219s-1.366,6.455-3.011,12.808c-1.628,6.361-3.53,12.609-3.53,12.609s-1.886,6.258-4.037,12.39c-.379,1.089-.766,2.172-1.146,3.22.238-4.122.3-7.481.3-7.481s.119-5.58-.112-11.105c-.21-5.534-.764-10.993-.764-10.993s-.962,5.409-2.253,10.7c-1.272,5.3-2.86,10.461-2.86,10.461s-.561,1.842-1.408,4.387l-1.323-6.678L18.167,19.061,16.61,42.128l-.449,6.649c-2.109-3.29-3.674-5.838-3.674-5.838s-3.3-5.352-6.422-10.847S0,20.984,0,20.984s1.518,6.156,3.271,12.28S6.98,45.472,6.98,45.472" transform="translate(0 0)" fill="#22b573"/></g></g></g></svg>