<svg xmlns="http://www.w3.org/2000/svg" xmlns:xlink="http://www.w3.org/1999/xlink" width="171.647" height="162.77" viewBox="0 0 171.647 162.77"><defs><clipPath id="a"><rect width="46.26" height="38.771" fill="none"/></clipPath><clipPath id="c"><rect width="10.369" height="3.498" fill="none"/></clipPath><clipPath id="g"><rect width="20.581" height="9.527" fill="none"/></clipPath></defs><g transform="translate(0 0)"><rect width="78.247" height="2.478" transform="matrix(0.109, -0.994, 0.994, 0.109, 117.606, 77.78)" fill="#fff"/><path d="M436.744,38.849c-19.6,13.764-33.23-8.271-45.872-.863l3.382-30.841c12.642-7.408,26.27,14.627,45.872.862Z" transform="translate(-268.479 -3.831)" fill="#f6a505"/><path d="M126.92,121.183c-5.8-1.255-9.822,4.273-27.319,2.663S78.885,92.811,76.956,87.516s-4.472-9.038-11.977-8.723-13.482,21.248-19.9,34.466S33.548,129.466,27.7,133.517c-7.528,5.214-16.45,6.821-21.082,9.053-11.6,5.589-5.028,11.7-2.107,13.44,10.824,6.451,17.72,10.183,20.664,18.356,1.378,3.825-2.166,15.39-5.222,22.257-.29.651-.54,1.3-.768,1.952l-.249-.276c-.339,3.943-3.389,7.021-6.087,9.915a2.65,2.65,0,0,0-.746,1.161c-.205.926.595,1.767,1.41,2.253,2.147,1.282,4.754,1.456,7.251,1.6,2.749.157,5.769.219,8.141-.987,7.746-1.832,18.978-10.207,29.944-12.279,12.331-2.329,21.367,5.709,28.241,9.76,2.061,1.96,5.063,3.361,7.871,4.578,2.914,1.263,5.972,2.557,9.125,2.58,1.2.008,2.574-.317,2.857-1.281a2.5,2.5,0,0,0-.2-1.481c-1.247-3.581-1.35-6.728-1.37-10.57.788-7.25-.478-18.975.23-27.73.918-11.34,15.545-27.047,22.375-37.331,6.109-9.2,4.735-16.048-1.06-17.3" transform="translate(0 -54.108)" fill="#067cbb"/><path d="M211.7,29.463a27.311,27.311,0,0,1-2.662,15.755" transform="translate(-143.585 -20.237)" fill="none" stroke="#534741" stroke-miterlimit="10" stroke-width="1"/><g transform="translate(41.393 113.522)" opacity="0.2"><g clip-path="url(#a)"><g transform="translate(0 0)"><g clip-path="url(#a)"><path d="M142.9,368.155c-12.6,9.394-11.165,26.206-9.92,33.16,5.39-2.721,11.258-5.576,17.051-6.671,9.57-1.808,17.157,2.631,23.289,6.6,6.139-10.559,5.824-20.571,3.9-27.207-2.329-8.017-18.151-17.936-34.317-5.886" transform="translate(-132.193 -362.544)" fill="#fff"/></g></g></g></g><path d="M141.637,256.5a4.221,4.221,0,0,1,2.56,2.725,4.23,4.23,0,1,0-8.256.873,4.221,4.221,0,0,1,5.7-3.6" transform="translate(-93.245 -174.891)"/><path d="M275.318,245.712a4.233,4.233,0,1,1-3.059-5.145,4.233,4.233,0,0,1,3.059,5.145" transform="translate(-183.383 -165.148)"/><path d="M282.126,248.46A1.693,1.693,0,1,1,280.9,246.4a1.693,1.693,0,0,1,1.224,2.058" transform="translate(-191.495 -169.211)" fill="#fff"/><g transform="translate(38.463 91.377)" style="mix-blend-mode:soft-light;isolation:isolate"><g clip-path="url(#c)"><g clip-path="url(#c)"><path d="M133.2,293.677c-.02.964-2.357,1.7-5.22,1.639s-5.168-.888-5.148-1.852,2.357-1.7,5.22-1.639,5.168.888,5.148,1.852" transform="translate(-122.835 -291.821)" fill="#fadae9"/></g></g></g><g transform="translate(85.067 85.865)" style="mix-blend-mode:soft-light;isolation:isolate"><g clip-path="url(#c)"><g clip-path="url(#c)"><path d="M282.04,276.076c-.02.964-2.357,1.7-5.22,1.639s-5.168-.888-5.148-1.852,2.357-1.7,5.22-1.639,5.168.888,5.148,1.852" transform="translate(-271.671 -274.22)" fill="#fadae9"/></g></g></g><g transform="translate(58.595 87.993)" opacity="0.7" style="mix-blend-mode:multiply;isolation:isolate"><g clip-path="url(#g)"><g clip-path="url(#g)"><path d="M187.631,285.894a4.66,4.66,0,0,0,9.125,1.5,8.09,8.09,0,0,0,4.341,2.266,6.524,6.524,0,0,0,4.492-.751,4.726,4.726,0,0,0,2.306-3.819,3.724,3.724,0,0,0-2.456-3.578" transform="translate(-187.472 -281.357)" fill="none" stroke="#534741" stroke-linecap="round" stroke-miterlimit="10" stroke-width="1"/></g></g></g><path d="M207.874,9.893a5.891,5.891,0,1,1-4.258-7.162,5.892,5.892,0,0,1,4.258,7.162" transform="translate(-134.813 -1.75)" fill="#fbb03b"/></g></svg>