<svg xmlns="http://www.w3.org/2000/svg" width="1900" height="298" viewBox="0 0 1900 298"><g transform="translate(-34 -61)"><rect width="1900" height="298" transform="translate(34 61)" fill="none"/><g transform="translate(7190.303 16318.674)"><line y2="163.206" transform="translate(-5673.012 -16158.88)" fill="none" stroke="#0b3733" stroke-miterlimit="10" stroke-width="3"/><path d="M536.9,263.252c4.618,3.423,9.531,7.268,11.007,12.824a6.485,6.485,0,0,1-.3,4.809c-1.117,1.988-3.591,2.753-5.86,2.981-7.947.8-15.678-2.822-22.366-7.188s-12.9-9.609-20.245-12.736c1.651,4.947,7.522,6.832,11.381,10.341,4.4,4,6.093,10.1,7.565,15.854a22.379,22.379,0,0,1,1.03,7.637c-.25,2.57-1.573,5.191-3.912,6.285-2.551,1.194-5.712.265-7.812-1.613a17.322,17.322,0,0,1-4.3-7.177c-1.024,4.744-2.953,10.415-7.726,11.3-4.479.829-8.516-3.663-8.972-8.2s1.581-8.9,3.567-13l9.66-19.945c-4.207,4.942-8.482,9.945-13.841,13.606s-12.027,5.878-18.388,4.591a6.281,6.281,0,0,1-3.673-1.826c-1.57-1.87-.9-4.878.8-6.633s4.119-2.568,6.442-3.321a47.031,47.031,0,0,1-11.883-6.961,3.932,3.932,0,0,1-1.186-1.311c-.763-1.633.835-3.4,2.434-4.231,4.81-2.5,10.594-1.88,15.945-.993a219.77,219.77,0,0,1,25.679,5.854c-13.942-2.54-25.464-15-26.9-29.1a2.514,2.514,0,0,1,.117-1.34c.653-1.37,2.739-.645,3.915.314a43.182,43.182,0,0,1,6.443,6.5,56.221,56.221,0,0,1-.335-10.453,4.834,4.834,0,0,1,.777-2.773A3.931,3.931,0,0,1,488.4,226.1a8.969,8.969,0,0,1,9.325,4.611,17.518,17.518,0,0,1,1.429,6.442l2.126,23.156c1.742-6.966,2.284-14.189,4.041-21.151s4.963-13.915,10.748-18.169a5.071,5.071,0,0,1,3.4-1.27,4.582,4.582,0,0,1,3.034,2.162,11.157,11.157,0,0,1,.317,11.993c2.513-1.581,5.145-3.182,8.093-3.53s6.307.928,7.426,3.679c1.511,3.716-1.581,7.622-4.615,10.245a80.545,80.545,0,0,1-22.968,13.922c-4.147,1.642-8.845,3.289-10.84,7.278,3.244-3.321,7.868-4.828,12.316-6.154q11.417-3.4,23-6.236c4.643-1.135,9.881-2.116,13.931.422a4.164,4.164,0,0,1,2.082,2.647c.233,1.407-.686,2.745-1.713,3.735a13.737,13.737,0,0,1-12.627,3.37" transform="translate(-6174 -16422.529)" fill="#fbb03b"/><path d="M543.285,322.957a16.586,16.586,0,0,0,1.313,5.389,9.971,9.971,0,0,0,2.869,3.4c11.391,8.794,23.581-6.048,17.856-17.271a10.773,10.773,0,0,0-11.413-5.8c-7.806.994-11.554,6.828-10.625,14.277" transform="translate(-6228.111 -16478.805)" fill="#d4145a"/><path d="M622.456,458.337a5.642,5.642,0,0,1,2.28,1.823,4.962,4.962,0,0,1,.112,4.809,11.318,11.318,0,0,1-3.278,3.762,33.22,33.22,0,0,1-16.8,7.1c-3.829.461-7.958.322-11.185,2.432a43.347,43.347,0,0,1,8.113-12.4,28.531,28.531,0,0,1,9.265-7.28c3.614-1.61,7.936-1.978,11.494-.245" transform="translate(-6260.051 -16572.918)" fill="#0b3733"/><path d="M551.239,334.148c.1-1.263.347-2.756,1.495-3.293a2.459,2.459,0,0,1,1.364-.162,3.919,3.919,0,0,1,3.27,3.238" transform="translate(-6233.235 -16492.795)" fill="none" stroke="#fff" stroke-miterlimit="10" stroke-width="3"/><path d="M584.066,333.373a2.523,2.523,0,0,1,2.3-3.165,3.453,3.453,0,0,1,3.251,2.7" transform="translate(-6253.942 -16492.502)" fill="none" stroke="#fff" stroke-miterlimit="10" stroke-width="3"/><path d="M563.484,354.559a4.972,4.972,0,0,0,9.252-.193" transform="translate(-6240.99 -16507.803)" fill="none" stroke="#fff" stroke-miterlimit="10" stroke-width="3"/></g></g></svg>