<svg xmlns="http://www.w3.org/2000/svg" xmlns:xlink="http://www.w3.org/1999/xlink" width="1920" height="300" viewBox="0 0 1920 300"><defs><clipPath id="a"><rect width="1920" height="300" fill="none"/></clipPath></defs><g transform="translate(0 -577)"><rect width="1920" height="300" transform="translate(0 577)" fill="#f6f3dd"/><g transform="translate(0 577)" clip-path="url(#a)" style="isolation:isolate"><g transform="translate(0 -3886.924)"><path d="M0,472.671,170.181,211.282,270.228,394.025,396.5,189.717l96.72,176.145L664.2,171.824l102.44,200.76L917.89,190.459l117.811,307.7s128.987-319.124,131.013-305.51,57.762,198.272,57.762,198.272L1344.15,213.6l45.271,307.428,178.02-330.565,88.915,231.326,173.927-168.251L1856,769.3H42.192Z" transform="translate(27.001 3715.1)" fill="#c2d17f"/><path d="M0,0S475.906-110,955.906-110,1920,0,1920,0V314H0Z" transform="translate(0 4174)" fill="#49aa9d"/><g transform="translate(4881.436 16617.092)"><path d="M201.857,403.423s53.91,20.5,97.066-4.349l-47.231-77.3Z" transform="translate(-4301.309 -12932.704)" fill="#fbb03b"/><path d="M226.732,307.067s39.586,15.333,78.251-6.873l-33.6-66.091Z" transform="translate(-4316.435 -12879.391)" fill="#f7931e"/><path d="M244.884,215.619s33.988,12.666,67.185-5.678l-28.85-54.6Z" transform="translate(-4327.473 -12831.5)" fill="#f15a24"/><rect width="12.991" height="33.194" transform="translate(-3755.276 -12510.722)" fill="#42210b"/><path d="M974.857,467.423s53.909,20.5,97.066-4.349l-47.231-77.3Z" transform="translate(-4771.358 -12971.621)" fill="#fbb03b"/><path d="M999.732,371.067s39.585,15.333,78.251-6.873l-33.6-66.091Z" transform="translate(-4786.484 -12918.309)" fill="#f7931e"/><path d="M1017.88,279.619s33.988,12.666,67.185-5.678l-28.85-54.6Z" transform="translate(-4797.522 -12870.417)" fill="#f15a24"/><rect width="12.991" height="33.194" transform="translate(-3822.294 -12526.006)" fill="#42210b"/><path d="M803.857,428.423s53.91,20.5,97.066-4.349l-47.23-77.3Z" transform="translate(-4667.375 -12947.905)" fill="#fbb03b"/><path d="M828.732,332.067s39.586,15.333,78.251-6.873l-33.6-66.091Z" transform="translate(-4682.502 -12894.594)" fill="#f7931e"/><path d="M846.884,240.619s33.988,12.666,67.185-5.678l-28.85-54.6Z" transform="translate(-4693.54 -12846.702)" fill="#f15a24"/><rect width="11.375" height="19.67" transform="translate(-4094.467 -12522.659)" fill="#9c623b"/><path d="M173.582,304.387l-31.767,93.807s50.374,9.44,68.073-3.54Z" transform="translate(-4264.798 -12922.13)" fill="#d4145a"/><path d="M287.72,468.868a6.971,6.971,0,0,0,2.968,5.9l-2.87-7.138a7.858,7.858,0,0,0-.1,1.237" transform="translate(-4353.521 -13021.396)" fill="#ffd92e"/><path d="M287.72,514.484c0,3.709,2.546,6.716,5.687,6.716a5.565,5.565,0,0,0,4.849-3.207l-4.087-10.163a4.858,4.858,0,0,0-.762-.062c-3.142,0-5.687,3.007-5.687,6.716" transform="translate(-4353.521 -13045.803)" fill="#ffd92e"/><path d="M248.647,406.4c0,3.709,2.546,6.716,5.687,6.716a5.194,5.194,0,0,0,3.729-1.648l-4.7-11.685c-2.679.544-4.717,3.3-4.717,6.617" transform="translate(-4329.761 -12980.141)" fill="#ffd92e"/><path d="M254.333,453.651c-3.141,0-5.687,3.007-5.687,6.716s2.546,6.716,5.688,6.716,5.687-3.007,5.687-6.716-2.546-6.716-5.687-6.716" transform="translate(-4329.76 -13012.896)" fill="#ffd92e"/><path d="M254.333,507.768c-3.141,0-5.687,3.007-5.687,6.716s2.546,6.716,5.688,6.716,5.687-3.007,5.687-6.716-2.546-6.716-5.687-6.716" transform="translate(-4329.76 -13045.803)" fill="#ffd92e"/><path d="M222.124,312.911l-2.87-7.136-2.331,6.884a5.007,5.007,0,0,0,2.807.876,4.95,4.95,0,0,0,2.394-.624" transform="translate(-4310.47 -12922.974)" fill="#ffd92e"/><path d="M215.261,345.417c-3.141,0-5.687,3.007-5.687,6.716s2.546,6.716,5.687,6.716,5.687-3.007,5.687-6.716-2.546-6.716-5.687-6.716" transform="translate(-4306.001 -12947.079)" fill="#ffd92e"/><path d="M215.261,399.534c-3.141,0-5.687,3.007-5.687,6.716s2.546,6.716,5.687,6.716,5.687-3.007,5.687-6.716-2.546-6.716-5.687-6.716" transform="translate(-4306.001 -12979.987)" fill="#ffd92e"/><path d="M215.261,453.651c-3.141,0-5.687,3.007-5.687,6.716s2.546,6.716,5.687,6.716,5.687-3.007,5.687-6.716-2.546-6.716-5.687-6.716" transform="translate(-4306.001 -13012.896)" fill="#ffd92e"/><path d="M215.261,507.768c-3.141,0-5.687,3.007-5.687,6.716s2.546,6.716,5.687,6.716,5.687-3.007,5.687-6.716-2.546-6.716-5.687-6.716" transform="translate(-4306.001 -13045.803)" fill="#ffd92e"/><path d="M187.583,407.07a6.831,6.831,0,0,0-3.473-6.188l-4.223,12.472a4.912,4.912,0,0,0,2.009.432c3.141,0,5.688-3.007,5.688-6.716" transform="translate(-4287.949 -12980.807)" fill="#ffd92e"/><path d="M176.188,453.651c-3.141,0-5.687,3.007-5.687,6.716s2.546,6.716,5.687,6.716,5.687-3.007,5.687-6.716-2.546-6.716-5.687-6.716" transform="translate(-4282.242 -13012.896)" fill="#ffd92e"/><path d="M176.188,507.768c-3.141,0-5.687,3.007-5.687,6.716s2.546,6.716,5.687,6.716,5.687-3.007,5.687-6.716-2.546-6.716-5.687-6.716" transform="translate(-4282.242 -13045.803)" fill="#ffd92e"/><path d="M149.829,516.052a7.052,7.052,0,0,0-2.688-5.706l-4.159,12.282a4.885,4.885,0,0,0,1.159.14c3.141,0,5.687-3.007,5.687-6.716" transform="translate(-4265.508 -13047.37)" fill="#ffd92e"/><path d="M186.576,180.824l-24.188,93.807s38.356,9.44,51.832-3.54Z" transform="translate(-4277.308 -12846.993)" fill="#ed1e79"/><path d="M219.511,202.442,217,194.233l-3.8,3.251-3.426,13.287Z" transform="translate(-4306.119 -12855.146)" fill="#ffbe3d"/><path d="M213.925,244.208,211.41,236l-15.646,13.375-3.426,13.287Z" transform="translate(-4295.521 -12880.544)" fill="#ffbe3d"/><path d="M203.224,319.531l-39.335,33.624-1.5,5.821s2.094.515,5.475,1.14l37.875-32.376Z" transform="translate(-4277.308 -12931.338)" fill="#ffbe3d"/><path d="M208.338,285.974l-2.514-8.209-27.491,23.5-3.426,13.287Z" transform="translate(-4284.921 -12905.941)" fill="#ffbe3d"/><path d="M276.469,403.063l-10.117,8.648c4.394-1.046,8.28-2.776,11.087-5.48Z" transform="translate(-4340.527 -12982.133)" fill="#ffbe3d"/><path d="M235.191,369.506l-2.514-8.209-30.1,25.727a107.96,107.96,0,0,0,11.341.664Z" transform="translate(-4301.749 -12956.736)" fill="#ffbe3d"/><rect width="11.375" height="19.67" transform="translate(-3968.606 -12523.443)" fill="#9c623b"/><path d="M500.119,302.387l31.767,93.807s-50.374,9.44-68.073-3.54Z" transform="translate(-4460.601 -12920.913)" fill="#d4145a"/><path d="M487,466.868a6.971,6.971,0,0,1-2.969,5.9l2.871-7.138a7.91,7.91,0,0,1,.1,1.237" transform="translate(-4472.892 -13020.18)" fill="#ffd92e"/><path d="M475.253,512.484c0,3.709-2.546,6.716-5.687,6.716a5.565,5.565,0,0,1-4.85-3.207L468.8,505.83a4.854,4.854,0,0,1,.762-.062c3.141,0,5.688,3.007,5.688,6.716" transform="translate(-4461.149 -13044.587)" fill="#ffd92e"/><path d="M516.063,404.4c0,3.709-2.546,6.716-5.687,6.716a5.194,5.194,0,0,1-3.729-1.648l4.7-11.685c2.679.544,4.717,3.3,4.717,6.617" transform="translate(-4486.646 -12978.925)" fill="#ffd92e"/><path d="M507.339,451.651c3.141,0,5.687,3.007,5.687,6.716s-2.546,6.716-5.687,6.716-5.687-3.007-5.687-6.716,2.546-6.716,5.688-6.716" transform="translate(-4483.609 -13011.679)" fill="#ffd92e"/><path d="M507.339,505.768c3.141,0,5.687,3.007,5.687,6.716s-2.546,6.716-5.687,6.716-5.687-3.007-5.687-6.716,2.546-6.716,5.688-6.716" transform="translate(-4483.609 -13044.587)" fill="#ffd92e"/><path d="M549.128,310.911l2.87-7.136,2.331,6.884a5.007,5.007,0,0,1-2.807.876,4.948,4.948,0,0,1-2.393-.624" transform="translate(-4512.479 -12921.758)" fill="#ffd92e"/><path d="M546.411,343.417c3.141,0,5.688,3.007,5.688,6.716s-2.546,6.716-5.687,6.716-5.687-3.007-5.687-6.716,2.546-6.716,5.688-6.716" transform="translate(-4507.368 -12945.863)" fill="#ffd92e"/><path d="M546.411,397.534c3.141,0,5.688,3.007,5.688,6.716s-2.546,6.716-5.687,6.716-5.687-3.007-5.687-6.716,2.546-6.716,5.688-6.716" transform="translate(-4507.368 -12978.771)" fill="#ffd92e"/><path d="M546.411,451.651c3.141,0,5.688,3.007,5.688,6.716s-2.546,6.716-5.687,6.716-5.687-3.007-5.687-6.716,2.546-6.716,5.688-6.716" transform="translate(-4507.368 -13011.679)" fill="#ffd92e"/><path d="M546.411,505.768c3.141,0,5.688,3.007,5.688,6.716s-2.546,6.716-5.687,6.716-5.687-3.007-5.687-6.716,2.546-6.716,5.688-6.716" transform="translate(-4507.368 -13044.587)" fill="#ffd92e"/><path d="M579.8,405.07a6.83,6.83,0,0,1,3.473-6.188l4.224,12.472a4.911,4.911,0,0,1-2.009.432c-3.141,0-5.687-3.007-5.687-6.716" transform="translate(-4531.128 -12979.591)" fill="#ffd92e"/><path d="M585.484,451.651c3.141,0,5.688,3.007,5.688,6.716s-2.546,6.716-5.687,6.716-5.687-3.007-5.687-6.716,2.547-6.716,5.688-6.716" transform="translate(-4531.127 -13011.679)" fill="#ffd92e"/><path d="M585.484,505.768c3.141,0,5.688,3.007,5.688,6.716s-2.546,6.716-5.687,6.716-5.687-3.007-5.687-6.716,2.547-6.716,5.688-6.716" transform="translate(-4531.127 -13044.587)" fill="#ffd92e"/><path d="M618.869,514.052a7.052,7.052,0,0,1,2.688-5.706l4.159,12.282a4.882,4.882,0,0,1-1.159.14c-3.141,0-5.687-3.007-5.687-6.716" transform="translate(-4554.887 -13046.154)" fill="#ffd92e"/><path d="M512.324,178.824l24.188,93.807s-38.356,9.44-51.832-3.54Z" transform="translate(-4473.289 -12845.777)" fill="#ed1e79"/><path d="M544.694,200.442l2.514-8.209,3.8,3.251,3.426,13.287Z" transform="translate(-4509.782 -12853.931)" fill="#ffbe3d"/><path d="M531.9,242.208,534.417,234l15.646,13.375,3.426,13.287Z" transform="translate(-4502.005 -12879.328)" fill="#ffbe3d"/><path d="M508.836,317.531l39.335,33.624,1.5,5.821s-2.094.515-5.475,1.14L506.322,325.74Z" transform="translate(-4486.449 -12930.122)" fill="#ffbe3d"/><path d="M519.113,283.974l2.514-8.209,27.49,23.5,3.426,13.287Z" transform="translate(-4494.227 -12904.725)" fill="#ffbe3d"/><path d="M485.65,401.063l10.117,8.648c-4.394-1.046-8.28-2.776-11.087-5.48Z" transform="translate(-4473.289 -12980.917)" fill="#ffbe3d"/><path d="M493.532,367.506l2.514-8.209,30.1,25.727a107.969,107.969,0,0,1-11.341.664Z" transform="translate(-4478.672 -12955.52)" fill="#ffbe3d"/><rect width="11.375" height="19.67" transform="translate(-3792.3 -12511.686)" fill="#9c623b"/><path d="M944.582,332.387l-31.767,93.807s50.374,9.44,68.073-3.54Z" transform="translate(-4733.631 -12939.156)" fill="#d4145a"/><path d="M1058.72,496.868a6.972,6.972,0,0,0,2.969,5.9l-2.871-7.138a7.906,7.906,0,0,0-.1,1.237" transform="translate(-4822.353 -13038.422)" fill="#ffd92e"/><path d="M1058.72,542.484c0,3.71,2.546,6.716,5.688,6.716a5.565,5.565,0,0,0,4.85-3.207l-4.088-10.163a4.849,4.849,0,0,0-.762-.062c-3.141,0-5.687,3.007-5.687,6.716" transform="translate(-4822.353 -13062.829)" fill="#ffd92e"/><path d="M1019.65,434.4c0,3.709,2.546,6.716,5.688,6.716a5.2,5.2,0,0,0,3.729-1.648l-4.7-11.685c-2.679.544-4.717,3.3-4.717,6.617" transform="translate(-4798.594 -12997.167)" fill="#ffd92e"/><path d="M1025.33,481.651c-3.141,0-5.687,3.007-5.687,6.716s2.546,6.716,5.687,6.716,5.688-3.007,5.688-6.716-2.546-6.716-5.688-6.716" transform="translate(-4798.593 -13029.921)" fill="#ffd92e"/><path d="M1025.33,535.768c-3.141,0-5.687,3.007-5.687,6.716s2.546,6.716,5.687,6.716,5.688-3.007,5.688-6.716-2.546-6.716-5.688-6.716" transform="translate(-4798.593 -13062.829)" fill="#ffd92e"/><path d="M993.124,340.911l-2.87-7.136-2.331,6.884a5.006,5.006,0,0,0,2.807.876,4.95,4.95,0,0,0,2.394-.624" transform="translate(-4779.303 -12940)" fill="#ffd92e"/><path d="M986.261,373.417c-3.141,0-5.687,3.007-5.687,6.716s2.546,6.716,5.688,6.716,5.688-3.007,5.688-6.716-2.546-6.716-5.687-6.716" transform="translate(-4774.834 -12964.105)" fill="#ffd92e"/><path d="M986.261,427.534c-3.141,0-5.687,3.007-5.687,6.716s2.546,6.716,5.688,6.716,5.688-3.007,5.688-6.716-2.546-6.716-5.687-6.716" transform="translate(-4774.834 -12997.014)" fill="#ffd92e"/><path d="M986.261,481.651c-3.141,0-5.687,3.007-5.687,6.716s2.546,6.716,5.688,6.716,5.688-3.007,5.688-6.716-2.546-6.716-5.687-6.716" transform="translate(-4774.834 -13029.921)" fill="#ffd92e"/><path d="M986.261,535.768c-3.141,0-5.687,3.007-5.687,6.716s2.546,6.716,5.688,6.716,5.688-3.007,5.688-6.716-2.546-6.716-5.687-6.716" transform="translate(-4774.834 -13062.829)" fill="#ffd92e"/><path d="M958.582,435.07a6.831,6.831,0,0,0-3.473-6.188l-4.224,12.472a4.913,4.913,0,0,0,2.009.432c3.141,0,5.687-3.007,5.687-6.716" transform="translate(-4756.782 -12997.833)" fill="#ffd92e"/><path d="M947.188,481.651c-3.141,0-5.687,3.007-5.687,6.716s2.546,6.716,5.688,6.716,5.688-3.007,5.688-6.716-2.546-6.716-5.687-6.716" transform="translate(-4751.075 -13029.921)" fill="#ffd92e"/><path d="M947.188,535.768c-3.141,0-5.687,3.007-5.687,6.716s2.546,6.716,5.688,6.716,5.688-3.007,5.688-6.716-2.546-6.716-5.687-6.716" transform="translate(-4751.075 -13062.829)" fill="#ffd92e"/><path d="M920.829,544.052a7.052,7.052,0,0,0-2.688-5.706l-4.159,12.282a4.883,4.883,0,0,0,1.159.14c3.141,0,5.688-3.007,5.688-6.716" transform="translate(-4734.341 -13064.396)" fill="#ffd92e"/><path d="M957.576,208.824l-24.188,93.807s38.356,9.44,51.832-3.54Z" transform="translate(-4746.142 -12864.02)" fill="#ed1e79"/><path d="M990.511,230.442,988,222.233l-3.8,3.251-3.426,13.287Z" transform="translate(-4774.953 -12872.173)" fill="#ffbe3d"/><path d="M984.925,272.208,982.411,264l-15.646,13.375-3.426,13.287Z" transform="translate(-4764.354 -12897.57)" fill="#ffbe3d"/><path d="M974.224,347.531l-39.335,33.624-1.5,5.821s2.094.515,5.475,1.14l37.875-32.376Z" transform="translate(-4746.142 -12948.365)" fill="#ffbe3d"/><path d="M979.338,313.974l-2.514-8.209-27.491,23.5-3.426,13.287Z" transform="translate(-4753.754 -12922.968)" fill="#ffbe3d"/><path d="M1047.47,431.063l-10.116,8.648c4.394-1.046,8.28-2.776,11.087-5.48Z" transform="translate(-4809.36 -12999.16)" fill="#ffbe3d"/><path d="M1006.19,397.506l-2.514-8.209-30.1,25.727a107.975,107.975,0,0,0,11.341.664Z" transform="translate(-4770.582 -12973.762)" fill="#ffbe3d"/><rect width="12.951" height="29.942" transform="translate(-3929.04 -12532.16)" fill="#c69c6d"/><path d="M531.814,423.5s53.742,18.492,96.764-3.923L581.494,349.85Z" transform="translate(-4501.951 -12949.774)" fill="#fbb03b"/><path d="M556.612,336.582s39.463,13.831,78.008-6.2l-33.5-59.617Z" transform="translate(-4517.03 -12901.685)" fill="#f7931e"/><path d="M574.708,254.092s33.881,11.426,66.976-5.122l-28.761-49.247Z" transform="translate(-4528.034 -12858.485)" fill="#f15a24"/><rect width="10.661" height="18.431" transform="translate(-3859.742 -12515.985)" fill="#9c623b"/><path d="M772.784,288.174l-32.97,108.272s52.28,10.9,70.648-4.086Z" transform="translate(-4628.432 -12912.271)" fill="#d94c84"/><path d="M811.323,542.006l-2.8-7.738-64.342.3-2.953,9.7,67.284-.319A22.657,22.657,0,0,0,811.321,542" transform="translate(-4629.292 -13061.917)" fill="#22b573"/><path d="M819.348,288h-.04l-2.953,9.763,6.49-.062Z" transform="translate(-4674.976 -12912.165)" fill="#22b573"/><path d="M812.854,435.891l-38.621.183-2.953,9.7,45.071-.214Z" transform="translate(-4647.565 -13002.096)" fill="#22b573"/><path d="M810.689,485.079l-51.481.244-2.953,9.7,57.931-.274Z" transform="translate(-4638.429 -13032.006)" fill="#22b573"/><path d="M815.019,386.7l-25.761.122-2.953,9.7,32.21-.152Z" transform="translate(-4656.703 -12972.185)" fill="#22b573"/><path d="M817.184,337.514l-12.9.061-2.953,9.7,19.35-.092Z" transform="translate(-4665.839 -12942.274)" fill="#22b573"/><path d="M823.91,288.174l-.018.06h.04Z" transform="translate(-4679.559 -12912.271)" fill="#22b573"/><path d="M793.956,274.116l-18.888,42.9s29.952,4.317,40.475-1.619Z" transform="translate(-4649.87 -12903.723)" fill="#ff75ba"/><path d="M790.751,224.441l-18.888,42.9s29.952,4.318,40.475-1.619Z" transform="translate(-4647.92 -12873.516)" fill="#bc8fc7"/><rect width="10.661" height="18.431" transform="translate(-4017.684 -12517.161)" fill="#9c623b"/><path d="M369.784,285.174l-32.97,108.272s52.28,10.9,70.648-4.086Z" transform="translate(-4383.374 -12910.446)" fill="#d94c84"/><path d="M408.323,539.006l-2.8-7.738-64.342.3-2.953,9.7,67.284-.319A22.689,22.689,0,0,0,408.321,539" transform="translate(-4384.234 -13060.093)" fill="#22b573"/><path d="M416.348,285h-.04l-2.953,9.763,6.49-.062Z" transform="translate(-4429.917 -12910.341)" fill="#22b573"/><path d="M409.854,432.891l-38.621.183-2.953,9.7,45.071-.214Z" transform="translate(-4402.508 -13000.271)" fill="#22b573"/><path d="M407.689,482.079l-51.481.244-2.953,9.7,57.931-.274Z" transform="translate(-4393.371 -13030.182)" fill="#22b573"/><path d="M412.019,383.7l-25.761.122-2.953,9.7,32.21-.152Z" transform="translate(-4411.645 -12970.36)" fill="#22b573"/><path d="M414.184,334.514l-12.9.061-2.953,9.7,19.35-.092Z" transform="translate(-4420.781 -12940.45)" fill="#22b573"/><path d="M420.91,285.174l-.018.06h.04Z" transform="translate(-4434.5 -12910.446)" fill="#22b573"/><path d="M390.956,271.116l-18.888,42.9s29.952,4.317,40.475-1.619Z" transform="translate(-4404.812 -12901.898)" fill="#ff75ba"/><path d="M387.752,221.441l-18.889,42.9s29.952,4.318,40.475-1.619Z" transform="translate(-4402.862 -12871.691)" fill="#bc8fc7"/><rect width="10.661" height="18.431" transform="translate(-4145.84 -12504.62)" fill="#9c623b"/><path d="M42.783,317.174,9.814,425.446s52.28,10.9,70.648-4.086Z" transform="translate(-4184.53 -12929.905)" fill="#f15a24"/><path d="M81.323,571.006l-2.8-7.738-64.342.3-2.953,9.7,67.284-.319A22.653,22.653,0,0,0,81.321,571" transform="translate(-4185.391 -13079.552)" fill="#22b573"/><path d="M89.348,317h-.04l-2.953,9.763,6.49-.062Z" transform="translate(-4231.074 -12929.8)" fill="#22b573"/><path d="M82.854,464.891l-38.621.183-2.953,9.7,45.071-.214Z" transform="translate(-4203.665 -13019.729)" fill="#22b573"/><path d="M80.689,514.079l-51.481.244-2.953,9.7,57.931-.274Z" transform="translate(-4194.527 -13049.641)" fill="#22b573"/><path d="M85.019,415.7l-25.761.122-2.953,9.7,32.21-.152Z" transform="translate(-4212.801 -12989.818)" fill="#22b573"/><path d="M87.184,366.514l-12.9.061-2.953,9.7,19.35-.092Z" transform="translate(-4221.938 -12959.908)" fill="#22b573"/><path d="M93.91,317.174l-.018.06h.04Z" transform="translate(-4235.656 -12929.905)" fill="#22b573"/><path d="M63.956,303.116l-18.888,42.9s29.952,4.317,40.475-1.619Z" transform="translate(-4205.968 -12921.357)" fill="#ff75ba"/><path d="M60.752,253.441l-18.888,42.9s29.951,4.318,40.475-1.619Z" transform="translate(-4204.02 -12891.15)" fill="#bc8fc7"/></g></g></g></g></svg>