<svg xmlns="http://www.w3.org/2000/svg" xmlns:xlink="http://www.w3.org/1999/xlink" width="97.487" height="194.273" viewBox="0 0 97.487 194.273">
  <defs>
    <clipPath id="clip-path">
      <rect id="Retângulo_250" data-name="Retângulo 250" width="97.487" height="194.273" fill="none"/>
    </clipPath>
    <clipPath id="clip-path-3">
      <rect id="Retângulo_247" data-name="Retângulo 247" width="24.722" height="29.292" fill="none"/>
    </clipPath>
    <clipPath id="clip-path-4">
      <rect id="Retângulo_248" data-name="Retângulo 248" width="8.531" height="8.831" fill="none"/>
    </clipPath>
  </defs>
  <g id="Grupo_334" data-name="Grupo 334" clip-path="url(#clip-path)">
    <g id="Grupo_333" data-name="Grupo 333">
      <g id="Grupo_332" data-name="Grupo 332" clip-path="url(#clip-path)">
        <path id="Caminho_935" data-name="Caminho 935" d="M64.721,81.233c-.444-.749-1.8-.253-1.461.615,3.372,8.49,2.41,19.245-5.2,25.2a18.619,18.619,0,0,1-8.77,3.723,11.145,11.145,0,0,0-.324-5.718C47.5,100.7,43.4,96.935,38.632,96.939c-5.176,0-8.559,4.449-6.555,9.306,2.1,5.083,6.932,7.425,12.151,7.863-2.971,4.409-7.731,5.55-12.356,7.507a21.086,21.086,0,0,0-9.93,8.671c-4.877,8.226-3.5,21.543,5.506,26.545a1.456,1.456,0,0,0,1.757-2.275c-3.675-4.2-6.545-8.671-6.358-14.478a17.334,17.334,0,0,1,7.178-13.243c2.5-1.783,5.423-2.566,8.231-3.713a19.486,19.486,0,0,0,6.8-4.455,17,17,0,0,0,3.153-4.582,22.842,22.842,0,0,0,9.252-2.826c10.127-5.921,13.131-20.1,7.259-30.028M35.224,105.2c-.949-2.077-.431-4.059,1.912-4.764a6.591,6.591,0,0,1,6.08,1.634,8.336,8.336,0,0,1,2.5,8.864c-4.012-.2-8.718-1.842-10.5-5.734" transform="translate(8.826 37.24)" fill="#0e163e"/>
        <path id="Caminho_936" data-name="Caminho 936" d="M46,71.327s-9.715,20.722-3.239,22.666,9.714-7.124,9.714-7.124,7.922,3.348,11.656-1.942C71.9,73.916,46,71.327,46,71.327" transform="translate(18.667 32.847)" fill="#29317a"/>
        <path id="Caminho_937" data-name="Caminho 937" d="M96.714,50.445c4.753,31.592-12.872,60.433-39.364,64.418S5.527,96.469.774,64.878,13.647,4.445,40.139.459s51.822,18.4,56.575,49.986" transform="translate(0 0)" fill="#414495"/>
        <path id="Caminho_938" data-name="Caminho 938" d="M67.355,5.6A42.808,42.808,0,0,0,40.138.46C13.646,4.444-3.978,33.285.774,64.877c2.642,17.567,11.652,32.276,23.682,41.2C40.259,91.382,86.141,44.06,67.355,5.6" transform="translate(0 0.001)" fill="#4e529f"/>
        <path id="Caminho_939" data-name="Caminho 939" d="M14.733,45.255C18.687,40.5,25.258,41.47,27.754,47.1c1.141,2.572,4.918.346,3.783-2.211a11.791,11.791,0,0,0-19.9-2.73c-1.791,2.153,1.293,5.27,3.1,3.1" transform="translate(5.109 17.432)" fill="#0e163e"/>
        <path id="Caminho_940" data-name="Caminho 940" d="M47.772,27.1A9.955,9.955,0,0,0,40.3,33,10.13,10.13,0,0,0,41.86,43.246a2.2,2.2,0,0,0,3.1,0,2.258,2.258,0,0,0,0-3.1c.254.323-.013-.035-.058-.1-.089-.134-.175-.272-.256-.412s-.155-.282-.226-.428c-.042-.085-.188-.491-.051-.1-.107-.307-.215-.608-.3-.923-.031-.124-.06-.251-.086-.378-.016-.079-.067-.673-.038-.184-.018-.291-.044-.578-.042-.87,0-.162.006-.323.018-.485,0-.058.073-.581.023-.285s.05-.226.061-.28c.035-.158.076-.314.121-.469s.1-.307.15-.462c.133-.4-.091.139.028-.072.133-.237.244-.485.386-.716.079-.129.162-.254.248-.378.118-.169.238-.285.039-.06.2-.226.4-.453.615-.663.108-.105.221-.206.334-.3.08-.069.421-.3.053-.053.251-.168.5-.342.759-.492.1-.06.21-.117.317-.172.069-.034.61-.259.134-.077a8.374,8.374,0,0,1,1.744-.464,2.2,2.2,0,0,0,1.529-2.695A2.258,2.258,0,0,0,47.772,27.1" transform="translate(18.21 12.461)" fill="#0e163e"/>
        <path id="Caminho_941" data-name="Caminho 941" d="M24.325,58.661s23.96,2.591,31.731-17.484c19.428,35.616-12.3,47.92-31.731,17.484" transform="translate(11.202 18.963)" fill="#fff"/>
        <g id="Grupo_328" data-name="Grupo 328" transform="translate(8.205 13.289)" style="mix-blend-mode: soft-light;isolation: isolate">
          <g id="Grupo_327" data-name="Grupo 327">
            <g id="Grupo_326" data-name="Grupo 326" clip-path="url(#clip-path-3)">
              <path id="Caminho_942" data-name="Caminho 942" d="M26.312,9.428c-5.784,2.876-10.593,6.162-14.588,11.3C8.713,24.605,3.613,32.017,6.446,36.866A3.214,3.214,0,0,0,10.755,38c3.848-2.017,4.9-8.418,7.149-12.042A38.322,38.322,0,0,1,29.042,14.1a2.707,2.707,0,0,0-2.73-4.671" transform="translate(-5.618 -9.099)" fill="#fff"/>
            </g>
          </g>
        </g>
        <g id="Grupo_331" data-name="Grupo 331" transform="translate(3.416 45.362)" style="mix-blend-mode: soft-light;isolation: isolate">
          <g id="Grupo_330" data-name="Grupo 330">
            <g id="Grupo_329" data-name="Grupo 329" clip-path="url(#clip-path-4)">
              <path id="Caminho_943" data-name="Caminho 943" d="M6.6,31.059c-5.683,0-5.692,8.832,0,8.832s5.692-8.832,0-8.832" transform="translate(-2.339 -31.059)" fill="#fff"/>
            </g>
          </g>
        </g>
        <path id="Caminho_944" data-name="Caminho 944" d="M47.432,41.137c1.6,2.791,6.171,3.178,10.2.863s6-6.455,4.4-9.247-6.171-3.178-10.2-.863-6,6.455-4.4,9.247" transform="translate(21.586 13.99)" fill="#ed7791"/>
        <path id="Caminho_945" data-name="Caminho 945" d="M26.739,50.541c1.068,3.036-1.621,6.749-6.007,8.291s-8.808.332-9.876-2.7,1.621-6.748,6.007-8.291,8.808-.332,9.876,2.7" transform="translate(4.892 21.721)" fill="#ed7791"/>
      </g>
    </g>
  </g>
</svg>
