<svg xmlns="http://www.w3.org/2000/svg" xmlns:xlink="http://www.w3.org/1999/xlink" width="76.104" height="170.797" viewBox="0 0 76.104 170.797"><defs><clipPath id="a"><rect width="67.43" height="167.498" fill="none"/></clipPath><clipPath id="c"><rect width="59.862" height="62.726" transform="translate(0.002)" fill="none"/></clipPath><clipPath id="d"><rect width="22.084" height="13.55" transform="translate(13.469 6.119)" fill="none"/></clipPath><clipPath id="e"><rect width="5.931" height="6.089" transform="translate(7.255 19.794)" fill="none"/></clipPath></defs><g transform="translate(0 3.529) rotate(-3)"><g clip-path="url(#a)"><g clip-path="url(#a)"><path d="M30.734,72.726S18.891,82.987,22.4,86s8.059-1.753,8.059-1.753,4.025,4.3,7.833,2.028c7.925-4.725-7.559-13.553-7.559-13.553" fill="#4b8e32"/><path d="M65.732,48.031C59.914,69.117,40.863,82.255,23.181,77.377S-4.12,51.449,1.7,30.363,26.566-3.862,44.249,1.017s27.3,25.928,21.483,47.014" fill="#5bad33"/><g opacity="0.53" style="mix-blend-mode:screen;isolation:isolate"><g clip-path="url(#c)"><path d="M59.844,11.808a29.311,29.311,0,0,0-15.6-10.791C26.566-3.862,7.515,9.277,1.7,30.363-1.538,42.088,0,53.8,5.049,62.726,19.024,57.932,60.9,41.1,59.844,11.808" fill="#5bad33"/></g></g><path d="M14.455,34.193c.136-.074.271-.144.411-.21-.18.085.072-.029.139-.053a6.372,6.372,0,0,1,.811-.236q.188-.042.378-.072c.269-.041-.341.017.135-.01.257-.015.512-.027.769-.017.154,0,.308.016.461.031-.212-.02.052.008.134.023a6.642,6.642,0,0,1,.82.205c.122.039.243.082.362.129.1.037.095.037,0,0l.139.066a7.813,7.813,0,0,1,.72.416c.037.025.3.212.1.064.095.073.185.153.274.233a6.434,6.434,0,0,1,.556.564c.021.025.249.31.155.184s.117.173.135.2a6.869,6.869,0,0,1,.4.685c.055.107.108.215.155.326-.111-.259.056.166.06.178a6.741,6.741,0,0,1,.2.693c.027.118.048.236.07.354.03.167-.007-.181.011.1a8.585,8.585,0,0,1,.016.864,1.51,1.51,0,0,0,1.5,1.5,1.532,1.532,0,0,0,1.5-1.5,8.2,8.2,0,0,0-3.617-7.037,8.156,8.156,0,0,0-8.3-.269,1.5,1.5,0,0,0,1.514,2.59" fill="#0e163e"/><path d="M49.712,32.7A6.781,6.781,0,0,0,41.3,40.986a1.5,1.5,0,0,0,2.893-.8c-.029-.113-.056-.226-.078-.34-.075-.387.01.266-.012-.044-.014-.2-.029-.4-.027-.6,0-.116.007-.232.016-.348,0-.05.008-.1.013-.149.019-.166.015-.131-.014.1.019,0,.106-.511.126-.584.026-.1.055-.191.086-.286.021-.063.043-.125.067-.187.048-.122.047-.124,0-.006s-.05.116,0,0c.028-.06.057-.12.086-.179.045-.089.092-.176.142-.263s.1-.171.156-.254c.023-.035.256-.377.114-.172s.1-.119.136-.154c.067-.074.136-.146.207-.215s.145-.137.22-.2c.05-.043.1-.086.153-.127l-.146.113c.018-.1.5-.326.586-.374s.175-.093.265-.136c.06-.029.12-.056.181-.083l-.174.075c.01-.064.6-.195.663-.212.1-.024.194-.046.292-.065q.073-.015.147-.027.174-.027-.153.018a5.023,5.023,0,0,0,.695-.039c.2,0,.4.031.6.039-.419-.018-.117-.012-.006.011.13.026.258.059.386.1a1.5,1.5,0,1,0,.8-2.893" fill="#0e163e"/><g opacity="0.7" style="mix-blend-mode:soft-light;isolation:isolate"><g clip-path="url(#d)"><path d="M33.557,6.121A27.309,27.309,0,0,0,21.286,9.132c-2.962,1.586-8.216,4.8-7.792,8.626a2.2,2.2,0,0,0,2.381,1.906c2.969-.191,5.405-3.9,7.823-5.544A26.246,26.246,0,0,1,33.965,9.8a1.853,1.853,0,0,0-.408-3.681" fill="#e6e47a"/></g></g><g opacity="0.7" style="mix-blend-mode:soft-light;isolation:isolate"><g clip-path="url(#e)"><path d="M11.449,20.076C7.894,18.5,5.43,24.017,8.991,25.6s6.019-3.941,2.458-5.525" fill="#e6e47a"/></g></g><path d="M33.032,165.862c-2.166-4.013-6.5-6.192-10.507-7.974-4.165-1.851-8.685-3.381-12.3-6.241a15.813,15.813,0,0,1-4.1-19.568,13.159,13.159,0,0,0,3,1.5c5.057,1.742,11.844-.065,14.783-4.725,1.278-2.026,1.7-5.034-.452-6.639-2.13-1.588-5.619-1.065-8.026-.5a19.1,19.1,0,0,0-10.163,6.317,10.844,10.844,0,0,1-2.559-8.812c.838-4.99,4.723-9.074,8.979-11.508,5.255-3.006,11.643-3.773,16.046-8.225a18.593,18.593,0,0,0,5.15-14.819c-.1-.909-1.531-.922-1.437,0a16.013,16.013,0,0,1-7.313,15.056c-5.222,3.274-11.551,3.979-16.5,7.807C3.376,110.824-.074,115.83.09,121.4a13.3,13.3,0,0,0,3.7,8.706,16.375,16.375,0,0,0-.8,1.465A18.81,18.81,0,0,0,3.1,147.566c2.621,5.614,7.943,8.717,13.41,11.073,2.633,1.135,5.316,2.17,7.857,3.506a30.973,30.973,0,0,1,6.943,5.043,1.1,1.1,0,0,0,1.718-1.326m-22.317-39.02a16.455,16.455,0,0,1,6.676-2.783c1.88-.322,5.712-.745,4.867,2.245-.67,2.372-3.275,4.026-5.48,4.77a10.81,10.81,0,0,1-7.323-.06,10.248,10.248,0,0,1-1.979-1.033,14.747,14.747,0,0,1,3.239-3.139" fill="#414495"/><path d="M23.319,49.16a9.522,9.522,0,0,0,19.021-.4c.074-1.931-2.926-1.928-3,0a6.528,6.528,0,0,1-13.021.4,1.542,1.542,0,0,0-1.5-1.5,1.511,1.511,0,0,0-1.5,1.5" fill="#0e163e"/><path d="M18.68,41.874c-1.1,1.911-4.225,2.176-6.986.591s-4.109-4.42-3.011-6.331,4.224-2.176,6.985-.591,4.109,4.42,3.012,6.331" fill="#ed83aa"/><path d="M49.474,41.874c1.1,1.911,4.225,2.176,6.986.591s4.109-4.42,3.012-6.331-4.225-2.176-6.986-.591-4.109,4.42-3.012,6.331" fill="#ed83aa"/></g></g></g></svg>