<svg xmlns="http://www.w3.org/2000/svg" width="122.433" height="298.074" viewBox="0 0 122.433 298.074"><g transform="translate(6469 16160.812)"><line y2="242.351" transform="translate(-6407.843 -16105.089)" fill="none" stroke="#0b3733" stroke-miterlimit="10" stroke-width="3"/><path d="M88.01,207.623c6.514-.041,13.958,2.279,16.374,8.328,1.428,3.577.711,7.726-1.025,11.165s-4.4,6.308-7.024,9.126L84.2,249.267c-5.084,5.457-11.477,11.4-18.843,10.225a60.267,60.267,0,0,0-39.248-32.17c-3.019-.755-6.265-1.26-9.194-.206-4.247,1.528-6.847,6.229-6.726,10.741s2.568,8.726,5.847,11.828,7.343,5.234,11.433,7.146c6.161,2.879,12.593,5.373,19.34,6.224S60.69,263,66.5,259.468c-17.678,6.283-35.868,12.866-49.725,25.514-2.984,2.724-5.947,6.808-4.226,10.463a8.055,8.055,0,0,0,2.878,3.053c6.672,4.564,15.9,4.186,23.09.485S51.06,288.727,54.966,281.65s6.543-14.767,9.674-22.22c-2.583,9.612-2.864,19.71-2.206,29.641.343,5.167,1,10.505,3.679,14.934s7.912,7.7,12.969,6.593c4.529-.994,7.81-5.285,8.735-9.83s-.123-9.27-1.717-13.625a55.861,55.861,0,0,0-20.568-26.572,89.274,89.274,0,0,0,49.314,20.377c2.669.23,5.48.314,7.887-.862,4.693-2.294,6.039-8.844,3.925-13.621s-6.748-7.966-11.522-10.087c-12.121-5.386-25.958-5.345-39.119-3.7-4.119.515-8.384,1.242-11.768,3.646a102.648,102.648,0,0,1,.093-24.829c.867-6.89,2.71-14.174,7.925-18.759,4.234-3.722,10.1-5.076,15.742-5.111" transform="translate(-6474.198 -16361.383)" fill="#0071bc"/><path d="M56.29,196.123c5.744-3.071,13.413-4.487,18.368-.26,2.931,2.5,4.229,6.5,4.3,10.357s-.953,7.63-1.964,11.347l-4.67,17.179c-1.956,7.2-4.845,15.433-11.909,17.827A60.263,60.263,0,0,0,10.7,242.394c-3.023.739-6.131,1.8-8.231,4.1-3.046,3.331-3.156,8.7-.947,12.638s6.338,6.524,10.685,7.742,8.937,1.21,13.446,1c6.793-.323,13.646-1.113,20.012-3.5s12.258-6.517,15.754-12.35c-12.715,13.8-25.743,28.1-32.111,45.743-1.371,3.8-2.091,8.8,1.136,11.227a8.053,8.053,0,0,0,3.969,1.361c8.029.929,16.022-3.706,20.656-10.329s6.319-14.918,6.477-23S60.451,260.9,59.75,252.851c2.193,9.708,6.649,18.774,11.858,27.255,2.71,4.412,5.776,8.831,10.213,11.5s10.59,3.13,14.547-.209c3.545-2.991,4.448-8.315,3.15-12.768s-4.428-8.145-7.867-11.256a55.865,55.865,0,0,0-30.579-13.929A89.273,89.273,0,0,0,114.2,248.5c2.469-1.04,4.995-2.276,6.577-4.438,3.084-4.216,1.223-10.639-2.873-13.881s-9.682-3.9-14.895-3.557c-13.234.881-25.459,7.365-36.338,14.952-3.4,2.374-6.84,5.005-8.714,8.708a102.62,102.62,0,0,1-11.486-22.012c-2.443-6.5-4.206-13.8-1.728-20.291,2.012-5.267,6.575-9.2,11.547-11.857" transform="translate(-6469 -16354.032)" fill="#29abe2"/><path d="M86.392,298.985A3.91,3.91,0,0,1,86,296.237a3.834,3.834,0,0,1,1.012-1.579,7.159,7.159,0,0,1,7.775-1.476,12.476,12.476,0,0,1-4.279-3.417c-1.039-1.52-1.279-3.756-.043-5.12a4.416,4.416,0,0,1,3.188-1.256A7.385,7.385,0,0,1,98.423,285a5.451,5.451,0,0,1-1.887-3.318c-.09-1.3.948-2.726,2.242-2.589a3.162,3.162,0,0,1,1.419.64,17.366,17.366,0,0,1,5.3,5.858A16.94,16.94,0,0,1,107.123,280a5.744,5.744,0,0,1,4.628-3.133c2.055-.033,3.849,1.425,5.076,3.074a1.839,1.839,0,0,1,.4.8c.181,1.268-1.94,1.74-2.141,3.006a7.738,7.738,0,0,1,5.923.807,4.681,4.681,0,0,1,2.473,3.531,4,4,0,0,1-.721,2.414,5.168,5.168,0,0,1-6.6,1.552,10.381,10.381,0,0,1,4.359,1.77,6.839,6.839,0,0,1,2.871,3.941,4.11,4.11,0,0,1-1.656,4.367c-1.46.876-3.327.516-4.949,0a8.255,8.255,0,0,1,2.082,4.588,4.5,4.5,0,0,1-2.188,4.312c-1.993,1.017-4.376,0-6.371-1.016a4.125,4.125,0,0,1-2.1-1.765,3.9,3.9,0,0,1-4.838,5.466,7.348,7.348,0,0,1-2.655-2.1c-1.029-1.133-2.054-2.815-1.174-4.067a6.459,6.459,0,0,1-4.325,3.547,4.5,4.5,0,0,1-4.885-2.246c-1.16-2.453.611-5.362,2.825-6.93-2.452,1.21-5.569-.481-6.76-2.941" transform="translate(-6512.837 -16396.727)" fill="#fbb03b"/><path d="M177.1,453.617c-9.752,7.412-22.338,9.708-34.41,11.787-2.97.512-6.03,1.022-8.972.369a47.607,47.607,0,0,1,32.515-28.226c3.323-.8,6.871-1.228,10.122-.173s6.109,3.91,6.258,7.325c.159,3.635-2.616,6.715-5.513,8.917" transform="translate(-6537.251 -16478.328)" fill="#0b3733"/><path d="M103.077,312.336a5.041,5.041,0,1,1,8.494-.962l-2.694-1.319a2.07,2.07,0,1,0-3.468.393Z" transform="translate(-6521.818 -16411.396)" fill="#736357"/><path d="M139.23,307.507a5.786,5.786,0,0,1,5.121-7.8h0a5.787,5.787,0,0,1,5.127,7.795l-2.755-1.188a2.809,2.809,0,0,0-2.372-3.607h0a2.808,2.808,0,0,0-2.37,3.609Z" transform="translate(-6540.622 -16409.148)" fill="#736357"/><path d="M114.3,330.294a20.89,20.89,0,0,1-4.275-.44,19.493,19.493,0,0,1-5.474-2.022l1.455-2.624a17.745,17.745,0,0,0,18.819-1.345l1.813,2.39a19.5,19.5,0,0,1-5.131,2.779,21.011,21.011,0,0,1-5.684,1.206Q115.063,330.294,114.3,330.294Z" transform="translate(-6522.736 -16421.322)" fill="#736357"/></g></svg>