<svg xmlns="http://www.w3.org/2000/svg" width="27.35" height="27.35" viewBox="0 0 27.35 27.35"><path d="M19.658,27.35H7.692A7.712,7.712,0,0,1,0,19.658V7.692A7.712,7.712,0,0,1,7.692,0H19.658A7.712,7.712,0,0,1,27.35,7.692V19.658a7.712,7.712,0,0,1-7.692,7.692ZM7.692,1.709A5.99,5.99,0,0,0,1.709,7.692V19.658a5.99,5.99,0,0,0,5.983,5.983H19.658a5.99,5.99,0,0,0,5.983-5.983V7.692a5.99,5.99,0,0,0-5.983-5.983Z" fill="#fff"/><path d="M5.838-1A6.838,6.838,0,1,1-1,5.838,6.845,6.845,0,0,1,5.838-1Zm0,11.966A5.128,5.128,0,1,0,.709,5.838,5.134,5.134,0,0,0,5.838,10.966Z" transform="translate(7.838 7.838)" fill="#fff"/><path d="M.709-1A1.709,1.709,0,1,1-1,.709,1.711,1.711,0,0,1,.709-1Z" transform="translate(19.803 5.273)" fill="#fff"/></svg>