<svg xmlns="http://www.w3.org/2000/svg" xmlns:xlink="http://www.w3.org/1999/xlink" width="292" height="210.346" viewBox="0 0 292 210.346"><defs><filter id="a" x="0" y="0" width="292" height="210.346" filterUnits="userSpaceOnUse"><feOffset dy="2" input="SourceAlpha"/><feGaussianBlur stdDeviation="1" result="b"/><feFlood flood-opacity="0.161"/><feComposite operator="in" in2="b"/><feComposite in="SourceGraphic"/></filter><clipPath id="c"><rect width="14.534" height="15.372" fill="none"/></clipPath><clipPath id="d"><rect width="6.625" height="5.044" fill="none"/></clipPath><clipPath id="e"><rect width="5.814" height="2.631" fill="none"/></clipPath><clipPath id="f"><rect width="3.225" height="3.055" fill="none"/></clipPath><clipPath id="g"><rect width="19.621" height="16.507" fill="none"/></clipPath><clipPath id="h"><rect width="3.575" height="2.106" fill="none"/></clipPath><clipPath id="j"><rect width="15.675" height="13.245" fill="none"/></clipPath><clipPath id="k"><rect width="3.522" height="1.188" fill="none"/></clipPath><clipPath id="m"><rect width="9.293" height="2.09" fill="none"/></clipPath><clipPath id="n"><rect width="24.374" height="9.755" fill="none"/></clipPath><clipPath id="o"><rect width="16.168" height="15.579" fill="none"/></clipPath><clipPath id="p"><rect width="3.681" height="1.39" fill="none"/></clipPath><clipPath id="r"><rect width="182.233" height="40.616" fill="none"/></clipPath></defs><g transform="translate(-340 62.7)"><g transform="matrix(1, 0, 0, 1, 340, -62.7)" filter="url(#a)"><path d="M286,126.852a24.448,24.448,0,0,0-7.661-17.817A24.513,24.513,0,0,0,284.276,92.9c-.028-12.121-8.7-22.134-19.979-23.844.033-.592.051-1.189.049-1.791-.038-16.338-12.9-29.551-28.732-29.512a27.986,27.986,0,0,0-4.908.446c-.532-15.889-13.2-28.583-28.713-28.544a28.135,28.135,0,0,0-20.183,8.65A21,21,0,0,0,162.956,6.365,20.615,20.615,0,0,0,149,11.87,28.335,28.335,0,0,0,125.977,0,28.72,28.72,0,0,0,99.264,19.028a20.694,20.694,0,0,0-15.248-6.694C72.382,12.362,62.973,22.12,63,34.128a22.523,22.523,0,0,0,.131,2.357,22.784,22.784,0,0,0-2.415-.122c-12.929.032-23.384,10.875-23.353,24.219,0,.273.013.544.022.815a22.733,22.733,0,0,0-6.22-.853C18.238,60.576,7.782,71.419,7.813,84.763a24.575,24.575,0,0,0,4.241,13.8A24.284,24.284,0,0,0,0,119.756c.029,12.322,8.992,22.46,20.544,23.916a25.064,25.064,0,0,0-.411,4.555c.032,13.344,10.537,24.135,23.466,24.1a22.875,22.875,0,0,0,3.241-.244c0,.061,0,.121,0,.183.031,13.343,10.537,24.135,23.465,24.1a22.8,22.8,0,0,0,13.244-4.281,22.935,22.935,0,0,0,35.769-.607,23.319,23.319,0,0,0,20.749,12.864,23.051,23.051,0,0,0,17.581-8.284,22.919,22.919,0,0,0,34.947.215,27.923,27.923,0,0,0,16.429,5.291c13.5-.034,24.8-9.7,27.807-22.684a20.434,20.434,0,0,0,6.8,1.147c11.634-.029,21.043-9.786,21.014-21.794a22.32,22.32,0,0,0-1.2-7.188c12.558-.466,22.586-11.129,22.556-24.2" transform="translate(3 1)" fill="#fff"/></g><g transform="translate(380.535 8.664)"><g transform="translate(-0.01 0.003)"><path d="M299.626,42.743c1.9.334,2.435,2.5,7.9,4.169s10.068-6.8,11.3-8.158,2.461-2.175,4.684-1.151,1.443,8.063,1.75,12.837,1.48,6.307,2.742,8.248c1.623,2.5,4.116,4.084,5.235,5.326,2.806,3.114.074,4.143-1.024,4.307-4.058.61-6.593.886-8.487,2.986-.886.981-1.247,4.907-1.172,7.352.005.233,0,.456-.01.684l.111-.053c-.382,1.231.154,2.535.615,3.74a.856.856,0,0,1,.08.44c-.053.3-.4.462-.7.5a5.094,5.094,0,0,1-2.382-.414,5.347,5.347,0,0,1-2.334-1.3c-2.111-1.506-4.461-5.416-7.511-7.389-3.427-2.223-7.14-.912-9.712-.541a9,9,0,0,1-2.939.408,7.816,7.816,0,0,1-3.066-.35c-.361-.143-.737-.414-.705-.737a.792.792,0,0,1,.244-.419,9.922,9.922,0,0,0,1.713-3.018c.658-2.281,2.482-5.66,3.347-8.386,1.119-3.533-1.353-10.068-2.143-14.009-.706-3.522.552-5.421,2.451-5.082" transform="translate(-138.048 -17.442)" fill="#098dcd"/><path d="M350.407,28.5a8.884,8.884,0,0,0-1.14,5.076" transform="translate(-163.983 -13.384)" fill="none" stroke="#534741" stroke-miterlimit="10" stroke-width="1"/><g transform="translate(164.331 46.046)" opacity="0.2"><g clip-path="url(#c)"><path d="M323.164,90.968c2.642,4.387.133,9.272-1.1,11.214a21.96,21.96,0,0,0-4.318-4.111c-2.663-1.724-5.5-1.321-7.829-.881a11.293,11.293,0,0,1,2.18-8.678c1.687-2.127,7.681-3.167,11.065,2.456" transform="translate(-309.791 -86.81)" fill="#fff"/></g></g><path d="M344.849,73.786a1.376,1.376,0,0,0-1.109.5,1.379,1.379,0,1,1,2.382,1.284,1.372,1.372,0,0,0-1.273-1.788" transform="translate(-161.401 -34.429)"/><path d="M321.328,62.44a1.377,1.377,0,1,0,1.554-1.172,1.376,1.376,0,0,0-1.554,1.172" transform="translate(-150.871 -28.764)"/><path d="M322.375,62.622a.642.642,0,1,0-.005,0" transform="translate(-151.366 -29.185)" fill="#fff"/><path d="M342.868,80.522c-.111.292.5.8,1.369,1.135s1.666.371,1.777.074-.5-.8-1.368-1.135-1.666-.371-1.777-.074" transform="translate(-160.985 -37.717)" fill="#f19cb6"/><path d="M317.678,66.562c-.111.292.5.8,1.369,1.135s1.666.371,1.777.074-.5-.8-1.369-1.135-1.666-.371-1.777-.074" transform="translate(-149.157 -31.162)" fill="#f19cb6"/><g transform="translate(172.616 37.585)" opacity="0.7"><g clip-path="url(#d)"><path d="M332.008,74.884a1.519,1.519,0,0,1-2.939-.674,2.626,2.626,0,0,1-1.586.149,2.145,2.145,0,0,1-1.263-.78A1.526,1.526,0,0,1,326,72.141a1.21,1.21,0,0,1,1.183-.774" transform="translate(-325.643 -71.096)" fill="none" stroke="#534741" stroke-linecap="round" stroke-miterlimit="10" stroke-width="1"/></g></g><path d="M348.873,25.267a1.917,1.917,0,1,0,2.164-1.634,1.912,1.912,0,0,0-2.164,1.634" transform="translate(-163.802 -11.09)" fill="#f8af3c"/><path d="M83.129,47.568c-2.154.048-3.209,1.8-9.426,3.252-3.549.827-6.105-3.321-7.235-5.029s-6.291-.822-8.917-.074-2.854.769-4,5.983-2.7,6.7-4.424,8.625c-2.217,2.477-5.23,3.8-6.678,4.981-3.623,2.955-.785,4.556.393,4.928,4.371,1.363,7.124,2.1,8.853,4.737.812,1.236.536,5.623.037,8.3-.048.255-.08.5-.106.753l-.111-.074c.212,1.422-.6,2.769-1.31,4.015a.921.921,0,0,0-.164.472c.005.345.361.573.69.679a5.722,5.722,0,0,0,2.695-.048,5.818,5.818,0,0,0,2.79-1.04c2.583-1.3,5.84-5.214,9.537-6.875,4.159-1.867,8.031.207,10.805,1.056a9.834,9.834,0,0,0,3.167.949,8.678,8.678,0,0,0,3.443.138c.424-.1.881-.329.9-.695a.894.894,0,0,0-.2-.5,11.149,11.149,0,0,1-1.379-3.618c-.334-2.626-1.777-6.662-2.265-9.813-.637-4.084,3.2-10.869,4.742-15.08,1.379-3.766.313-6.068-1.841-6.021" transform="translate(-19.089 -21.042)" fill="#e20917"/><path d="M77.312,93.5c-3.655,4.387-1.724,10.2-.695,12.556a24.487,24.487,0,0,1,5.458-3.8c3.225-1.448,6.286-.525,8.784.361a12.6,12.6,0,0,0-.928-9.94c-1.5-2.636-7.93-4.8-12.619.827" transform="translate(-35.296 -42.248)" fill="#e84f35"/><path d="M60.926,44.661a3.885,3.885,0,0,1,2.445-.748A9.545,9.545,0,0,0,59,50.013a8.589,8.589,0,0,1,4.355-2.026,4.876,4.876,0,0,0,.154,5.182A6.467,6.467,0,0,1,65.959,48.8a12.782,12.782,0,0,0,3.48,4.265,7.069,7.069,0,0,1,1.146-6.593,5.037,5.037,0,0,0,4.625,2.238,3.658,3.658,0,0,1-1.835-2.9,2.241,2.241,0,0,1,2.207-2.291,9.058,9.058,0,0,0-7.331-6.625q1.074.8,2.148,1.613a8.978,8.978,0,0,0-7.607,1.655c1.162.064,2.318.127,3.48.2a8.992,8.992,0,0,0-5.347,4.323" transform="translate(-27.699 -17.324)" fill="#c01818"/><path d="M69.236,75.169a1.538,1.538,0,1,1-1.517-1.56,1.54,1.54,0,0,1,1.517,1.56" transform="translate(-31.061 -34.566)"/><path d="M69.791,75.331a.615.615,0,1,1-.6-.621.613.613,0,0,1,.6.621" transform="translate(-32.188 -35.082)" fill="#fff"/><path d="M96.336,64.669a1.538,1.538,0,1,1-1.517-1.559,1.54,1.54,0,0,1,1.517,1.559" transform="translate(-43.786 -29.635)"/><path d="M96.891,64.841a.615.615,0,1,1-.6-.621.613.613,0,0,1,.6.621" transform="translate(-44.913 -30.157)" fill="#fff"/><path d="M69.117,81.077c.074.345-.69.8-1.708,1.024s-1.9.122-1.973-.217.69-.8,1.7-1.018,1.9-.122,1.973.217" transform="translate(-30.718 -37.917)" fill="#ec694b"/><path d="M99.267,69.967c.074.345-.69.8-1.708,1.024s-1.9.122-1.973-.217.69-.8,1.7-1.018,1.9-.122,1.973.217" transform="translate(-44.875 -32.7)" fill="#ec694b"/><g transform="translate(42.525 40.285)"><g clip-path="url(#e)"><path d="M80.66,78.492a5.864,5.864,0,0,0,5.283-2.042" transform="translate(-80.395 -76.185)" fill="none" stroke="#754d24" stroke-linecap="round" stroke-miterlimit="10" stroke-width="1"/></g></g><g transform="translate(47.586 38.323)"><g clip-path="url(#f)"><path d="M90.353,72.75a1.808,1.808,0,0,0,2.551,2.3" transform="translate(-89.939 -72.485)" fill="none" stroke="#754d24" stroke-linecap="round" stroke-miterlimit="10" stroke-width="1"/></g></g><path d="M272.675,45.419c-1.788-1.363-4.063-.111-9.813-3.48s-2.127-13.993-1.936-16.12-.085-3.824-2.711-4.922-8.047,5.129-12.375,8.641-6.567,3.713-9.224,4.164c-3.427.583-6.747-.3-8.7-.281-4.88.053-3.607,3.209-2.886,4.275,2.679,3.957,4.45,6.344,4.148,9.628-.143,1.538-3.22,4.938-5.373,6.806-.207.175-.393.361-.578.546l-.042-.133c-.753,1.3-2.292,1.867-3.687,2.424a.986.986,0,0,0-.446.281.9.9,0,0,0,.122,1,5.963,5.963,0,0,0,2.233,1.713,6.214,6.214,0,0,0,2.955.971c2.955.615,8.158-.456,12.258.6,4.61,1.183,6.424,5.395,8.132,7.893a10.39,10.39,0,0,0,1.968,2.838,9.079,9.079,0,0,0,2.721,2.355c.408.2.934.308,1.188.021a.977.977,0,0,0,.17-.541,11.6,11.6,0,0,1,1.231-3.851c1.438-2.366,2.886-6.593,4.541-9.49,2.138-3.75,9.686-6.79,13.685-9.224,3.575-2.175,4.206-4.753,2.419-6.116" transform="translate(-102.801 -9.754)" fill="#e3097e"/><g transform="translate(127.067 41.267)" opacity="0.2"><g clip-path="url(#g)"><path d="M248.282,78.052c-5.84,1.2-8.047,7.209-8.742,9.8a25.514,25.514,0,0,1,6.928.451c3.575.918,5.469,3.66,6.938,6.015a13.154,13.154,0,0,0,5.713-8.72c.488-3.13-3.352-9.081-10.842-7.538" transform="translate(-239.54 -77.803)" fill="#fff"/></g></g><path d="M261.08,51.868a1.606,1.606,0,1,1-.223-2.26,1.607,1.607,0,0,1,.223,2.26" transform="translate(-121.251 -23.125)"/><path d="M262.144,52.013a.641.641,0,1,1-.09-.9.64.64,0,0,1,.09.9" transform="translate(-122.553 -23.934)" fill="#fff"/><path d="M290.04,60.938a1.606,1.606,0,1,1-.223-2.26,1.607,1.607,0,0,1,.223,2.26" transform="translate(-134.849 -27.384)"/><path d="M291.1,61.083a.641.641,0,1,1-.09-.9.64.64,0,0,1,.09.9" transform="translate(-136.151 -28.193)" fill="#fff"/><g transform="translate(133.523 28.006)"><g clip-path="url(#h)"><path d="M255.265,54.726c-.164.329-1.082.207-2.058-.276s-1.634-1.135-1.469-1.464,1.082-.207,2.058.276,1.634,1.135,1.469,1.464" transform="translate(-251.711 -52.801)" fill="#f5b5b9"/></g></g><g transform="translate(153.695 35.23)"><g clip-path="url(#h)"><path d="M293.3,68.347c-.164.329-1.082.207-2.058-.276s-1.634-1.135-1.469-1.464,1.082-.207,2.058.276,1.634,1.135,1.469,1.464" transform="translate(-289.741 -66.421)" fill="#f5b5b9"/></g></g><path d="M261.26,69.45a5.268,5.268,0,0,0,3.416,3.029,6.867,6.867,0,0,0,6.424-.546,7.963,7.963,0,0,0-9.84-2.482" transform="translate(-122.672 -32.258)" fill="#e42529"/><path d="M261.609,56.635c-1.384,3.326-1.316,5.586-.7,7.108a8.066,8.066,0,0,1,9.845,2.472,12.6,12.6,0,0,0,4.116-4.578L261.609,56.63Z" transform="translate(-122.31 -26.593)" fill="#741613"/><path d="M286.2,34.574c.414-.965-1.782-2.891-5.342-4.912-.053.239-.1.488-.154.753,2.148,1.3,3.416,2.472,3.156,3.066-.228.536-1.628.5-3.665.027a40.576,40.576,0,0,1-6.344-2.164,44.1,44.1,0,0,1-5.092-2.546c-2.286-1.358-3.644-2.583-3.384-3.2.313-.732,2.817-.408,6.148.679.212-.191.424-.377.637-.562-5.135-1.841-9.224-2.435-9.718-1.273-.419.987,1.872,2.97,5.564,5.034a54.5,54.5,0,0,0,5.241,2.557,52.58,52.58,0,0,0,6.853,2.414c3.336.886,5.729,1,6.1.133" transform="translate(-123.206 -11.199)" fill="#f8af3c"/><path d="M149.721,26.033c-1.973-.408-3.321,1.485-9.267.992a6.06,6.06,0,0,1-4.519-3c-1.857-3.968-2.366-9.866-.387-13.776a4.531,4.531,0,0,0-3.31,3.167c-.833-2.864-.361-4.716,1.607-6.954a10.552,10.552,0,0,0-6.758,6.227c-.011.011-.016.021-.027.027a3.668,3.668,0,0,1,.292-3.867c-1.756,1.623-2.52,4.042-2.992,6.381a50.89,50.89,0,0,1-1.146,5.331c-.435,1.071-.865,2.116-1.31,3.045-2.132,4.509-3.862,5.543-5.835,6.933-2.541,1.793-5.564,2.371-7.129,3.14-3.92,1.936-1.671,3.989-.668,4.567,3.7,2.154,6.047,3.4,7.076,6.164.477,1.294-.684,5.23-1.7,7.575-.1.223-.18.446-.255.663l-.085-.09c-.1,1.337-1.13,2.392-2.032,3.384a.9.9,0,0,0-.249.4c-.069.313.207.6.488.759a5.331,5.331,0,0,0,2.467.52,5.609,5.609,0,0,0,2.764-.361c2.626-.647,6.408-3.527,10.126-4.265,4.18-.833,7.272,1.867,9.622,3.22a9.246,9.246,0,0,0,2.689,1.528,8.115,8.115,0,0,0,3.108.843c.4,0,.87-.117.965-.446a.816.816,0,0,0-.074-.5,10.281,10.281,0,0,1-.5-3.586c.244-2.467-.223-6.44-.011-9.415.276-3.851,5.188-9.235,7.474-12.747,2.042-3.14,1.554-5.464-.419-5.872" transform="translate(-50.104 -3.035)" fill="#65b345"/><g transform="translate(70.83 38.959)" opacity="0.2"><g clip-path="url(#j)"><path d="M137.083,75.405c-4.249,3.23-3.7,8.933-3.257,11.293a23.094,23.094,0,0,1,5.766-2.323c3.241-.647,5.835.838,7.93,2.164a11.778,11.778,0,0,0,1.231-9.251c-.817-2.716-6.222-6.031-11.67-1.883" transform="translate(-133.524 -73.448)" fill="#fff"/></g></g><path d="M136.093,54.537a1.436,1.436,0,1,1-1.056-1.735,1.436,1.436,0,0,1,1.056,1.735" transform="translate(-62.568 -24.776)"/><path d="M136.745,54.651a.576.576,0,1,1-.424-.695.578.578,0,0,1,.424.695" transform="translate(-63.671 -25.33)" fill="#fff"/><path d="M162.973,50.637a1.436,1.436,0,1,1-1.056-1.735,1.436,1.436,0,0,1,1.056,1.735" transform="translate(-75.19 -22.945)"/><path d="M163.635,50.751a.576.576,0,1,1-.424-.695.578.578,0,0,1,.424.695" transform="translate(-76.298 -23.498)" fill="#fff"/><g transform="translate(69.668 31.522)"><g clip-path="url(#k)"><path d="M134.852,60.05c0,.329-.8.583-1.766.573s-1.756-.286-1.756-.61.8-.583,1.766-.573,1.756.286,1.756.61" transform="translate(-131.33 -59.434)" fill="#e85b9a"/></g></g><g transform="translate(85.953 29.613)"><g clip-path="url(#k)"><path d="M165.542,56.45c0,.329-.8.584-1.766.573s-1.756-.286-1.756-.61.8-.584,1.766-.573,1.756.286,1.756.61" transform="translate(-162.025 -55.834)" fill="#e85b9a"/></g></g><g transform="translate(74.601 29.751)"><g clip-path="url(#m)"><path d="M141.13,57.444s4.811,2.058,8.763-.854" transform="translate(-140.865 -56.325)" fill="none" stroke="#754d24" stroke-linecap="round" stroke-miterlimit="10" stroke-width="1"/></g></g><g transform="translate(66.714 23.507)"><g clip-path="url(#n)"><path d="M131.574,45.624a10.293,10.293,0,0,1,3.315.127,10.488,10.488,0,0,0,5.9-.562,13.7,13.7,0,0,1,4.779-.87c1.374-.042,2.753.037,4.127.053.223,0,.3.074.318.286.027.387.064.774.111,1.156a.317.317,0,0,1-.207.371.774.774,0,0,0-.44.833,14.89,14.89,0,0,1-.053,2.281,3.556,3.556,0,0,1-2.827,3.214,7.083,7.083,0,0,1-3.878-.016,4.634,4.634,0,0,1-2.589-2.016,21.114,21.114,0,0,1-1.045-2.042,2.048,2.048,0,0,0-.377-.562.792.792,0,0,0-1.278.18,1.619,1.619,0,0,0-.228.668,4.533,4.533,0,0,1-.281,1.241,7.683,7.683,0,0,1-1.056,2.053,4.561,4.561,0,0,1-2.143,1.57,7.447,7.447,0,0,1-3.156.44,3.648,3.648,0,0,1-3.448-2.907,14.579,14.579,0,0,1-.387-1.973.736.736,0,0,0-.557-.69.373.373,0,0,1-.313-.408c-.021-.366-.058-.727-.1-1.087-.021-.186.016-.281.223-.334a36.134,36.134,0,0,1,5.58-1.013m.042.721c-.271.027-.546.032-.817.08a6.748,6.748,0,0,0-2.3.721,1.105,1.105,0,0,0-.557.774,6.236,6.236,0,0,0,.568,4.111,2.331,2.331,0,0,0,1.374,1.2,4.509,4.509,0,0,0,2.557.09,4.188,4.188,0,0,0,3.634-4.047,3.782,3.782,0,0,1-.021-.541,1.628,1.628,0,0,0-.912-2.063,7.662,7.662,0,0,0-3.527-.334m12.922-1.268a9.062,9.062,0,0,0-3.634.992,1.52,1.52,0,0,0-.854,1.57,5.876,5.876,0,0,0,.652,2.148,3.751,3.751,0,0,0,1.4,1.676,5.258,5.258,0,0,0,4.312.467,2.568,2.568,0,0,0,1.888-1.841,6.667,6.667,0,0,0-.053-3.607,1.6,1.6,0,0,0-1.538-1.3c-.849-.064-1.7-.09-2.175-.111" transform="translate(-125.76 -44.314)" fill="#c99d66"/></g></g><path d="M131.224,44.884a10.292,10.292,0,0,1,3.315.127,10.488,10.488,0,0,0,5.9-.562,13.7,13.7,0,0,1,4.779-.87c1.374-.042,2.753.037,4.127.053.223,0,.3.074.318.286.027.387.064.774.111,1.156a.317.317,0,0,1-.207.371.774.774,0,0,0-.44.833,14.869,14.869,0,0,1-.053,2.281,3.556,3.556,0,0,1-2.827,3.214,7.083,7.083,0,0,1-3.878-.016,4.634,4.634,0,0,1-2.589-2.016A21.116,21.116,0,0,1,138.74,47.7a2.048,2.048,0,0,0-.377-.562.792.792,0,0,0-1.278.18,1.619,1.619,0,0,0-.228.668,4.533,4.533,0,0,1-.281,1.241,7.684,7.684,0,0,1-1.056,2.053,4.561,4.561,0,0,1-2.143,1.57,7.447,7.447,0,0,1-3.156.44,3.648,3.648,0,0,1-3.448-2.907,14.577,14.577,0,0,1-.387-1.973.736.736,0,0,0-.557-.69.373.373,0,0,1-.313-.408c-.021-.366-.058-.727-.1-1.087-.021-.186.016-.281.223-.334a36.133,36.133,0,0,1,5.58-1.013m.042.721c-.271.027-.546.032-.817.08a6.749,6.749,0,0,0-2.3.721,1.105,1.105,0,0,0-.557.774,6.237,6.237,0,0,0,.568,4.111,2.331,2.331,0,0,0,1.374,1.2,4.51,4.51,0,0,0,2.557.09,4.188,4.188,0,0,0,3.633-4.047,3.782,3.782,0,0,1-.021-.541,1.628,1.628,0,0,0-.912-2.063,7.662,7.662,0,0,0-3.527-.334m12.927-1.268a9.062,9.062,0,0,0-3.634.992,1.52,1.52,0,0,0-.854,1.57,5.877,5.877,0,0,0,.652,2.148,3.751,3.751,0,0,0,1.4,1.676,5.258,5.258,0,0,0,4.312.467,2.568,2.568,0,0,0,1.888-1.841,6.719,6.719,0,0,0-.048-3.607,1.6,1.6,0,0,0-1.544-1.3c-.849-.064-1.7-.09-2.175-.111" transform="translate(-58.882 -20.459)" fill="#89d1f5"/><path d="M203.826,20.584c-2.132-.048-3.172,2.18-9.458,2.811s-9.437-9.532-10.476-11.267-2.2-2.88-4.822-2.26-3.3,8.423-4.663,13.526-2.96,6.509-4.747,8.339c-2.3,2.355-5.336,3.533-6.822,4.636-3.708,2.764-.971,4.472.175,4.885,4.259,1.533,6.949,2.382,8.551,5.06.748,1.257.292,5.58-.318,8.211a7.488,7.488,0,0,0-.138.737l-.106-.08c.149,1.416-.716,2.711-1.469,3.915a.947.947,0,0,0-.186.461c-.011.339.329.583.652.7a5.66,5.66,0,0,0,2.668.069,5.86,5.86,0,0,0,2.806-.907c2.61-1.178,6-4.9,9.723-6.381,4.19-1.666,7.93.552,10.635,1.512a9.8,9.8,0,0,0,3.092,1.077,8.7,8.7,0,0,0,3.395.286c.424-.08.886-.286.918-.647a.928.928,0,0,0-.17-.509,11,11,0,0,1-1.209-3.634c-.217-2.61-1.469-6.662-1.819-9.8-.451-4.063,3.633-10.609,5.336-14.7,1.528-3.665.573-5.989-1.56-6.031" transform="translate(-75.576 -4.556)" fill="#fbc204"/><g transform="translate(103.028 36.323)" opacity="0.2"><g clip-path="url(#o)"><path d="M196.607,71.68c-3.8,4.18-2.143,10.009-1.231,12.381a24.26,24.26,0,0,1,5.559-3.522c3.252-1.294,6.233-.244,8.667.737a12.468,12.468,0,0,0-.488-9.866c-1.369-2.668-7.633-5.087-12.513.271" transform="translate(-194.22 -68.482)" fill="#fff"/></g></g><path d="M190.3,51.5a1.522,1.522,0,1,1-1.432-1.607A1.524,1.524,0,0,1,190.3,51.5" transform="translate(-87.922 -23.426)"/><path d="M190.874,51.651a.608.608,0,1,1-.573-.642.61.61,0,0,1,.573.642" transform="translate(-89.05 -23.953)" fill="#fff"/><path d="M217.547,42.285a1.522,1.522,0,1,1-1.432-1.607,1.524,1.524,0,0,1,1.432,1.607" transform="translate(-100.718 -19.101)"/><path d="M218.124,42.431a.608.608,0,1,1-.573-.642.61.61,0,0,1,.573.642" transform="translate(-101.846 -19.624)" fill="#fff"/><path d="M195.833,54.837s-.3-2.037,1.464-2.318,3.342.228,5.013-1.655a2.374,2.374,0,0,1,2.886-1.13s2.037.955.568,4.7c-.355.912-3.092,3.384-7.14,2.886a3.261,3.261,0,0,1-2.79-2.482" transform="translate(-91.94 -23.288)" fill="#611418"/><path d="M197.14,59.857a3.625,3.625,0,0,0,2.106,1.082,7.562,7.562,0,0,0,7.055-2.716c-4.185-2.265-7.622.175-9.161,1.634" transform="translate(-92.564 -26.908)" fill="#e42529"/><g transform="translate(98.811 30.228)"><g clip-path="url(#p)"><path d="M189.948,57.359c.058.339-.716.759-1.729.934s-1.883.042-1.941-.3.716-.759,1.729-.939,1.883-.042,1.941.3" transform="translate(-186.272 -56.983)" fill="#ec687a"/></g></g><g transform="translate(114.878 25.093)"><g clip-path="url(#p)"><path d="M220.238,47.684c.058.339-.716.759-1.729.934s-1.883.042-1.941-.3.716-.759,1.729-.934,1.883-.042,1.941.3" transform="translate(-216.562 -47.308)" fill="#ec687a"/></g></g><path d="M206.237,10.894a2.2,2.2,0,0,0,.658-.281.782.782,0,0,0,.355-.6c.011-.477-.515-.769-.971-.9a6.535,6.535,0,0,0-3.681.037.746.746,0,0,0-.239.106.78.78,0,0,0-.18.212c-.271.4-.536.8-.8,1.2-.149.223-.3.536-.127.743a.617.617,0,0,0,.52.154,16.772,16.772,0,0,0,4.466-.674" transform="translate(-94.457 -4.165)" fill="#ce5120"/><path d="M191.8.012c-5.877.249-1.835,7.978-1.835,7.978C194.321,9.947,196.5,7,196.5,7c.6-2.164,1.172-7.235-4.705-6.986m2.44,7.75a2.128,2.128,0,0,1-2.291.164l-.313-1.257A4.865,4.865,0,0,0,194.31,6.4Z" transform="translate(-88.556 -0.003)" fill="#ea5b28"/><path d="M204.862,146.94a211.015,211.015,0,0,0-188.964,0q-1.01-9.357-1.565-18.741Q7.315,121.778-.01,115.723a246.271,246.271,0,0,1,220.775,0q-7.336,6.063-14.343,12.476-.557,9.4-1.565,18.741" transform="translate(0.01 -42.073)" fill="#f6a505"/><g transform="translate(19.276 52.597)"><g clip-path="url(#r)"><path d="M49.478,141.087c1.231.191,2.419.4,3.575.631a15.57,15.57,0,0,1,3.087.928,6.067,6.067,0,0,1,2.191,1.528,3.651,3.651,0,0,1,.865,2.419,4.21,4.21,0,0,1-.743,2.472,9.161,9.161,0,0,1-2.132,2.286,13.8,13.8,0,0,1-3.119,1.793,14.409,14.409,0,0,1-3.729,1,12.931,12.931,0,0,1-3.984-.117,10.537,10.537,0,0,1-3.946-1.623c.074-.286.191-.647.35-1.087s.345-.9.557-1.39.419-.971.621-1.453.387-.923.552-1.321a12.8,12.8,0,0,0,2.069.944,17.538,17.538,0,0,0,2.785.79,8.457,8.457,0,0,0,2.589.143,1.643,1.643,0,0,0,1.5-1.072.469.469,0,0,0-.217-.647A3.2,3.2,0,0,0,51.239,147a13.437,13.437,0,0,0-1.666-.117q-.947-.016-1.878-.1-.756-.056-1.75-.175c-.663-.08-1.347-.175-2.042-.281s-1.384-.233-2.048-.371a16.351,16.351,0,0,1-1.761-.461,5.1,5.1,0,0,1-3.114-2.366,5.47,5.47,0,0,1-.562-3.618,8.309,8.309,0,0,1,1.851-3.824,10.16,10.16,0,0,1,7.437-3.612,17.906,17.906,0,0,1,6.763,1.071,15.673,15.673,0,0,1,2.44,1.109c-.244.286-.557.674-.939,1.167s-.774,1.024-1.188,1.581-.833,1.125-1.257,1.681-.8,1.029-1.125,1.411a9.825,9.825,0,0,1-.923-.382c-.393-.18-.822-.377-1.284-.583s-.955-.4-1.464-.589a10.246,10.246,0,0,0-1.443-.408,2.977,2.977,0,0,0-1.178-.032,1.015,1.015,0,0,0-.732.536.863.863,0,0,0,.228,1.231,4.722,4.722,0,0,0,1.666.658,18.422,18.422,0,0,0,2.233.345c.79.074,1.448.154,1.979.239" transform="translate(-36.328 -114.612)" fill="#333"/><path d="M88.449,118.249c-.339.117-.971.329-1.9.642s-2.01.679-3.236,1.1c.217.971.472,2.026.753,3.151s.562,2.26.838,3.4.552,2.265.817,3.374.525,2.132.774,3.077.456,1.782.636,2.509.318,1.289.414,1.676c-2.18.684-3.268,1.045-5.426,1.8q-.207-.7-.854-2.493c-.43-1.194-.934-2.573-1.517-4.122s-1.2-3.183-1.846-4.885-1.252-3.3-1.8-4.8q-1.925.748-3.273,1.3c-.9.371-1.437.6-1.618.7-.838-2.2-1.252-3.289-2.09-5.485.313-.143.9-.382,1.777-.705s1.894-.7,3.05-1.119,2.4-.854,3.734-1.294,2.61-.849,3.835-1.225,2.334-.705,3.331-.981,1.735-.467,2.217-.578c.552,1.979.827,2.97,1.379,4.949" transform="translate(-51.727 -105.8)" fill="#333"/><path d="M123.9,131.72c-.074-.143-.207-.446-.387-.918s-.4-1.013-.647-1.623-.515-1.262-.8-1.947-.546-1.315-.8-1.9c-.727.228-1.565.493-2.514.806s-1.8.589-2.546.822c0,.3.027.684.069,1.162s.09.949.138,1.416.09.9.127,1.284.064.652.074.785c-2.26.573-3.39.881-5.633,1.528-.074-.6-.164-1.533-.26-2.806s-.18-2.705-.249-4.3-.133-3.278-.18-5.044-.069-3.421-.064-4.981.021-2.933.042-4.127.058-2.026.1-2.493c.276-.069.854-.217,1.724-.435s1.809-.435,2.817-.658,1.936-.424,2.8-.615,1.422-.3,1.681-.355c.138.286.4.822.79,1.613s.838,1.724,1.358,2.8,1.082,2.265,1.7,3.565,1.22,2.615,1.825,3.952,1.188,2.642,1.756,3.92,1.066,2.435,1.5,3.464.8,1.9,1.087,2.6.456,1.135.509,1.3c-2.414.43-3.618.663-6.021,1.172m-7.755-9.033q.891-.183,1.814-.382c.615-.133,1.209-.249,1.782-.355-.334-.716-.668-1.427-1-2.122s-.652-1.353-.96-1.973-.6-1.188-.87-1.7-.5-.944-.684-1.289c-.011.408-.016.907-.021,1.485s-.016,1.22-.027,1.915-.021,1.422-.032,2.175-.011,1.5,0,2.249" transform="translate(-71.034 -102.992)" fill="#333"/><path d="M154.882,116.876c.652.217,1.3.43,1.947.642s1.268.424,1.857.637,1.135.408,1.623.589.918.345,1.284.5c-.143.3-.339.695-.578,1.194s-.5,1.008-.769,1.528-.525,1.024-.759,1.5-.424.833-.562,1.066c-.292-.149-.785-.408-1.48-.774s-1.5-.769-2.4-1.209-1.867-.912-2.891-1.406-2-.939-2.923-1.342c.011.4.042.9.106,1.491s.122,1.183.186,1.766.111,1.114.159,1.586.069.812.074,1.013c-1.9.276-2.848.424-4.742.753-.053-.44-.17-1.2-.355-2.276s-.4-2.323-.642-3.74-.509-2.923-.8-4.525-.562-3.14-.833-4.615-.509-2.822-.732-4.031-.4-2.122-.536-2.753c-.037-.217.2-.456.727-.711a10.2,10.2,0,0,1,2.132-.7,25.023,25.023,0,0,1,3.1-.493,22.455,22.455,0,0,1,3.6-.074,21.094,21.094,0,0,1,3.649.53,10.959,10.959,0,0,1,3.22,1.3,7.319,7.319,0,0,1,2.307,2.2,6.235,6.235,0,0,1,.987,3.183,5.477,5.477,0,0,1-.366,2.238,7.576,7.576,0,0,1-1.172,2.026,8.1,8.1,0,0,1-1.888,1.687,11.705,11.705,0,0,1-2.52,1.231m-5.952-3.766a13.49,13.49,0,0,0,2.27,0,5.685,5.685,0,0,0,1.766-.419,2.576,2.576,0,0,0,1.14-.9,2.437,2.437,0,0,0,.377-1.475A2.681,2.681,0,0,0,154,108.75a3.269,3.269,0,0,0-1.231-1,5.064,5.064,0,0,0-1.809-.435,10.826,10.826,0,0,0-2.207.09c.037.843.074,1.745.106,2.711s.058,1.963.074,2.986" transform="translate(-85.532 -100.703)" fill="#333"/><path d="M210.938,109.561q-.024.461-.111,1.321c-.058.573-.117,1.156-.17,1.75s-.111,1.156-.17,1.687-.085.9-.1,1.125c-.286-.037-.759-.1-1.427-.175q-.119,2.451-.212,4.371c-.064,1.278-.127,2.207-.2,2.779-2.148-.1-3.22-.138-5.373-.175.032-.509.09-1.422.175-2.748s.18-2.848.281-4.572c-.859-.064-1.745-.1-2.652-.117l-2.615-.048c-.042.6-.074,1.278-.09,2.042s-.042,1.5-.069,2.207-.053,1.353-.069,1.941-.037,1-.058,1.247c-1.915.021-2.875.042-4.79.111.005-.44-.011-1.231-.053-2.371s-.085-2.445-.143-3.925-.117-3.066-.191-4.753-.143-3.3-.212-4.854-.133-2.955-.191-4.222-.111-2.223-.164-2.864q3.469-.135,6.949-.138c0,.265-.021.743-.074,1.427s-.1,1.491-.143,2.424-.111,1.957-.2,3.087-.154,2.276-.223,3.448c.859-.048,1.745-.09,2.652-.117l2.695-.08q.111-1.623.2-3.161t.159-2.88c.042-.9.085-1.7.111-2.4s.037-1.273.021-1.692c2.032.048,3.05.08,5.082.18-.011.244-.032.684-.064,1.326s-.069,1.406-.111,2.3-.085,1.888-.122,2.981-.074,2.228-.106,3.395c.371.016.706.042,1.013.069s.557.058.753.09" transform="translate(-109.581 -99.169)" fill="#333"/><path d="M238.4,126.041a9.527,9.527,0,0,1-.064-.992c-.016-.5-.042-1.087-.074-1.745s-.069-1.363-.106-2.1-.08-1.422-.122-2.053c-.758-.027-1.639-.048-2.631-.064s-1.883-.037-2.658-.064c-.1.281-.2.652-.318,1.119s-.223.928-.34,1.384-.212.875-.3,1.252-.154.637-.191.764c-2.307-.207-3.464-.286-5.776-.419q.183-.883.679-2.732t1.178-4.148q.684-2.3,1.485-4.822t1.575-4.721q.772-2.2,1.4-3.883c.414-1.119.721-1.894.912-2.318.281.027.87.074,1.761.159s1.841.186,2.859.308,1.963.239,2.838.345,1.443.18,1.7.218c.037.318.111.912.212,1.782s.223,1.9.355,3.092.271,2.5.419,3.925.286,2.875.414,4.334.249,2.886.361,4.281.2,2.647.276,3.766.127,2.058.17,2.811.058,1.225.053,1.4c-2.419-.393-3.628-.568-6.058-.881m-4.3-11.1q.9.119,1.83.239c.621.08,1.22.159,1.793.249-.08-.79-.159-1.565-.244-2.334s-.17-1.491-.255-2.18-.17-1.321-.255-1.894-.159-1.056-.223-1.443c-.143.387-.313.849-.509,1.4s-.414,1.146-.652,1.8-.488,1.331-.743,2.042-.5,1.416-.743,2.127" transform="translate(-125.307 -99.789)" fill="#333"/><path d="M266.8,106.488c.037-.217.371-.382,1.008-.483a12.763,12.763,0,0,1,2.429-.106,24.695,24.695,0,0,1,6.981,1.363,17.467,17.467,0,0,1,3.405,1.618,9.788,9.788,0,0,1,2.6,2.286,6.417,6.417,0,0,1,1.289,2.96,6.688,6.688,0,0,1-.541,3.634,12.463,12.463,0,0,1-2.307,3.639,10.9,10.9,0,0,1-3.331,2.488,11.808,11.808,0,0,1-4.2,1.1,13.9,13.9,0,0,1-4.9-.53c-.287.955-.525,1.814-.721,2.562s-.355,1.326-.483,1.729c-1.968-.387-2.955-.568-4.933-.9.042-.239.127-.721.26-1.437s.281-1.581.456-2.594.355-2.138.568-3.368.419-2.472.642-3.724.435-2.477.637-3.676.382-2.265.536-3.2.292-1.713.408-2.318.18-.955.2-1.045m10.593,10.269a2.2,2.2,0,0,0-.048-1.443,3.327,3.327,0,0,0-.912-1.247,6.145,6.145,0,0,0-1.581-.992,11.248,11.248,0,0,0-2.042-.684c-.313,1.018-.631,2.1-.965,3.236s-.679,2.292-1.034,3.464a9.18,9.18,0,0,0,2.233.308,5.888,5.888,0,0,0,1.936-.292,4.056,4.056,0,0,0,1.5-.886,3.312,3.312,0,0,0,.912-1.475" transform="translate(-142.817 -102.319)" fill="#333"/><path d="M303.929,115.366c.058-.212.408-.339,1.056-.377a12.424,12.424,0,0,1,2.44.154,23,23,0,0,1,3.278.737,24.357,24.357,0,0,1,3.565,1.363,17.976,17.976,0,0,1,3.241,1.973,9.875,9.875,0,0,1,2.376,2.557,6.41,6.41,0,0,1,.987,3.082,6.592,6.592,0,0,1-.918,3.554,12.335,12.335,0,0,1-2.689,3.374,10.823,10.823,0,0,1-3.6,2.116,11.916,11.916,0,0,1-4.318.647,14.141,14.141,0,0,1-4.848-1.05q-.581,1.384-.987,2.472c-.271.727-.493,1.284-.658,1.671-1.931-.594-2.9-.875-4.838-1.416.064-.233.2-.7.408-1.4s.446-1.544.721-2.536.578-2.09.912-3.289.679-2.413,1.029-3.639.69-2.419,1.019-3.591.615-2.217.87-3.13.472-1.671.647-2.265.281-.934.3-1.018m9.548,11.357a2.145,2.145,0,0,0,.1-1.437,3.3,3.3,0,0,0-.785-1.337,6.32,6.32,0,0,0-1.48-1.156,11.238,11.238,0,0,0-1.973-.9c-.419.981-.849,2.021-1.3,3.119s-.918,2.212-1.4,3.331a9.086,9.086,0,0,0,2.2.546,6.01,6.01,0,0,0,1.968-.08,4.025,4.025,0,0,0,1.6-.721,3.3,3.3,0,0,0,1.066-1.369" transform="translate(-159.209 -106.587)" fill="#333"/><path d="M361.877,133.815a27.88,27.88,0,0,1-2.223,6.827,14.016,14.016,0,0,1-3.077,4.09,8.479,8.479,0,0,1-3.474,1.9,8.9,8.9,0,0,1-3.49.2c-.122.43-.255.9-.4,1.406s-.3,1.018-.467,1.538-.324,1.024-.477,1.517-.287.939-.4,1.347c-.361-.17-.828-.4-1.4-.674s-1.167-.557-1.788-.838-1.22-.541-1.793-.78-1.024-.424-1.347-.568c.419-.737.886-1.538,1.406-2.413s1.087-1.788,1.719-2.742a8.368,8.368,0,0,1-2.185-2.732,8.555,8.555,0,0,1-.87-3.867,15.354,15.354,0,0,1,.949-5.082,30,30,0,0,1,3.384-6.36q3.366,1.337,6.678,2.806c-.016.042-.239.308-.652.8s-.891,1.119-1.422,1.878-1.056,1.6-1.581,2.514a11.8,11.8,0,0,0-1.151,2.7,5.088,5.088,0,0,0-.143,2.4,2.418,2.418,0,0,0,1.464,1.671,2.305,2.305,0,0,0,2.228.074,4.411,4.411,0,0,0,1.628-1.708,10.911,10.911,0,0,0,1.082-2.716c.27-1.034.488-2.016.647-2.955s.276-1.745.34-2.419.106-1.034.122-1.077q.652.294,1.544.732c.594.292,1.2.584,1.825.886s1.231.594,1.825.891,1.093.541,1.5.748" transform="translate(-179.644 -112.04)" fill="#333"/></g></g><path d="M112.37,173.168c.212-.053.318-.08.53-.138.424,1.671.637,2.509,1.061,4.18a3.592,3.592,0,0,1,.233-.446,3.335,3.335,0,0,1,4.493-1.077,2.949,2.949,0,0,1,1.416,1.957,3.022,3.022,0,0,1-.43,2.366,3.267,3.267,0,0,1-4.392,1.05,3.325,3.325,0,0,1-.414-.281c.111.44.17.658.281,1.1-.2.053-.3.08-.509.127q-1.138-4.416-2.27-8.842m1.915,5.315c.106.414.159.626.265,1.04a2.46,2.46,0,0,0,1.013,1.072,2.589,2.589,0,0,0,2,.292,2.622,2.622,0,0,0,1.644-1.162,2.528,2.528,0,0,0-.817-3.565,2.741,2.741,0,0,0-3.708.886,2.422,2.422,0,0,0-.393,1.438" transform="translate(-52.759 -81.249)" fill="#736358"/><path d="M136.377,179.7a2.355,2.355,0,0,1-1.782-.281,2.179,2.179,0,0,1-.949-1.411c-.276-1.369-.419-2.058-.695-3.427l.53-.106c.271,1.353.408,2.032.679,3.384a1.643,1.643,0,0,0,.753,1.087,1.82,1.82,0,0,0,1.369.255,1.729,1.729,0,0,0,1.13-.727,1.637,1.637,0,0,0,.3-1.289c-.244-1.358-.371-2.037-.615-3.4.212-.037.318-.058.53-.1.244,1.379.371,2.069.615,3.443a2.185,2.185,0,0,1-1.851,2.567" transform="translate(-62.423 -81.559)" fill="#736358"/><path d="M149.428,169.963c.313,2.01.467,3.018.78,5.029l-.515.08c-.318-2.01-.472-3.013-.79-5.023-.233.037-.35.053-.583.09-.032-.2-.048-.308-.08-.509.233-.037.35-.058.583-.1-.1-.6-.143-.9-.233-1.5a1.6,1.6,0,0,1,.334-1.156,1.636,1.636,0,0,1,1.061-.6,2.408,2.408,0,0,1,.727.016c-.042.191-.064.286-.1.477a1.348,1.348,0,0,0-.5-.032,1.207,1.207,0,0,0-.743.44,1.092,1.092,0,0,0-.233.806c.09.583.138.875.228,1.459.472-.074.705-.106,1.178-.18.032.2.048.308.074.509l-1.172.175" transform="translate(-69.602 -78.071)" fill="#736358"/><path d="M159.338,168.574c.26,2.021.387,3.029.642,5.044-.207.027-.308.037-.52.064-.265-2.016-.393-3.024-.658-5.044-.233.032-.35.048-.583.074-.027-.207-.042-.308-.069-.509l.584-.08c-.08-.6-.117-.9-.2-1.506a1.58,1.58,0,0,1,.366-1.146,1.642,1.642,0,0,1,1.077-.573,2.285,2.285,0,0,1,.727.037c-.048.191-.069.286-.117.477a1.251,1.251,0,0,0-.5-.042,1.2,1.2,0,0,0-.753.419,1.112,1.112,0,0,0-.255.8c.074.589.111.881.186,1.464.472-.058.706-.09,1.178-.149.027.207.037.308.064.515-.472.058-.706.085-1.178.149" transform="translate(-74.255 -77.424)" fill="#736358"/><path d="M169.544,171.439a2.829,2.829,0,0,0,.011.292,2.478,2.478,0,0,0,.955,1.74,2.677,2.677,0,0,0,3.7-.34c.08-.1.154-.191.228-.292l.573.149a2.733,2.733,0,0,1-.377.493,3.122,3.122,0,0,1-2.159,1.109,3.086,3.086,0,0,1-2.313-.706,3.017,3.017,0,0,1-1.162-2.1,2.95,2.95,0,0,1,.716-2.307,3.3,3.3,0,0,1,4.578-.408,2.6,2.6,0,0,1,.976,1.862c-2.291.17-3.437.271-5.723.5m.037-.525c2.016-.207,3.024-.3,5.045-.451a2.378,2.378,0,0,0-.711-.965,2.72,2.72,0,0,0-3.777.334,2.507,2.507,0,0,0-.552,1.082" transform="translate(-79.343 -79.043)" fill="#736358"/><path d="M187.708,166.193c-.048-.949-.074-1.427-.122-2.376l.536-.026c.048.949.069,1.427.117,2.376l1.183-.053c.011.207.011.308.021.515l-1.183.053c.1,2.032.149,3.05.249,5.082l-.514.027c-.106-2.032-.159-3.05-.26-5.082-.472.027-.711.037-1.183.064-.011-.207-.016-.308-.032-.514.472-.027.711-.042,1.183-.064" transform="translate(-87.577 -76.911)" fill="#736358"/><path d="M211.073,164.244a.467.467,0,0,1,.154.355.475.475,0,0,1-.164.366.524.524,0,0,1-.377.143.556.556,0,0,1-.382-.149.467.467,0,0,1-.154-.371.472.472,0,0,1,.159-.355.528.528,0,0,1,.382-.143.534.534,0,0,1,.377.154m-.122,1.835c-.021,2.244-.032,3.363-.053,5.6h-.514c.016-2.244.021-3.363.037-5.6h.53" transform="translate(-98.672 -77.051)" fill="#736358"/><path d="M219.913,169.026c-.058,1.74-.085,2.61-.143,4.35-.207-.005-.313-.011-.52-.016.069-2.238.1-3.358.17-5.6l.536.016c0,.143-.005.217-.011.361a2.337,2.337,0,0,1,1.713-.637,2.27,2.27,0,0,1,1.65.7,2.137,2.137,0,0,1,.578,1.6c-.08,1.5-.117,2.249-.2,3.745l-.515-.027c.074-1.48.111-2.217.186-3.692a1.628,1.628,0,0,0-.472-1.247,1.842,1.842,0,0,0-2.53-.106,1.918,1.918,0,0,0-.44.562" transform="translate(-102.945 -78.652)" fill="#736358"/><path d="M235.9,166.817c-.154,2.026-.233,3.045-.387,5.071-.207-.016-.313-.021-.52-.037.149-2.032.223-3.045.371-5.071-.233-.016-.35-.027-.589-.042.016-.207.021-.308.037-.514l.589.042c.042-.6.064-.907.111-1.512a1.589,1.589,0,0,1,.589-1.05,1.62,1.62,0,0,1,1.167-.339,2.354,2.354,0,0,1,.7.18c-.085.175-.127.265-.207.44a1.294,1.294,0,0,0-.477-.143,1.206,1.206,0,0,0-.822.26,1.072,1.072,0,0,0-.408.732c-.042.589-.069.886-.111,1.475.472.037.711.053,1.183.1-.016.207-.027.308-.042.515-.472-.037-.706-.058-1.178-.1" transform="translate(-110.238 -76.707)" fill="#736358"/><path d="M250.915,175.779l-.52-.069c.058-.456.085-.679.143-1.135a3.227,3.227,0,0,1-2.711.981,3.1,3.1,0,0,1-2.122-1.156,3.031,3.031,0,0,1-.711-2.3,2.939,2.939,0,0,1,1.167-2.111,3.3,3.3,0,0,1,4.562.525,3.669,3.669,0,0,1,.286.419c.042-.313.058-.472.1-.785.212.027.318.042.53.069-.292,2.223-.435,3.331-.727,5.554m-.207-2.509c.053-.4.08-.6.127-1a2.432,2.432,0,0,0-.562-1.406,2.714,2.714,0,0,0-3.766-.43,2.54,2.54,0,0,0-.382,3.639,2.682,2.682,0,0,0,3.7.419,2.528,2.528,0,0,0,.886-1.215" transform="translate(-115.027 -79.501)" fill="#736358"/><path d="M264.628,173.4c-.265,1.719-.4,2.578-.663,4.3l-.515-.08c.334-2.217.5-3.326.838-5.538l.53.08c-.021.143-.032.212-.053.355a2.35,2.35,0,0,1,1.782-.424,2.3,2.3,0,0,1,1.56.891,2.111,2.111,0,0,1,.382,1.655c-.26,1.48-.387,2.217-.647,3.692-.2-.037-.308-.053-.509-.09.249-1.459.377-2.185.626-3.644a1.631,1.631,0,0,0-.318-1.294,1.847,1.847,0,0,0-2.5-.414,1.891,1.891,0,0,0-.5.5" transform="translate(-123.7 -80.794)" fill="#736358"/><path d="M281.368,173.094c.186-.934.281-1.4.467-2.334l.525.106c-.191.934-.281,1.4-.472,2.334l1.167.239-.106.5-1.162-.239-1.008,4.986c-.2-.042-.3-.064-.509-.1.4-1.994.6-2.992,1-4.986-.467-.1-.7-.138-1.167-.228.037-.2.058-.3.1-.5.467.09.7.138,1.167.228" transform="translate(-131.518 -80.184)" fill="#736358"/><path d="M292.566,174.029a.474.474,0,0,1,.074.382.479.479,0,0,1-.239.324.526.526,0,0,1-.4.058.546.546,0,0,1-.339-.228.49.49,0,0,1-.074-.393.456.456,0,0,1,.233-.308.546.546,0,0,1,.409-.058.516.516,0,0,1,.334.228m-.52,1.756c-.5,2.185-.759,3.278-1.262,5.458-.2-.048-.3-.069-.5-.117l1.247-5.464c.207.048.313.069.52.117" transform="translate(-136.298 -81.607)" fill="#736358"/><path d="M301.68,173.173q-1.138,4.424-2.27,8.842c-.2-.053-.3-.079-.509-.127l2.244-8.848c.212.053.318.08.53.138" transform="translate(-140.346 -81.254)" fill="#736358"/></g></g></g></svg>