<svg xmlns="http://www.w3.org/2000/svg" width="26" height="20.874" viewBox="0 0 26 20.874"><path d="M43.23,80.557a4.3,4.3,0,0,1-4.3,4.3H24.841a4.3,4.3,0,0,1-4.3-4.3V71.589a4.266,4.266,0,0,1,.593-2.172l6.877,6.877a5.487,5.487,0,0,0,7.746,0l6.877-6.877a4.265,4.265,0,0,1,.593,2.172v8.967Zm-4.3-13.263H24.841a4.281,4.281,0,0,0-2.6.881l6.946,6.949a3.838,3.838,0,0,0,5.406,0l6.946-6.949A4.281,4.281,0,0,0,38.935,67.293Zm0-1.658H24.841a5.961,5.961,0,0,0-5.953,5.953v8.967a5.959,5.959,0,0,0,5.953,5.953H38.935a5.959,5.959,0,0,0,5.953-5.953V71.589A5.961,5.961,0,0,0,38.935,65.636Z" transform="translate(-18.888 -65.636)" fill="#fff" fill-rule="evenodd"/></svg>