<svg xmlns="http://www.w3.org/2000/svg" width="35" height="24.343" viewBox="0 0 35 24.343"><path d="M15.414,91.363H27.793a.857.857,0,0,0,.853-.861v-.977a3.2,3.2,0,0,1,4.9-2.733l10.9,6.895a5.521,5.521,0,0,1,.02,9.3l-11.232,7.177a2.987,2.987,0,0,1-4.587-2.544v-1.907H15.414A3.429,3.429,0,0,1,12,102.269V94.805A3.429,3.429,0,0,1,15.414,91.363Z" transform="translate(-12 -86.292)" fill="#ffc107"/><path d="M44.446,189.386a3.9,3.9,0,0,1,1.666,3.392,4.175,4.175,0,0,1-1.9,3.646c-2.691,1.829-10.974,6.928-10.974,6.928a2.987,2.987,0,0,1-4.588-2.544v-.764a.857.857,0,0,0-.853-.861H15.414A3.429,3.429,0,0,1,12,195.741v2.228a3.429,3.429,0,0,0,3.415,3.443H28.647v1.907a2.987,2.987,0,0,0,4.588,2.544l11.232-7.177a5.521,5.521,0,0,0-.02-9.3Z" transform="translate(-12 -181.992)" fill="#ffa000"/></svg>