<svg xmlns="http://www.w3.org/2000/svg" xmlns:xlink="http://www.w3.org/1999/xlink" width="129.183" height="123.431" viewBox="0 0 129.183 123.431"><defs><clipPath id="a"><rect width="129.183" height="123.431" fill="none"/></clipPath><clipPath id="c"><rect width="31.077" height="30.92" fill="none"/></clipPath><clipPath id="e"><rect width="7.03" height="2.868" fill="none"/></clipPath></defs><g clip-path="url(#a)"><g clip-path="url(#a)"><path d="M124.9,154.415c3.24-3.724,6.167-6.608,8.223-16.593s2.5-25.083,7.489-26.579,7.342.587,9.545,3.818,9.4,22.467,21.439,20.558,13.8-6.314,17.915-6.461,6.207,4.224,3.671,11.454c-2.835,8.083-9.985,21.145-8.664,28.928s5.727,18.355,4.552,22.32-3.252,5.487-9.985,3.965c-5.359-1.211-13.363-6.021-21.88-2.056s-15.712,14.244-21,14.244-6.608-4.7-5.727-9.838,1.287-13.523-.294-15.859c-3.377-4.993-8.652-6.323-17.034-8.811-2.262-.671-7.724-3.657-.881-9.4,2.733-2.293,8.458-4.9,12.629-9.692" transform="translate(-84.78 -86.187)" fill="#ffa600"/><g transform="translate(59.405 83.842)" opacity="0.2"><g clip-path="url(#c)"><g clip-path="url(#c)"><path d="M271.765,384.957c-6.869,8.472-3.028,19.531-1,23.994,3.159-2.751,6.617-5.675,10.326-7.4,6.126-2.852,11.987-1.164,16.789.459a24.076,24.076,0,0,0-2.032-18.961c-2.937-4.993-15.272-8.957-24.082,1.909" transform="translate(-267.849 -378.031)" fill="#fff"/></g></g></g><path d="M232.783,300.966a2.937,2.937,0,1,1-2.937-2.937,2.937,2.937,0,0,1,2.937,2.937" transform="translate(-176.583 -231.93)"/><path d="M240.184,304.169a1.175,1.175,0,1,1-1.175-1.175,1.175,1.175,0,0,1,1.175,1.175" transform="translate(-185.086 -235.794)" fill="#fff"/><path d="M355.932,251.309a2.937,2.937,0,1,1-2.937-2.937,2.937,2.937,0,0,1,2.937,2.937" transform="translate(-272.42 -193.286)"/><path d="M363.332,254.513a1.175,1.175,0,1,1-1.175-1.175,1.175,1.175,0,0,1,1.175,1.175" transform="translate(-280.921 -197.151)" fill="#fff"/><path d="M267.993,301.945s-.808-3.891,2.57-4.625,6.461.073,9.471-3.745a4.581,4.581,0,0,1,5.433-2.5s4.028,1.615,1.615,9c-.587,1.8-5.58,6.863-13.436,6.349,0,0-4.552-.22-5.653-4.479" transform="translate(-208.49 -226.375)" fill="#611417"/><path d="M274.948,332.993a7.016,7.016,0,0,0,4.177,1.853c7.416.485,12.278-4,13.294-6.016-8.314-3.9-14.674,1.18-17.471,4.164" transform="translate(-213.968 -254.797)" fill="#ed1c24"/><g transform="translate(49.674 73.292)" style="mix-blend-mode:color;isolation:isolate"><g clip-path="url(#e)"><g transform="translate(0)"><g clip-path="url(#e)"><path d="M230.99,331.081c.151.652-1.295,1.545-3.23,1.995s-3.627.286-3.779-.365,1.295-1.545,3.23-1.995,3.627-.286,3.779.365" transform="translate(-223.971 -330.461)" fill="#f86879"/></g></g></g></g><g transform="translate(80.07 61.618)" style="mix-blend-mode:color;isolation:isolate"><g clip-path="url(#e)"><g transform="translate(0)"><g clip-path="url(#e)"><path d="M368.042,278.445c.151.652-1.295,1.545-3.23,1.995s-3.627.286-3.779-.365,1.295-1.545,3.23-1.995,3.627-.286,3.779.365" transform="translate(-361.023 -277.825)" fill="#f86879"/></g></g></g></g><path d="M194.783,510.8c.446,2.709-1.079,5.3-2.4,7.708a1.835,1.835,0,0,0-.3.908c.02.658.7,1.087,1.333,1.274a10.884,10.884,0,0,0,5.149-.165c2.326-.452,4.909-1.072,6.185-3.069" transform="translate(-149.48 -397.508)" fill="#ffa600"/><path d="M424.211,454.249c.83,3.2,1.378,5.615,3.063,8.166a1.733,1.733,0,0,1,.387.962c-.026.7-.9,1.151-1.7,1.35a16.684,16.684,0,0,1-6.577-.175c-2.971-.479-6.27-1.135-7.9-3.251" transform="translate(-320.221 -353.502)" fill="#ffa600"/><path d="M290.347,108.049a4.146,4.146,0,0,0,1.242-.615,1.531,1.531,0,0,0,.621-1.191c-.029-.92-1.072-1.43-1.971-1.631a12.6,12.6,0,0,0-7.092.48,1.494,1.494,0,0,0-.45.233,1.588,1.588,0,0,0-.321.426l-1.414,2.4c-.266.45-.519,1.062-.167,1.448a1.233,1.233,0,0,0,1.025.243,32.635,32.635,0,0,0,8.529-1.787" transform="translate(-218.383 -81.177)" fill="#ce5121"/><path d="M226.527,66.685c-11.3,1.129-2.65,15.582-2.65,15.582,8.624,3.291,12.487-2.635,12.487-2.635.919-4.235,1.464-14.075-9.837-12.946M232.5,81.358a4.557,4.557,0,0,1-4.609.564l-.64-2.383s3.253.376,5.249-.815Z" transform="translate(-171.761 -51.825)" fill="#f15a24"/><path d="M380.33,10.424a21.755,21.755,0,0,0,.727-3.451q.03-.18.062-.361a7.144,7.144,0,0,0,.891.613c.184.115.453.359.692.319a.336.336,0,0,0,.106-.036.23.23,0,0,0,.313-.118c.187-.522.357-1.055.511-1.587a.2.2,0,0,0,.007-.059.151.151,0,0,0,0-.279,13.654,13.654,0,0,0-1.681-.451c-.3-.069-.711-.251-.951.03a3.157,3.157,0,0,0-.338,1.317c-.1.572-.188,1.147-.286,1.719a7.879,7.879,0,0,1-1.08,3.376,1.638,1.638,0,0,1-.24.253.871.871,0,0,0,.063-.225.99.99,0,0,0-.974-1.145,1.093,1.093,0,0,0-1.021,1.317,1.234,1.234,0,0,0,1.634.851,3.108,3.108,0,0,0,1.565-2.083m2.1-4.8c-.036.065-.069.13-.1.2,0-.011,0-.023,0-.034q.007-.072.009-.147c0-.005,0-.01,0-.016h0c0-.018,0-.035,0-.053l.108.027a.28.28,0,0,0-.018.027m-1.229.528a.231.231,0,0,0,.088.049,1.308,1.308,0,0,0,.058.14.24.24,0,0,0,.02.033c-.063-.037-.125-.072-.189-.105l.022-.117m-2.669,5.4a.527.527,0,0,0,.1-.133c-.008.142-.04.186-.1.133m-.886.133a.535.535,0,0,0,.081.023.8.8,0,0,0,.133.227.814.814,0,0,0,.132.122.62.62,0,0,1-.345-.371" transform="translate(-293.467 -3.807)" fill="#3c3c3b"/><path d="M145.151,109.388q.734-2.378,1.465-4.758a.246.246,0,0,0-.143-.313,25.512,25.512,0,0,0-4.585-.925c-.008-.15-.25-.2-.3-.044-.374,1.308-.649,2.644-.993,3.96-.154.588-.308,1.18-.5,1.758a.85.85,0,0,0-1.2-.238,1,1,0,0,0,.42,1.773.836.836,0,0,0,.946-.573,12.224,12.224,0,0,0,.683-2.132c.256-.957.507-1.927.7-2.905.631.222,1.276.405,1.922.578a8.29,8.29,0,0,0,2.062.45.228.228,0,0,0,.057-.009q-.432,1.4-.863,2.795c-.118.384-.208.852-.356,1.274a1.124,1.124,0,0,0-1.127-.4.956.956,0,0,0,.013,1.792c1.2.428,1.564-1.312,1.8-2.08" transform="translate(-107.779 -80.351)" fill="#3c3c3b"/><path d="M483.342,99.373q-.529-2.432-1.059-4.864a.246.246,0,0,0-.278-.2,25.523,25.523,0,0,0-4.448,1.445c-.08-.127-.318-.055-.279.107.316,1.323.733,2.622,1.079,3.938.155.588.311,1.179.429,1.776a.85.85,0,0,0-1.167.384,1,1,0,0,0,1.236,1.339.836.836,0,0,0,.542-.964,12.249,12.249,0,0,0-.452-2.193c-.247-.96-.5-1.928-.819-2.873.659-.117,1.311-.273,1.958-.441a8.289,8.289,0,0,0,2.017-.62.22.22,0,0,0,.045-.036q.31,1.429.62,2.858c.085.393.237.845.316,1.285a1.124,1.124,0,0,0-1.179.2.957.957,0,0,0,.892,1.555c1.256-.216.719-1.91.548-2.7" transform="translate(-371.42 -73.385)" fill="#3c3c3b"/><path d="M11.488,325.2q-1.2-4.423-2.4-8.844a.453.453,0,0,0-.53-.347,46.976,46.976,0,0,0-8.044,3.068c-.16-.226-.59-.072-.5.223.7,2.4,1.59,4.753,2.348,7.139.339,1.067.681,2.138.953,3.225a1.564,1.564,0,0,0-2.109.814,1.836,1.836,0,0,0,2.4,2.347A1.538,1.538,0,0,0,4.508,331a22.529,22.529,0,0,0-1.034-3.989c-.542-1.742-1.106-3.5-1.772-5.207,1.2-.276,2.384-.624,3.559-.992a15.277,15.277,0,0,0,3.652-1.327.417.417,0,0,0,.079-.07q.7,2.6,1.405,5.2c.193.714.514,1.531.7,2.333a2.067,2.067,0,0,0-2.148.484,1.761,1.761,0,0,0,1.783,2.776c2.29-.515,1.145-3.579.758-5.008" transform="translate(0 -245.909)" fill="#3c3c3b"/><path d="M553.635,271.641c-.525,2.035,1.307,3.407,2.862,4.486l.5,1.664.051.171a3.543,3.543,0,0,0-2.495,2.081,2.459,2.459,0,0,0,1.866,3.258,2.675,2.675,0,0,0,2.109-.46q.37,1.175.767,2.342a1,1,0,0,0-.984,1.654c.861.825,2.188-.6,1.407-1.443-.248-.965-.514-1.926-.79-2.884a3.264,3.264,0,0,0,.917-1.631,4.444,4.444,0,0,0-1.988-4.387c-.284-.217-.605-.433-.938-.655l-.61-2.024a14.331,14.331,0,0,0-.728-2.289c-.477-.951-1.665-.981-1.948.116m4.094,6.849a.9.9,0,0,1,.387.2.8.8,0,0,0-.331-.015l-.055-.182m.648,3.859a2.173,2.173,0,0,1-1.815.48,1.988,1.988,0,0,1-1.21-3.22,2.882,2.882,0,0,1,1.831-1.141l.019,0,.133.444a.7.7,0,0,0,.141,1.086.908.908,0,0,0,.213.1q.339,1.13.688,2.257m1.053-2.022a2.9,2.9,0,0,1-.659,1.63q-.272-.931-.554-1.859a.856.856,0,0,0,.606-.572,1.249,1.249,0,0,0-.718-1.426,1.733,1.733,0,0,0-.541-.15q-.21-.686-.418-1.373c.1.073.2.145.3.216a4.171,4.171,0,0,1,1.985,3.534m-4.161-8.266c.214.61.376,1.243.563,1.862l.446,1.478c-1.122-.784-2.186-1.709-2.222-3.108a1.692,1.692,0,0,1,.091-.661c.34-.828.968-.01,1.122.429" transform="translate(-430.774 -210.751)" fill="#3c3c3b"/><path d="M238.286,4.981a21.751,21.751,0,0,0-2.923-1.973l-.311-.193a7.162,7.162,0,0,0,.9-.595c.176-.128.5-.285.556-.522a.339.339,0,0,0,.006-.112.23.23,0,0,0,.009-.334c-.413-.37-.843-.728-1.278-1.071A.187.187,0,0,0,235.2.153a.151.151,0,0,0-.259-.1,13.656,13.656,0,0,0-1.051,1.388c-.177.253-.5.564-.33.892.179.345.778.609,1.093.809.49.312.991.606,1.485.912a7.881,7.881,0,0,1,2.72,2.272,1.646,1.646,0,0,1,.144.317.873.873,0,0,0-.185-.144.991.991,0,0,0-1.427.471,1.093,1.093,0,0,0,.836,1.442,1.233,1.233,0,0,0,1.4-1.193,3.108,3.108,0,0,0-1.34-2.235m-3.658-3.758c.046.058.095.113.143.168l-.031-.014c-.043-.022-.087-.044-.132-.064l-.014-.007h0l-.049-.021c.025-.032.047-.063.065-.09a.312.312,0,0,0,.018.027m.026,1.338a.238.238,0,0,0,.079-.063,1.34,1.34,0,0,0,.152,0,.248.248,0,0,0,.038-.006c-.058.044-.114.089-.169.135l-.1-.064m4,4.506a.527.527,0,0,0-.087-.139c.128.061.157.107.087.139m-.21.871a.53.53,0,0,0,.051-.066.755.755,0,0,0,.423-.114.62.62,0,0,1-.474.18" transform="translate(-181.72 0)" fill="#3c3c3b"/></g></g></svg>