<svg xmlns="http://www.w3.org/2000/svg" width="60.678" height="240.914" viewBox="0 0 60.678 240.914"><g transform="translate(0 0)"><line y2="171.191" transform="translate(31.349 69.723)" fill="none" stroke="#0b3733" stroke-miterlimit="10" stroke-width="3"/><path d="M341.024,23.142,326.612,45.956,311.919,28.115c-2.175-2.641-4.353-5.286-6.768-7.709-2.084-2.091-4.542-4.988-3.159-7.6a4.141,4.141,0,0,1,4.04-1.942,7.649,7.649,0,0,1,4.2,2.045,4.935,4.935,0,0,1-.485-6.494,5.942,5.942,0,0,1,6.474-1.806,7.5,7.5,0,0,1,4.629,5.106,14.129,14.129,0,0,1-.863-5.311A4.809,4.809,0,0,1,322.911.2a6.373,6.373,0,0,1,3.279.038,11.081,11.081,0,0,1,5.3,2.316,4.913,4.913,0,0,1,1.528,5.281,4.712,4.712,0,0,1,2.647-5.6,4.713,4.713,0,0,1,5.775,2.238,4.712,4.712,0,0,1-1.817,5.921,2.537,2.537,0,0,1,3.557-.352,3.606,3.606,0,0,1,.926,1.471c1.45,3.9-.86,8.106-3.084,11.626" transform="translate(-292.837 -0.001)" fill="#fbb000"/><path d="M277.357,54.883c2.189,6.146-1.037,12.855-.83,19.376a21.266,21.266,0,0,0,8.33,15.645,29.384,29.384,0,0,0,17.023,5.852c10.625.4,21.494-4.287,27.89-12.781a19.451,19.451,0,0,0,3.786-7.966,28.432,28.432,0,0,0,.167-6.856q-.523-9.266-1.047-18.532c-.138-2.441-.039-5.37,2.034-6.667a3.1,3.1,0,0,0-2.17-1c-5.3-.84-11.137-.791-15.544,2.277a21.435,21.435,0,0,0-5.159,5.591,60.262,60.262,0,0,0-7.165,13.969c-.832-6.908-4.956-13.5-11.158-16.656s-14.36-2.431-19.483,2.278a19.256,19.256,0,0,1,3.325,5.47" transform="translate(-274.032 -28.313)" fill="#ff005a"/><path d="M338.554,191.41c3.326-.1,6.983.914,8.8,3.7a50.1,50.1,0,0,0-14.677,3.316,24.7,24.7,0,0,1-6.094,1.938c-3,.34-5.963-.7-8.877-1.5a57.6,57.6,0,0,0-14.533-2.036,12.985,12.985,0,0,1,7.857-4.521c5.05-.57,9.524,3.006,13.342,6.361a18.9,18.9,0,0,1,14.187-7.266" transform="translate(-293.915 -130.612)" fill="#0b3733"/><path d="M283.645,325.454c-.835,1.849.785,3.886,2.492,4.983,4,2.571,9.035,3.113,13.745,2.462,2.372-.328,4.775-.938,7.128-.5a13.364,13.364,0,0,0-2.986-4.488,24.217,24.217,0,0,0-5.148-4.8,12.409,12.409,0,0,0-14,.9,4.152,4.152,0,0,0-1.229,1.44" transform="translate(-280.438 -219.3)" fill="#0b3733"/><path d="M407.348,380.187c1.07,1,.6,2.8-.172,4.051-2.238,3.606-6.193,5.77-10.143,7.321s-8.118,2.676-11.706,4.943c1.91-3.629,3.167-7.6,5.353-11.066s5.631-6.516,9.725-6.75a17.766,17.766,0,0,1,5.232.752,3.729,3.729,0,0,1,1.711.749" transform="translate(-349.978 -258.402)" fill="#0b3733"/><path d="M323.931,129.491c-.161-1.727,1.669-3.11,3.4-3.143a9.567,9.567,0,0,1,4.828,1.745" transform="translate(-308.076 -86.219)" fill="none" stroke="#fff" stroke-miterlimit="10" stroke-width="3"/><path d="M397.734,120.882c-.21.066-.2-.315-.056-.482a5.478,5.478,0,0,1,8.661.458.981.981,0,0,1,.232.669c-.036.239-.32.444-.525.314" transform="translate(-358.335 -80.86)" fill="none" stroke="#fff" stroke-miterlimit="10" stroke-width="3"/><path d="M344.837,146.049a15.069,15.069,0,0,0,18.895-.416" transform="translate(-322.349 -99.378)" fill="none" stroke="#fff" stroke-miterlimit="10" stroke-width="3"/></g></svg>