<svg xmlns="http://www.w3.org/2000/svg" xmlns:xlink="http://www.w3.org/1999/xlink" width="41.521" height="43.335" viewBox="0 0 41.521 43.335"><defs><clipPath id="a"><rect width="4.704" height="2.129" fill="none"/></clipPath><clipPath id="b"><rect width="2.609" height="2.472" fill="none"/></clipPath></defs><path d="M34.357,2.232c-1.742.039-2.6,1.459-7.626,2.631-2.871.67-4.94-2.687-5.854-4.068s-5.09-.665-7.214-.06-2.309.622-3.24,4.841a12.372,12.372,0,0,1-3.579,6.978c-1.794,2-4.232,3.077-5.4,4.03-2.931,2.39-.635,3.687.318,3.987,3.536,1.1,5.764,1.7,7.163,3.832.657,1,.433,4.549.03,6.716-.039.206-.064.408-.086.609l-.09-.06a5.33,5.33,0,0,1-1.06,3.249.745.745,0,0,0-.133.382c0,.279.292.463.558.549a4.63,4.63,0,0,0,2.18-.039,4.707,4.707,0,0,0,2.257-.841c2.09-1.056,4.725-4.219,7.716-5.562,3.365-1.511,6.5.167,8.742.854a7.957,7.957,0,0,0,2.562.768,7.021,7.021,0,0,0,2.785.112c.343-.077.712-.266.73-.562a.724.724,0,0,0-.159-.408,9.02,9.02,0,0,1-1.116-2.927c-.27-2.124-1.438-5.39-1.833-7.94C31.49,16,34.6,10.511,35.842,7.1c1.116-3.047.253-4.91-1.489-4.871" transform="translate(5.626 2.126) rotate(9)" fill="#e20917"/><path d="M1.726,2.854C-1.231,6.4.331,11.107,1.163,13.012A19.812,19.812,0,0,1,5.58,9.939c2.609-1.172,5.086-.425,7.107.292a10.19,10.19,0,0,0-.751-8.043C10.721.056,5.519-1.7,1.726,2.858" transform="translate(17.225 23.586) rotate(9)" fill="#e84f35"/><path d="M1.558,6.287a3.143,3.143,0,0,1,1.978-.605A7.723,7.723,0,0,0,0,10.618,6.949,6.949,0,0,1,3.523,8.978a3.945,3.945,0,0,0,.124,4.193A5.232,5.232,0,0,1,5.631,9.635a10.342,10.342,0,0,0,2.815,3.45,5.719,5.719,0,0,1,.927-5.335,4.075,4.075,0,0,0,3.742,1.811A2.96,2.96,0,0,1,11.63,7.214,1.813,1.813,0,0,1,13.416,5.36,7.328,7.328,0,0,0,7.485,0q.869.65,1.738,1.3A7.264,7.264,0,0,0,3.069,2.644c.94.051,1.875.1,2.815.159A7.275,7.275,0,0,0,1.558,6.3" transform="translate(13.93 0) rotate(9)" fill="#c01818"/><path d="M2.489,1.262A1.245,1.245,0,1,1,1.262,0,1.246,1.246,0,0,1,2.489,1.262" transform="translate(14.5 16.046) rotate(9)"/><path d="M1,.5A.5.5,0,0,1,.489.991.5.5,0,1,1,.506,0,.5.5,0,0,1,1,.5" transform="translate(15.443 16.673) rotate(9)" fill="#fff"/><path d="M2.489,1.262A1.245,1.245,0,1,1,1.262,0,1.246,1.246,0,0,1,2.489,1.262" transform="translate(26.692 13.414) rotate(9)"/><path d="M1,.5A.5.5,0,0,1,.489.991.5.5,0,1,1,.506,0,.5.5,0,0,1,1,.5" transform="translate(27.635 14.046) rotate(9)" fill="#fff"/><path d="M2.982.268c.06.279-.558.648-1.382.828S.064,1.195,0,.92.562.272,1.382.1s1.536-.1,1.6.176" transform="translate(13.712 19.021) rotate(9)" fill="#ec694b"/><path d="M2.982.268c.06.279-.558.648-1.382.828S.064,1.195,0,.92.562.272,1.382.1s1.536-.1,1.6.176" transform="translate(27.238 16.336) rotate(9)" fill="#ec694b"/><g transform="translate(20.277 17.977) rotate(9)"><g clip-path="url(#a)"><path d="M0,1.652A4.745,4.745,0,0,0,4.275,0" transform="translate(0.215 0.215)" fill="none" stroke="#754d24" stroke-linecap="round" stroke-miterlimit="10" stroke-width="1"/></g></g><g transform="translate(24.57 17.05) rotate(9)"><g clip-path="url(#b)"><path d="M.116,0a1.5,1.5,0,0,0,.36,1.674,1.509,1.509,0,0,0,1.7.185" transform="translate(0.218 0.215)" fill="none" stroke="#754d24" stroke-linecap="round" stroke-miterlimit="10" stroke-width="1"/></g></g></svg>