<svg xmlns="http://www.w3.org/2000/svg" xmlns:xlink="http://www.w3.org/1999/xlink" width="52.787" height="52.569" viewBox="0 0 52.787 52.569"><defs><clipPath id="a"><rect width="14.216" height="11.96" fill="none"/></clipPath><clipPath id="b"><rect width="2.59" height="1.526" fill="none"/></clipPath></defs><g transform="translate(1.006 -1.814) rotate(3)"><path d="M38.932,17.86c-1.3-.988-2.944-.081-7.11-2.521S30.281,5.2,30.419,3.659,30.357.888,28.455.093s-5.83,3.716-8.966,6.261A11.6,11.6,0,0,1,12.805,9.37c-2.483.423-4.889-.219-6.3-.2-3.536.038-2.613,2.325-2.091,3.1,1.941,2.867,3.225,4.6,3.005,6.976-.1,1.115-2.333,3.578-3.893,4.931-.15.127-.284.261-.419.4l-.031-.1A4.962,4.962,0,0,1,.4,26.227a.714.714,0,0,0-.323.2.65.65,0,0,0,.088.726A4.321,4.321,0,0,0,1.786,28.4a4.5,4.5,0,0,0,2.141.7c2.141.446,5.911-.331,8.882.434,3.34.857,4.654,3.909,5.892,5.719a7.528,7.528,0,0,0,1.426,2.056A6.578,6.578,0,0,0,22.1,39.018c.3.142.676.223.861.015a.708.708,0,0,0,.123-.392,8.4,8.4,0,0,1,.892-2.79c1.042-1.714,2.091-4.777,3.29-6.876,1.549-2.717,7.018-4.919,9.916-6.683,2.59-1.576,3.048-3.444,1.753-4.431" transform="matrix(0.875, -0.485, 0.485, 0.875, 0, 19.214)" fill="#e3097e"/><g transform="matrix(0.875, -0.485, 0.485, 0.875, 17.55, 34.546)" opacity="0.2"><g clip-path="url(#a)"><path d="M6.334.178C2.1,1.047.5,5.4,0,7.277A18.487,18.487,0,0,1,5.019,7.6c2.59.665,3.962,2.652,5.027,4.358a9.531,9.531,0,0,0,4.139-6.318C14.539,3.376,11.757-.936,6.33.182" transform="translate(0 0.003)" fill="#fff"/></g></g><path d="M2.062,1.9A1.163,1.163,0,1,1,1.9.264,1.164,1.164,0,0,1,2.062,1.9" transform="matrix(0.875, -0.485, 0.485, 0.875, 18.513, 21.465)"/><path d="M.824.758A.464.464,0,1,1,.758.105.464.464,0,0,1,.824.758" transform="matrix(0.875, -0.485, 0.485, 0.875, 19.766, 21.527)" fill="#fff"/><path d="M2.062,1.9A1.163,1.163,0,1,1,1.9.264,1.164,1.164,0,0,1,2.062,1.9" transform="matrix(0.875, -0.485, 0.485, 0.875, 29.938, 19.117)"/><path d="M.824.758A.464.464,0,1,1,.758.105.464.464,0,0,1,.824.758" transform="matrix(0.875, -0.485, 0.485, 0.875, 31.191, 19.18)" fill="#fff"/><g transform="matrix(0.875, -0.485, 0.485, 0.875, 16.983, 23.875)"><g clip-path="url(#b)"><path d="M2.574,1.394c-.119.238-.784.15-1.491-.2S-.1.372.018.134s.784-.15,1.491.2,1.184.822,1.065,1.061" transform="translate(0.001 0.001)" fill="#f5b5b9"/></g></g><g transform="matrix(0.875, -0.485, 0.485, 0.875, 32.304, 21.368)"><g clip-path="url(#b)"><path d="M2.574,1.394c-.119.238-.784.15-1.491-.2S-.1.372.018.134s.784-.15,1.491.2,1.184.822,1.065,1.061" transform="translate(0.001 0.001)" fill="#f5b5b9"/></g></g><path d="M0,.548A3.817,3.817,0,0,0,2.475,2.743a4.976,4.976,0,0,0,4.654-.4,5.869,5.869,0,0,0-2.66-2A5.908,5.908,0,0,0,0,.548" transform="matrix(0.875, -0.485, 0.485, 0.875, 23.155, 27.439)" fill="#e42529"/><path d="M.811,0c-1,2.41-.953,4.047-.507,5.15A5.844,5.844,0,0,1,7.437,6.945a9.127,9.127,0,0,0,2.982-3.317L.811,0Z" transform="matrix(0.875, -0.485, 0.485, 0.875, 20.648, 23.527)" fill="#741613"/><path d="M17.25,7.773c.3-.7-1.291-2.095-3.87-3.559-.038.173-.073.354-.111.546,1.556.945,2.475,1.791,2.287,2.221-.165.388-1.18.365-2.656.019A29.4,29.4,0,0,1,8.3,5.432a31.953,31.953,0,0,1-3.69-1.845C2.957,2.6,1.973,1.716,2.161,1.27c.227-.53,2.041-.3,4.454.492.154-.138.307-.273.461-.407C3.356.021.393-.41.036.432c-.3.715,1.357,2.152,4.032,3.647a39.488,39.488,0,0,0,3.8,1.852A38.1,38.1,0,0,0,12.83,7.681c2.417.642,4.151.726,4.42.1" transform="matrix(0.875, -0.485, 0.485, 0.875, 15.18, 12.151)" fill="#f8af3c"/></g></svg>