<svg xmlns="http://www.w3.org/2000/svg" xmlns:xlink="http://www.w3.org/1999/xlink" width="42.916" height="50.54" viewBox="0 0 42.916 50.54"><defs><clipPath id="a"><rect width="12.038" height="12.732" fill="none"/></clipPath><clipPath id="b"><rect width="5.487" height="4.178" fill="none"/></clipPath></defs><g transform="translate(-1.638 7.518) rotate(-16)"><path d="M4.654,4.638c1.573.277,2.017,2.069,6.546,3.453s8.339-5.632,9.362-6.757S22.6-.467,24.442.381s1.195,6.678,1.45,10.632a11.4,11.4,0,0,0,2.271,6.832c1.344,2.069,3.409,3.383,4.336,4.411,2.324,2.579.062,3.431-.848,3.567-3.361.505-5.461.734-7.029,2.473-.734.813-1.032,4.064-.971,6.089,0,.193,0,.378-.009.567l.092-.044a4.868,4.868,0,0,0,.51,3.1.709.709,0,0,1,.066.365c-.044.25-.329.382-.58.417a4.219,4.219,0,0,1-1.973-.343,4.429,4.429,0,0,1-1.933-1.076c-1.749-1.248-3.695-4.486-6.221-6.12-2.838-1.841-5.913-.756-8.044-.448a7.452,7.452,0,0,1-2.434.338,6.474,6.474,0,0,1-2.539-.29c-.3-.119-.611-.343-.584-.611a.656.656,0,0,1,.2-.347,8.217,8.217,0,0,0,1.419-2.5C2.167,25.5,3.679,22.7,4.395,20.445c.927-2.926-1.12-8.339-1.775-11.6-.584-2.917.457-4.49,2.03-4.209" transform="translate(0 5.943)" fill="#098dcd"/><path d="M.966,0A7.358,7.358,0,0,0,.022,4.2" transform="translate(24.266 2.147)" fill="none" stroke="#534741" stroke-miterlimit="10" stroke-width="1"/><g transform="translate(6.934 27.764)" opacity="0.2"><g clip-path="url(#a)"><path d="M11.074,3.445c2.188,3.633.11,7.68-.909,9.287a18.188,18.188,0,0,0-3.576-3.4C4.383,7.9,2.037,8.233.1,8.6A9.353,9.353,0,0,1,1.91,1.41c1.4-1.762,6.362-2.623,9.165,2.034" transform="translate(0.001 0)" fill="#fff"/></g></g><path d="M.918.387A1.139,1.139,0,0,0,0,.8,1.142,1.142,0,1,1,1.973,1.868,1.137,1.137,0,0,0,.918.387" transform="translate(21.85 21.837)"/><path d="M.011.982A1.14,1.14,0,1,0,1.3.011,1.14,1.14,0,0,0,.011.982" transform="translate(11.997 16.537)"/><path d="M0,.391A.455.455,0,1,0,.514,0,.456.456,0,0,0,0,.391" transform="translate(12.461 16.93)" fill="#fff"/><path d="M.011.167c-.092.242.413.663,1.134.94s1.379.308,1.472.062S2.2.505,1.483.228.1-.079.011.167" transform="translate(21.461 24.913)" fill="#f19cb6"/><path d="M.011.167c-.092.242.413.663,1.134.94s1.379.308,1.472.061S2.2.505,1.483.228.1-.079.011.167" transform="translate(10.394 18.78)" fill="#f19cb6"/><g transform="translate(13.797 20.757)" opacity="0.7"><g clip-path="url(#b)"><path d="M5.054,2.916a1.3,1.3,0,0,1-1.463.8A1.3,1.3,0,0,1,2.62,2.358a2.175,2.175,0,0,1-1.314.123A1.777,1.777,0,0,1,.261,1.835,1.264,1.264,0,0,1,.076.644,1,1,0,0,1,1.056,0" transform="translate(0.218 0.221)" fill="none" stroke="#534741" stroke-linecap="round" stroke-miterlimit="10" stroke-width="1"/></g></g><path d="M.016,1.369A1.588,1.588,0,1,0,1.808.016,1.584,1.584,0,0,0,.016,1.369" transform="translate(24.096 0)" fill="#f8af3c"/></g></svg>