<svg xmlns="http://www.w3.org/2000/svg" xmlns:xlink="http://www.w3.org/1999/xlink" width="35.045" height="40.818" viewBox="0 0 35.045 40.818"><defs><clipPath id="a"><rect width="12.275" height="10.373" fill="none"/></clipPath><clipPath id="b"><rect width="2.758" height="0.931" fill="none"/></clipPath><clipPath id="d"><rect width="7.278" height="1.637" fill="none"/></clipPath><clipPath id="e"><rect width="19.088" height="7.639" fill="none"/></clipPath></defs><g transform="translate(0)"><path d="M140.395,21.788c-1.545-.32-2.6,1.163-7.257.777a4.746,4.746,0,0,1-3.539-2.351c-1.454-3.107-1.853-7.727-.3-10.788a3.548,3.548,0,0,0-2.592,2.48,5.055,5.055,0,0,1,1.259-5.446,8.263,8.263,0,0,0-5.292,4.877c-.008.008-.012.017-.021.021a2.872,2.872,0,0,1,.228-3.028,9.057,9.057,0,0,0-2.343,5,39.853,39.853,0,0,1-.9,4.175c-.341.839-.677,1.657-1.026,2.384a11.18,11.18,0,0,1-4.569,5.429c-1.99,1.4-4.358,1.857-5.583,2.459-3.07,1.516-1.309,3.124-.523,3.577,2.9,1.687,4.736,2.663,5.542,4.827.374,1.014-.536,4.1-1.329,5.932-.075.174-.141.349-.2.519l-.066-.071a4.831,4.831,0,0,1-1.591,2.65.708.708,0,0,0-.2.312c-.054.245.162.469.382.594a4.175,4.175,0,0,0,1.932.407,4.393,4.393,0,0,0,2.164-.282c2.056-.507,5.018-2.762,7.93-3.34,3.273-.652,5.7,1.462,7.535,2.522a7.241,7.241,0,0,0,2.106,1.2,6.355,6.355,0,0,0,2.434.66c.316,0,.681-.091.756-.349a.639.639,0,0,0-.058-.395,8.052,8.052,0,0,1-.391-2.808c.191-1.932-.174-5.043-.008-7.373.216-3.016,4.063-7.232,5.853-9.982,1.6-2.459,1.217-4.279-.328-4.6" transform="translate(-106.716 -6.46)" fill="#65b345"/><g transform="translate(11.134 27.828)" opacity="0.2"><g clip-path="url(#a)"><path d="M136.312,74.98c-3.327,2.53-2.9,7-2.551,8.844A18.085,18.085,0,0,1,138.277,82c2.538-.507,4.569.656,6.21,1.695a9.224,9.224,0,0,0,.964-7.245c-.64-2.127-4.873-4.723-9.139-1.475" transform="translate(-133.524 -73.447)" fill="#fff"/></g></g><path d="M135.479,54.152a1.124,1.124,0,1,1-.827-1.358,1.125,1.125,0,0,1,.827,1.358" transform="translate(-122.234 -33.527)"/><path d="M136.5,54.5a.451.451,0,1,1-.332-.544.452.452,0,0,1,.332.544" transform="translate(-123.607 -34.217)" fill="#fff"/><path d="M162.359,50.252a1.124,1.124,0,1,1-.827-1.358,1.125,1.125,0,0,1,.827,1.358" transform="translate(-137.948 -31.247)"/><path d="M163.389,50.6a.451.451,0,1,1-.332-.544.452.452,0,0,1,.332.544" transform="translate(-139.327 -31.936)" fill="#fff"/><g transform="translate(10.225 22.004)"><g clip-path="url(#b)"><path d="M134.088,59.917c0,.258-.623.457-1.383.449s-1.375-.224-1.375-.478.623-.457,1.383-.449,1.375.224,1.375.478" transform="translate(-131.33 -59.435)" fill="#e85b9a"/></g></g><g transform="translate(22.978 20.508)"><g clip-path="url(#b)"><path d="M164.778,56.317c0,.258-.623.457-1.383.449s-1.375-.224-1.375-.478.623-.457,1.383-.449,1.375.224,1.375.478" transform="translate(-162.024 -55.835)" fill="#e85b9a"/></g></g><g transform="translate(14.088 20.616)"><g clip-path="url(#d)"><path d="M141.13,57.259s3.768,1.612,6.863-.669" transform="translate(-140.922 -56.382)" fill="none" stroke="#754d24" stroke-linecap="round" stroke-miterlimit="10" stroke-width="1"/></g></g><g transform="translate(7.911 15.727)"><g clip-path="url(#e)"><path d="M130.313,45.338a8.061,8.061,0,0,1,2.6.1,8.213,8.213,0,0,0,4.623-.44,10.728,10.728,0,0,1,3.743-.681c1.076-.033,2.156.029,3.232.042.174,0,.237.058.249.224.021.3.05.606.087.906a.248.248,0,0,1-.162.291.606.606,0,0,0-.345.652,11.662,11.662,0,0,1-.042,1.786,2.785,2.785,0,0,1-2.214,2.517,5.547,5.547,0,0,1-3.037-.012,3.629,3.629,0,0,1-2.027-1.579,16.534,16.534,0,0,1-.818-1.6,1.6,1.6,0,0,0-.295-.44.62.62,0,0,0-1,.141,1.268,1.268,0,0,0-.179.523,3.55,3.55,0,0,1-.22.972,6.017,6.017,0,0,1-.827,1.608A3.572,3.572,0,0,1,132,51.578a5.832,5.832,0,0,1-2.472.345,2.857,2.857,0,0,1-2.7-2.276,11.418,11.418,0,0,1-.3-1.545.576.576,0,0,0-.436-.54.292.292,0,0,1-.245-.32c-.017-.287-.046-.569-.079-.852-.017-.145.012-.22.174-.262a28.3,28.3,0,0,1,4.37-.793m.033.565c-.212.021-.428.025-.64.062a5.285,5.285,0,0,0-1.8.565.865.865,0,0,0-.436.606,4.884,4.884,0,0,0,.444,3.219,1.826,1.826,0,0,0,1.076.943,3.531,3.531,0,0,0,2,.071,3.28,3.28,0,0,0,2.846-3.17,2.958,2.958,0,0,1-.017-.424,1.275,1.275,0,0,0-.715-1.616,6,6,0,0,0-2.762-.262m10.119-.993a7.1,7.1,0,0,0-2.846.777,1.191,1.191,0,0,0-.669,1.23,4.6,4.6,0,0,0,.511,1.682A2.938,2.938,0,0,0,138.55,49.9a4.118,4.118,0,0,0,3.377.366,2.011,2.011,0,0,0,1.479-1.441A5.221,5.221,0,0,0,143.365,46a1.252,1.252,0,0,0-1.2-1.018c-.665-.05-1.329-.071-1.7-.087" transform="translate(-125.76 -44.312)" fill="#c99d66"/></g></g><path d="M129.963,44.6a8.06,8.06,0,0,1,2.6.1,8.214,8.214,0,0,0,4.623-.44,10.728,10.728,0,0,1,3.743-.681c1.076-.033,2.156.029,3.232.042.174,0,.237.058.249.224.021.3.05.606.087.906a.248.248,0,0,1-.162.291.606.606,0,0,0-.345.652,11.643,11.643,0,0,1-.042,1.786,2.785,2.785,0,0,1-2.214,2.517,5.547,5.547,0,0,1-3.037-.012,3.629,3.629,0,0,1-2.027-1.579,16.532,16.532,0,0,1-.818-1.6,1.6,1.6,0,0,0-.295-.44.62.62,0,0,0-1,.141,1.268,1.268,0,0,0-.179.523,3.55,3.55,0,0,1-.22.972,6.018,6.018,0,0,1-.827,1.608,3.571,3.571,0,0,1-1.678,1.23,5.832,5.832,0,0,1-2.472.345,2.857,2.857,0,0,1-2.7-2.276,11.414,11.414,0,0,1-.3-1.545.576.576,0,0,0-.436-.54.292.292,0,0,1-.245-.32c-.017-.287-.046-.569-.079-.852-.017-.145.012-.22.174-.262a28.3,28.3,0,0,1,4.37-.793m.033.565c-.212.021-.428.025-.64.062a5.285,5.285,0,0,0-1.8.565.866.866,0,0,0-.436.606,4.884,4.884,0,0,0,.445,3.219,1.826,1.826,0,0,0,1.076.943,3.532,3.532,0,0,0,2,.071,3.279,3.279,0,0,0,2.846-3.17,2.962,2.962,0,0,1-.017-.424,1.275,1.275,0,0,0-.715-1.616,6,6,0,0,0-2.762-.262m10.123-.993a7.1,7.1,0,0,0-2.846.777,1.191,1.191,0,0,0-.669,1.23,4.6,4.6,0,0,0,.511,1.682,2.938,2.938,0,0,0,1.093,1.313,4.118,4.118,0,0,0,3.377.366,2.011,2.011,0,0,0,1.479-1.441,5.262,5.262,0,0,0-.037-2.825,1.253,1.253,0,0,0-1.209-1.018c-.665-.05-1.329-.071-1.7-.087" transform="translate(-117.645 -28.152)" fill="#89d1f5"/></g></svg>