<svg xmlns="http://www.w3.org/2000/svg" xmlns:xlink="http://www.w3.org/1999/xlink" width="35.367" height="43.777" viewBox="0 0 35.367 43.777"><defs><clipPath id="a"><rect width="12.662" height="12.2" fill="none"/></clipPath><clipPath id="b"><rect width="2.883" height="1.088" fill="none"/></clipPath></defs><path d="M194.531,18.223c-1.67-.037-2.484,1.707-7.407,2.2s-7.39-7.465-8.2-8.823-1.72-2.256-3.776-1.77-2.588,6.6-3.651,10.593a11.869,11.869,0,0,1-3.718,6.53c-1.8,1.844-4.179,2.767-5.342,3.631-2.9,2.164-.76,3.5.137,3.826,3.336,1.2,5.442,1.865,6.7,3.963.586.985.228,4.37-.249,6.43a5.862,5.862,0,0,0-.108.577l-.083-.062a5.1,5.1,0,0,1-1.151,3.066.741.741,0,0,0-.145.361c-.008.266.258.457.511.548a4.433,4.433,0,0,0,2.089.054,4.589,4.589,0,0,0,2.2-.71c2.044-.922,4.7-3.838,7.614-5,3.282-1.3,6.21.432,8.329,1.184a7.675,7.675,0,0,0,2.422.843,6.81,6.81,0,0,0,2.659.224c.332-.062.694-.224.719-.507a.727.727,0,0,0-.133-.4,8.613,8.613,0,0,1-.947-2.846c-.17-2.044-1.151-5.217-1.425-7.677-.353-3.182,2.845-8.308,4.179-11.515,1.2-2.87.449-4.69-1.221-4.723" transform="translate(-160.963 -5.671)" fill="#fbc204"/><g transform="translate(13.815 28.445)" opacity="0.2"><g clip-path="url(#a)"><path d="M196.089,70.987c-2.978,3.273-1.678,7.839-.964,9.7a19,19,0,0,1,4.353-2.758c2.546-1.014,4.881-.191,6.788.577a9.764,9.764,0,0,0-.382-7.727c-1.072-2.089-5.978-3.984-9.8.212" transform="translate(-194.22 -68.482)" fill="#fff"/></g></g><path d="M189.638,51.146a1.192,1.192,0,1,1-1.122-1.259,1.193,1.193,0,0,1,1.122,1.259" transform="translate(-176.333 -29.164)"/><path d="M190.61,51.511a.476.476,0,1,1-.449-.5.478.478,0,0,1,.449.5" transform="translate(-177.738 -29.82)" fill="#fff"/><path d="M216.887,41.936a1.192,1.192,0,1,1-1.122-1.259,1.193,1.193,0,0,1,1.122,1.259" transform="translate(-192.264 -23.78)"/><path d="M217.86,42.291a.476.476,0,1,1-.449-.5.478.478,0,0,1,.449.5" transform="translate(-193.668 -24.43)" fill="#fff"/><path d="M195.828,53.7s-.237-1.6,1.147-1.815,2.617.179,3.926-1.3a1.859,1.859,0,0,1,2.26-.885s1.6.748.444,3.68c-.278.714-2.422,2.65-5.591,2.26a2.554,2.554,0,0,1-2.185-1.944" transform="translate(-181.336 -28.993)" fill="#611418"/><path d="M197.14,59.3a2.839,2.839,0,0,0,1.649.847,5.922,5.922,0,0,0,5.525-2.127A5.971,5.971,0,0,0,197.14,59.3" transform="translate(-182.112 -33.5)" fill="#e42529"/><g transform="translate(10.513 23.672)"><g clip-path="url(#b)"><path d="M189.151,57.276c.046.266-.561.594-1.354.731s-1.475.033-1.52-.237.561-.594,1.354-.735,1.475-.033,1.52.237" transform="translate(-186.272 -56.981)" fill="#ec687a"/></g></g><g transform="translate(23.095 19.651)"><g clip-path="url(#b)"><path d="M219.441,47.6c.046.266-.561.594-1.354.731s-1.475.033-1.52-.237.561-.594,1.354-.731,1.475-.033,1.52.237" transform="translate(-216.562 -47.307)" fill="#ec687a"/></g></g><path d="M205.139,10.454a1.724,1.724,0,0,0,.515-.22.612.612,0,0,0,.278-.469c.008-.374-.4-.6-.76-.706a5.118,5.118,0,0,0-2.883.029.584.584,0,0,0-.187.083.611.611,0,0,0-.141.166c-.212.312-.42.627-.627.939-.116.174-.237.42-.1.582a.483.483,0,0,0,.407.12,13.135,13.135,0,0,0,3.5-.528" transform="translate(-184.47 -5.184)" fill="#ce5120"/><path d="M191.1.01c-4.6.2-1.437,6.248-1.437,6.248,3.415,1.533,5.118-.777,5.118-.777.469-1.695.918-5.666-3.685-5.471m1.911,6.069a1.666,1.666,0,0,1-1.795.129l-.245-.985a3.81,3.81,0,0,0,2.1-.212Z" transform="translate(-177.123 -0.003)" fill="#ea5b28"/></svg>