<svg xmlns="http://www.w3.org/2000/svg" xmlns:xlink="http://www.w3.org/1999/xlink" width="129.733" height="140.527" viewBox="0 0 129.733 140.527"><defs><clipPath id="a"><rect width="129.733" height="140.527" fill="none"/></clipPath><clipPath id="c"><rect width="15.59" height="6.387" fill="none"/></clipPath><clipPath id="d"><rect width="15.59" height="6.386" fill="none"/></clipPath><clipPath id="e"><rect width="8.108" height="7.621" fill="none"/></clipPath><clipPath id="f"><rect width="8.108" height="7.62" fill="none"/></clipPath></defs><g clip-path="url(#a)"><g clip-path="url(#a)"><path d="M122.636,45.306c-6.219.137-9.266,5.213-27.218,9.4-10.246,2.387-17.633-9.6-20.9-14.525S56.35,37.8,48.771,39.96,40.526,42.18,37.21,57.233s-7.8,19.353-12.777,24.914c-6.4,7.159-15.113,10.98-19.293,14.389-10.464,8.537-2.269,13.164,1.137,14.226,12.62,3.935,20.566,6.055,25.568,13.674,2.341,3.565,1.553,16.23.115,23.981-.136.735-.233,1.461-.306,2.18l-.322-.221c.618,4.1-1.74,7.99-3.786,11.6a2.777,2.777,0,0,0-.476,1.366c.017.995,1.038,1.657,1.988,1.954,2.5.782,5.206.323,7.788-.142,2.843-.512,5.939-1.187,8.064-3,7.454-3.762,16.864-15.053,27.544-19.847,12.009-5.391,23.194.6,31.2,3.052,2.582,1.5,5.986,2.191,9.149,2.746,3.281.575,6.717,1.148,9.939.4,1.222-.284,2.548-.952,2.6-2.005a2.621,2.621,0,0,0-.565-1.462c-2.147-3.348-3.022-6.534-3.982-10.448-.969-7.589-5.127-19.241-6.545-28.345-1.836-11.793,9.245-31.392,13.7-43.553,3.983-10.877.907-17.528-5.312-17.392" transform="translate(0 -25.195)" fill="#e20917"/><path d="M168.705,260.156c-10.56,12.664-4.983,29.463-2.012,36.253,4.833-4.093,10.121-8.441,15.764-10.974,9.321-4.184,18.146-1.51,25.372,1.043,3.681-12.272.912-22.409-2.678-28.708-4.336-7.609-22.9-13.859-36.446,2.386" transform="translate(-109.665 -168.645)" fill="#e84f35"/><path d="M91.906,22.466A11.251,11.251,0,0,1,98.971,20.3,27.527,27.527,0,0,0,86.348,37.913a24.806,24.806,0,0,1,12.578-5.853,14.084,14.084,0,0,0,.438,14.961A18.692,18.692,0,0,1,106.436,34.4a36.909,36.909,0,0,0,10.047,12.317A20.412,20.412,0,0,1,119.8,27.675a14.578,14.578,0,0,0,13.362,6.468c-2.913-1.843-5.267-4.934-5.293-8.381s2.931-6.913,6.366-6.625A26.18,26.18,0,0,0,113.072,0l6.2,4.65A25.908,25.908,0,0,0,97.309,9.428l10.045.559a26.056,26.056,0,0,0-15.448,12.48" transform="translate(-58.258)" fill="#c01818"/><path d="M128.935,177.477a4.44,4.44,0,1,1-4.379-4.5,4.44,4.44,0,0,1,4.379,4.5" transform="translate(-80.999 -116.705)"/><path d="M134.91,179.937a1.776,1.776,0,1,1-1.751-1.8,1.776,1.776,0,0,1,1.751,1.8" transform="translate(-88.626 -120.186)" fill="#fff"/><path d="M256.565,128.041a4.44,4.44,0,1,1-4.379-4.5,4.44,4.44,0,0,1,4.379,4.5" transform="translate(-167.11 -83.351)"/><path d="M262.539,130.5a1.776,1.776,0,1,1-1.751-1.8,1.776,1.776,0,0,1,1.751,1.8" transform="translate(-174.735 -86.832)" fill="#fff"/><path d="M127.262,207.482c.215.988-1.99,2.308-4.925,2.948s-5.489.358-5.7-.631,1.989-2.308,4.924-2.948,5.489-.358,5.705.631" transform="translate(-78.681 -139.329)" fill="#ec694b"/><path d="M269.264,155.172c.215.988-1.989,2.308-4.924,2.948s-5.489.358-5.7-.631,1.989-2.308,4.924-2.948,5.489-.358,5.7.631" transform="translate(-174.488 -104.036)" fill="#ec694b"/><g transform="translate(61.115 60.462)" style="mix-blend-mode:multiply;isolation:isolate"><g clip-path="url(#c)"><g transform="translate(0 0)"><g clip-path="url(#d)"><path d="M188.364,192.251a16.954,16.954,0,0,0,15.264-5.894" transform="translate(-188.201 -186.195)" fill="none" stroke="#754d24" stroke-linecap="round" stroke-miterlimit="10" stroke-width="1"/></g></g></g></g><g transform="translate(75.726 54.786)" style="mix-blend-mode:multiply;isolation:isolate"><g clip-path="url(#e)"><g transform="translate(0 0)"><g clip-path="url(#f)"><path d="M233.7,168.909a5.224,5.224,0,0,0,7.366,6.642" transform="translate(-233.117 -168.747)" fill="none" stroke="#754d24" stroke-linecap="round" stroke-miterlimit="10" stroke-width="1"/></g></g></g></g></g></g></svg>