<svg xmlns="http://www.w3.org/2000/svg" xmlns:xlink="http://www.w3.org/1999/xlink" width="126.933" height="136.695" viewBox="0 0 126.933 136.695">
  <defs>
    <clipPath id="clip-path">
      <rect id="Retângulo_246" data-name="Retângulo 246" width="126.933" height="136.695" fill="none"/>
    </clipPath>
  </defs>
  <g id="Grupo_323" data-name="Grupo 323" clip-path="url(#clip-path)">
    <path id="Caminho_921" data-name="Caminho 921" d="M8.664,130.162c2.743-2.035,12.744-13.806,12.744-13.806s-1.947-5.575-3.539-12.39C17,100.272,16.506,92.678,16.23,86.5,8.053,97.219-1.381,116.036.169,124.321a21.015,21.015,0,0,0,2.137,5.69c2.616.673,5.207,1.006,6.359.151" transform="translate(0 -14.325)" fill="#ff485e"/>
    <path id="Caminho_922" data-name="Caminho 922" d="M18.857,130.871c.442-2.213,18.265-16.815,18.265-16.815L23.636,77.948c-1.94,1.192-4.383,3.768-6.95,7.133.276,6.182.776,13.775,1.64,17.47,1.593,6.814,3.539,12.39,3.539,12.39s-10,11.771-12.744,13.806c-1.153.855-3.743.522-6.359-.151,5.431,10.375,18.623,22.493,19.811,20.86,1.416-1.947-4.159-16.372-3.717-18.585" transform="translate(-0.458 -12.909)" fill="#c40a4d"/>
    <path id="Caminho_923" data-name="Caminho 923" d="M139.215,130.162c-2.743-2.035-12.744-13.806-12.744-13.806s1.947-5.575,3.539-12.39c.864-3.695,1.363-11.288,1.639-17.47,8.176,10.722,17.611,29.539,16.061,37.824a21.015,21.015,0,0,1-2.137,5.69c-2.616.673-5.206,1.006-6.359.151" transform="translate(-20.945 -14.325)" fill="#ff485e"/>
    <path id="Caminho_924" data-name="Caminho 924" d="M126.452,130.871c-.443-2.213-18.264-16.815-18.264-16.815l13.485-36.108c1.939,1.192,4.382,3.768,6.949,7.133-.277,6.182-.775,13.775-1.64,17.47-1.593,6.814-3.539,12.39-3.539,12.39s10,11.771,12.743,13.806c1.154.855,3.744.522,6.36-.151-5.432,10.375-18.623,22.493-19.811,20.86-1.416-1.947,4.159-16.372,3.717-18.585" transform="translate(-17.918 -12.909)" fill="#c40a4d"/>
    <path id="Caminho_925" data-name="Caminho 925" d="M87.54,8.41C80.462,2.875,74.791,0,73.515,0,72.2,0,66.26,3.049,58.921,8.9c3.673,2.452,8.594,4.807,14.018,4.807s10.633-2.593,14.6-5.3" transform="translate(-9.758 0)" fill="#ff485e"/>
    <path id="Caminho_926" data-name="Caminho 926" d="M43.941,131.174a100.789,100.789,0,0,0,12.4,12.68c1.593,1.195,3.806,2.124,13.187,2.124s14.7-.93,16.289-2.124a100.957,100.957,0,0,0,12.571-12.89c-7.063,1.474-21.051,4.084-31.471,4.084a74.568,74.568,0,0,1-22.976-3.875" transform="translate(-7.277 -21.69)" fill="#c40a4d"/>
    <path id="Caminho_927" data-name="Caminho 927" d="M104.271,37.708c-1.71-2.631-3.521-5.1-5.379-7.424a131.77,131.77,0,0,1,1.657,19.875c.11,21-5.471,47.992-34.869,47.33-28.178-.634-32.5-36.621-32.764-55.941-.021-1.492-.019-2.9,0-4.174.009-.63.023-1.234.038-1.8q-.727,1.053-1.436,2.138c-13.806,21.24-3.081,53.233,1.38,64.384A50.581,50.581,0,0,0,40.756,114.5a74.578,74.578,0,0,0,22.976,3.875c10.42,0,24.407-2.611,31.471-4.084a50.067,50.067,0,0,0,7.688-12.2c4.461-11.151,15.186-43.144,1.38-64.384" transform="translate(-4.092 -5.015)" fill="#ffa440"/>
    <path id="Caminho_928" data-name="Caminho 928" d="M34.541,40.914C34.8,60.235,39.127,96.221,67.3,96.856c29.4.662,34.98-26.329,34.869-47.33a133.633,133.633,0,0,0-1.656-19.875c-.192-.241-.38-.491-.573-.729q-1.026-1.262-2.068-2.46c-6.653,4.2-16.969,8.975-29.509,8.975a59.361,59.361,0,0,1-28.744-7.162c-1.727,2.091-3.421,4.31-5.044,6.661-.016.569-.028,1.173-.038,1.8-.019,1.272-.02,2.679,0,4.174" transform="translate(-5.718 -4.383)" fill="#ffd150"/>
    <path id="Caminho_929" data-name="Caminho 929" d="M98.888,23.749A104.405,104.405,0,0,0,84.511,10.08c-3.967,2.705-9.182,5.3-14.6,5.3s-10.344-2.355-14.017-4.808A104.423,104.423,0,0,0,40.635,25.562a59.366,59.366,0,0,0,28.744,7.162c12.54,0,22.856-4.774,29.51-8.975" transform="translate(-6.73 -1.669)" fill="#c40a4d"/>
    <path id="Caminho_930" data-name="Caminho 930" d="M86.7,69.49A15.089,15.089,0,1,1,71.612,54.4,15.089,15.089,0,0,1,86.7,69.49" transform="translate(-9.361 -9.01)" fill="#ffa440"/>
    <path id="Caminho_931" data-name="Caminho 931" d="M88.262,62.739A17.036,17.036,0,1,1,71.226,45.7,17.037,17.037,0,0,1,88.262,62.739" transform="translate(-8.975 -7.569)" fill="#ff485e"/>
    <path id="Caminho_932" data-name="Caminho 932" d="M83.792,63.846a11.461,11.461,0,1,1-11.46-11.461,11.461,11.461,0,0,1,11.46,11.461" transform="translate(-10.081 -8.676)" fill="#71e2d5"/>
    <path id="Caminho_933" data-name="Caminho 933" d="M74.365,69.209a5.156,5.156,0,1,1-5.156-5.156,5.156,5.156,0,0,1,5.156,5.156" transform="translate(-10.608 -10.608)" fill="#49c1b0"/>
    <path id="Caminho_934" data-name="Caminho 934" d="M80.759,59.174A3.076,3.076,0,1,1,77.683,56.1a3.077,3.077,0,0,1,3.076,3.076" transform="translate(-12.356 -9.291)" fill="#fff"/>
  </g>
</svg>
