<svg xmlns="http://www.w3.org/2000/svg" xmlns:xlink="http://www.w3.org/1999/xlink" width="96.627" height="335.352" viewBox="0 0 96.627 335.352"><defs><clipPath id="a"><rect width="96.627" height="335.352" fill="none"/></clipPath></defs><g transform="translate(0 0)"><path d="M90.433,364.149v0Z" transform="translate(-38.125 -35.738)" fill="#8cc97f"/><g transform="translate(0 0)"><g clip-path="url(#a)"><line y2="286.318" transform="translate(52.309 49.034)" fill="none" stroke="#0b3733" stroke-miterlimit="10" stroke-width="3"/><path d="M77.512,8.717c4.657-.029,9.981,1.629,11.708,5.955a9.892,9.892,0,0,1-.733,7.984,29.332,29.332,0,0,1-5.022,6.525l-8.678,9.314c-3.636,3.9-8.207,8.151-13.474,7.311a43.092,43.092,0,0,0-28.064-23,11.4,11.4,0,0,0-6.574-.148c-3.037,1.093-4.9,4.454-4.809,7.681a12.47,12.47,0,0,0,4.181,8.458,30.305,30.305,0,0,0,8.175,5.11,46.894,46.894,0,0,0,13.829,4.45,21.922,21.922,0,0,0,14.082-2.565c-12.641,4.493-25.648,9.2-35.556,18.244-2.134,1.948-4.253,4.868-3.022,7.482A5.757,5.757,0,0,0,25.612,73.7c4.771,3.263,11.371,2.993,16.51.347s8.968-7.334,11.76-12.394S58.562,51.09,60.8,45.761a65.108,65.108,0,0,0-1.577,21.2c.245,3.694.712,7.512,2.631,10.679s5.657,5.509,9.274,4.715c3.239-.711,5.584-3.78,6.246-7.029s-.088-6.629-1.227-9.743a39.947,39.947,0,0,0-14.707-19A63.832,63.832,0,0,0,96.7,61.148a10.711,10.711,0,0,0,5.64-.617c3.356-1.64,4.318-6.324,2.806-9.739s-4.825-5.7-8.238-7.213c-8.667-3.852-18.562-3.822-27.972-2.646-2.945.368-6,.888-8.415,2.607a73.4,73.4,0,0,1,.067-17.754c.62-4.926,1.938-10.135,5.667-13.414,3.027-2.662,7.225-3.63,11.256-3.655" transform="translate(-9.217 -3.675)" fill="#ff4d4d"/><path d="M55.949,2.075c4.107-2.2,9.591-3.208,13.134-.186a9.892,9.892,0,0,1,3.071,7.406,29.311,29.311,0,0,1-1.4,8.114L67.41,29.692c-1.4,5.147-3.464,11.036-8.516,12.747a43.093,43.093,0,0,0-35.55-7.278,11.4,11.4,0,0,0-5.885,2.933c-2.178,2.382-2.256,6.221-.677,9.037a12.47,12.47,0,0,0,7.64,5.535,30.288,30.288,0,0,0,9.615.712,46.888,46.888,0,0,0,14.31-2.506,21.923,21.923,0,0,0,11.265-8.83C50.521,51.907,41.2,62.132,36.651,74.751c-.98,2.717-1.495,6.289.812,8.028a5.756,5.756,0,0,0,2.838.973c5.742.664,11.456-2.65,14.771-7.386S59.59,65.7,59.7,59.92s-.78-11.523-1.281-17.281A65.113,65.113,0,0,0,66.9,62.127c1.938,3.155,4.13,6.315,7.3,8.223s7.572,2.238,10.4-.149c2.534-2.138,3.18-5.946,2.252-9.129s-3.166-5.825-5.626-8.049a39.945,39.945,0,0,0-21.865-9.96,63.84,63.84,0,0,0,37.989-3.536,10.713,10.713,0,0,0,4.7-3.173c2.206-3.015.875-7.608-2.054-9.926s-6.923-2.792-10.65-2.543c-9.463.63-18.2,5.265-25.983,10.691-2.435,1.7-4.891,3.579-6.231,6.227a73.381,73.381,0,0,1-8.213-15.741c-1.747-4.648-3.008-9.871-1.236-14.509,1.439-3.766,4.7-6.578,8.257-8.478" transform="translate(-6.618 0)" fill="#ff8787"/><path d="M68.043,66.443a2.8,2.8,0,0,1-.281-1.965,2.74,2.74,0,0,1,.723-1.129,5.119,5.119,0,0,1,5.56-1.056,8.915,8.915,0,0,1-3.06-2.444,3.05,3.05,0,0,1-.03-3.661,3.152,3.152,0,0,1,2.279-.9,5.275,5.275,0,0,1,3.412,1.152A3.9,3.9,0,0,1,75.3,54.07c-.064-.928.678-1.949,1.6-1.852a2.262,2.262,0,0,1,1.015.458A12.42,12.42,0,0,1,81.7,56.864a12.1,12.1,0,0,1,1.164-3.995,4.106,4.106,0,0,1,3.309-2.24,4.739,4.739,0,0,1,3.63,2.2,1.31,1.31,0,0,1,.287.574c.129.907-1.387,1.244-1.531,2.149a5.534,5.534,0,0,1,4.235.577,3.345,3.345,0,0,1,1.768,2.525,2.853,2.853,0,0,1-.515,1.725,3.7,3.7,0,0,1-4.722,1.11,7.426,7.426,0,0,1,3.117,1.265A4.89,4.89,0,0,1,94.5,65.572a2.939,2.939,0,0,1-1.184,3.123,4.372,4.372,0,0,1-3.539,0,5.906,5.906,0,0,1,1.489,3.281A3.219,3.219,0,0,1,89.7,75.058c-1.425.727-3.129,0-4.556-.726a2.948,2.948,0,0,1-1.5-1.262,2.787,2.787,0,0,1-3.46,3.909,5.254,5.254,0,0,1-1.9-1.5c-.736-.81-1.469-2.012-.839-2.908a4.619,4.619,0,0,1-3.093,2.536A3.219,3.219,0,0,1,70.857,73.5c-.829-1.754.437-3.834,2.02-4.955-1.753.865-3.982-.344-4.834-2.1" transform="translate(-28.534 -21.344)" fill="#fbb03b"/><path d="M26.475,260.143a136.071,136.071,0,0,1,20.848,1.09c-2.351-7.227-6.08-14.142-11.652-19.31S22.547,233.478,14.965,234a17.864,17.864,0,0,0-10.823,4.279,12.091,12.091,0,0,0-4,10.643c.876,5.165,5.667,8.924,10.709,10.344s10.389,1,15.627.872" transform="translate(0 -98.628)" fill="#0b3733"/><path d="M72.953,70.822a3.219,3.219,0,0,1,6.287.141" transform="translate(-30.756 -28.82)" fill="none" stroke="#fff" stroke-miterlimit="10" stroke-width="3"/><path d="M94.474,69.31a4.98,4.98,0,0,1,9.4.65" transform="translate(-39.828 -27.938)" fill="none" stroke="#fff" stroke-miterlimit="10" stroke-width="3"/><path d="M80.96,81.2a7.551,7.551,0,0,0,12.4-3.019L93.67,79.3" transform="translate(-34.131 -32.962)" fill="none" stroke="#fff" stroke-miterlimit="10" stroke-width="3"/></g></g></g></svg>