<svg xmlns="http://www.w3.org/2000/svg" xmlns:xlink="http://www.w3.org/1999/xlink" width="134" height="134" viewBox="0 0 134 134"><defs><filter id="a" x="0" y="0" width="134" height="134" filterUnits="userSpaceOnUse"><feOffset dy="2" input="SourceAlpha"/><feGaussianBlur stdDeviation="1" result="b"/><feFlood flood-opacity="0.051"/><feComposite operator="in" in2="b"/><feComposite in="SourceGraphic"/></filter><clipPath id="c"><rect width="118.452" height="126.969" fill="none"/></clipPath></defs><g transform="translate(-1091 -1566)"><g transform="matrix(1, 0, 0, 1, 1091, 1566)" filter="url(#a)"><circle cx="64" cy="64" r="64" transform="translate(3 1)" fill="#0b3733"/></g><g transform="translate(1098.774 1567.785)"><g transform="translate(0 0.003)"><g transform="translate(0 0)" clip-path="url(#c)"><path d="M3255.96,3975.119a7.084,7.084,0,0,0-5.294,3.4,42.428,42.428,0,0,0-3.411-7.149.953.953,0,0,0-1.775.431,37.478,37.478,0,0,0-.234,9.748,20.2,20.2,0,0,0-3.612,2.1,2.013,2.013,0,0,0-.978,2.483c.9,1.94,3.643,2.1,5.787,1.618q-.275,2.832-.549,5.664a1.2,1.2,0,0,0,2.006.878,18.38,18.38,0,0,0,2.534-2.823,9.116,9.116,0,0,0,1.031-1.638c.1-.118.177-.216.242-.3.086.038.186.077.311.12,1.681,1.371,4.312,1.836,6.4,1.953a1.251,1.251,0,0,0,.916-2.092,23.458,23.458,0,0,0-3-3.314c-.386-.345-1.437-1.047-1.544-1.6-.1-.5.519-1.541.711-2.011.909-2.223,1.786-4.167,1.514-6.612a1.1,1.1,0,0,0-1.052-.846" transform="translate(-3162.647 -3875.494)" fill="#f7931e"/></g></g><g transform="translate(0 0.003)"><g transform="translate(0 0)" clip-path="url(#c)"><path d="M2652.054,224.211a12.128,12.128,0,0,0-3.168,2.514,10.91,10.91,0,0,0-.917,1.245c-.229.359-.414.967-.666,1.427a29.137,29.137,0,0,1-2.781-1.737l-3.187-1.947c-.6-.367-1.616.234-1.33.981a24.02,24.02,0,0,0,4.159,7.42c-.86,1.357-1.551,2.962-2.334,4.189a1.117,1.117,0,0,0,1.207,1.637,10.839,10.839,0,0,0,4.019-1.538,40.937,40.937,0,0,0,3.205,4.435c.788.948,2.01-.058,1.893-1.037q-.324-2.719-.647-5.438a14.289,14.289,0,0,0,6.515-2.981,1.12,1.12,0,0,0-.2-1.757,8.349,8.349,0,0,0-4.9-1.186,15.892,15.892,0,0,0,.653-5.3,1.036,1.036,0,0,0-1.513-.922" transform="translate(-2576.534 -218.694)" fill="#bbd738"/><path d="M793.365,4.363A23.978,23.978,0,0,0,791.9.753c-.356-.7-1.494-1.116-2.016-.3A9.959,9.959,0,0,0,788.3,7.291a53.249,53.249,0,0,0-6.811-1.713.97.97,0,0,0-.731,1.7,60.4,60.4,0,0,0,6.233,4.43c.723.447,1.584,1.181,2.42,1.1a30.462,30.462,0,0,1,.38,5.482,1.336,1.336,0,0,0,2.085,1.236,6.807,6.807,0,0,0,2.868-3.881c1.407.976,3.039,1.763,4.409.843a1.366,1.366,0,0,0,.446-1.569c-.535-1.745-2.043-3.342-3.413-4.718A34.417,34.417,0,0,0,799.4,3.732a1.272,1.272,0,0,0-1.618-1.66,12.936,12.936,0,0,0-4.418,2.291" transform="translate(-761.666 -0.004)" fill="#00b6aa"/><path d="M203.183,879.795c-8.664,8.043-23.168,10.794-26.506,6.294-2.267-3.057,1.009-8.929,1.184-9.234a13.684,13.684,0,0,1,7.842-6.045c5.332-1.671,7.2,1.19,14.54.327,5.54-.652,8.114-2.711,8.985-1.634,1.163,1.438-2.151,6.678-6.045,10.292m-38.065,5.718c-3.412,5.069-13.891,2-15.684,1.47-5.97-1.751-9.62-5.384-12.253-8.005-1.327-1.321-7.792-7.757-6.371-9.965,1.14-1.773,5.964,1.352,16.148,2.259,9.013.8,11.739-1.065,15.056,1.5,3.721,2.877,5.468,9.231,3.1,12.742m59.3-41.822c-.463-1.571-1.851-3.084-3.053-3.213-2.2-.235-4.212,4.129-5.309,5.963-4.784,8-17.047,9.476-26.762,10.646-11.481,1.383-10.536-1.674-34.458-2.169-12.141-.252-13.848.455-17.983-1.425-3.1-1.408-15.731-7.149-19.6-10.129-.274-.211-1.16-.912-1.96-.653-.954.308-1.306,1.818-1.47,2.941-1.938,13.206,5.064,29.406,5.064,29.406,5.814,13.451,8.721,20.176,15.52,25.322,3.469,2.625,9.224,6.981,16.664,6.208,8.341-.867,16.407-7.932,17.317-11.763.077-.324.291-1.418.98-1.633,1.234-.386,3.067,2.329,3.758,3.267,0,0,4.464,6.067,14.377,8.659,8.916,2.331,16.274-3.355,18.787-5.064,18.272-12.424,14.783-38.433,18.3-54.565a4.206,4.206,0,0,0-.163-1.8" transform="translate(-110.755 -820.278)" fill="#a80034"/><path d="M89.7,814.428c-8.664,8.043-23.168,10.794-26.506,6.294-2.267-3.057,1.009-8.929,1.184-9.235a13.684,13.684,0,0,1,7.842-6.045c5.332-1.671,7.2,1.19,14.54.327,5.54-.652,8.114-2.711,8.985-1.633,1.163,1.438-2.15,6.677-6.045,10.292m-38.065,5.718c-3.412,5.069-13.891,2-15.684,1.47-5.97-1.751-9.62-5.384-12.253-8.005-1.327-1.321-7.792-7.757-6.371-9.965,1.14-1.773,5.964,1.352,16.148,2.259,9.013.8,11.739-1.065,15.056,1.5,3.721,2.877,5.468,9.231,3.1,12.743m59.3-41.823c-1.066-.789-4.8,2.6-5.554,3.268-8.231,7.214-27.619,9.862-29.57,10.129-11.254,1.537-9.138-1.645-34.458-2.169-12.141-.252-13.847.455-17.983-1.425-3.1-1.408-15.731-7.149-19.6-10.129-.274-.211-1.159-.912-1.96-.653-.954.308-1.306,1.818-1.47,2.941C-1.6,793.489,5.4,809.69,5.4,809.69c5.814,13.451,8.721,20.176,15.52,25.322,3.469,2.625,9.224,6.981,16.664,6.208,8.341-.867,16.407-7.932,17.317-11.763.077-.324.291-1.418.98-1.633,1.234-.386,3.067,2.329,3.758,3.267,0,0,4.464,6.067,14.377,8.659,8.916,2.331,16.274-3.355,18.787-5.064,18.272-12.424,14.783-38.433,18.3-54.565.078-.36.318-1.44-.163-1.8" transform="translate(0 -758.614)" fill="#ff5582"/></g></g><g transform="translate(0 0.003)"><g transform="translate(0 0)" clip-path="url(#c)"><path d="M1242.669,851.744c-8.664,8.043-23.168,10.795-26.506,6.294-2.267-3.057,1.009-8.929,1.184-9.234a13.685,13.685,0,0,1,7.842-6.045c5.333-1.671,7.2,1.19,14.54.327,5.54-.652,8.114-2.711,8.985-1.634,1.163,1.438-2.151,6.677-6.045,10.292m21.238-36.1c-1.066-.789-4.8,2.6-5.554,3.268-8.231,7.214-27.619,9.862-29.57,10.129-9.141,1.249-9.461-.616-22.83-1.642,1.163,10.283,6.655,21.363-.041,33.063-6.411,11.2-18.35,13.113-24.564,16.521a18.057,18.057,0,0,0,9.207,1.559c8.341-.867,16.407-7.931,17.317-11.763.077-.324.291-1.418.98-1.633,1.234-.386,3.067,2.329,3.757,3.267,0,0,4.464,6.067,14.377,8.659,8.916,2.331,16.274-3.355,18.787-5.064,18.272-12.424,14.783-38.433,18.3-54.565.078-.36.318-1.44-.163-1.8" transform="translate(-1152.967 -795.93)" fill="#f03561"/></g></g><g transform="translate(0 0.003)"><g transform="translate(0 0)" clip-path="url(#c)"><path d="M3081.006,815.64c-1.066-.789-4.8,2.6-5.555,3.268-3.825,3.352-10.053,5.708-15.826,7.308a47.654,47.654,0,0,1,3.091,15.517c1.646-.527,2.628-.859,3.1-.28.957,1.184-1.136,4.94-4.075,8.251a31.353,31.353,0,0,1-1.044,3.349c-4.249,11.216-13.266,16.389-17.521,23.749.3.089.6.184.912.266,8.916,2.331,16.273-3.355,18.787-5.064,18.272-12.424,14.783-38.433,18.3-54.565.078-.36.318-1.44-.163-1.8" transform="translate(-2970.065 -795.93)" fill="#d80043"/><path d="M4596.9,795.716c1.08,6.856-.415,26.106,1.563,53.763,1.609,22.508,4.438,35.478,3.735,44.97-.075,1.018-.521,6.444.228,6.585.417.078,1.042-1.518,1.249-2.044,2.815-7.185-1.175-39.031-2.006-47.721-.926-9.7-3-31.429-.529-42.46.265-1.184,1.639-6.955-1.06-11.958-.877-1.626-2.62-3.98-3.217-3.709-.488.222-.033,2.126.038,2.573" transform="translate(-4486.217 -774.068)" fill="#a80034"/></g></g></g></g></svg>