<svg xmlns="http://www.w3.org/2000/svg" xmlns:xlink="http://www.w3.org/1999/xlink" width="137.882" height="143.014" viewBox="0 0 137.882 143.014"><defs><filter id="a" x="1.713" y="9.014" width="134" height="134" filterUnits="userSpaceOnUse"><feOffset dy="2" input="SourceAlpha"/><feGaussianBlur stdDeviation="1" result="b"/><feFlood flood-opacity="0.051"/><feComposite operator="in" in2="b"/><feComposite in="SourceGraphic"/></filter><clipPath id="c"><rect width="133.315" height="133.199" fill="none"/></clipPath></defs><g transform="translate(-891.287 -1556.986)"><g transform="matrix(1, 0, 0, 1, 891.29, 1556.99)" filter="url(#a)"><circle cx="64" cy="64" r="64" transform="translate(4.71 10.01)" fill="#0058a1"/></g><g transform="matrix(0.999, -0.035, 0.035, 0.999, 891.287, 1561.639)" clip-path="url(#c)"><path d="M0,125.74c43.277-16.349,39.125-32.359,39.078-32.519a.992.992,0,0,1,1.9-.559c.213.724,4.7,17.94-40.28,34.934Z" transform="translate(0 -25.323)" fill="#fff"/><path d="M83.362,11.008c-4.721-4.848-18.6-10.663-31.353-.746C42.429-2.748,27.5-.92,21.638,2.463,15.069,6.253,6.931,17.8,15.821,35.81,23.394,51.151,38.948,60.632,43.389,63.1c-1.4,1.423-4.942,5.235-4.289,6.582.809,1.672,6.9,2.721,8.6,1.709,1.414-.842-.946-6.171-1.775-7.931C50.837,62.3,68.422,57.41,79.9,44.679c13.446-14.914,8.752-28.24,3.462-33.671" transform="translate(-3.279 0)" fill="#fb7598"/><path d="M30.539,24.251c-.107,5.335-3.545,9.593-7.679,9.51s-7.4-4.475-7.292-9.81,3.545-9.592,7.679-9.509,7.4,4.474,7.292,9.809" transform="translate(-4.287 -3.977)" fill="#ffa1be"/><path d="M25.609,174.193c24.093,1.664,42.241-1.567,53.947-9.594,8.9-6.1,10.51-12.716,10.574-12.995a.992.992,0,0,0-1.933-.45c-.014.062-1.576,6.266-9.938,11.927-14.128,9.568-36.356,10.245-52.514,9.134Z" transform="translate(-7.053 -41.418)" fill="#fff"/><path d="M143.9,69.322c-15.113-9.213-35.442-3.429-45.408,12.917-9.571,15.7-9.1,40.338,4.337,50.431-2.164.965-5.192,2.532-5.142,3.726.075,1.855,5.245,5.246,7.208,5,1.323-.169,1.548-4.03,1.553-6.524,15.122,7.273,37.207-3.586,46.767-19.266,9.966-16.346,5.8-37.068-9.315-46.28" transform="translate(-25.321 -17.884)" fill="#00add8"/><path d="M150.3,76.581a44.126,44.126,0,0,1,1.341,32.756c-1.449,3.623-4.348,7.246-6.521,10.144-13.334,12.728-36.3,18.86-48.966,6.111a25.189,25.189,0,0,0,7.839,10.284c-2.164.965-5.192,2.532-5.143,3.727.076,1.854,5.245,5.245,7.208,5,1.324-.168,1.548-4.029,1.554-6.524,15.122,7.273,37.207-3.586,46.767-19.266,8.7-14.262,6.626-31.854-4.079-42.227" transform="translate(-26.48 -21.09)" fill="#0295b7"/><path d="M124.561,86.269c-3.447,4.074-8.8,5.213-11.956,2.542s-2.922-8.139.524-12.212,8.8-5.211,11.955-2.54,2.923,8.138-.523,12.211" transform="translate(-30.4 -19.998)" fill="#2acef4"/><path d="M87.274,11.008C82.552,6.16,68.678.345,55.921,10.262A24.244,24.244,0,0,0,26.112,2.157c9.673-.372,24.219,1.655,27.382,16.519,9.177-8.212,27.534-7.729,29.949,6.28C85.35,36.017,66.777,59.116,40.568,58.842A76.171,76.171,0,0,0,47.3,63.1c-1.4,1.423-4.942,5.235-4.289,6.582.809,1.672,6.9,2.721,8.6,1.709,1.414-.842-.946-6.171-1.775-7.931,4.91-1.162,22.494-6.055,33.973-18.786,13.446-14.914,8.752-28.24,3.462-33.671" transform="translate(-7.191 0)" fill="#e25a84"/></g></g></svg>