<svg xmlns="http://www.w3.org/2000/svg" xmlns:xlink="http://www.w3.org/1999/xlink" width="135.613" height="135.248" viewBox="0 0 135.613 135.248"><defs><filter id="a" x="0" y="0" width="134" height="134" filterUnits="userSpaceOnUse"><feOffset dy="2" input="SourceAlpha"/><feGaussianBlur stdDeviation="1" result="b"/><feFlood flood-opacity="0.051"/><feComposite operator="in" in2="b"/><feComposite in="SourceGraphic"/></filter><clipPath id="c"><rect width="129.334" height="117.149" fill="none"/></clipPath><clipPath id="e"><rect width="89.689" height="38.527" fill="none"/></clipPath><clipPath id="f"><rect width="129.334" height="34.36" fill="none"/></clipPath><clipPath id="g"><rect width="51.145" height="36.147" fill="none"/></clipPath></defs><g transform="translate(-1288 -1566)"><g transform="matrix(1, 0, 0, 1, 1288, 1566)" filter="url(#a)"><circle cx="64" cy="64" r="64" transform="translate(3 1)" fill="#49aa9d"/></g><g transform="translate(1294.279 1584.099)" clip-path="url(#c)"><g clip-path="url(#c)"><path d="M104.749,79.546S88.3,93.312,63.238,91.111a63.619,63.619,0,0,1-8.65-1.359c-29.859-6.788-42.5-24.539-42.5-24.539l2.134-10.25,3.827-18.44,3.562-17.145,86.128,15.737-1.234,18.3Z" transform="translate(-1.066 -1.708)" fill="#2c1c3d"/><g transform="translate(16.987 17.671)" opacity="0.2" style="mix-blend-mode:multiply;isolation:isolate"><g clip-path="url(#e)"><path d="M107.085,53.416l-45.242,4.49S31.1,43.014,18.629,36.524L22.19,19.379l86.129,15.737Z" transform="translate(-18.63 -19.379)" fill="#2c1c3d"/></g></g><path d="M129.334,35.22,128.3,39.764,56.663,43.7,0,13,.831,9.344,67.945,0Z" transform="translate(0 0)" fill="#2c1c3d"/><g transform="translate(0 9.345)" opacity="0.64" style="mix-blend-mode:soft-light;isolation:isolate"><g clip-path="url(#f)"><path d="M129.334,36.123,128.3,40.667l-71.638,3.94L0,13.9l.831-3.655,58.306,29.4Z" transform="translate(0 -10.248)" fill="#fff"/></g></g><path d="M78.248,27.63,95.173,38.2a3.385,3.385,0,0,1,1.592,3.059c-.446,7.887-3.38,37.348-22.586,60.317,3.646,2.164,5.41,1.23,5.41,1.23s21.983-25.858,23.566-61.936a6.521,6.521,0,0,0-2.4-5.4c-5.34-4.278-17.262-9.876-19.979-11.727a2.318,2.318,0,1,0-2.529,3.884" transform="translate(-6.539 -2.058)" fill="#ffb032"/><path d="M77.584,112.557l-4.509-3.011a2.877,2.877,0,0,1,3.2-4.785l4.509,3.011a2.877,2.877,0,0,1-3.2,4.785" transform="translate(-6.329 -9.192)" fill="#ff882f"/><path d="M76.209,108.951a8.133,8.133,0,0,0-11.263,2.321,24.326,24.326,0,0,0-2.8,7.424l1.964,1.678,3.531-2.019-2.1,3.243,2.038,1.741,5.138-3.622-2.05,6.26.771.657a25.659,25.659,0,0,0,7.089-6.421,8.132,8.132,0,0,0-2.321-11.262" transform="translate(-5.478 -9.486)" fill="#ffb032"/><g transform="translate(11.026 53.255)" opacity="0.2" style="mix-blend-mode:multiply;isolation:isolate"><g clip-path="url(#g)"><path d="M63.238,94.551a63.5,63.5,0,0,1-8.65-1.359c-29.858-6.788-42.5-24.539-42.5-24.539L14.226,58.4c7.445,11.39,21.943,26.758,49.012,36.148" transform="translate(-12.092 -58.403)" fill="#2c1c3d"/></g></g></g></g></g></svg>