<svg xmlns="http://www.w3.org/2000/svg" xmlns:xlink="http://www.w3.org/1999/xlink" width="134" height="158.967" viewBox="0 0 134 158.967"><defs><filter id="a" x="0" y="24.967" width="134" height="134" filterUnits="userSpaceOnUse"><feOffset dy="2" input="SourceAlpha"/><feGaussianBlur stdDeviation="1" result="b"/><feFlood flood-opacity="0.051"/><feComposite operator="in" in2="b"/><feComposite in="SourceGraphic"/></filter><clipPath id="c"><rect width="113.908" height="145.2" fill="none"/></clipPath></defs><g transform="translate(-498 -1541.033)"><g transform="matrix(1, 0, 0, 1, 498, 1541.03)" filter="url(#a)"><circle cx="64" cy="64" r="64" transform="translate(3 25.97)" fill="#561c56"/></g><g transform="translate(514.092 1541.033)" clip-path="url(#c)"><path d="M3.722,133.828s52.014,2.708,105.151-18.048L38.813,11.022Z" transform="translate(0.351 1.039)" fill="#3fbcbc"/><path d="M38.813,11.022l-.119.421c4.656,8.487,21.088,35.195,33.276,61.48,16.541,35.683,1.454,40.939-25.92,46.606-20.626,4.271-33.864,5.046-39.316,3.84L3.722,133.828s52.014,2.708,105.151-18.047Z" transform="translate(0.351 1.039)" fill="#00a5b5"/><path d="M39.117,58.191A5.253,5.253,0,1,1,33.051,53.9a5.256,5.256,0,0,1,6.066,4.289" transform="translate(2.705 5.076)" fill="#f8e1ac"/><path d="M43.354,29.058a5.253,5.253,0,1,1-6.067-4.289,5.255,5.255,0,0,1,6.067,4.289" transform="translate(3.105 2.329)" fill="#f8e1ac"/><path d="M66.081,67.973a5.253,5.253,0,1,1-6.067-4.289,5.254,5.254,0,0,1,6.067,4.289" transform="translate(5.248 5.998)" fill="#f8e1ac"/><path d="M53.976,92.781a5.253,5.253,0,1,1-6.066-4.289,5.255,5.255,0,0,1,6.066,4.289" transform="translate(4.106 8.338)" fill="#f8e1ac"/><path d="M88.019,100.221a5.253,5.253,0,1,1-6.066-4.289,5.254,5.254,0,0,1,6.066,4.289" transform="translate(7.317 9.039)" fill="#f2d383"/><path d="M25.487,106.7a5.253,5.253,0,1,1-6.067-4.29,5.256,5.256,0,0,1,6.067,4.29" transform="translate(1.42 9.65)" fill="#f8e1ac"/><path d="M23.02,78.8a5.245,5.245,0,0,0-5.113-4.354L15.13,84.157A5.229,5.229,0,0,0,23.02,78.8" transform="translate(1.427 7.02)" fill="#f8e1ac"/><path d="M43.687,6.846A8.238,8.238,0,1,1,34.174.12a8.238,8.238,0,0,1,9.513,6.726" transform="translate(2.577 0)" fill="#d15a5a"/><path d="M38.2,6.343a4.895,4.895,0,1,1-5.653-4,4.895,4.895,0,0,1,5.653,4" transform="translate(2.686 0.215)" fill="#ef716f"/><path d="M3.468,121.905A5.339,5.339,0,0,0,0,127.1c-.019,4.122,4.816,5.473,6.731,3.932,3.5,9.09,12.218,2.02,12.009-.607,3.532,7.873,14.574,1.616,14.2-1.953,2.34,5.171,14.147,3.387,15.27.044,4.157,7.283,15.2,1.025,14.947-1.838,7.1,6.051,11.15.026,10.9-2.839,7.989,4.2,17.147-1.733,16.654-6.009,3.752,4.928,12.218,2.021,12-2.061,3.814,1.042,11.809-1.784,11.155-7s-7.3-8.68-10.658-4.227C99,102.6,92.7,106.832,92.83,108.991c-3.389-2.811-12.284.413-12.351,2.846-4.377-4.337-14.607-.4-16.232,4.237-3.9-2.962-13.986-2.444-16.123,2.043-3.78-2.259-12.8-1.194-13.973.461-2.252-3.249-12.559.217-12.431,2.375-3.633-4.223-10.875.171-10.908,1.388-2.212-3.012-7.343-.436-7.343-.436" transform="translate(0 9.666)" fill="#ef716f"/><path d="M103.2,104.544a6.015,6.015,0,0,0-3.147-.449c3.443,8.457-5.608,12.094-11.141,8.957,1.279,4.626-9.963,9.7-15.007,5.725-.421,1.769-5.707,4.855-8.432,1.689.209,2.63-11.974,7.87-16.789,2.4-1.13,1.89-10.139,5.859-17.268,1.026.127,2.158-6.71,8.9-12.749,1.945-.025,2.67-7,5.805-7.611.822-2.925,3.183-7.836,2.5-10.917,1.632.81,3.18,4.862,4.129,6.58,2.749,3.5,9.089,12.217,2.02,12.009-.608,3.532,7.873,14.573,1.616,14.2-1.953,2.34,5.171,14.147,3.387,15.269.045,4.157,7.281,15.2,1.024,14.947-1.84,7.1,6.051,11.151.026,10.9-2.839,7.989,4.2,17.147-1.732,16.654-6.009,3.753,4.929,12.218,2.022,12-2.059,3.813,1.041,11.809-1.785,11.154-7s-7.3-8.68-10.658-4.227" transform="translate(0.013 9.666)" fill="#d15a5a"/></g></g></svg>