<svg xmlns="http://www.w3.org/2000/svg" xmlns:xlink="http://www.w3.org/1999/xlink" width="137.774" height="138" viewBox="0 0 137.774 138"><defs><filter id="a" x="0" y="4" width="134" height="134" filterUnits="userSpaceOnUse"><feOffset dy="2" input="SourceAlpha"/><feGaussianBlur stdDeviation="1" result="b"/><feFlood flood-opacity="0.051"/><feComposite operator="in" in2="b"/><feComposite in="SourceGraphic"/></filter><clipPath id="c"><rect width="127.772" height="119.034" fill="none"/></clipPath></defs><g transform="translate(-696 -1562)"><g transform="matrix(1, 0, 0, 1, 696, 1562)" filter="url(#a)"><circle cx="64" cy="64" r="64" transform="translate(3 5)" fill="#db3b77"/></g><g transform="translate(706.002 1562)" clip-path="url(#c)"><path d="M84.967,106.521c0,4.622-13.015,8.367-29.076,8.367s-29.074-3.745-29.074-8.367,13.02-8.369,29.074-8.369,29.076,3.745,29.076,8.369" transform="translate(1.133 4.146)" fill="#dbd7ce"/><path d="M55.89,110.345c-13.473,0-24.775-2.641-28.074-6.222a3.233,3.233,0,0,0-1,2.146c0,4.621,13.021,8.367,29.074,8.367s29.076-3.746,29.076-8.367a3.229,3.229,0,0,0-1-2.146c-3.295,3.581-14.594,6.222-28.075,6.222" transform="translate(1.133 4.398)" fill="#fff"/><path d="M113.72,26.043c0,3.966-25.459,7.185-56.86,7.185S0,30.009,0,26.043s25.457-7.186,56.859-7.186,56.86,3.215,56.86,7.186" transform="translate(0 0.797)" fill="#eae8e4"/><path d="M74.644,19.2c-1.553,3.839-3.927,7.339-8.832,7.952C43.386,30.893,21.8,31.259.3,25.29a1.173,1.173,0,0,0-.3.739c0,3.966,25.458,7.184,56.859,7.184s56.86-3.218,56.86-7.184c0-3.185-16.386-5.882-39.076-6.826" transform="translate(0 0.811)" fill="#dbd8d1"/><path d="M111.937,27.455c-6.223,3.115-28.542,5.422-55.126,5.422-27.416,0-50.3-2.452-55.665-5.716l51.76,41.122v34.6a3.739,3.739,0,0,0,7.478,0V68.412Z" transform="translate(0.048 1.147)" fill="#fff"/><path d="M22.25,38.582l68.989-.1L56.048,64.9Z" transform="translate(0.94 1.626)" fill="#ea8000"/><path d="M91.412,38.206c0,2.091-15.567,3.786-34.772,3.786s-34.767-1.7-34.767-3.786S37.44,34.417,56.64,34.417s34.772,1.695,34.772,3.789" transform="translate(0.924 1.454)" fill="#ff9e16"/><path d="M87.46,46.391A24.8,24.8,0,1,0,76.348,33.062s18.526-.877,29.561-3.329Z" transform="translate(3.166 0)" fill="#ffb93e"/><path d="M82.421,14.705S78.743,19.916,79.662,28.5L100.2,27.273Z" transform="translate(3.359 0.621)" fill="#ea8000"/><path d="M101.439,26.163,86.42,11.308s1.877-6.6,13.142-6.6Z" transform="translate(3.65 0.199)" fill="#ea8000"/><path d="M102.889,25.449l3.065-18.39s8.89,2.758,9.5,7.969Z" transform="translate(4.346 0.298)" fill="#ea8000"/><path d="M104.948,27.563l12.261-5.211s3.372,7.663-1.533,11.954Z" transform="translate(4.433 0.944)" fill="#ea8000"/><path d="M105.428,31.763l5.824,7.664s-5.518,4.6-10.422,3.678Z" transform="translate(4.259 1.342)" fill="#ea8000"/></g></g></svg>