<svg xmlns="http://www.w3.org/2000/svg" xmlns:xlink="http://www.w3.org/1999/xlink" width="284.676" height="25" viewBox="0 0 284.676 25"><defs><clipPath id="a"><rect x="10" y="88" width="284.676" height="25" fill="none"/></clipPath><clipPath id="b"><rect width="296.676" height="554" fill="none"/></clipPath></defs><g transform="translate(-10 -88)" clip-path="url(#a)" style="isolation:isolate"><g opacity="0.15" clip-path="url(#b)"><g transform="translate(0 0)"><path d="M4.326,0,2.99,2.709,0,3.144,2.162,5.252,1.652,8.23,4.326,6.824,7,8.23,6.49,5.252,8.652,3.144,5.663,2.709Z" fill="#49aa9d"/><path d="M14.731,14.92l-2.99.435,2.164,2.108-.511,2.978,2.674-1.406,2.673,1.406-.51-2.978L20.4,15.355l-2.99-.435-1.337-2.709Z" fill="#49aa9d"/><path d="M27.732,0,26.395,2.709l-2.99.435,2.163,2.108-.51,2.978,2.674-1.406L30.406,8.23l-.511-2.978,2.163-2.108-2.989-.435Z" fill="#49aa9d"/><path d="M38.057,14.92l-2.989.435,2.163,2.108-.511,2.978,2.674-1.406,2.674,1.406-.51-2.978,2.163-2.108-2.989-.435-1.338-2.709Z" fill="#49aa9d"/><path d="M51.058,0,49.721,2.709l-2.989.435,2.162,2.108-.51,2.978,2.674-1.406L53.732,8.23l-.51-2.978,2.162-2.108-2.989-.435Z" fill="#49aa9d"/><path d="M61.563,14.92l-2.99.435,2.163,2.108-.51,2.978L62.9,19.035l2.673,1.406-.51-2.978,2.164-2.108-2.99-.435L62.9,12.211Z" fill="#49aa9d"/><path d="M74.619,0,73.282,2.709l-2.989.435,2.162,2.108-.51,2.978,2.674-1.406L77.293,8.23l-.51-2.978,2.163-2.108-2.99-.435Z" fill="#49aa9d"/><path d="M108.35,14.92l-2.989.435,2.163,2.108-.511,2.978,2.674-1.406,2.674,1.406-.51-2.978,2.163-2.108-2.989-.435-1.338-2.709Z" fill="#49aa9d"/><path d="M85.1,14.92l-2.99.435,2.164,2.108-.511,2.978,2.674-1.406,2.674,1.406L88.6,17.463l2.164-2.108-2.99-.435-1.337-2.709Z" fill="#49aa9d"/><path d="M98.024,0,96.687,2.709,93.7,3.144,95.86,5.252,95.35,8.23l2.674-1.406L100.7,8.23l-.51-2.978,2.162-2.108-2.989-.435Z" fill="#49aa9d"/></g><g transform="translate(119 0)"><path d="M4.326,0,2.99,2.709,0,3.144,2.162,5.252,1.652,8.23,4.326,6.824,7,8.23,6.49,5.252,8.652,3.144,5.663,2.709Z" fill="#49aa9d"/><path d="M14.731,14.92l-2.99.435,2.164,2.108-.511,2.978,2.674-1.406,2.673,1.406-.51-2.978L20.4,15.355l-2.99-.435-1.337-2.709Z" fill="#49aa9d"/><path d="M27.732,0,26.395,2.709l-2.99.435,2.163,2.108-.51,2.978,2.674-1.406L30.406,8.23l-.511-2.978,2.163-2.108-2.989-.435Z" fill="#49aa9d"/><path d="M38.057,14.92l-2.989.435,2.163,2.108-.511,2.978,2.674-1.406,2.674,1.406-.51-2.978,2.163-2.108-2.989-.435-1.338-2.709Z" fill="#49aa9d"/><path d="M51.058,0,49.721,2.709l-2.989.435,2.162,2.108-.51,2.978,2.674-1.406L53.732,8.23l-.51-2.978,2.162-2.108-2.989-.435Z" fill="#49aa9d"/><path d="M61.563,14.92l-2.99.435,2.163,2.108-.51,2.978L62.9,19.035l2.673,1.406-.51-2.978,2.164-2.108-2.99-.435L62.9,12.211Z" fill="#49aa9d"/><path d="M74.619,0,73.282,2.709l-2.989.435,2.162,2.108-.51,2.978,2.674-1.406L77.293,8.23l-.51-2.978,2.163-2.108-2.99-.435Z" fill="#49aa9d"/><path d="M108.35,14.92l-2.989.435,2.163,2.108-.511,2.978,2.674-1.406,2.674,1.406-.51-2.978,2.163-2.108-2.989-.435-1.338-2.709Z" fill="#49aa9d"/><path d="M85.1,14.92l-2.99.435,2.164,2.108-.511,2.978,2.674-1.406,2.674,1.406L88.6,17.463l2.164-2.108-2.99-.435-1.337-2.709Z" fill="#49aa9d"/><path d="M98.024,0,96.687,2.709,93.7,3.144,95.86,5.252,95.35,8.23l2.674-1.406L100.7,8.23l-.51-2.978,2.162-2.108-2.989-.435Z" fill="#49aa9d"/></g><g transform="translate(238 0)"><path d="M4.326,0,2.99,2.709,0,3.144,2.162,5.252,1.652,8.23,4.326,6.824,7,8.23,6.49,5.252,8.652,3.144,5.663,2.709Z" fill="#49aa9d"/><path d="M14.731,14.92l-2.99.435,2.164,2.108-.511,2.978,2.674-1.406,2.673,1.406-.51-2.978L20.4,15.355l-2.99-.435-1.337-2.709Z" fill="#49aa9d"/><path d="M27.732,0,26.395,2.709l-2.99.435,2.163,2.108-.51,2.978,2.674-1.406L30.406,8.23l-.511-2.978,2.163-2.108-2.989-.435Z" fill="#49aa9d"/><path d="M38.057,14.92l-2.989.435,2.163,2.108-.511,2.978,2.674-1.406,2.674,1.406-.51-2.978,2.163-2.108-2.989-.435-1.338-2.709Z" fill="#49aa9d"/><path d="M51.058,0,49.721,2.709l-2.989.435,2.162,2.108-.51,2.978,2.674-1.406L53.732,8.23l-.51-2.978,2.162-2.108-2.989-.435Z" fill="#49aa9d"/><path d="M61.563,14.92l-2.99.435,2.163,2.108-.51,2.978L62.9,19.035l2.673,1.406-.51-2.978,2.164-2.108-2.99-.435L62.9,12.211Z" fill="#49aa9d"/><path d="M74.619,0,73.282,2.709l-2.989.435,2.162,2.108-.51,2.978,2.674-1.406L77.293,8.23l-.51-2.978,2.163-2.108-2.99-.435Z" fill="#49aa9d"/><path d="M108.35,14.92l-2.989.435,2.163,2.108-.511,2.978,2.674-1.406,2.674,1.406-.51-2.978,2.163-2.108-2.989-.435-1.338-2.709Z" fill="#49aa9d"/><path d="M85.1,14.92l-2.99.435,2.164,2.108-.511,2.978,2.674-1.406,2.674,1.406L88.6,17.463l2.164-2.108-2.99-.435-1.337-2.709Z" fill="#49aa9d"/><path d="M98.024,0,96.687,2.709,93.7,3.144,95.86,5.252,95.35,8.23l2.674-1.406L100.7,8.23l-.51-2.978,2.162-2.108-2.989-.435Z" fill="#49aa9d"/></g><g transform="translate(0 30)"><path d="M4.326,0,2.99,2.709,0,3.144,2.162,5.252,1.652,8.23,4.326,6.824,7,8.23,6.49,5.252,8.652,3.144,5.663,2.709Z" fill="#49aa9d"/><path d="M14.731,14.92l-2.99.435,2.164,2.108-.511,2.978,2.674-1.406,2.673,1.406-.51-2.978L20.4,15.355l-2.99-.435-1.337-2.709Z" fill="#49aa9d"/><path d="M27.732,0,26.395,2.709l-2.99.435,2.163,2.108-.51,2.978,2.674-1.406L30.406,8.23l-.511-2.978,2.163-2.108-2.989-.435Z" fill="#49aa9d"/><path d="M38.057,14.92l-2.989.435,2.163,2.108-.511,2.978,2.674-1.406,2.674,1.406-.51-2.978,2.163-2.108-2.989-.435-1.338-2.709Z" fill="#49aa9d"/><path d="M51.058,0,49.721,2.709l-2.989.435,2.162,2.108-.51,2.978,2.674-1.406L53.732,8.23l-.51-2.978,2.162-2.108-2.989-.435Z" fill="#49aa9d"/><path d="M61.563,14.92l-2.99.435,2.163,2.108-.51,2.978L62.9,19.035l2.673,1.406-.51-2.978,2.164-2.108-2.99-.435L62.9,12.211Z" fill="#49aa9d"/><path d="M74.619,0,73.282,2.709l-2.989.435,2.162,2.108-.51,2.978,2.674-1.406L77.293,8.23l-.51-2.978,2.163-2.108-2.99-.435Z" fill="#49aa9d"/><path d="M108.35,14.92l-2.989.435,2.163,2.108-.511,2.978,2.674-1.406,2.674,1.406-.51-2.978,2.163-2.108-2.989-.435-1.338-2.709Z" fill="#49aa9d"/><path d="M85.1,14.92l-2.99.435,2.164,2.108-.511,2.978,2.674-1.406,2.674,1.406L88.6,17.463l2.164-2.108-2.99-.435-1.337-2.709Z" fill="#49aa9d"/><path d="M98.024,0,96.687,2.709,93.7,3.144,95.86,5.252,95.35,8.23l2.674-1.406L100.7,8.23l-.51-2.978,2.162-2.108-2.989-.435Z" fill="#49aa9d"/></g><g transform="translate(119 30)"><path d="M4.326,0,2.99,2.709,0,3.144,2.162,5.252,1.652,8.23,4.326,6.824,7,8.23,6.49,5.252,8.652,3.144,5.663,2.709Z" fill="#49aa9d"/><path d="M14.731,14.92l-2.99.435,2.164,2.108-.511,2.978,2.674-1.406,2.673,1.406-.51-2.978L20.4,15.355l-2.99-.435-1.337-2.709Z" fill="#49aa9d"/><path d="M27.732,0,26.395,2.709l-2.99.435,2.163,2.108-.51,2.978,2.674-1.406L30.406,8.23l-.511-2.978,2.163-2.108-2.989-.435Z" fill="#49aa9d"/><path d="M38.057,14.92l-2.989.435,2.163,2.108-.511,2.978,2.674-1.406,2.674,1.406-.51-2.978,2.163-2.108-2.989-.435-1.338-2.709Z" fill="#49aa9d"/><path d="M51.058,0,49.721,2.709l-2.989.435,2.162,2.108-.51,2.978,2.674-1.406L53.732,8.23l-.51-2.978,2.162-2.108-2.989-.435Z" fill="#49aa9d"/><path d="M61.563,14.92l-2.99.435,2.163,2.108-.51,2.978L62.9,19.035l2.673,1.406-.51-2.978,2.164-2.108-2.99-.435L62.9,12.211Z" fill="#49aa9d"/><path d="M74.619,0,73.282,2.709l-2.989.435,2.162,2.108-.51,2.978,2.674-1.406L77.293,8.23l-.51-2.978,2.163-2.108-2.99-.435Z" fill="#49aa9d"/><path d="M108.35,14.92l-2.989.435,2.163,2.108-.511,2.978,2.674-1.406,2.674,1.406-.51-2.978,2.163-2.108-2.989-.435-1.338-2.709Z" fill="#49aa9d"/><path d="M85.1,14.92l-2.99.435,2.164,2.108-.511,2.978,2.674-1.406,2.674,1.406L88.6,17.463l2.164-2.108-2.99-.435-1.337-2.709Z" fill="#49aa9d"/><path d="M98.024,0,96.687,2.709,93.7,3.144,95.86,5.252,95.35,8.23l2.674-1.406L100.7,8.23l-.51-2.978,2.162-2.108-2.989-.435Z" fill="#49aa9d"/></g><g transform="translate(238 30)"><path d="M4.326,0,2.99,2.709,0,3.144,2.162,5.252,1.652,8.23,4.326,6.824,7,8.23,6.49,5.252,8.652,3.144,5.663,2.709Z" fill="#49aa9d"/><path d="M14.731,14.92l-2.99.435,2.164,2.108-.511,2.978,2.674-1.406,2.673,1.406-.51-2.978L20.4,15.355l-2.99-.435-1.337-2.709Z" fill="#49aa9d"/><path d="M27.732,0,26.395,2.709l-2.99.435,2.163,2.108-.51,2.978,2.674-1.406L30.406,8.23l-.511-2.978,2.163-2.108-2.989-.435Z" fill="#49aa9d"/><path d="M38.057,14.92l-2.989.435,2.163,2.108-.511,2.978,2.674-1.406,2.674,1.406-.51-2.978,2.163-2.108-2.989-.435-1.338-2.709Z" fill="#49aa9d"/><path d="M51.058,0,49.721,2.709l-2.989.435,2.162,2.108-.51,2.978,2.674-1.406L53.732,8.23l-.51-2.978,2.162-2.108-2.989-.435Z" fill="#49aa9d"/><path d="M61.563,14.92l-2.99.435,2.163,2.108-.51,2.978L62.9,19.035l2.673,1.406-.51-2.978,2.164-2.108-2.99-.435L62.9,12.211Z" fill="#49aa9d"/><path d="M74.619,0,73.282,2.709l-2.989.435,2.162,2.108-.51,2.978,2.674-1.406L77.293,8.23l-.51-2.978,2.163-2.108-2.99-.435Z" fill="#49aa9d"/><path d="M108.35,14.92l-2.989.435,2.163,2.108-.511,2.978,2.674-1.406,2.674,1.406-.51-2.978,2.163-2.108-2.989-.435-1.338-2.709Z" fill="#49aa9d"/><path d="M85.1,14.92l-2.99.435,2.164,2.108-.511,2.978,2.674-1.406,2.674,1.406L88.6,17.463l2.164-2.108-2.99-.435-1.337-2.709Z" fill="#49aa9d"/><path d="M98.024,0,96.687,2.709,93.7,3.144,95.86,5.252,95.35,8.23l2.674-1.406L100.7,8.23l-.51-2.978,2.162-2.108-2.989-.435Z" fill="#49aa9d"/></g><g transform="translate(0 60)"><path d="M4.326,0,2.99,2.709,0,3.144,2.162,5.252,1.652,8.23,4.326,6.824,7,8.23,6.49,5.252,8.652,3.144,5.663,2.709Z" fill="#49aa9d"/><path d="M14.731,14.92l-2.99.435,2.164,2.108-.511,2.978,2.674-1.406,2.673,1.406-.51-2.978L20.4,15.355l-2.99-.435-1.337-2.709Z" fill="#49aa9d"/><path d="M27.732,0,26.395,2.709l-2.99.435,2.163,2.108-.51,2.978,2.674-1.406L30.406,8.23l-.511-2.978,2.163-2.108-2.989-.435Z" fill="#49aa9d"/><path d="M38.057,14.92l-2.989.435,2.163,2.108-.511,2.978,2.674-1.406,2.674,1.406-.51-2.978,2.163-2.108-2.989-.435-1.338-2.709Z" fill="#49aa9d"/><path d="M51.058,0,49.721,2.709l-2.989.435,2.162,2.108-.51,2.978,2.674-1.406L53.732,8.23l-.51-2.978,2.162-2.108-2.989-.435Z" fill="#49aa9d"/><path d="M61.563,14.92l-2.99.435,2.163,2.108-.51,2.978L62.9,19.035l2.673,1.406-.51-2.978,2.164-2.108-2.99-.435L62.9,12.211Z" fill="#49aa9d"/><path d="M74.619,0,73.282,2.709l-2.989.435,2.162,2.108-.51,2.978,2.674-1.406L77.293,8.23l-.51-2.978,2.163-2.108-2.99-.435Z" fill="#49aa9d"/><path d="M108.35,14.92l-2.989.435,2.163,2.108-.511,2.978,2.674-1.406,2.674,1.406-.51-2.978,2.163-2.108-2.989-.435-1.338-2.709Z" fill="#49aa9d"/><path d="M85.1,14.92l-2.99.435,2.164,2.108-.511,2.978,2.674-1.406,2.674,1.406L88.6,17.463l2.164-2.108-2.99-.435-1.337-2.709Z" fill="#49aa9d"/><path d="M98.024,0,96.687,2.709,93.7,3.144,95.86,5.252,95.35,8.23l2.674-1.406L100.7,8.23l-.51-2.978,2.162-2.108-2.989-.435Z" fill="#49aa9d"/></g><g transform="translate(119 60)"><path d="M4.326,0,2.99,2.709,0,3.144,2.162,5.252,1.652,8.23,4.326,6.824,7,8.23,6.49,5.252,8.652,3.144,5.663,2.709Z" fill="#49aa9d"/><path d="M14.731,14.92l-2.99.435,2.164,2.108-.511,2.978,2.674-1.406,2.673,1.406-.51-2.978L20.4,15.355l-2.99-.435-1.337-2.709Z" fill="#49aa9d"/><path d="M27.732,0,26.395,2.709l-2.99.435,2.163,2.108-.51,2.978,2.674-1.406L30.406,8.23l-.511-2.978,2.163-2.108-2.989-.435Z" fill="#49aa9d"/><path d="M38.057,14.92l-2.989.435,2.163,2.108-.511,2.978,2.674-1.406,2.674,1.406-.51-2.978,2.163-2.108-2.989-.435-1.338-2.709Z" fill="#49aa9d"/><path d="M51.058,0,49.721,2.709l-2.989.435,2.162,2.108-.51,2.978,2.674-1.406L53.732,8.23l-.51-2.978,2.162-2.108-2.989-.435Z" fill="#49aa9d"/><path d="M61.563,14.92l-2.99.435,2.163,2.108-.51,2.978L62.9,19.035l2.673,1.406-.51-2.978,2.164-2.108-2.99-.435L62.9,12.211Z" fill="#49aa9d"/><path d="M74.619,0,73.282,2.709l-2.989.435,2.162,2.108-.51,2.978,2.674-1.406L77.293,8.23l-.51-2.978,2.163-2.108-2.99-.435Z" fill="#49aa9d"/><path d="M108.35,14.92l-2.989.435,2.163,2.108-.511,2.978,2.674-1.406,2.674,1.406-.51-2.978,2.163-2.108-2.989-.435-1.338-2.709Z" fill="#49aa9d"/><path d="M85.1,14.92l-2.99.435,2.164,2.108-.511,2.978,2.674-1.406,2.674,1.406L88.6,17.463l2.164-2.108-2.99-.435-1.337-2.709Z" fill="#49aa9d"/><path d="M98.024,0,96.687,2.709,93.7,3.144,95.86,5.252,95.35,8.23l2.674-1.406L100.7,8.23l-.51-2.978,2.162-2.108-2.989-.435Z" fill="#49aa9d"/></g><g transform="translate(238 60)"><path d="M4.326,0,2.99,2.709,0,3.144,2.162,5.252,1.652,8.23,4.326,6.824,7,8.23,6.49,5.252,8.652,3.144,5.663,2.709Z" fill="#49aa9d"/><path d="M14.731,14.92l-2.99.435,2.164,2.108-.511,2.978,2.674-1.406,2.673,1.406-.51-2.978L20.4,15.355l-2.99-.435-1.337-2.709Z" fill="#49aa9d"/><path d="M27.732,0,26.395,2.709l-2.99.435,2.163,2.108-.51,2.978,2.674-1.406L30.406,8.23l-.511-2.978,2.163-2.108-2.989-.435Z" fill="#49aa9d"/><path d="M38.057,14.92l-2.989.435,2.163,2.108-.511,2.978,2.674-1.406,2.674,1.406-.51-2.978,2.163-2.108-2.989-.435-1.338-2.709Z" fill="#49aa9d"/><path d="M51.058,0,49.721,2.709l-2.989.435,2.162,2.108-.51,2.978,2.674-1.406L53.732,8.23l-.51-2.978,2.162-2.108-2.989-.435Z" fill="#49aa9d"/><path d="M61.563,14.92l-2.99.435,2.163,2.108-.51,2.978L62.9,19.035l2.673,1.406-.51-2.978,2.164-2.108-2.99-.435L62.9,12.211Z" fill="#49aa9d"/><path d="M74.619,0,73.282,2.709l-2.989.435,2.162,2.108-.51,2.978,2.674-1.406L77.293,8.23l-.51-2.978,2.163-2.108-2.99-.435Z" fill="#49aa9d"/><path d="M108.35,14.92l-2.989.435,2.163,2.108-.511,2.978,2.674-1.406,2.674,1.406-.51-2.978,2.163-2.108-2.989-.435-1.338-2.709Z" fill="#49aa9d"/><path d="M85.1,14.92l-2.99.435,2.164,2.108-.511,2.978,2.674-1.406,2.674,1.406L88.6,17.463l2.164-2.108-2.99-.435-1.337-2.709Z" fill="#49aa9d"/><path d="M98.024,0,96.687,2.709,93.7,3.144,95.86,5.252,95.35,8.23l2.674-1.406L100.7,8.23l-.51-2.978,2.162-2.108-2.989-.435Z" fill="#49aa9d"/></g><g transform="translate(0 90)"><path d="M4.326,0,2.99,2.709,0,3.144,2.162,5.252,1.652,8.23,4.326,6.824,7,8.23,6.49,5.252,8.652,3.144,5.663,2.709Z" fill="#49aa9d"/><path d="M14.731,14.92l-2.99.435,2.164,2.108-.511,2.978,2.674-1.406,2.673,1.406-.51-2.978L20.4,15.355l-2.99-.435-1.337-2.709Z" fill="#49aa9d"/><path d="M27.732,0,26.395,2.709l-2.99.435,2.163,2.108-.51,2.978,2.674-1.406L30.406,8.23l-.511-2.978,2.163-2.108-2.989-.435Z" fill="#49aa9d"/><path d="M38.057,14.92l-2.989.435,2.163,2.108-.511,2.978,2.674-1.406,2.674,1.406-.51-2.978,2.163-2.108-2.989-.435-1.338-2.709Z" fill="#49aa9d"/><path d="M51.058,0,49.721,2.709l-2.989.435,2.162,2.108-.51,2.978,2.674-1.406L53.732,8.23l-.51-2.978,2.162-2.108-2.989-.435Z" fill="#49aa9d"/><path d="M61.563,14.92l-2.99.435,2.163,2.108-.51,2.978L62.9,19.035l2.673,1.406-.51-2.978,2.164-2.108-2.99-.435L62.9,12.211Z" fill="#49aa9d"/><path d="M74.619,0,73.282,2.709l-2.989.435,2.162,2.108-.51,2.978,2.674-1.406L77.293,8.23l-.51-2.978,2.163-2.108-2.99-.435Z" fill="#49aa9d"/><path d="M108.35,14.92l-2.989.435,2.163,2.108-.511,2.978,2.674-1.406,2.674,1.406-.51-2.978,2.163-2.108-2.989-.435-1.338-2.709Z" fill="#49aa9d"/><path d="M85.1,14.92l-2.99.435,2.164,2.108-.511,2.978,2.674-1.406,2.674,1.406L88.6,17.463l2.164-2.108-2.99-.435-1.337-2.709Z" fill="#49aa9d"/><path d="M98.024,0,96.687,2.709,93.7,3.144,95.86,5.252,95.35,8.23l2.674-1.406L100.7,8.23l-.51-2.978,2.162-2.108-2.989-.435Z" fill="#49aa9d"/></g><g transform="translate(119 90)"><path d="M4.326,0,2.99,2.709,0,3.144,2.162,5.252,1.652,8.23,4.326,6.824,7,8.23,6.49,5.252,8.652,3.144,5.663,2.709Z" fill="#49aa9d"/><path d="M14.731,14.92l-2.99.435,2.164,2.108-.511,2.978,2.674-1.406,2.673,1.406-.51-2.978L20.4,15.355l-2.99-.435-1.337-2.709Z" fill="#49aa9d"/><path d="M27.732,0,26.395,2.709l-2.99.435,2.163,2.108-.51,2.978,2.674-1.406L30.406,8.23l-.511-2.978,2.163-2.108-2.989-.435Z" fill="#49aa9d"/><path d="M38.057,14.92l-2.989.435,2.163,2.108-.511,2.978,2.674-1.406,2.674,1.406-.51-2.978,2.163-2.108-2.989-.435-1.338-2.709Z" fill="#49aa9d"/><path d="M51.058,0,49.721,2.709l-2.989.435,2.162,2.108-.51,2.978,2.674-1.406L53.732,8.23l-.51-2.978,2.162-2.108-2.989-.435Z" fill="#49aa9d"/><path d="M61.563,14.92l-2.99.435,2.163,2.108-.51,2.978L62.9,19.035l2.673,1.406-.51-2.978,2.164-2.108-2.99-.435L62.9,12.211Z" fill="#49aa9d"/><path d="M74.619,0,73.282,2.709l-2.989.435,2.162,2.108-.51,2.978,2.674-1.406L77.293,8.23l-.51-2.978,2.163-2.108-2.99-.435Z" fill="#49aa9d"/><path d="M108.35,14.92l-2.989.435,2.163,2.108-.511,2.978,2.674-1.406,2.674,1.406-.51-2.978,2.163-2.108-2.989-.435-1.338-2.709Z" fill="#49aa9d"/><path d="M85.1,14.92l-2.99.435,2.164,2.108-.511,2.978,2.674-1.406,2.674,1.406L88.6,17.463l2.164-2.108-2.99-.435-1.337-2.709Z" fill="#49aa9d"/><path d="M98.024,0,96.687,2.709,93.7,3.144,95.86,5.252,95.35,8.23l2.674-1.406L100.7,8.23l-.51-2.978,2.162-2.108-2.989-.435Z" fill="#49aa9d"/></g><g transform="translate(238 90)"><path d="M4.326,0,2.99,2.709,0,3.144,2.162,5.252,1.652,8.23,4.326,6.824,7,8.23,6.49,5.252,8.652,3.144,5.663,2.709Z" fill="#49aa9d"/><path d="M14.731,14.92l-2.99.435,2.164,2.108-.511,2.978,2.674-1.406,2.673,1.406-.51-2.978L20.4,15.355l-2.99-.435-1.337-2.709Z" fill="#49aa9d"/><path d="M27.732,0,26.395,2.709l-2.99.435,2.163,2.108-.51,2.978,2.674-1.406L30.406,8.23l-.511-2.978,2.163-2.108-2.989-.435Z" fill="#49aa9d"/><path d="M38.057,14.92l-2.989.435,2.163,2.108-.511,2.978,2.674-1.406,2.674,1.406-.51-2.978,2.163-2.108-2.989-.435-1.338-2.709Z" fill="#49aa9d"/><path d="M51.058,0,49.721,2.709l-2.989.435,2.162,2.108-.51,2.978,2.674-1.406L53.732,8.23l-.51-2.978,2.162-2.108-2.989-.435Z" fill="#49aa9d"/><path d="M61.563,14.92l-2.99.435,2.163,2.108-.51,2.978L62.9,19.035l2.673,1.406-.51-2.978,2.164-2.108-2.99-.435L62.9,12.211Z" fill="#49aa9d"/><path d="M74.619,0,73.282,2.709l-2.989.435,2.162,2.108-.51,2.978,2.674-1.406L77.293,8.23l-.51-2.978,2.163-2.108-2.99-.435Z" fill="#49aa9d"/><path d="M108.35,14.92l-2.989.435,2.163,2.108-.511,2.978,2.674-1.406,2.674,1.406-.51-2.978,2.163-2.108-2.989-.435-1.338-2.709Z" fill="#49aa9d"/><path d="M85.1,14.92l-2.99.435,2.164,2.108-.511,2.978,2.674-1.406,2.674,1.406L88.6,17.463l2.164-2.108-2.99-.435-1.337-2.709Z" fill="#49aa9d"/><path d="M98.024,0,96.687,2.709,93.7,3.144,95.86,5.252,95.35,8.23l2.674-1.406L100.7,8.23l-.51-2.978,2.162-2.108-2.989-.435Z" fill="#49aa9d"/></g><g transform="translate(0 120)"><path d="M4.326,0,2.99,2.709,0,3.144,2.162,5.252,1.652,8.23,4.326,6.824,7,8.23,6.49,5.252,8.652,3.144,5.663,2.709Z" fill="#49aa9d"/><path d="M14.731,14.92l-2.99.435,2.164,2.108-.511,2.978,2.674-1.406,2.673,1.406-.51-2.978L20.4,15.355l-2.99-.435-1.337-2.709Z" fill="#49aa9d"/><path d="M27.732,0,26.395,2.709l-2.99.435,2.163,2.108-.51,2.978,2.674-1.406L30.406,8.23l-.511-2.978,2.163-2.108-2.989-.435Z" fill="#49aa9d"/><path d="M38.057,14.92l-2.989.435,2.163,2.108-.511,2.978,2.674-1.406,2.674,1.406-.51-2.978,2.163-2.108-2.989-.435-1.338-2.709Z" fill="#49aa9d"/><path d="M51.058,0,49.721,2.709l-2.989.435,2.162,2.108-.51,2.978,2.674-1.406L53.732,8.23l-.51-2.978,2.162-2.108-2.989-.435Z" fill="#49aa9d"/><path d="M61.563,14.92l-2.99.435,2.163,2.108-.51,2.978L62.9,19.035l2.673,1.406-.51-2.978,2.164-2.108-2.99-.435L62.9,12.211Z" fill="#49aa9d"/><path d="M74.619,0,73.282,2.709l-2.989.435,2.162,2.108-.51,2.978,2.674-1.406L77.293,8.23l-.51-2.978,2.163-2.108-2.99-.435Z" fill="#49aa9d"/><path d="M108.35,14.92l-2.989.435,2.163,2.108-.511,2.978,2.674-1.406,2.674,1.406-.51-2.978,2.163-2.108-2.989-.435-1.338-2.709Z" fill="#49aa9d"/><path d="M85.1,14.92l-2.99.435,2.164,2.108-.511,2.978,2.674-1.406,2.674,1.406L88.6,17.463l2.164-2.108-2.99-.435-1.337-2.709Z" fill="#49aa9d"/><path d="M98.024,0,96.687,2.709,93.7,3.144,95.86,5.252,95.35,8.23l2.674-1.406L100.7,8.23l-.51-2.978,2.162-2.108-2.989-.435Z" fill="#49aa9d"/></g><g transform="translate(119 120)"><path d="M4.326,0,2.99,2.709,0,3.144,2.162,5.252,1.652,8.23,4.326,6.824,7,8.23,6.49,5.252,8.652,3.144,5.663,2.709Z" fill="#49aa9d"/><path d="M14.731,14.92l-2.99.435,2.164,2.108-.511,2.978,2.674-1.406,2.673,1.406-.51-2.978L20.4,15.355l-2.99-.435-1.337-2.709Z" fill="#49aa9d"/><path d="M27.732,0,26.395,2.709l-2.99.435,2.163,2.108-.51,2.978,2.674-1.406L30.406,8.23l-.511-2.978,2.163-2.108-2.989-.435Z" fill="#49aa9d"/><path d="M38.057,14.92l-2.989.435,2.163,2.108-.511,2.978,2.674-1.406,2.674,1.406-.51-2.978,2.163-2.108-2.989-.435-1.338-2.709Z" fill="#49aa9d"/><path d="M51.058,0,49.721,2.709l-2.989.435,2.162,2.108-.51,2.978,2.674-1.406L53.732,8.23l-.51-2.978,2.162-2.108-2.989-.435Z" fill="#49aa9d"/><path d="M61.563,14.92l-2.99.435,2.163,2.108-.51,2.978L62.9,19.035l2.673,1.406-.51-2.978,2.164-2.108-2.99-.435L62.9,12.211Z" fill="#49aa9d"/><path d="M74.619,0,73.282,2.709l-2.989.435,2.162,2.108-.51,2.978,2.674-1.406L77.293,8.23l-.51-2.978,2.163-2.108-2.99-.435Z" fill="#49aa9d"/><path d="M108.35,14.92l-2.989.435,2.163,2.108-.511,2.978,2.674-1.406,2.674,1.406-.51-2.978,2.163-2.108-2.989-.435-1.338-2.709Z" fill="#49aa9d"/><path d="M85.1,14.92l-2.99.435,2.164,2.108-.511,2.978,2.674-1.406,2.674,1.406L88.6,17.463l2.164-2.108-2.99-.435-1.337-2.709Z" fill="#49aa9d"/><path d="M98.024,0,96.687,2.709,93.7,3.144,95.86,5.252,95.35,8.23l2.674-1.406L100.7,8.23l-.51-2.978,2.162-2.108-2.989-.435Z" fill="#49aa9d"/></g><g transform="translate(238 120)"><path d="M4.326,0,2.99,2.709,0,3.144,2.162,5.252,1.652,8.23,4.326,6.824,7,8.23,6.49,5.252,8.652,3.144,5.663,2.709Z" fill="#49aa9d"/><path d="M14.731,14.92l-2.99.435,2.164,2.108-.511,2.978,2.674-1.406,2.673,1.406-.51-2.978L20.4,15.355l-2.99-.435-1.337-2.709Z" fill="#49aa9d"/><path d="M27.732,0,26.395,2.709l-2.99.435,2.163,2.108-.51,2.978,2.674-1.406L30.406,8.23l-.511-2.978,2.163-2.108-2.989-.435Z" fill="#49aa9d"/><path d="M38.057,14.92l-2.989.435,2.163,2.108-.511,2.978,2.674-1.406,2.674,1.406-.51-2.978,2.163-2.108-2.989-.435-1.338-2.709Z" fill="#49aa9d"/><path d="M51.058,0,49.721,2.709l-2.989.435,2.162,2.108-.51,2.978,2.674-1.406L53.732,8.23l-.51-2.978,2.162-2.108-2.989-.435Z" fill="#49aa9d"/><path d="M61.563,14.92l-2.99.435,2.163,2.108-.51,2.978L62.9,19.035l2.673,1.406-.51-2.978,2.164-2.108-2.99-.435L62.9,12.211Z" fill="#49aa9d"/><path d="M74.619,0,73.282,2.709l-2.989.435,2.162,2.108-.51,2.978,2.674-1.406L77.293,8.23l-.51-2.978,2.163-2.108-2.99-.435Z" fill="#49aa9d"/><path d="M108.35,14.92l-2.989.435,2.163,2.108-.511,2.978,2.674-1.406,2.674,1.406-.51-2.978,2.163-2.108-2.989-.435-1.338-2.709Z" fill="#49aa9d"/><path d="M85.1,14.92l-2.99.435,2.164,2.108-.511,2.978,2.674-1.406,2.674,1.406L88.6,17.463l2.164-2.108-2.99-.435-1.337-2.709Z" fill="#49aa9d"/><path d="M98.024,0,96.687,2.709,93.7,3.144,95.86,5.252,95.35,8.23l2.674-1.406L100.7,8.23l-.51-2.978,2.162-2.108-2.989-.435Z" fill="#49aa9d"/></g><g transform="translate(0 150)"><path d="M4.326,0,2.99,2.709,0,3.144,2.162,5.252,1.652,8.23,4.326,6.824,7,8.23,6.49,5.252,8.652,3.144,5.663,2.709Z" fill="#49aa9d"/><path d="M14.731,14.92l-2.99.435,2.164,2.108-.511,2.978,2.674-1.406,2.673,1.406-.51-2.978L20.4,15.355l-2.99-.435-1.337-2.709Z" fill="#49aa9d"/><path d="M27.732,0,26.395,2.709l-2.99.435,2.163,2.108-.51,2.978,2.674-1.406L30.406,8.23l-.511-2.978,2.163-2.108-2.989-.435Z" fill="#49aa9d"/><path d="M38.057,14.92l-2.989.435,2.163,2.108-.511,2.978,2.674-1.406,2.674,1.406-.51-2.978,2.163-2.108-2.989-.435-1.338-2.709Z" fill="#49aa9d"/><path d="M51.058,0,49.721,2.709l-2.989.435,2.162,2.108-.51,2.978,2.674-1.406L53.732,8.23l-.51-2.978,2.162-2.108-2.989-.435Z" fill="#49aa9d"/><path d="M61.563,14.92l-2.99.435,2.163,2.108-.51,2.978L62.9,19.035l2.673,1.406-.51-2.978,2.164-2.108-2.99-.435L62.9,12.211Z" fill="#49aa9d"/><path d="M74.619,0,73.282,2.709l-2.989.435,2.162,2.108-.51,2.978,2.674-1.406L77.293,8.23l-.51-2.978,2.163-2.108-2.99-.435Z" fill="#49aa9d"/><path d="M108.35,14.92l-2.989.435,2.163,2.108-.511,2.978,2.674-1.406,2.674,1.406-.51-2.978,2.163-2.108-2.989-.435-1.338-2.709Z" fill="#49aa9d"/><path d="M85.1,14.92l-2.99.435,2.164,2.108-.511,2.978,2.674-1.406,2.674,1.406L88.6,17.463l2.164-2.108-2.99-.435-1.337-2.709Z" fill="#49aa9d"/><path d="M98.024,0,96.687,2.709,93.7,3.144,95.86,5.252,95.35,8.23l2.674-1.406L100.7,8.23l-.51-2.978,2.162-2.108-2.989-.435Z" fill="#49aa9d"/></g><g transform="translate(119 150)"><path d="M4.326,0,2.99,2.709,0,3.144,2.162,5.252,1.652,8.23,4.326,6.824,7,8.23,6.49,5.252,8.652,3.144,5.663,2.709Z" fill="#49aa9d"/><path d="M14.731,14.92l-2.99.435,2.164,2.108-.511,2.978,2.674-1.406,2.673,1.406-.51-2.978L20.4,15.355l-2.99-.435-1.337-2.709Z" fill="#49aa9d"/><path d="M27.732,0,26.395,2.709l-2.99.435,2.163,2.108-.51,2.978,2.674-1.406L30.406,8.23l-.511-2.978,2.163-2.108-2.989-.435Z" fill="#49aa9d"/><path d="M38.057,14.92l-2.989.435,2.163,2.108-.511,2.978,2.674-1.406,2.674,1.406-.51-2.978,2.163-2.108-2.989-.435-1.338-2.709Z" fill="#49aa9d"/><path d="M51.058,0,49.721,2.709l-2.989.435,2.162,2.108-.51,2.978,2.674-1.406L53.732,8.23l-.51-2.978,2.162-2.108-2.989-.435Z" fill="#49aa9d"/><path d="M61.563,14.92l-2.99.435,2.163,2.108-.51,2.978L62.9,19.035l2.673,1.406-.51-2.978,2.164-2.108-2.99-.435L62.9,12.211Z" fill="#49aa9d"/><path d="M74.619,0,73.282,2.709l-2.989.435,2.162,2.108-.51,2.978,2.674-1.406L77.293,8.23l-.51-2.978,2.163-2.108-2.99-.435Z" fill="#49aa9d"/><path d="M108.35,14.92l-2.989.435,2.163,2.108-.511,2.978,2.674-1.406,2.674,1.406-.51-2.978,2.163-2.108-2.989-.435-1.338-2.709Z" fill="#49aa9d"/><path d="M85.1,14.92l-2.99.435,2.164,2.108-.511,2.978,2.674-1.406,2.674,1.406L88.6,17.463l2.164-2.108-2.99-.435-1.337-2.709Z" fill="#49aa9d"/><path d="M98.024,0,96.687,2.709,93.7,3.144,95.86,5.252,95.35,8.23l2.674-1.406L100.7,8.23l-.51-2.978,2.162-2.108-2.989-.435Z" fill="#49aa9d"/></g><g transform="translate(238 150)"><path d="M4.326,0,2.99,2.709,0,3.144,2.162,5.252,1.652,8.23,4.326,6.824,7,8.23,6.49,5.252,8.652,3.144,5.663,2.709Z" fill="#49aa9d"/><path d="M14.731,14.92l-2.99.435,2.164,2.108-.511,2.978,2.674-1.406,2.673,1.406-.51-2.978L20.4,15.355l-2.99-.435-1.337-2.709Z" fill="#49aa9d"/><path d="M27.732,0,26.395,2.709l-2.99.435,2.163,2.108-.51,2.978,2.674-1.406L30.406,8.23l-.511-2.978,2.163-2.108-2.989-.435Z" fill="#49aa9d"/><path d="M38.057,14.92l-2.989.435,2.163,2.108-.511,2.978,2.674-1.406,2.674,1.406-.51-2.978,2.163-2.108-2.989-.435-1.338-2.709Z" fill="#49aa9d"/><path d="M51.058,0,49.721,2.709l-2.989.435,2.162,2.108-.51,2.978,2.674-1.406L53.732,8.23l-.51-2.978,2.162-2.108-2.989-.435Z" fill="#49aa9d"/><path d="M61.563,14.92l-2.99.435,2.163,2.108-.51,2.978L62.9,19.035l2.673,1.406-.51-2.978,2.164-2.108-2.99-.435L62.9,12.211Z" fill="#49aa9d"/><path d="M74.619,0,73.282,2.709l-2.989.435,2.162,2.108-.51,2.978,2.674-1.406L77.293,8.23l-.51-2.978,2.163-2.108-2.99-.435Z" fill="#49aa9d"/><path d="M108.35,14.92l-2.989.435,2.163,2.108-.511,2.978,2.674-1.406,2.674,1.406-.51-2.978,2.163-2.108-2.989-.435-1.338-2.709Z" fill="#49aa9d"/><path d="M85.1,14.92l-2.99.435,2.164,2.108-.511,2.978,2.674-1.406,2.674,1.406L88.6,17.463l2.164-2.108-2.99-.435-1.337-2.709Z" fill="#49aa9d"/><path d="M98.024,0,96.687,2.709,93.7,3.144,95.86,5.252,95.35,8.23l2.674-1.406L100.7,8.23l-.51-2.978,2.162-2.108-2.989-.435Z" fill="#49aa9d"/></g><g transform="translate(0 180)"><path d="M4.326,0,2.99,2.709,0,3.144,2.162,5.252,1.652,8.23,4.326,6.824,7,8.23,6.49,5.252,8.652,3.144,5.663,2.709Z" fill="#49aa9d"/><path d="M14.731,14.92l-2.99.435,2.164,2.108-.511,2.978,2.674-1.406,2.673,1.406-.51-2.978L20.4,15.355l-2.99-.435-1.337-2.709Z" fill="#49aa9d"/><path d="M27.732,0,26.395,2.709l-2.99.435,2.163,2.108-.51,2.978,2.674-1.406L30.406,8.23l-.511-2.978,2.163-2.108-2.989-.435Z" fill="#49aa9d"/><path d="M38.057,14.92l-2.989.435,2.163,2.108-.511,2.978,2.674-1.406,2.674,1.406-.51-2.978,2.163-2.108-2.989-.435-1.338-2.709Z" fill="#49aa9d"/><path d="M51.058,0,49.721,2.709l-2.989.435,2.162,2.108-.51,2.978,2.674-1.406L53.732,8.23l-.51-2.978,2.162-2.108-2.989-.435Z" fill="#49aa9d"/><path d="M61.563,14.92l-2.99.435,2.163,2.108-.51,2.978L62.9,19.035l2.673,1.406-.51-2.978,2.164-2.108-2.99-.435L62.9,12.211Z" fill="#49aa9d"/><path d="M74.619,0,73.282,2.709l-2.989.435,2.162,2.108-.51,2.978,2.674-1.406L77.293,8.23l-.51-2.978,2.163-2.108-2.99-.435Z" fill="#49aa9d"/><path d="M108.35,14.92l-2.989.435,2.163,2.108-.511,2.978,2.674-1.406,2.674,1.406-.51-2.978,2.163-2.108-2.989-.435-1.338-2.709Z" fill="#49aa9d"/><path d="M85.1,14.92l-2.99.435,2.164,2.108-.511,2.978,2.674-1.406,2.674,1.406L88.6,17.463l2.164-2.108-2.99-.435-1.337-2.709Z" fill="#49aa9d"/><path d="M98.024,0,96.687,2.709,93.7,3.144,95.86,5.252,95.35,8.23l2.674-1.406L100.7,8.23l-.51-2.978,2.162-2.108-2.989-.435Z" fill="#49aa9d"/></g><g transform="translate(119 180)"><path d="M4.326,0,2.99,2.709,0,3.144,2.162,5.252,1.652,8.23,4.326,6.824,7,8.23,6.49,5.252,8.652,3.144,5.663,2.709Z" fill="#49aa9d"/><path d="M14.731,14.92l-2.99.435,2.164,2.108-.511,2.978,2.674-1.406,2.673,1.406-.51-2.978L20.4,15.355l-2.99-.435-1.337-2.709Z" fill="#49aa9d"/><path d="M27.732,0,26.395,2.709l-2.99.435,2.163,2.108-.51,2.978,2.674-1.406L30.406,8.23l-.511-2.978,2.163-2.108-2.989-.435Z" fill="#49aa9d"/><path d="M38.057,14.92l-2.989.435,2.163,2.108-.511,2.978,2.674-1.406,2.674,1.406-.51-2.978,2.163-2.108-2.989-.435-1.338-2.709Z" fill="#49aa9d"/><path d="M51.058,0,49.721,2.709l-2.989.435,2.162,2.108-.51,2.978,2.674-1.406L53.732,8.23l-.51-2.978,2.162-2.108-2.989-.435Z" fill="#49aa9d"/><path d="M61.563,14.92l-2.99.435,2.163,2.108-.51,2.978L62.9,19.035l2.673,1.406-.51-2.978,2.164-2.108-2.99-.435L62.9,12.211Z" fill="#49aa9d"/><path d="M74.619,0,73.282,2.709l-2.989.435,2.162,2.108-.51,2.978,2.674-1.406L77.293,8.23l-.51-2.978,2.163-2.108-2.99-.435Z" fill="#49aa9d"/><path d="M108.35,14.92l-2.989.435,2.163,2.108-.511,2.978,2.674-1.406,2.674,1.406-.51-2.978,2.163-2.108-2.989-.435-1.338-2.709Z" fill="#49aa9d"/><path d="M85.1,14.92l-2.99.435,2.164,2.108-.511,2.978,2.674-1.406,2.674,1.406L88.6,17.463l2.164-2.108-2.99-.435-1.337-2.709Z" fill="#49aa9d"/><path d="M98.024,0,96.687,2.709,93.7,3.144,95.86,5.252,95.35,8.23l2.674-1.406L100.7,8.23l-.51-2.978,2.162-2.108-2.989-.435Z" fill="#49aa9d"/></g><g transform="translate(238 180)"><path d="M4.326,0,2.99,2.709,0,3.144,2.162,5.252,1.652,8.23,4.326,6.824,7,8.23,6.49,5.252,8.652,3.144,5.663,2.709Z" fill="#49aa9d"/><path d="M14.731,14.92l-2.99.435,2.164,2.108-.511,2.978,2.674-1.406,2.673,1.406-.51-2.978L20.4,15.355l-2.99-.435-1.337-2.709Z" fill="#49aa9d"/><path d="M27.732,0,26.395,2.709l-2.99.435,2.163,2.108-.51,2.978,2.674-1.406L30.406,8.23l-.511-2.978,2.163-2.108-2.989-.435Z" fill="#49aa9d"/><path d="M38.057,14.92l-2.989.435,2.163,2.108-.511,2.978,2.674-1.406,2.674,1.406-.51-2.978,2.163-2.108-2.989-.435-1.338-2.709Z" fill="#49aa9d"/><path d="M51.058,0,49.721,2.709l-2.989.435,2.162,2.108-.51,2.978,2.674-1.406L53.732,8.23l-.51-2.978,2.162-2.108-2.989-.435Z" fill="#49aa9d"/><path d="M61.563,14.92l-2.99.435,2.163,2.108-.51,2.978L62.9,19.035l2.673,1.406-.51-2.978,2.164-2.108-2.99-.435L62.9,12.211Z" fill="#49aa9d"/><path d="M74.619,0,73.282,2.709l-2.989.435,2.162,2.108-.51,2.978,2.674-1.406L77.293,8.23l-.51-2.978,2.163-2.108-2.99-.435Z" fill="#49aa9d"/><path d="M108.35,14.92l-2.989.435,2.163,2.108-.511,2.978,2.674-1.406,2.674,1.406-.51-2.978,2.163-2.108-2.989-.435-1.338-2.709Z" fill="#49aa9d"/><path d="M85.1,14.92l-2.99.435,2.164,2.108-.511,2.978,2.674-1.406,2.674,1.406L88.6,17.463l2.164-2.108-2.99-.435-1.337-2.709Z" fill="#49aa9d"/><path d="M98.024,0,96.687,2.709,93.7,3.144,95.86,5.252,95.35,8.23l2.674-1.406L100.7,8.23l-.51-2.978,2.162-2.108-2.989-.435Z" fill="#49aa9d"/></g><g transform="translate(0 210)"><path d="M4.326,0,2.99,2.709,0,3.144,2.162,5.252,1.652,8.23,4.326,6.824,7,8.23,6.49,5.252,8.652,3.144,5.663,2.709Z" fill="#49aa9d"/><path d="M14.731,14.92l-2.99.435,2.164,2.108-.511,2.978,2.674-1.406,2.673,1.406-.51-2.978L20.4,15.355l-2.99-.435-1.337-2.709Z" fill="#49aa9d"/><path d="M27.732,0,26.395,2.709l-2.99.435,2.163,2.108-.51,2.978,2.674-1.406L30.406,8.23l-.511-2.978,2.163-2.108-2.989-.435Z" fill="#49aa9d"/><path d="M38.057,14.92l-2.989.435,2.163,2.108-.511,2.978,2.674-1.406,2.674,1.406-.51-2.978,2.163-2.108-2.989-.435-1.338-2.709Z" fill="#49aa9d"/><path d="M51.058,0,49.721,2.709l-2.989.435,2.162,2.108-.51,2.978,2.674-1.406L53.732,8.23l-.51-2.978,2.162-2.108-2.989-.435Z" fill="#49aa9d"/><path d="M61.563,14.92l-2.99.435,2.163,2.108-.51,2.978L62.9,19.035l2.673,1.406-.51-2.978,2.164-2.108-2.99-.435L62.9,12.211Z" fill="#49aa9d"/><path d="M74.619,0,73.282,2.709l-2.989.435,2.162,2.108-.51,2.978,2.674-1.406L77.293,8.23l-.51-2.978,2.163-2.108-2.99-.435Z" fill="#49aa9d"/><path d="M108.35,14.92l-2.989.435,2.163,2.108-.511,2.978,2.674-1.406,2.674,1.406-.51-2.978,2.163-2.108-2.989-.435-1.338-2.709Z" fill="#49aa9d"/><path d="M85.1,14.92l-2.99.435,2.164,2.108-.511,2.978,2.674-1.406,2.674,1.406L88.6,17.463l2.164-2.108-2.99-.435-1.337-2.709Z" fill="#49aa9d"/><path d="M98.024,0,96.687,2.709,93.7,3.144,95.86,5.252,95.35,8.23l2.674-1.406L100.7,8.23l-.51-2.978,2.162-2.108-2.989-.435Z" fill="#49aa9d"/></g><g transform="translate(119 210)"><path d="M4.326,0,2.99,2.709,0,3.144,2.162,5.252,1.652,8.23,4.326,6.824,7,8.23,6.49,5.252,8.652,3.144,5.663,2.709Z" fill="#49aa9d"/><path d="M14.731,14.92l-2.99.435,2.164,2.108-.511,2.978,2.674-1.406,2.673,1.406-.51-2.978L20.4,15.355l-2.99-.435-1.337-2.709Z" fill="#49aa9d"/><path d="M27.732,0,26.395,2.709l-2.99.435,2.163,2.108-.51,2.978,2.674-1.406L30.406,8.23l-.511-2.978,2.163-2.108-2.989-.435Z" fill="#49aa9d"/><path d="M38.057,14.92l-2.989.435,2.163,2.108-.511,2.978,2.674-1.406,2.674,1.406-.51-2.978,2.163-2.108-2.989-.435-1.338-2.709Z" fill="#49aa9d"/><path d="M51.058,0,49.721,2.709l-2.989.435,2.162,2.108-.51,2.978,2.674-1.406L53.732,8.23l-.51-2.978,2.162-2.108-2.989-.435Z" fill="#49aa9d"/><path d="M61.563,14.92l-2.99.435,2.163,2.108-.51,2.978L62.9,19.035l2.673,1.406-.51-2.978,2.164-2.108-2.99-.435L62.9,12.211Z" fill="#49aa9d"/><path d="M74.619,0,73.282,2.709l-2.989.435,2.162,2.108-.51,2.978,2.674-1.406L77.293,8.23l-.51-2.978,2.163-2.108-2.99-.435Z" fill="#49aa9d"/><path d="M108.35,14.92l-2.989.435,2.163,2.108-.511,2.978,2.674-1.406,2.674,1.406-.51-2.978,2.163-2.108-2.989-.435-1.338-2.709Z" fill="#49aa9d"/><path d="M85.1,14.92l-2.99.435,2.164,2.108-.511,2.978,2.674-1.406,2.674,1.406L88.6,17.463l2.164-2.108-2.99-.435-1.337-2.709Z" fill="#49aa9d"/><path d="M98.024,0,96.687,2.709,93.7,3.144,95.86,5.252,95.35,8.23l2.674-1.406L100.7,8.23l-.51-2.978,2.162-2.108-2.989-.435Z" fill="#49aa9d"/></g><g transform="translate(238 210)"><path d="M4.326,0,2.99,2.709,0,3.144,2.162,5.252,1.652,8.23,4.326,6.824,7,8.23,6.49,5.252,8.652,3.144,5.663,2.709Z" fill="#49aa9d"/><path d="M14.731,14.92l-2.99.435,2.164,2.108-.511,2.978,2.674-1.406,2.673,1.406-.51-2.978L20.4,15.355l-2.99-.435-1.337-2.709Z" fill="#49aa9d"/><path d="M27.732,0,26.395,2.709l-2.99.435,2.163,2.108-.51,2.978,2.674-1.406L30.406,8.23l-.511-2.978,2.163-2.108-2.989-.435Z" fill="#49aa9d"/><path d="M38.057,14.92l-2.989.435,2.163,2.108-.511,2.978,2.674-1.406,2.674,1.406-.51-2.978,2.163-2.108-2.989-.435-1.338-2.709Z" fill="#49aa9d"/><path d="M51.058,0,49.721,2.709l-2.989.435,2.162,2.108-.51,2.978,2.674-1.406L53.732,8.23l-.51-2.978,2.162-2.108-2.989-.435Z" fill="#49aa9d"/><path d="M61.563,14.92l-2.99.435,2.163,2.108-.51,2.978L62.9,19.035l2.673,1.406-.51-2.978,2.164-2.108-2.99-.435L62.9,12.211Z" fill="#49aa9d"/><path d="M74.619,0,73.282,2.709l-2.989.435,2.162,2.108-.51,2.978,2.674-1.406L77.293,8.23l-.51-2.978,2.163-2.108-2.99-.435Z" fill="#49aa9d"/><path d="M108.35,14.92l-2.989.435,2.163,2.108-.511,2.978,2.674-1.406,2.674,1.406-.51-2.978,2.163-2.108-2.989-.435-1.338-2.709Z" fill="#49aa9d"/><path d="M85.1,14.92l-2.99.435,2.164,2.108-.511,2.978,2.674-1.406,2.674,1.406L88.6,17.463l2.164-2.108-2.99-.435-1.337-2.709Z" fill="#49aa9d"/><path d="M98.024,0,96.687,2.709,93.7,3.144,95.86,5.252,95.35,8.23l2.674-1.406L100.7,8.23l-.51-2.978,2.162-2.108-2.989-.435Z" fill="#49aa9d"/></g><g transform="translate(0 240)"><path d="M4.326,0,2.99,2.709,0,3.144,2.162,5.252,1.652,8.23,4.326,6.824,7,8.23,6.49,5.252,8.652,3.144,5.663,2.709Z" fill="#49aa9d"/><path d="M14.731,14.92l-2.99.435,2.164,2.108-.511,2.978,2.674-1.406,2.673,1.406-.51-2.978L20.4,15.355l-2.99-.435-1.337-2.709Z" fill="#49aa9d"/><path d="M27.732,0,26.395,2.709l-2.99.435,2.163,2.108-.51,2.978,2.674-1.406L30.406,8.23l-.511-2.978,2.163-2.108-2.989-.435Z" fill="#49aa9d"/><path d="M38.057,14.92l-2.989.435,2.163,2.108-.511,2.978,2.674-1.406,2.674,1.406-.51-2.978,2.163-2.108-2.989-.435-1.338-2.709Z" fill="#49aa9d"/><path d="M51.058,0,49.721,2.709l-2.989.435,2.162,2.108-.51,2.978,2.674-1.406L53.732,8.23l-.51-2.978,2.162-2.108-2.989-.435Z" fill="#49aa9d"/><path d="M61.563,14.92l-2.99.435,2.163,2.108-.51,2.978L62.9,19.035l2.673,1.406-.51-2.978,2.164-2.108-2.99-.435L62.9,12.211Z" fill="#49aa9d"/><path d="M74.619,0,73.282,2.709l-2.989.435,2.162,2.108-.51,2.978,2.674-1.406L77.293,8.23l-.51-2.978,2.163-2.108-2.99-.435Z" fill="#49aa9d"/><path d="M108.35,14.92l-2.989.435,2.163,2.108-.511,2.978,2.674-1.406,2.674,1.406-.51-2.978,2.163-2.108-2.989-.435-1.338-2.709Z" fill="#49aa9d"/><path d="M85.1,14.92l-2.99.435,2.164,2.108-.511,2.978,2.674-1.406,2.674,1.406L88.6,17.463l2.164-2.108-2.99-.435-1.337-2.709Z" fill="#49aa9d"/><path d="M98.024,0,96.687,2.709,93.7,3.144,95.86,5.252,95.35,8.23l2.674-1.406L100.7,8.23l-.51-2.978,2.162-2.108-2.989-.435Z" fill="#49aa9d"/></g><g transform="translate(119 240)"><path d="M4.326,0,2.99,2.709,0,3.144,2.162,5.252,1.652,8.23,4.326,6.824,7,8.23,6.49,5.252,8.652,3.144,5.663,2.709Z" fill="#49aa9d"/><path d="M14.731,14.92l-2.99.435,2.164,2.108-.511,2.978,2.674-1.406,2.673,1.406-.51-2.978L20.4,15.355l-2.99-.435-1.337-2.709Z" fill="#49aa9d"/><path d="M27.732,0,26.395,2.709l-2.99.435,2.163,2.108-.51,2.978,2.674-1.406L30.406,8.23l-.511-2.978,2.163-2.108-2.989-.435Z" fill="#49aa9d"/><path d="M38.057,14.92l-2.989.435,2.163,2.108-.511,2.978,2.674-1.406,2.674,1.406-.51-2.978,2.163-2.108-2.989-.435-1.338-2.709Z" fill="#49aa9d"/><path d="M51.058,0,49.721,2.709l-2.989.435,2.162,2.108-.51,2.978,2.674-1.406L53.732,8.23l-.51-2.978,2.162-2.108-2.989-.435Z" fill="#49aa9d"/><path d="M61.563,14.92l-2.99.435,2.163,2.108-.51,2.978L62.9,19.035l2.673,1.406-.51-2.978,2.164-2.108-2.99-.435L62.9,12.211Z" fill="#49aa9d"/><path d="M74.619,0,73.282,2.709l-2.989.435,2.162,2.108-.51,2.978,2.674-1.406L77.293,8.23l-.51-2.978,2.163-2.108-2.99-.435Z" fill="#49aa9d"/><path d="M108.35,14.92l-2.989.435,2.163,2.108-.511,2.978,2.674-1.406,2.674,1.406-.51-2.978,2.163-2.108-2.989-.435-1.338-2.709Z" fill="#49aa9d"/><path d="M85.1,14.92l-2.99.435,2.164,2.108-.511,2.978,2.674-1.406,2.674,1.406L88.6,17.463l2.164-2.108-2.99-.435-1.337-2.709Z" fill="#49aa9d"/><path d="M98.024,0,96.687,2.709,93.7,3.144,95.86,5.252,95.35,8.23l2.674-1.406L100.7,8.23l-.51-2.978,2.162-2.108-2.989-.435Z" fill="#49aa9d"/></g><g transform="translate(238 240)"><path d="M4.326,0,2.99,2.709,0,3.144,2.162,5.252,1.652,8.23,4.326,6.824,7,8.23,6.49,5.252,8.652,3.144,5.663,2.709Z" fill="#49aa9d"/><path d="M14.731,14.92l-2.99.435,2.164,2.108-.511,2.978,2.674-1.406,2.673,1.406-.51-2.978L20.4,15.355l-2.99-.435-1.337-2.709Z" fill="#49aa9d"/><path d="M27.732,0,26.395,2.709l-2.99.435,2.163,2.108-.51,2.978,2.674-1.406L30.406,8.23l-.511-2.978,2.163-2.108-2.989-.435Z" fill="#49aa9d"/><path d="M38.057,14.92l-2.989.435,2.163,2.108-.511,2.978,2.674-1.406,2.674,1.406-.51-2.978,2.163-2.108-2.989-.435-1.338-2.709Z" fill="#49aa9d"/><path d="M51.058,0,49.721,2.709l-2.989.435,2.162,2.108-.51,2.978,2.674-1.406L53.732,8.23l-.51-2.978,2.162-2.108-2.989-.435Z" fill="#49aa9d"/><path d="M61.563,14.92l-2.99.435,2.163,2.108-.51,2.978L62.9,19.035l2.673,1.406-.51-2.978,2.164-2.108-2.99-.435L62.9,12.211Z" fill="#49aa9d"/><path d="M74.619,0,73.282,2.709l-2.989.435,2.162,2.108-.51,2.978,2.674-1.406L77.293,8.23l-.51-2.978,2.163-2.108-2.99-.435Z" fill="#49aa9d"/><path d="M108.35,14.92l-2.989.435,2.163,2.108-.511,2.978,2.674-1.406,2.674,1.406-.51-2.978,2.163-2.108-2.989-.435-1.338-2.709Z" fill="#49aa9d"/><path d="M85.1,14.92l-2.99.435,2.164,2.108-.511,2.978,2.674-1.406,2.674,1.406L88.6,17.463l2.164-2.108-2.99-.435-1.337-2.709Z" fill="#49aa9d"/><path d="M98.024,0,96.687,2.709,93.7,3.144,95.86,5.252,95.35,8.23l2.674-1.406L100.7,8.23l-.51-2.978,2.162-2.108-2.989-.435Z" fill="#49aa9d"/></g><g transform="translate(0 270)"><path d="M4.326,0,2.99,2.709,0,3.144,2.162,5.252,1.652,8.23,4.326,6.824,7,8.23,6.49,5.252,8.652,3.144,5.663,2.709Z" fill="#49aa9d"/><path d="M14.731,14.92l-2.99.435,2.164,2.108-.511,2.978,2.674-1.406,2.673,1.406-.51-2.978L20.4,15.355l-2.99-.435-1.337-2.709Z" fill="#49aa9d"/><path d="M27.732,0,26.395,2.709l-2.99.435,2.163,2.108-.51,2.978,2.674-1.406L30.406,8.23l-.511-2.978,2.163-2.108-2.989-.435Z" fill="#49aa9d"/><path d="M38.057,14.92l-2.989.435,2.163,2.108-.511,2.978,2.674-1.406,2.674,1.406-.51-2.978,2.163-2.108-2.989-.435-1.338-2.709Z" fill="#49aa9d"/><path d="M51.058,0,49.721,2.709l-2.989.435,2.162,2.108-.51,2.978,2.674-1.406L53.732,8.23l-.51-2.978,2.162-2.108-2.989-.435Z" fill="#49aa9d"/><path d="M61.563,14.92l-2.99.435,2.163,2.108-.51,2.978L62.9,19.035l2.673,1.406-.51-2.978,2.164-2.108-2.99-.435L62.9,12.211Z" fill="#49aa9d"/><path d="M74.619,0,73.282,2.709l-2.989.435,2.162,2.108-.51,2.978,2.674-1.406L77.293,8.23l-.51-2.978,2.163-2.108-2.99-.435Z" fill="#49aa9d"/><path d="M108.35,14.92l-2.989.435,2.163,2.108-.511,2.978,2.674-1.406,2.674,1.406-.51-2.978,2.163-2.108-2.989-.435-1.338-2.709Z" fill="#49aa9d"/><path d="M85.1,14.92l-2.99.435,2.164,2.108-.511,2.978,2.674-1.406,2.674,1.406L88.6,17.463l2.164-2.108-2.99-.435-1.337-2.709Z" fill="#49aa9d"/><path d="M98.024,0,96.687,2.709,93.7,3.144,95.86,5.252,95.35,8.23l2.674-1.406L100.7,8.23l-.51-2.978,2.162-2.108-2.989-.435Z" fill="#49aa9d"/></g><g transform="translate(119 270)"><path d="M4.326,0,2.99,2.709,0,3.144,2.162,5.252,1.652,8.23,4.326,6.824,7,8.23,6.49,5.252,8.652,3.144,5.663,2.709Z" fill="#49aa9d"/><path d="M14.731,14.92l-2.99.435,2.164,2.108-.511,2.978,2.674-1.406,2.673,1.406-.51-2.978L20.4,15.355l-2.99-.435-1.337-2.709Z" fill="#49aa9d"/><path d="M27.732,0,26.395,2.709l-2.99.435,2.163,2.108-.51,2.978,2.674-1.406L30.406,8.23l-.511-2.978,2.163-2.108-2.989-.435Z" fill="#49aa9d"/><path d="M38.057,14.92l-2.989.435,2.163,2.108-.511,2.978,2.674-1.406,2.674,1.406-.51-2.978,2.163-2.108-2.989-.435-1.338-2.709Z" fill="#49aa9d"/><path d="M51.058,0,49.721,2.709l-2.989.435,2.162,2.108-.51,2.978,2.674-1.406L53.732,8.23l-.51-2.978,2.162-2.108-2.989-.435Z" fill="#49aa9d"/><path d="M61.563,14.92l-2.99.435,2.163,2.108-.51,2.978L62.9,19.035l2.673,1.406-.51-2.978,2.164-2.108-2.99-.435L62.9,12.211Z" fill="#49aa9d"/><path d="M74.619,0,73.282,2.709l-2.989.435,2.162,2.108-.51,2.978,2.674-1.406L77.293,8.23l-.51-2.978,2.163-2.108-2.99-.435Z" fill="#49aa9d"/><path d="M108.35,14.92l-2.989.435,2.163,2.108-.511,2.978,2.674-1.406,2.674,1.406-.51-2.978,2.163-2.108-2.989-.435-1.338-2.709Z" fill="#49aa9d"/><path d="M85.1,14.92l-2.99.435,2.164,2.108-.511,2.978,2.674-1.406,2.674,1.406L88.6,17.463l2.164-2.108-2.99-.435-1.337-2.709Z" fill="#49aa9d"/><path d="M98.024,0,96.687,2.709,93.7,3.144,95.86,5.252,95.35,8.23l2.674-1.406L100.7,8.23l-.51-2.978,2.162-2.108-2.989-.435Z" fill="#49aa9d"/></g><g transform="translate(238 270)"><path d="M4.326,0,2.99,2.709,0,3.144,2.162,5.252,1.652,8.23,4.326,6.824,7,8.23,6.49,5.252,8.652,3.144,5.663,2.709Z" fill="#49aa9d"/><path d="M14.731,14.92l-2.99.435,2.164,2.108-.511,2.978,2.674-1.406,2.673,1.406-.51-2.978L20.4,15.355l-2.99-.435-1.337-2.709Z" fill="#49aa9d"/><path d="M27.732,0,26.395,2.709l-2.99.435,2.163,2.108-.51,2.978,2.674-1.406L30.406,8.23l-.511-2.978,2.163-2.108-2.989-.435Z" fill="#49aa9d"/><path d="M38.057,14.92l-2.989.435,2.163,2.108-.511,2.978,2.674-1.406,2.674,1.406-.51-2.978,2.163-2.108-2.989-.435-1.338-2.709Z" fill="#49aa9d"/><path d="M51.058,0,49.721,2.709l-2.989.435,2.162,2.108-.51,2.978,2.674-1.406L53.732,8.23l-.51-2.978,2.162-2.108-2.989-.435Z" fill="#49aa9d"/><path d="M61.563,14.92l-2.99.435,2.163,2.108-.51,2.978L62.9,19.035l2.673,1.406-.51-2.978,2.164-2.108-2.99-.435L62.9,12.211Z" fill="#49aa9d"/><path d="M74.619,0,73.282,2.709l-2.989.435,2.162,2.108-.51,2.978,2.674-1.406L77.293,8.23l-.51-2.978,2.163-2.108-2.99-.435Z" fill="#49aa9d"/><path d="M108.35,14.92l-2.989.435,2.163,2.108-.511,2.978,2.674-1.406,2.674,1.406-.51-2.978,2.163-2.108-2.989-.435-1.338-2.709Z" fill="#49aa9d"/><path d="M85.1,14.92l-2.99.435,2.164,2.108-.511,2.978,2.674-1.406,2.674,1.406L88.6,17.463l2.164-2.108-2.99-.435-1.337-2.709Z" fill="#49aa9d"/><path d="M98.024,0,96.687,2.709,93.7,3.144,95.86,5.252,95.35,8.23l2.674-1.406L100.7,8.23l-.51-2.978,2.162-2.108-2.989-.435Z" fill="#49aa9d"/></g><g transform="translate(0 300)"><path d="M4.326,0,2.99,2.709,0,3.144,2.162,5.252,1.652,8.23,4.326,6.824,7,8.23,6.49,5.252,8.652,3.144,5.663,2.709Z" fill="#49aa9d"/><path d="M14.731,14.92l-2.99.435,2.164,2.108-.511,2.978,2.674-1.406,2.673,1.406-.51-2.978L20.4,15.355l-2.99-.435-1.337-2.709Z" fill="#49aa9d"/><path d="M27.732,0,26.395,2.709l-2.99.435,2.163,2.108-.51,2.978,2.674-1.406L30.406,8.23l-.511-2.978,2.163-2.108-2.989-.435Z" fill="#49aa9d"/><path d="M38.057,14.92l-2.989.435,2.163,2.108-.511,2.978,2.674-1.406,2.674,1.406-.51-2.978,2.163-2.108-2.989-.435-1.338-2.709Z" fill="#49aa9d"/><path d="M51.058,0,49.721,2.709l-2.989.435,2.162,2.108-.51,2.978,2.674-1.406L53.732,8.23l-.51-2.978,2.162-2.108-2.989-.435Z" fill="#49aa9d"/><path d="M61.563,14.92l-2.99.435,2.163,2.108-.51,2.978L62.9,19.035l2.673,1.406-.51-2.978,2.164-2.108-2.99-.435L62.9,12.211Z" fill="#49aa9d"/><path d="M74.619,0,73.282,2.709l-2.989.435,2.162,2.108-.51,2.978,2.674-1.406L77.293,8.23l-.51-2.978,2.163-2.108-2.99-.435Z" fill="#49aa9d"/><path d="M108.35,14.92l-2.989.435,2.163,2.108-.511,2.978,2.674-1.406,2.674,1.406-.51-2.978,2.163-2.108-2.989-.435-1.338-2.709Z" fill="#49aa9d"/><path d="M85.1,14.92l-2.99.435,2.164,2.108-.511,2.978,2.674-1.406,2.674,1.406L88.6,17.463l2.164-2.108-2.99-.435-1.337-2.709Z" fill="#49aa9d"/><path d="M98.024,0,96.687,2.709,93.7,3.144,95.86,5.252,95.35,8.23l2.674-1.406L100.7,8.23l-.51-2.978,2.162-2.108-2.989-.435Z" fill="#49aa9d"/></g><g transform="translate(119 300)"><path d="M4.326,0,2.99,2.709,0,3.144,2.162,5.252,1.652,8.23,4.326,6.824,7,8.23,6.49,5.252,8.652,3.144,5.663,2.709Z" fill="#49aa9d"/><path d="M14.731,14.92l-2.99.435,2.164,2.108-.511,2.978,2.674-1.406,2.673,1.406-.51-2.978L20.4,15.355l-2.99-.435-1.337-2.709Z" fill="#49aa9d"/><path d="M27.732,0,26.395,2.709l-2.99.435,2.163,2.108-.51,2.978,2.674-1.406L30.406,8.23l-.511-2.978,2.163-2.108-2.989-.435Z" fill="#49aa9d"/><path d="M38.057,14.92l-2.989.435,2.163,2.108-.511,2.978,2.674-1.406,2.674,1.406-.51-2.978,2.163-2.108-2.989-.435-1.338-2.709Z" fill="#49aa9d"/><path d="M51.058,0,49.721,2.709l-2.989.435,2.162,2.108-.51,2.978,2.674-1.406L53.732,8.23l-.51-2.978,2.162-2.108-2.989-.435Z" fill="#49aa9d"/><path d="M61.563,14.92l-2.99.435,2.163,2.108-.51,2.978L62.9,19.035l2.673,1.406-.51-2.978,2.164-2.108-2.99-.435L62.9,12.211Z" fill="#49aa9d"/><path d="M74.619,0,73.282,2.709l-2.989.435,2.162,2.108-.51,2.978,2.674-1.406L77.293,8.23l-.51-2.978,2.163-2.108-2.99-.435Z" fill="#49aa9d"/><path d="M108.35,14.92l-2.989.435,2.163,2.108-.511,2.978,2.674-1.406,2.674,1.406-.51-2.978,2.163-2.108-2.989-.435-1.338-2.709Z" fill="#49aa9d"/><path d="M85.1,14.92l-2.99.435,2.164,2.108-.511,2.978,2.674-1.406,2.674,1.406L88.6,17.463l2.164-2.108-2.99-.435-1.337-2.709Z" fill="#49aa9d"/><path d="M98.024,0,96.687,2.709,93.7,3.144,95.86,5.252,95.35,8.23l2.674-1.406L100.7,8.23l-.51-2.978,2.162-2.108-2.989-.435Z" fill="#49aa9d"/></g><g transform="translate(238 300)"><path d="M4.326,0,2.99,2.709,0,3.144,2.162,5.252,1.652,8.23,4.326,6.824,7,8.23,6.49,5.252,8.652,3.144,5.663,2.709Z" fill="#49aa9d"/><path d="M14.731,14.92l-2.99.435,2.164,2.108-.511,2.978,2.674-1.406,2.673,1.406-.51-2.978L20.4,15.355l-2.99-.435-1.337-2.709Z" fill="#49aa9d"/><path d="M27.732,0,26.395,2.709l-2.99.435,2.163,2.108-.51,2.978,2.674-1.406L30.406,8.23l-.511-2.978,2.163-2.108-2.989-.435Z" fill="#49aa9d"/><path d="M38.057,14.92l-2.989.435,2.163,2.108-.511,2.978,2.674-1.406,2.674,1.406-.51-2.978,2.163-2.108-2.989-.435-1.338-2.709Z" fill="#49aa9d"/><path d="M51.058,0,49.721,2.709l-2.989.435,2.162,2.108-.51,2.978,2.674-1.406L53.732,8.23l-.51-2.978,2.162-2.108-2.989-.435Z" fill="#49aa9d"/><path d="M61.563,14.92l-2.99.435,2.163,2.108-.51,2.978L62.9,19.035l2.673,1.406-.51-2.978,2.164-2.108-2.99-.435L62.9,12.211Z" fill="#49aa9d"/><path d="M74.619,0,73.282,2.709l-2.989.435,2.162,2.108-.51,2.978,2.674-1.406L77.293,8.23l-.51-2.978,2.163-2.108-2.99-.435Z" fill="#49aa9d"/><path d="M108.35,14.92l-2.989.435,2.163,2.108-.511,2.978,2.674-1.406,2.674,1.406-.51-2.978,2.163-2.108-2.989-.435-1.338-2.709Z" fill="#49aa9d"/><path d="M85.1,14.92l-2.99.435,2.164,2.108-.511,2.978,2.674-1.406,2.674,1.406L88.6,17.463l2.164-2.108-2.99-.435-1.337-2.709Z" fill="#49aa9d"/><path d="M98.024,0,96.687,2.709,93.7,3.144,95.86,5.252,95.35,8.23l2.674-1.406L100.7,8.23l-.51-2.978,2.162-2.108-2.989-.435Z" fill="#49aa9d"/></g><g transform="translate(0 330)"><path d="M4.326,0,2.99,2.709,0,3.144,2.162,5.252,1.652,8.23,4.326,6.824,7,8.23,6.49,5.252,8.652,3.144,5.663,2.709Z" fill="#49aa9d"/><path d="M14.731,14.92l-2.99.435,2.164,2.108-.511,2.978,2.674-1.406,2.673,1.406-.51-2.978L20.4,15.355l-2.99-.435-1.337-2.709Z" fill="#49aa9d"/><path d="M27.732,0,26.395,2.709l-2.99.435,2.163,2.108-.51,2.978,2.674-1.406L30.406,8.23l-.511-2.978,2.163-2.108-2.989-.435Z" fill="#49aa9d"/><path d="M38.057,14.92l-2.989.435,2.163,2.108-.511,2.978,2.674-1.406,2.674,1.406-.51-2.978,2.163-2.108-2.989-.435-1.338-2.709Z" fill="#49aa9d"/><path d="M51.058,0,49.721,2.709l-2.989.435,2.162,2.108-.51,2.978,2.674-1.406L53.732,8.23l-.51-2.978,2.162-2.108-2.989-.435Z" fill="#49aa9d"/><path d="M61.563,14.92l-2.99.435,2.163,2.108-.51,2.978L62.9,19.035l2.673,1.406-.51-2.978,2.164-2.108-2.99-.435L62.9,12.211Z" fill="#49aa9d"/><path d="M74.619,0,73.282,2.709l-2.989.435,2.162,2.108-.51,2.978,2.674-1.406L77.293,8.23l-.51-2.978,2.163-2.108-2.99-.435Z" fill="#49aa9d"/><path d="M108.35,14.92l-2.989.435,2.163,2.108-.511,2.978,2.674-1.406,2.674,1.406-.51-2.978,2.163-2.108-2.989-.435-1.338-2.709Z" fill="#49aa9d"/><path d="M85.1,14.92l-2.99.435,2.164,2.108-.511,2.978,2.674-1.406,2.674,1.406L88.6,17.463l2.164-2.108-2.99-.435-1.337-2.709Z" fill="#49aa9d"/><path d="M98.024,0,96.687,2.709,93.7,3.144,95.86,5.252,95.35,8.23l2.674-1.406L100.7,8.23l-.51-2.978,2.162-2.108-2.989-.435Z" fill="#49aa9d"/></g><g transform="translate(119 330)"><path d="M4.326,0,2.99,2.709,0,3.144,2.162,5.252,1.652,8.23,4.326,6.824,7,8.23,6.49,5.252,8.652,3.144,5.663,2.709Z" fill="#49aa9d"/><path d="M14.731,14.92l-2.99.435,2.164,2.108-.511,2.978,2.674-1.406,2.673,1.406-.51-2.978L20.4,15.355l-2.99-.435-1.337-2.709Z" fill="#49aa9d"/><path d="M27.732,0,26.395,2.709l-2.99.435,2.163,2.108-.51,2.978,2.674-1.406L30.406,8.23l-.511-2.978,2.163-2.108-2.989-.435Z" fill="#49aa9d"/><path d="M38.057,14.92l-2.989.435,2.163,2.108-.511,2.978,2.674-1.406,2.674,1.406-.51-2.978,2.163-2.108-2.989-.435-1.338-2.709Z" fill="#49aa9d"/><path d="M51.058,0,49.721,2.709l-2.989.435,2.162,2.108-.51,2.978,2.674-1.406L53.732,8.23l-.51-2.978,2.162-2.108-2.989-.435Z" fill="#49aa9d"/><path d="M61.563,14.92l-2.99.435,2.163,2.108-.51,2.978L62.9,19.035l2.673,1.406-.51-2.978,2.164-2.108-2.99-.435L62.9,12.211Z" fill="#49aa9d"/><path d="M74.619,0,73.282,2.709l-2.989.435,2.162,2.108-.51,2.978,2.674-1.406L77.293,8.23l-.51-2.978,2.163-2.108-2.99-.435Z" fill="#49aa9d"/><path d="M108.35,14.92l-2.989.435,2.163,2.108-.511,2.978,2.674-1.406,2.674,1.406-.51-2.978,2.163-2.108-2.989-.435-1.338-2.709Z" fill="#49aa9d"/><path d="M85.1,14.92l-2.99.435,2.164,2.108-.511,2.978,2.674-1.406,2.674,1.406L88.6,17.463l2.164-2.108-2.99-.435-1.337-2.709Z" fill="#49aa9d"/><path d="M98.024,0,96.687,2.709,93.7,3.144,95.86,5.252,95.35,8.23l2.674-1.406L100.7,8.23l-.51-2.978,2.162-2.108-2.989-.435Z" fill="#49aa9d"/></g><g transform="translate(238 330)"><path d="M4.326,0,2.99,2.709,0,3.144,2.162,5.252,1.652,8.23,4.326,6.824,7,8.23,6.49,5.252,8.652,3.144,5.663,2.709Z" fill="#49aa9d"/><path d="M14.731,14.92l-2.99.435,2.164,2.108-.511,2.978,2.674-1.406,2.673,1.406-.51-2.978L20.4,15.355l-2.99-.435-1.337-2.709Z" fill="#49aa9d"/><path d="M27.732,0,26.395,2.709l-2.99.435,2.163,2.108-.51,2.978,2.674-1.406L30.406,8.23l-.511-2.978,2.163-2.108-2.989-.435Z" fill="#49aa9d"/><path d="M38.057,14.92l-2.989.435,2.163,2.108-.511,2.978,2.674-1.406,2.674,1.406-.51-2.978,2.163-2.108-2.989-.435-1.338-2.709Z" fill="#49aa9d"/><path d="M51.058,0,49.721,2.709l-2.989.435,2.162,2.108-.51,2.978,2.674-1.406L53.732,8.23l-.51-2.978,2.162-2.108-2.989-.435Z" fill="#49aa9d"/><path d="M61.563,14.92l-2.99.435,2.163,2.108-.51,2.978L62.9,19.035l2.673,1.406-.51-2.978,2.164-2.108-2.99-.435L62.9,12.211Z" fill="#49aa9d"/><path d="M74.619,0,73.282,2.709l-2.989.435,2.162,2.108-.51,2.978,2.674-1.406L77.293,8.23l-.51-2.978,2.163-2.108-2.99-.435Z" fill="#49aa9d"/><path d="M108.35,14.92l-2.989.435,2.163,2.108-.511,2.978,2.674-1.406,2.674,1.406-.51-2.978,2.163-2.108-2.989-.435-1.338-2.709Z" fill="#49aa9d"/><path d="M85.1,14.92l-2.99.435,2.164,2.108-.511,2.978,2.674-1.406,2.674,1.406L88.6,17.463l2.164-2.108-2.99-.435-1.337-2.709Z" fill="#49aa9d"/><path d="M98.024,0,96.687,2.709,93.7,3.144,95.86,5.252,95.35,8.23l2.674-1.406L100.7,8.23l-.51-2.978,2.162-2.108-2.989-.435Z" fill="#49aa9d"/></g><g transform="translate(0 360)"><path d="M4.326,0,2.99,2.709,0,3.144,2.162,5.252,1.652,8.23,4.326,6.824,7,8.23,6.49,5.252,8.652,3.144,5.663,2.709Z" fill="#49aa9d"/><path d="M14.731,14.92l-2.99.435,2.164,2.108-.511,2.978,2.674-1.406,2.673,1.406-.51-2.978L20.4,15.355l-2.99-.435-1.337-2.709Z" fill="#49aa9d"/><path d="M27.732,0,26.395,2.709l-2.99.435,2.163,2.108-.51,2.978,2.674-1.406L30.406,8.23l-.511-2.978,2.163-2.108-2.989-.435Z" fill="#49aa9d"/><path d="M38.057,14.92l-2.989.435,2.163,2.108-.511,2.978,2.674-1.406,2.674,1.406-.51-2.978,2.163-2.108-2.989-.435-1.338-2.709Z" fill="#49aa9d"/><path d="M51.058,0,49.721,2.709l-2.989.435,2.162,2.108-.51,2.978,2.674-1.406L53.732,8.23l-.51-2.978,2.162-2.108-2.989-.435Z" fill="#49aa9d"/><path d="M61.563,14.92l-2.99.435,2.163,2.108-.51,2.978L62.9,19.035l2.673,1.406-.51-2.978,2.164-2.108-2.99-.435L62.9,12.211Z" fill="#49aa9d"/><path d="M74.619,0,73.282,2.709l-2.989.435,2.162,2.108-.51,2.978,2.674-1.406L77.293,8.23l-.51-2.978,2.163-2.108-2.99-.435Z" fill="#49aa9d"/><path d="M108.35,14.92l-2.989.435,2.163,2.108-.511,2.978,2.674-1.406,2.674,1.406-.51-2.978,2.163-2.108-2.989-.435-1.338-2.709Z" fill="#49aa9d"/><path d="M85.1,14.92l-2.99.435,2.164,2.108-.511,2.978,2.674-1.406,2.674,1.406L88.6,17.463l2.164-2.108-2.99-.435-1.337-2.709Z" fill="#49aa9d"/><path d="M98.024,0,96.687,2.709,93.7,3.144,95.86,5.252,95.35,8.23l2.674-1.406L100.7,8.23l-.51-2.978,2.162-2.108-2.989-.435Z" fill="#49aa9d"/></g><g transform="translate(119 360)"><path d="M4.326,0,2.99,2.709,0,3.144,2.162,5.252,1.652,8.23,4.326,6.824,7,8.23,6.49,5.252,8.652,3.144,5.663,2.709Z" fill="#49aa9d"/><path d="M14.731,14.92l-2.99.435,2.164,2.108-.511,2.978,2.674-1.406,2.673,1.406-.51-2.978L20.4,15.355l-2.99-.435-1.337-2.709Z" fill="#49aa9d"/><path d="M27.732,0,26.395,2.709l-2.99.435,2.163,2.108-.51,2.978,2.674-1.406L30.406,8.23l-.511-2.978,2.163-2.108-2.989-.435Z" fill="#49aa9d"/><path d="M38.057,14.92l-2.989.435,2.163,2.108-.511,2.978,2.674-1.406,2.674,1.406-.51-2.978,2.163-2.108-2.989-.435-1.338-2.709Z" fill="#49aa9d"/><path d="M51.058,0,49.721,2.709l-2.989.435,2.162,2.108-.51,2.978,2.674-1.406L53.732,8.23l-.51-2.978,2.162-2.108-2.989-.435Z" fill="#49aa9d"/><path d="M61.563,14.92l-2.99.435,2.163,2.108-.51,2.978L62.9,19.035l2.673,1.406-.51-2.978,2.164-2.108-2.99-.435L62.9,12.211Z" fill="#49aa9d"/><path d="M74.619,0,73.282,2.709l-2.989.435,2.162,2.108-.51,2.978,2.674-1.406L77.293,8.23l-.51-2.978,2.163-2.108-2.99-.435Z" fill="#49aa9d"/><path d="M108.35,14.92l-2.989.435,2.163,2.108-.511,2.978,2.674-1.406,2.674,1.406-.51-2.978,2.163-2.108-2.989-.435-1.338-2.709Z" fill="#49aa9d"/><path d="M85.1,14.92l-2.99.435,2.164,2.108-.511,2.978,2.674-1.406,2.674,1.406L88.6,17.463l2.164-2.108-2.99-.435-1.337-2.709Z" fill="#49aa9d"/><path d="M98.024,0,96.687,2.709,93.7,3.144,95.86,5.252,95.35,8.23l2.674-1.406L100.7,8.23l-.51-2.978,2.162-2.108-2.989-.435Z" fill="#49aa9d"/></g><g transform="translate(238 360)"><path d="M4.326,0,2.99,2.709,0,3.144,2.162,5.252,1.652,8.23,4.326,6.824,7,8.23,6.49,5.252,8.652,3.144,5.663,2.709Z" fill="#49aa9d"/><path d="M14.731,14.92l-2.99.435,2.164,2.108-.511,2.978,2.674-1.406,2.673,1.406-.51-2.978L20.4,15.355l-2.99-.435-1.337-2.709Z" fill="#49aa9d"/><path d="M27.732,0,26.395,2.709l-2.99.435,2.163,2.108-.51,2.978,2.674-1.406L30.406,8.23l-.511-2.978,2.163-2.108-2.989-.435Z" fill="#49aa9d"/><path d="M38.057,14.92l-2.989.435,2.163,2.108-.511,2.978,2.674-1.406,2.674,1.406-.51-2.978,2.163-2.108-2.989-.435-1.338-2.709Z" fill="#49aa9d"/><path d="M51.058,0,49.721,2.709l-2.989.435,2.162,2.108-.51,2.978,2.674-1.406L53.732,8.23l-.51-2.978,2.162-2.108-2.989-.435Z" fill="#49aa9d"/><path d="M61.563,14.92l-2.99.435,2.163,2.108-.51,2.978L62.9,19.035l2.673,1.406-.51-2.978,2.164-2.108-2.99-.435L62.9,12.211Z" fill="#49aa9d"/><path d="M74.619,0,73.282,2.709l-2.989.435,2.162,2.108-.51,2.978,2.674-1.406L77.293,8.23l-.51-2.978,2.163-2.108-2.99-.435Z" fill="#49aa9d"/><path d="M108.35,14.92l-2.989.435,2.163,2.108-.511,2.978,2.674-1.406,2.674,1.406-.51-2.978,2.163-2.108-2.989-.435-1.338-2.709Z" fill="#49aa9d"/><path d="M85.1,14.92l-2.99.435,2.164,2.108-.511,2.978,2.674-1.406,2.674,1.406L88.6,17.463l2.164-2.108-2.99-.435-1.337-2.709Z" fill="#49aa9d"/><path d="M98.024,0,96.687,2.709,93.7,3.144,95.86,5.252,95.35,8.23l2.674-1.406L100.7,8.23l-.51-2.978,2.162-2.108-2.989-.435Z" fill="#49aa9d"/></g><g transform="translate(0 390)"><path d="M4.326,0,2.99,2.709,0,3.144,2.162,5.252,1.652,8.23,4.326,6.824,7,8.23,6.49,5.252,8.652,3.144,5.663,2.709Z" fill="#49aa9d"/><path d="M14.731,14.92l-2.99.435,2.164,2.108-.511,2.978,2.674-1.406,2.673,1.406-.51-2.978L20.4,15.355l-2.99-.435-1.337-2.709Z" fill="#49aa9d"/><path d="M27.732,0,26.395,2.709l-2.99.435,2.163,2.108-.51,2.978,2.674-1.406L30.406,8.23l-.511-2.978,2.163-2.108-2.989-.435Z" fill="#49aa9d"/><path d="M38.057,14.92l-2.989.435,2.163,2.108-.511,2.978,2.674-1.406,2.674,1.406-.51-2.978,2.163-2.108-2.989-.435-1.338-2.709Z" fill="#49aa9d"/><path d="M51.058,0,49.721,2.709l-2.989.435,2.162,2.108-.51,2.978,2.674-1.406L53.732,8.23l-.51-2.978,2.162-2.108-2.989-.435Z" fill="#49aa9d"/><path d="M61.563,14.92l-2.99.435,2.163,2.108-.51,2.978L62.9,19.035l2.673,1.406-.51-2.978,2.164-2.108-2.99-.435L62.9,12.211Z" fill="#49aa9d"/><path d="M74.619,0,73.282,2.709l-2.989.435,2.162,2.108-.51,2.978,2.674-1.406L77.293,8.23l-.51-2.978,2.163-2.108-2.99-.435Z" fill="#49aa9d"/><path d="M108.35,14.92l-2.989.435,2.163,2.108-.511,2.978,2.674-1.406,2.674,1.406-.51-2.978,2.163-2.108-2.989-.435-1.338-2.709Z" fill="#49aa9d"/><path d="M85.1,14.92l-2.99.435,2.164,2.108-.511,2.978,2.674-1.406,2.674,1.406L88.6,17.463l2.164-2.108-2.99-.435-1.337-2.709Z" fill="#49aa9d"/><path d="M98.024,0,96.687,2.709,93.7,3.144,95.86,5.252,95.35,8.23l2.674-1.406L100.7,8.23l-.51-2.978,2.162-2.108-2.989-.435Z" fill="#49aa9d"/></g><g transform="translate(119 390)"><path d="M4.326,0,2.99,2.709,0,3.144,2.162,5.252,1.652,8.23,4.326,6.824,7,8.23,6.49,5.252,8.652,3.144,5.663,2.709Z" fill="#49aa9d"/><path d="M14.731,14.92l-2.99.435,2.164,2.108-.511,2.978,2.674-1.406,2.673,1.406-.51-2.978L20.4,15.355l-2.99-.435-1.337-2.709Z" fill="#49aa9d"/><path d="M27.732,0,26.395,2.709l-2.99.435,2.163,2.108-.51,2.978,2.674-1.406L30.406,8.23l-.511-2.978,2.163-2.108-2.989-.435Z" fill="#49aa9d"/><path d="M38.057,14.92l-2.989.435,2.163,2.108-.511,2.978,2.674-1.406,2.674,1.406-.51-2.978,2.163-2.108-2.989-.435-1.338-2.709Z" fill="#49aa9d"/><path d="M51.058,0,49.721,2.709l-2.989.435,2.162,2.108-.51,2.978,2.674-1.406L53.732,8.23l-.51-2.978,2.162-2.108-2.989-.435Z" fill="#49aa9d"/><path d="M61.563,14.92l-2.99.435,2.163,2.108-.51,2.978L62.9,19.035l2.673,1.406-.51-2.978,2.164-2.108-2.99-.435L62.9,12.211Z" fill="#49aa9d"/><path d="M74.619,0,73.282,2.709l-2.989.435,2.162,2.108-.51,2.978,2.674-1.406L77.293,8.23l-.51-2.978,2.163-2.108-2.99-.435Z" fill="#49aa9d"/><path d="M108.35,14.92l-2.989.435,2.163,2.108-.511,2.978,2.674-1.406,2.674,1.406-.51-2.978,2.163-2.108-2.989-.435-1.338-2.709Z" fill="#49aa9d"/><path d="M85.1,14.92l-2.99.435,2.164,2.108-.511,2.978,2.674-1.406,2.674,1.406L88.6,17.463l2.164-2.108-2.99-.435-1.337-2.709Z" fill="#49aa9d"/><path d="M98.024,0,96.687,2.709,93.7,3.144,95.86,5.252,95.35,8.23l2.674-1.406L100.7,8.23l-.51-2.978,2.162-2.108-2.989-.435Z" fill="#49aa9d"/></g><g transform="translate(238 390)"><path d="M4.326,0,2.99,2.709,0,3.144,2.162,5.252,1.652,8.23,4.326,6.824,7,8.23,6.49,5.252,8.652,3.144,5.663,2.709Z" fill="#49aa9d"/><path d="M14.731,14.92l-2.99.435,2.164,2.108-.511,2.978,2.674-1.406,2.673,1.406-.51-2.978L20.4,15.355l-2.99-.435-1.337-2.709Z" fill="#49aa9d"/><path d="M27.732,0,26.395,2.709l-2.99.435,2.163,2.108-.51,2.978,2.674-1.406L30.406,8.23l-.511-2.978,2.163-2.108-2.989-.435Z" fill="#49aa9d"/><path d="M38.057,14.92l-2.989.435,2.163,2.108-.511,2.978,2.674-1.406,2.674,1.406-.51-2.978,2.163-2.108-2.989-.435-1.338-2.709Z" fill="#49aa9d"/><path d="M51.058,0,49.721,2.709l-2.989.435,2.162,2.108-.51,2.978,2.674-1.406L53.732,8.23l-.51-2.978,2.162-2.108-2.989-.435Z" fill="#49aa9d"/><path d="M61.563,14.92l-2.99.435,2.163,2.108-.51,2.978L62.9,19.035l2.673,1.406-.51-2.978,2.164-2.108-2.99-.435L62.9,12.211Z" fill="#49aa9d"/><path d="M74.619,0,73.282,2.709l-2.989.435,2.162,2.108-.51,2.978,2.674-1.406L77.293,8.23l-.51-2.978,2.163-2.108-2.99-.435Z" fill="#49aa9d"/><path d="M108.35,14.92l-2.989.435,2.163,2.108-.511,2.978,2.674-1.406,2.674,1.406-.51-2.978,2.163-2.108-2.989-.435-1.338-2.709Z" fill="#49aa9d"/><path d="M85.1,14.92l-2.99.435,2.164,2.108-.511,2.978,2.674-1.406,2.674,1.406L88.6,17.463l2.164-2.108-2.99-.435-1.337-2.709Z" fill="#49aa9d"/><path d="M98.024,0,96.687,2.709,93.7,3.144,95.86,5.252,95.35,8.23l2.674-1.406L100.7,8.23l-.51-2.978,2.162-2.108-2.989-.435Z" fill="#49aa9d"/></g><g transform="translate(0 420)"><path d="M4.326,0,2.99,2.709,0,3.144,2.162,5.252,1.652,8.23,4.326,6.824,7,8.23,6.49,5.252,8.652,3.144,5.663,2.709Z" fill="#49aa9d"/><path d="M14.731,14.92l-2.99.435,2.164,2.108-.511,2.978,2.674-1.406,2.673,1.406-.51-2.978L20.4,15.355l-2.99-.435-1.337-2.709Z" fill="#49aa9d"/><path d="M27.732,0,26.395,2.709l-2.99.435,2.163,2.108-.51,2.978,2.674-1.406L30.406,8.23l-.511-2.978,2.163-2.108-2.989-.435Z" fill="#49aa9d"/><path d="M38.057,14.92l-2.989.435,2.163,2.108-.511,2.978,2.674-1.406,2.674,1.406-.51-2.978,2.163-2.108-2.989-.435-1.338-2.709Z" fill="#49aa9d"/><path d="M51.058,0,49.721,2.709l-2.989.435,2.162,2.108-.51,2.978,2.674-1.406L53.732,8.23l-.51-2.978,2.162-2.108-2.989-.435Z" fill="#49aa9d"/><path d="M61.563,14.92l-2.99.435,2.163,2.108-.51,2.978L62.9,19.035l2.673,1.406-.51-2.978,2.164-2.108-2.99-.435L62.9,12.211Z" fill="#49aa9d"/><path d="M74.619,0,73.282,2.709l-2.989.435,2.162,2.108-.51,2.978,2.674-1.406L77.293,8.23l-.51-2.978,2.163-2.108-2.99-.435Z" fill="#49aa9d"/><path d="M108.35,14.92l-2.989.435,2.163,2.108-.511,2.978,2.674-1.406,2.674,1.406-.51-2.978,2.163-2.108-2.989-.435-1.338-2.709Z" fill="#49aa9d"/><path d="M85.1,14.92l-2.99.435,2.164,2.108-.511,2.978,2.674-1.406,2.674,1.406L88.6,17.463l2.164-2.108-2.99-.435-1.337-2.709Z" fill="#49aa9d"/><path d="M98.024,0,96.687,2.709,93.7,3.144,95.86,5.252,95.35,8.23l2.674-1.406L100.7,8.23l-.51-2.978,2.162-2.108-2.989-.435Z" fill="#49aa9d"/></g><g transform="translate(119 420)"><path d="M4.326,0,2.99,2.709,0,3.144,2.162,5.252,1.652,8.23,4.326,6.824,7,8.23,6.49,5.252,8.652,3.144,5.663,2.709Z" fill="#49aa9d"/><path d="M14.731,14.92l-2.99.435,2.164,2.108-.511,2.978,2.674-1.406,2.673,1.406-.51-2.978L20.4,15.355l-2.99-.435-1.337-2.709Z" fill="#49aa9d"/><path d="M27.732,0,26.395,2.709l-2.99.435,2.163,2.108-.51,2.978,2.674-1.406L30.406,8.23l-.511-2.978,2.163-2.108-2.989-.435Z" fill="#49aa9d"/><path d="M38.057,14.92l-2.989.435,2.163,2.108-.511,2.978,2.674-1.406,2.674,1.406-.51-2.978,2.163-2.108-2.989-.435-1.338-2.709Z" fill="#49aa9d"/><path d="M51.058,0,49.721,2.709l-2.989.435,2.162,2.108-.51,2.978,2.674-1.406L53.732,8.23l-.51-2.978,2.162-2.108-2.989-.435Z" fill="#49aa9d"/><path d="M61.563,14.92l-2.99.435,2.163,2.108-.51,2.978L62.9,19.035l2.673,1.406-.51-2.978,2.164-2.108-2.99-.435L62.9,12.211Z" fill="#49aa9d"/><path d="M74.619,0,73.282,2.709l-2.989.435,2.162,2.108-.51,2.978,2.674-1.406L77.293,8.23l-.51-2.978,2.163-2.108-2.99-.435Z" fill="#49aa9d"/><path d="M108.35,14.92l-2.989.435,2.163,2.108-.511,2.978,2.674-1.406,2.674,1.406-.51-2.978,2.163-2.108-2.989-.435-1.338-2.709Z" fill="#49aa9d"/><path d="M85.1,14.92l-2.99.435,2.164,2.108-.511,2.978,2.674-1.406,2.674,1.406L88.6,17.463l2.164-2.108-2.99-.435-1.337-2.709Z" fill="#49aa9d"/><path d="M98.024,0,96.687,2.709,93.7,3.144,95.86,5.252,95.35,8.23l2.674-1.406L100.7,8.23l-.51-2.978,2.162-2.108-2.989-.435Z" fill="#49aa9d"/></g><g transform="translate(238 420)"><path d="M4.326,0,2.99,2.709,0,3.144,2.162,5.252,1.652,8.23,4.326,6.824,7,8.23,6.49,5.252,8.652,3.144,5.663,2.709Z" fill="#49aa9d"/><path d="M14.731,14.92l-2.99.435,2.164,2.108-.511,2.978,2.674-1.406,2.673,1.406-.51-2.978L20.4,15.355l-2.99-.435-1.337-2.709Z" fill="#49aa9d"/><path d="M27.732,0,26.395,2.709l-2.99.435,2.163,2.108-.51,2.978,2.674-1.406L30.406,8.23l-.511-2.978,2.163-2.108-2.989-.435Z" fill="#49aa9d"/><path d="M38.057,14.92l-2.989.435,2.163,2.108-.511,2.978,2.674-1.406,2.674,1.406-.51-2.978,2.163-2.108-2.989-.435-1.338-2.709Z" fill="#49aa9d"/><path d="M51.058,0,49.721,2.709l-2.989.435,2.162,2.108-.51,2.978,2.674-1.406L53.732,8.23l-.51-2.978,2.162-2.108-2.989-.435Z" fill="#49aa9d"/><path d="M61.563,14.92l-2.99.435,2.163,2.108-.51,2.978L62.9,19.035l2.673,1.406-.51-2.978,2.164-2.108-2.99-.435L62.9,12.211Z" fill="#49aa9d"/><path d="M74.619,0,73.282,2.709l-2.989.435,2.162,2.108-.51,2.978,2.674-1.406L77.293,8.23l-.51-2.978,2.163-2.108-2.99-.435Z" fill="#49aa9d"/><path d="M108.35,14.92l-2.989.435,2.163,2.108-.511,2.978,2.674-1.406,2.674,1.406-.51-2.978,2.163-2.108-2.989-.435-1.338-2.709Z" fill="#49aa9d"/><path d="M85.1,14.92l-2.99.435,2.164,2.108-.511,2.978,2.674-1.406,2.674,1.406L88.6,17.463l2.164-2.108-2.99-.435-1.337-2.709Z" fill="#49aa9d"/><path d="M98.024,0,96.687,2.709,93.7,3.144,95.86,5.252,95.35,8.23l2.674-1.406L100.7,8.23l-.51-2.978,2.162-2.108-2.989-.435Z" fill="#49aa9d"/></g><g transform="translate(0 450)"><path d="M4.326,0,2.99,2.709,0,3.144,2.162,5.252,1.652,8.23,4.326,6.824,7,8.23,6.49,5.252,8.652,3.144,5.663,2.709Z" fill="#49aa9d"/><path d="M14.731,14.92l-2.99.435,2.164,2.108-.511,2.978,2.674-1.406,2.673,1.406-.51-2.978L20.4,15.355l-2.99-.435-1.337-2.709Z" fill="#49aa9d"/><path d="M27.732,0,26.395,2.709l-2.99.435,2.163,2.108-.51,2.978,2.674-1.406L30.406,8.23l-.511-2.978,2.163-2.108-2.989-.435Z" fill="#49aa9d"/><path d="M38.057,14.92l-2.989.435,2.163,2.108-.511,2.978,2.674-1.406,2.674,1.406-.51-2.978,2.163-2.108-2.989-.435-1.338-2.709Z" fill="#49aa9d"/><path d="M51.058,0,49.721,2.709l-2.989.435,2.162,2.108-.51,2.978,2.674-1.406L53.732,8.23l-.51-2.978,2.162-2.108-2.989-.435Z" fill="#49aa9d"/><path d="M61.563,14.92l-2.99.435,2.163,2.108-.51,2.978L62.9,19.035l2.673,1.406-.51-2.978,2.164-2.108-2.99-.435L62.9,12.211Z" fill="#49aa9d"/><path d="M74.619,0,73.282,2.709l-2.989.435,2.162,2.108-.51,2.978,2.674-1.406L77.293,8.23l-.51-2.978,2.163-2.108-2.99-.435Z" fill="#49aa9d"/><path d="M108.35,14.92l-2.989.435,2.163,2.108-.511,2.978,2.674-1.406,2.674,1.406-.51-2.978,2.163-2.108-2.989-.435-1.338-2.709Z" fill="#49aa9d"/><path d="M85.1,14.92l-2.99.435,2.164,2.108-.511,2.978,2.674-1.406,2.674,1.406L88.6,17.463l2.164-2.108-2.99-.435-1.337-2.709Z" fill="#49aa9d"/><path d="M98.024,0,96.687,2.709,93.7,3.144,95.86,5.252,95.35,8.23l2.674-1.406L100.7,8.23l-.51-2.978,2.162-2.108-2.989-.435Z" fill="#49aa9d"/></g><g transform="translate(119 450)"><path d="M4.326,0,2.99,2.709,0,3.144,2.162,5.252,1.652,8.23,4.326,6.824,7,8.23,6.49,5.252,8.652,3.144,5.663,2.709Z" fill="#49aa9d"/><path d="M14.731,14.92l-2.99.435,2.164,2.108-.511,2.978,2.674-1.406,2.673,1.406-.51-2.978L20.4,15.355l-2.99-.435-1.337-2.709Z" fill="#49aa9d"/><path d="M27.732,0,26.395,2.709l-2.99.435,2.163,2.108-.51,2.978,2.674-1.406L30.406,8.23l-.511-2.978,2.163-2.108-2.989-.435Z" fill="#49aa9d"/><path d="M38.057,14.92l-2.989.435,2.163,2.108-.511,2.978,2.674-1.406,2.674,1.406-.51-2.978,2.163-2.108-2.989-.435-1.338-2.709Z" fill="#49aa9d"/><path d="M51.058,0,49.721,2.709l-2.989.435,2.162,2.108-.51,2.978,2.674-1.406L53.732,8.23l-.51-2.978,2.162-2.108-2.989-.435Z" fill="#49aa9d"/><path d="M61.563,14.92l-2.99.435,2.163,2.108-.51,2.978L62.9,19.035l2.673,1.406-.51-2.978,2.164-2.108-2.99-.435L62.9,12.211Z" fill="#49aa9d"/><path d="M74.619,0,73.282,2.709l-2.989.435,2.162,2.108-.51,2.978,2.674-1.406L77.293,8.23l-.51-2.978,2.163-2.108-2.99-.435Z" fill="#49aa9d"/><path d="M108.35,14.92l-2.989.435,2.163,2.108-.511,2.978,2.674-1.406,2.674,1.406-.51-2.978,2.163-2.108-2.989-.435-1.338-2.709Z" fill="#49aa9d"/><path d="M85.1,14.92l-2.99.435,2.164,2.108-.511,2.978,2.674-1.406,2.674,1.406L88.6,17.463l2.164-2.108-2.99-.435-1.337-2.709Z" fill="#49aa9d"/><path d="M98.024,0,96.687,2.709,93.7,3.144,95.86,5.252,95.35,8.23l2.674-1.406L100.7,8.23l-.51-2.978,2.162-2.108-2.989-.435Z" fill="#49aa9d"/></g><g transform="translate(238 450)"><path d="M4.326,0,2.99,2.709,0,3.144,2.162,5.252,1.652,8.23,4.326,6.824,7,8.23,6.49,5.252,8.652,3.144,5.663,2.709Z" fill="#49aa9d"/><path d="M14.731,14.92l-2.99.435,2.164,2.108-.511,2.978,2.674-1.406,2.673,1.406-.51-2.978L20.4,15.355l-2.99-.435-1.337-2.709Z" fill="#49aa9d"/><path d="M27.732,0,26.395,2.709l-2.99.435,2.163,2.108-.51,2.978,2.674-1.406L30.406,8.23l-.511-2.978,2.163-2.108-2.989-.435Z" fill="#49aa9d"/><path d="M38.057,14.92l-2.989.435,2.163,2.108-.511,2.978,2.674-1.406,2.674,1.406-.51-2.978,2.163-2.108-2.989-.435-1.338-2.709Z" fill="#49aa9d"/><path d="M51.058,0,49.721,2.709l-2.989.435,2.162,2.108-.51,2.978,2.674-1.406L53.732,8.23l-.51-2.978,2.162-2.108-2.989-.435Z" fill="#49aa9d"/><path d="M61.563,14.92l-2.99.435,2.163,2.108-.51,2.978L62.9,19.035l2.673,1.406-.51-2.978,2.164-2.108-2.99-.435L62.9,12.211Z" fill="#49aa9d"/><path d="M74.619,0,73.282,2.709l-2.989.435,2.162,2.108-.51,2.978,2.674-1.406L77.293,8.23l-.51-2.978,2.163-2.108-2.99-.435Z" fill="#49aa9d"/><path d="M108.35,14.92l-2.989.435,2.163,2.108-.511,2.978,2.674-1.406,2.674,1.406-.51-2.978,2.163-2.108-2.989-.435-1.338-2.709Z" fill="#49aa9d"/><path d="M85.1,14.92l-2.99.435,2.164,2.108-.511,2.978,2.674-1.406,2.674,1.406L88.6,17.463l2.164-2.108-2.99-.435-1.337-2.709Z" fill="#49aa9d"/><path d="M98.024,0,96.687,2.709,93.7,3.144,95.86,5.252,95.35,8.23l2.674-1.406L100.7,8.23l-.51-2.978,2.162-2.108-2.989-.435Z" fill="#49aa9d"/></g><g transform="translate(0 480)"><path d="M4.326,0,2.99,2.709,0,3.144,2.162,5.252,1.652,8.23,4.326,6.824,7,8.23,6.49,5.252,8.652,3.144,5.663,2.709Z" fill="#49aa9d"/><path d="M14.731,14.92l-2.99.435,2.164,2.108-.511,2.978,2.674-1.406,2.673,1.406-.51-2.978L20.4,15.355l-2.99-.435-1.337-2.709Z" fill="#49aa9d"/><path d="M27.732,0,26.395,2.709l-2.99.435,2.163,2.108-.51,2.978,2.674-1.406L30.406,8.23l-.511-2.978,2.163-2.108-2.989-.435Z" fill="#49aa9d"/><path d="M38.057,14.92l-2.989.435,2.163,2.108-.511,2.978,2.674-1.406,2.674,1.406-.51-2.978,2.163-2.108-2.989-.435-1.338-2.709Z" fill="#49aa9d"/><path d="M51.058,0,49.721,2.709l-2.989.435,2.162,2.108-.51,2.978,2.674-1.406L53.732,8.23l-.51-2.978,2.162-2.108-2.989-.435Z" fill="#49aa9d"/><path d="M61.563,14.92l-2.99.435,2.163,2.108-.51,2.978L62.9,19.035l2.673,1.406-.51-2.978,2.164-2.108-2.99-.435L62.9,12.211Z" fill="#49aa9d"/><path d="M74.619,0,73.282,2.709l-2.989.435,2.162,2.108-.51,2.978,2.674-1.406L77.293,8.23l-.51-2.978,2.163-2.108-2.99-.435Z" fill="#49aa9d"/><path d="M108.35,14.92l-2.989.435,2.163,2.108-.511,2.978,2.674-1.406,2.674,1.406-.51-2.978,2.163-2.108-2.989-.435-1.338-2.709Z" fill="#49aa9d"/><path d="M85.1,14.92l-2.99.435,2.164,2.108-.511,2.978,2.674-1.406,2.674,1.406L88.6,17.463l2.164-2.108-2.99-.435-1.337-2.709Z" fill="#49aa9d"/><path d="M98.024,0,96.687,2.709,93.7,3.144,95.86,5.252,95.35,8.23l2.674-1.406L100.7,8.23l-.51-2.978,2.162-2.108-2.989-.435Z" fill="#49aa9d"/></g><g transform="translate(119 480)"><path d="M4.326,0,2.99,2.709,0,3.144,2.162,5.252,1.652,8.23,4.326,6.824,7,8.23,6.49,5.252,8.652,3.144,5.663,2.709Z" fill="#49aa9d"/><path d="M14.731,14.92l-2.99.435,2.164,2.108-.511,2.978,2.674-1.406,2.673,1.406-.51-2.978L20.4,15.355l-2.99-.435-1.337-2.709Z" fill="#49aa9d"/><path d="M27.732,0,26.395,2.709l-2.99.435,2.163,2.108-.51,2.978,2.674-1.406L30.406,8.23l-.511-2.978,2.163-2.108-2.989-.435Z" fill="#49aa9d"/><path d="M38.057,14.92l-2.989.435,2.163,2.108-.511,2.978,2.674-1.406,2.674,1.406-.51-2.978,2.163-2.108-2.989-.435-1.338-2.709Z" fill="#49aa9d"/><path d="M51.058,0,49.721,2.709l-2.989.435,2.162,2.108-.51,2.978,2.674-1.406L53.732,8.23l-.51-2.978,2.162-2.108-2.989-.435Z" fill="#49aa9d"/><path d="M61.563,14.92l-2.99.435,2.163,2.108-.51,2.978L62.9,19.035l2.673,1.406-.51-2.978,2.164-2.108-2.99-.435L62.9,12.211Z" fill="#49aa9d"/><path d="M74.619,0,73.282,2.709l-2.989.435,2.162,2.108-.51,2.978,2.674-1.406L77.293,8.23l-.51-2.978,2.163-2.108-2.99-.435Z" fill="#49aa9d"/><path d="M108.35,14.92l-2.989.435,2.163,2.108-.511,2.978,2.674-1.406,2.674,1.406-.51-2.978,2.163-2.108-2.989-.435-1.338-2.709Z" fill="#49aa9d"/><path d="M85.1,14.92l-2.99.435,2.164,2.108-.511,2.978,2.674-1.406,2.674,1.406L88.6,17.463l2.164-2.108-2.99-.435-1.337-2.709Z" fill="#49aa9d"/><path d="M98.024,0,96.687,2.709,93.7,3.144,95.86,5.252,95.35,8.23l2.674-1.406L100.7,8.23l-.51-2.978,2.162-2.108-2.989-.435Z" fill="#49aa9d"/></g><g transform="translate(238 480)"><path d="M4.326,0,2.99,2.709,0,3.144,2.162,5.252,1.652,8.23,4.326,6.824,7,8.23,6.49,5.252,8.652,3.144,5.663,2.709Z" fill="#49aa9d"/><path d="M14.731,14.92l-2.99.435,2.164,2.108-.511,2.978,2.674-1.406,2.673,1.406-.51-2.978L20.4,15.355l-2.99-.435-1.337-2.709Z" fill="#49aa9d"/><path d="M27.732,0,26.395,2.709l-2.99.435,2.163,2.108-.51,2.978,2.674-1.406L30.406,8.23l-.511-2.978,2.163-2.108-2.989-.435Z" fill="#49aa9d"/><path d="M38.057,14.92l-2.989.435,2.163,2.108-.511,2.978,2.674-1.406,2.674,1.406-.51-2.978,2.163-2.108-2.989-.435-1.338-2.709Z" fill="#49aa9d"/><path d="M51.058,0,49.721,2.709l-2.989.435,2.162,2.108-.51,2.978,2.674-1.406L53.732,8.23l-.51-2.978,2.162-2.108-2.989-.435Z" fill="#49aa9d"/><path d="M61.563,14.92l-2.99.435,2.163,2.108-.51,2.978L62.9,19.035l2.673,1.406-.51-2.978,2.164-2.108-2.99-.435L62.9,12.211Z" fill="#49aa9d"/><path d="M74.619,0,73.282,2.709l-2.989.435,2.162,2.108-.51,2.978,2.674-1.406L77.293,8.23l-.51-2.978,2.163-2.108-2.99-.435Z" fill="#49aa9d"/><path d="M108.35,14.92l-2.989.435,2.163,2.108-.511,2.978,2.674-1.406,2.674,1.406-.51-2.978,2.163-2.108-2.989-.435-1.338-2.709Z" fill="#49aa9d"/><path d="M85.1,14.92l-2.99.435,2.164,2.108-.511,2.978,2.674-1.406,2.674,1.406L88.6,17.463l2.164-2.108-2.99-.435-1.337-2.709Z" fill="#49aa9d"/><path d="M98.024,0,96.687,2.709,93.7,3.144,95.86,5.252,95.35,8.23l2.674-1.406L100.7,8.23l-.51-2.978,2.162-2.108-2.989-.435Z" fill="#49aa9d"/></g><g transform="translate(0 510)"><path d="M4.326,0,2.99,2.709,0,3.144,2.162,5.252,1.652,8.23,4.326,6.824,7,8.23,6.49,5.252,8.652,3.144,5.663,2.709Z" fill="#49aa9d"/><path d="M14.731,14.92l-2.99.435,2.164,2.108-.511,2.978,2.674-1.406,2.673,1.406-.51-2.978L20.4,15.355l-2.99-.435-1.337-2.709Z" fill="#49aa9d"/><path d="M27.732,0,26.395,2.709l-2.99.435,2.163,2.108-.51,2.978,2.674-1.406L30.406,8.23l-.511-2.978,2.163-2.108-2.989-.435Z" fill="#49aa9d"/><path d="M38.057,14.92l-2.989.435,2.163,2.108-.511,2.978,2.674-1.406,2.674,1.406-.51-2.978,2.163-2.108-2.989-.435-1.338-2.709Z" fill="#49aa9d"/><path d="M51.058,0,49.721,2.709l-2.989.435,2.162,2.108-.51,2.978,2.674-1.406L53.732,8.23l-.51-2.978,2.162-2.108-2.989-.435Z" fill="#49aa9d"/><path d="M61.563,14.92l-2.99.435,2.163,2.108-.51,2.978L62.9,19.035l2.673,1.406-.51-2.978,2.164-2.108-2.99-.435L62.9,12.211Z" fill="#49aa9d"/><path d="M74.619,0,73.282,2.709l-2.989.435,2.162,2.108-.51,2.978,2.674-1.406L77.293,8.23l-.51-2.978,2.163-2.108-2.99-.435Z" fill="#49aa9d"/><path d="M108.35,14.92l-2.989.435,2.163,2.108-.511,2.978,2.674-1.406,2.674,1.406-.51-2.978,2.163-2.108-2.989-.435-1.338-2.709Z" fill="#49aa9d"/><path d="M85.1,14.92l-2.99.435,2.164,2.108-.511,2.978,2.674-1.406,2.674,1.406L88.6,17.463l2.164-2.108-2.99-.435-1.337-2.709Z" fill="#49aa9d"/><path d="M98.024,0,96.687,2.709,93.7,3.144,95.86,5.252,95.35,8.23l2.674-1.406L100.7,8.23l-.51-2.978,2.162-2.108-2.989-.435Z" fill="#49aa9d"/></g><g transform="translate(119 510)"><path d="M4.326,0,2.99,2.709,0,3.144,2.162,5.252,1.652,8.23,4.326,6.824,7,8.23,6.49,5.252,8.652,3.144,5.663,2.709Z" fill="#49aa9d"/><path d="M14.731,14.92l-2.99.435,2.164,2.108-.511,2.978,2.674-1.406,2.673,1.406-.51-2.978L20.4,15.355l-2.99-.435-1.337-2.709Z" fill="#49aa9d"/><path d="M27.732,0,26.395,2.709l-2.99.435,2.163,2.108-.51,2.978,2.674-1.406L30.406,8.23l-.511-2.978,2.163-2.108-2.989-.435Z" fill="#49aa9d"/><path d="M38.057,14.92l-2.989.435,2.163,2.108-.511,2.978,2.674-1.406,2.674,1.406-.51-2.978,2.163-2.108-2.989-.435-1.338-2.709Z" fill="#49aa9d"/><path d="M51.058,0,49.721,2.709l-2.989.435,2.162,2.108-.51,2.978,2.674-1.406L53.732,8.23l-.51-2.978,2.162-2.108-2.989-.435Z" fill="#49aa9d"/><path d="M61.563,14.92l-2.99.435,2.163,2.108-.51,2.978L62.9,19.035l2.673,1.406-.51-2.978,2.164-2.108-2.99-.435L62.9,12.211Z" fill="#49aa9d"/><path d="M74.619,0,73.282,2.709l-2.989.435,2.162,2.108-.51,2.978,2.674-1.406L77.293,8.23l-.51-2.978,2.163-2.108-2.99-.435Z" fill="#49aa9d"/><path d="M108.35,14.92l-2.989.435,2.163,2.108-.511,2.978,2.674-1.406,2.674,1.406-.51-2.978,2.163-2.108-2.989-.435-1.338-2.709Z" fill="#49aa9d"/><path d="M85.1,14.92l-2.99.435,2.164,2.108-.511,2.978,2.674-1.406,2.674,1.406L88.6,17.463l2.164-2.108-2.99-.435-1.337-2.709Z" fill="#49aa9d"/><path d="M98.024,0,96.687,2.709,93.7,3.144,95.86,5.252,95.35,8.23l2.674-1.406L100.7,8.23l-.51-2.978,2.162-2.108-2.989-.435Z" fill="#49aa9d"/></g><g transform="translate(238 510)"><path d="M4.326,0,2.99,2.709,0,3.144,2.162,5.252,1.652,8.23,4.326,6.824,7,8.23,6.49,5.252,8.652,3.144,5.663,2.709Z" fill="#49aa9d"/><path d="M14.731,14.92l-2.99.435,2.164,2.108-.511,2.978,2.674-1.406,2.673,1.406-.51-2.978L20.4,15.355l-2.99-.435-1.337-2.709Z" fill="#49aa9d"/><path d="M27.732,0,26.395,2.709l-2.99.435,2.163,2.108-.51,2.978,2.674-1.406L30.406,8.23l-.511-2.978,2.163-2.108-2.989-.435Z" fill="#49aa9d"/><path d="M38.057,14.92l-2.989.435,2.163,2.108-.511,2.978,2.674-1.406,2.674,1.406-.51-2.978,2.163-2.108-2.989-.435-1.338-2.709Z" fill="#49aa9d"/><path d="M51.058,0,49.721,2.709l-2.989.435,2.162,2.108-.51,2.978,2.674-1.406L53.732,8.23l-.51-2.978,2.162-2.108-2.989-.435Z" fill="#49aa9d"/><path d="M61.563,14.92l-2.99.435,2.163,2.108-.51,2.978L62.9,19.035l2.673,1.406-.51-2.978,2.164-2.108-2.99-.435L62.9,12.211Z" fill="#49aa9d"/><path d="M74.619,0,73.282,2.709l-2.989.435,2.162,2.108-.51,2.978,2.674-1.406L77.293,8.23l-.51-2.978,2.163-2.108-2.99-.435Z" fill="#49aa9d"/><path d="M108.35,14.92l-2.989.435,2.163,2.108-.511,2.978,2.674-1.406,2.674,1.406-.51-2.978,2.163-2.108-2.989-.435-1.338-2.709Z" fill="#49aa9d"/><path d="M85.1,14.92l-2.99.435,2.164,2.108-.511,2.978,2.674-1.406,2.674,1.406L88.6,17.463l2.164-2.108-2.99-.435-1.337-2.709Z" fill="#49aa9d"/><path d="M98.024,0,96.687,2.709,93.7,3.144,95.86,5.252,95.35,8.23l2.674-1.406L100.7,8.23l-.51-2.978,2.162-2.108-2.989-.435Z" fill="#49aa9d"/></g><g transform="translate(0 540)"><path d="M4.326,0,2.99,2.709,0,3.144,2.162,5.252,1.652,8.23,4.326,6.824,7,8.23,6.49,5.252,8.652,3.144,5.663,2.709Z" fill="#49aa9d"/><path d="M14.731,14.92l-2.99.435,2.164,2.108-.511,2.978,2.674-1.406,2.673,1.406-.51-2.978L20.4,15.355l-2.99-.435-1.337-2.709Z" fill="#49aa9d"/><path d="M27.732,0,26.395,2.709l-2.99.435,2.163,2.108-.51,2.978,2.674-1.406L30.406,8.23l-.511-2.978,2.163-2.108-2.989-.435Z" fill="#49aa9d"/><path d="M38.057,14.92l-2.989.435,2.163,2.108-.511,2.978,2.674-1.406,2.674,1.406-.51-2.978,2.163-2.108-2.989-.435-1.338-2.709Z" fill="#49aa9d"/><path d="M51.058,0,49.721,2.709l-2.989.435,2.162,2.108-.51,2.978,2.674-1.406L53.732,8.23l-.51-2.978,2.162-2.108-2.989-.435Z" fill="#49aa9d"/><path d="M61.563,14.92l-2.99.435,2.163,2.108-.51,2.978L62.9,19.035l2.673,1.406-.51-2.978,2.164-2.108-2.99-.435L62.9,12.211Z" fill="#49aa9d"/><path d="M74.619,0,73.282,2.709l-2.989.435,2.162,2.108-.51,2.978,2.674-1.406L77.293,8.23l-.51-2.978,2.163-2.108-2.99-.435Z" fill="#49aa9d"/><path d="M108.35,14.92l-2.989.435,2.163,2.108-.511,2.978,2.674-1.406,2.674,1.406-.51-2.978,2.163-2.108-2.989-.435-1.338-2.709Z" fill="#49aa9d"/><path d="M85.1,14.92l-2.99.435,2.164,2.108-.511,2.978,2.674-1.406,2.674,1.406L88.6,17.463l2.164-2.108-2.99-.435-1.337-2.709Z" fill="#49aa9d"/><path d="M98.024,0,96.687,2.709,93.7,3.144,95.86,5.252,95.35,8.23l2.674-1.406L100.7,8.23l-.51-2.978,2.162-2.108-2.989-.435Z" fill="#49aa9d"/></g><g transform="translate(119 540)"><path d="M4.326,0,2.99,2.709,0,3.144,2.162,5.252,1.652,8.23,4.326,6.824,7,8.23,6.49,5.252,8.652,3.144,5.663,2.709Z" fill="#49aa9d"/><path d="M14.731,14.92l-2.99.435,2.164,2.108-.511,2.978,2.674-1.406,2.673,1.406-.51-2.978L20.4,15.355l-2.99-.435-1.337-2.709Z" fill="#49aa9d"/><path d="M27.732,0,26.395,2.709l-2.99.435,2.163,2.108-.51,2.978,2.674-1.406L30.406,8.23l-.511-2.978,2.163-2.108-2.989-.435Z" fill="#49aa9d"/><path d="M38.057,14.92l-2.989.435,2.163,2.108-.511,2.978,2.674-1.406,2.674,1.406-.51-2.978,2.163-2.108-2.989-.435-1.338-2.709Z" fill="#49aa9d"/><path d="M51.058,0,49.721,2.709l-2.989.435,2.162,2.108-.51,2.978,2.674-1.406L53.732,8.23l-.51-2.978,2.162-2.108-2.989-.435Z" fill="#49aa9d"/><path d="M61.563,14.92l-2.99.435,2.163,2.108-.51,2.978L62.9,19.035l2.673,1.406-.51-2.978,2.164-2.108-2.99-.435L62.9,12.211Z" fill="#49aa9d"/><path d="M74.619,0,73.282,2.709l-2.989.435,2.162,2.108-.51,2.978,2.674-1.406L77.293,8.23l-.51-2.978,2.163-2.108-2.99-.435Z" fill="#49aa9d"/><path d="M108.35,14.92l-2.989.435,2.163,2.108-.511,2.978,2.674-1.406,2.674,1.406-.51-2.978,2.163-2.108-2.989-.435-1.338-2.709Z" fill="#49aa9d"/><path d="M85.1,14.92l-2.99.435,2.164,2.108-.511,2.978,2.674-1.406,2.674,1.406L88.6,17.463l2.164-2.108-2.99-.435-1.337-2.709Z" fill="#49aa9d"/><path d="M98.024,0,96.687,2.709,93.7,3.144,95.86,5.252,95.35,8.23l2.674-1.406L100.7,8.23l-.51-2.978,2.162-2.108-2.989-.435Z" fill="#49aa9d"/></g><g transform="translate(238 540)"><path d="M4.326,0,2.99,2.709,0,3.144,2.162,5.252,1.652,8.23,4.326,6.824,7,8.23,6.49,5.252,8.652,3.144,5.663,2.709Z" fill="#49aa9d"/><path d="M14.731,14.92l-2.99.435,2.164,2.108-.511,2.978,2.674-1.406,2.673,1.406-.51-2.978L20.4,15.355l-2.99-.435-1.337-2.709Z" fill="#49aa9d"/><path d="M27.732,0,26.395,2.709l-2.99.435,2.163,2.108-.51,2.978,2.674-1.406L30.406,8.23l-.511-2.978,2.163-2.108-2.989-.435Z" fill="#49aa9d"/><path d="M38.057,14.92l-2.989.435,2.163,2.108-.511,2.978,2.674-1.406,2.674,1.406-.51-2.978,2.163-2.108-2.989-.435-1.338-2.709Z" fill="#49aa9d"/><path d="M51.058,0,49.721,2.709l-2.989.435,2.162,2.108-.51,2.978,2.674-1.406L53.732,8.23l-.51-2.978,2.162-2.108-2.989-.435Z" fill="#49aa9d"/><path d="M61.563,14.92l-2.99.435,2.163,2.108-.51,2.978L62.9,19.035l2.673,1.406-.51-2.978,2.164-2.108-2.99-.435L62.9,12.211Z" fill="#49aa9d"/><path d="M74.619,0,73.282,2.709l-2.989.435,2.162,2.108-.51,2.978,2.674-1.406L77.293,8.23l-.51-2.978,2.163-2.108-2.99-.435Z" fill="#49aa9d"/><path d="M108.35,14.92l-2.989.435,2.163,2.108-.511,2.978,2.674-1.406,2.674,1.406-.51-2.978,2.163-2.108-2.989-.435-1.338-2.709Z" fill="#49aa9d"/><path d="M85.1,14.92l-2.99.435,2.164,2.108-.511,2.978,2.674-1.406,2.674,1.406L88.6,17.463l2.164-2.108-2.99-.435-1.337-2.709Z" fill="#49aa9d"/><path d="M98.024,0,96.687,2.709,93.7,3.144,95.86,5.252,95.35,8.23l2.674-1.406L100.7,8.23l-.51-2.978,2.162-2.108-2.989-.435Z" fill="#49aa9d"/></g></g></g></svg>