<svg xmlns="http://www.w3.org/2000/svg" xmlns:xlink="http://www.w3.org/1999/xlink" width="1900" height="300" viewBox="0 0 1900 300">
  <defs>
    <clipPath id="clip-path">
      <rect id="Retângulo_1" data-name="Retângulo 1" width="34.274" height="36.251" fill="none"/>
    </clipPath>
    <clipPath id="clip-path-2">
      <rect id="Retângulo_2" data-name="Retângulo 2" width="15.624" height="11.896" fill="none"/>
    </clipPath>
  </defs>
  <g id="Grupo_5" data-name="Grupo 5" transform="translate(-10 -317)">
    <rect id="Retângulo_3" data-name="Retângulo 3" width="1900" height="300" transform="translate(10 317)" fill="none"/>
    <g id="Grupo_359" data-name="Grupo 359" transform="matrix(-0.961, -0.276, 0.276, -0.961, 1091.717, 570.795)">
      <path id="Caminho_1" data-name="Caminho 1" d="M13.251,97.3c4.478-.788,5.742-5.892,18.638-9.832S55.631,103.5,58.545,106.707s5.8,5.129,11.045,2.714,3.4-19.013,4.128-30.271,3.49-14.873,6.467-19.451c3.828-5.892,9.707-9.632,12.346-12.559,6.617-7.343.175-9.769-2.414-10.157C80.549,35.546,74.57,34.9,70.1,29.942c-2.089-2.314-2.94-11.571-2.765-17.337.013-.55,0-1.076-.025-1.614l.263.125c-.9-2.9.363-5.979,1.451-8.819a2.02,2.02,0,0,0,.188-1.038C69.091.546,68.278.171,67.565.071a12.013,12.013,0,0,0-5.616.976c-2,.688-4.166,1.526-5.5,3.065C51.47,7.665,45.929,16.884,38.737,21.537c-8.081,5.241-16.837,2.152-22.9,1.276a21.217,21.217,0,0,0-6.93-.963,18.432,18.432,0,0,0-7.23.826c-.85.338-1.739.976-1.664,1.739A1.869,1.869,0,0,0,.58,25.4a23.4,23.4,0,0,1,4.04,7.118C6.171,37.9,10.474,45.866,12.513,52.3c2.639,8.331-3.19,23.742-5.054,33.036-1.664,8.306,1.3,12.784,5.779,11.983" fill="#098dcd"/>
      <path id="Caminho_2" data-name="Caminho 2" d="M2.752,11.971A20.949,20.949,0,0,1,.063,0" transform="translate(69.091 109.348)" fill="none" stroke="#534741" stroke-miterlimit="10" stroke-width="1"/>
      <g id="Grupo_2" data-name="Grupo 2" transform="translate(19.743 12.129)" opacity="0.2">
        <g id="Grupo_1" data-name="Grupo 1" clip-path="url(#clip-path)">
          <path id="Caminho_3" data-name="Caminho 3" d="M31.531,26.444C37.761,16.1,31.844,4.578,28.942,0,25.9,3.5,22.563,7.23,18.76,9.694,12.48,13.76,5.8,12.809.3,11.771A26.631,26.631,0,0,0,5.438,32.235c3.978,5.016,18.113,7.468,26.094-5.792" transform="translate(0.003)" fill="#fff"/>
        </g>
      </g>
      <path id="Caminho_4" data-name="Caminho 4" d="M2.614,4.215A3.244,3.244,0,0,1,0,3.027,3.251,3.251,0,1,0,5.617,0a3.288,3.288,0,0,1,.15.863A3.263,3.263,0,0,1,2.614,4.215" transform="translate(62.211 59.939)"/>
      <path id="Caminho_5" data-name="Caminho 5" d="M.032,3.7A3.245,3.245,0,1,1,1.294,5.841,3.246,3.246,0,0,1,.032,3.7" transform="translate(34.159 73.853)"/>
      <path id="Caminho_6" data-name="Caminho 6" d="M.013,1.476a1.516,1.516,0,1,1-.013,0" transform="translate(35.479 76.637)" fill="#fff"/>
      <path id="Caminho_7" data-name="Caminho 7" d="M.031,3.327C-.232,2.639,1.207,1.438,3.258.65S7.186-.225,7.449.475,6.273,2.364,4.222,3.152.294,4.028.031,3.327" transform="translate(61.104 52.696)" fill="#f19cb6"/>
      <path id="Caminho_8" data-name="Caminho 8" d="M.031,3.327C-.232,2.639,1.207,1.438,3.258.65S7.186-.226,7.449.475,6.273,2.364,4.222,3.152.294,4.028.031,3.327" transform="translate(29.594 70.158)" fill="#f19cb6"/>
      <g id="Grupo_4" data-name="Grupo 4" transform="translate(39.282 56.436)" opacity="0.7">
        <g id="Grupo_3" data-name="Grupo 3" clip-path="url(#clip-path-2)">
          <path id="Caminho_9" data-name="Caminho 9" d="M14.389,2.346A3.7,3.7,0,0,0,10.224.082,3.709,3.709,0,0,0,7.46,3.935a6.192,6.192,0,0,0-3.74-.35A5.059,5.059,0,0,0,.742,5.423a3.6,3.6,0,0,0-.525,3.39,2.854,2.854,0,0,0,2.789,1.826" transform="translate(0.621 0.618)" fill="none" stroke="#534741" stroke-linecap="round" stroke-miterlimit="10" stroke-width="1"/>
        </g>
      </g>
      <path id="Caminho_10" data-name="Caminho 10" d="M.045,5.149A4.517,4.517,0,1,1,1.8,8.133,4.522,4.522,0,0,1,.045,5.149" transform="translate(68.608 118.384)" fill="#f8af3c"/>
    </g>
  </g>
</svg>
