<svg xmlns="http://www.w3.org/2000/svg" xmlns:xlink="http://www.w3.org/1999/xlink" width="161.746" height="172.12" viewBox="0 0 161.746 172.12"><defs><clipPath id="a"><rect width="114.891" height="136.339" fill="none"/></clipPath><clipPath id="c"><rect width="43.645" height="26.874" transform="translate(0)" fill="none"/></clipPath></defs><g transform="matrix(0.906, -0.423, 0.423, 0.906, 0, 48.555)"><g transform="translate(0 0)" clip-path="url(#a)"><g transform="translate(0)"><g clip-path="url(#a)"><path d="M80.544,105.11a7.374,7.374,0,0,0,3.591-.3,5.453,5.453,0,0,0,2.637-1.651L64.83,34.959l-5.412,1.779Z" transform="translate(-31.299 0)" fill="#dfbe93"/><path d="M81.271,37.3c.25.683,1.879.713,3.635.069s2.162-1.547,1.911-2.23-1.062-.889-2.819-.245S81.02,36.614,81.271,37.3" transform="translate(-53.232 0)" fill="#ead3aa"/><path d="M77.005,1.512A28.707,28.707,0,1,0,113.38,19.545,28.707,28.707,0,0,0,77.005,1.512" transform="translate(-57.458 0)" fill="#ed1c24" fill-rule="evenodd"/><path d="M86.174,40.969a29.772,29.772,0,0,0,25.961-12.253A29.773,29.773,0,0,1,95.779,52.308a28.539,28.539,0,0,1-9.605-11.339" transform="translate(-83.418 0)" fill="#fff" fill-rule="evenodd"/><path d="M91.194,12.358a29.775,29.775,0,0,0,23.6,16.358,29.769,29.769,0,0,1-28.615-2.37,28.83,28.83,0,0,1,5.019-13.988" transform="translate(-86.074 0)" fill="#fff" fill-rule="evenodd"/><path d="M98.484.1a29.77,29.77,0,0,0-2.371,28.616A29.771,29.771,0,0,1,83.858,2.752a29.325,29.325,0,0,1,3.085-1.24A28.6,28.6,0,0,1,98.484.1" transform="translate(-67.396 0)" fill="#fff" fill-rule="evenodd"/><path d="M86.175,16.462A29.771,29.771,0,0,0,60.214,28.716,29.764,29.764,0,0,1,76.572,5.123a28.557,28.557,0,0,1,9.6,11.339" transform="translate(-31.498 0)" fill="#fff" fill-rule="evenodd"/><path d="M81.153,45.073A29.767,29.767,0,0,0,57.561,28.717a29.763,29.763,0,0,1,28.613,2.371,28.812,28.812,0,0,1-5.021,13.985" transform="translate(-28.844 0)" fill="#fff" fill-rule="evenodd"/><path d="M73.866,57.331a29.774,29.774,0,0,0,2.372-28.615A29.781,29.781,0,0,1,88.492,54.678a29.324,29.324,0,0,1-3.085,1.24,28.6,28.6,0,0,1-11.541,1.413" transform="translate(-47.522 0)" fill="#fff" fill-rule="evenodd"/><g transform="translate(2.693 2.335)" opacity="0.4"><g transform="translate(0)"><g transform="translate(0)" clip-path="url(#c)"><g transform="translate(0)"><g transform="translate(0)" clip-path="url(#c)"><path d="M112.2,7.939c-6-2.489-35.474-9.073-43.6,21.27C67.522,12.359,86.668-7.6,112.2,7.939" transform="translate(-68.553 -2.335)" fill="#fff"/></g></g></g></g></g><path d="M43.667,67.313C-16.78,45.376-4,124.453,19.8,133.09s84.319-43.84,23.871-65.777" transform="translate(45.181 0)" fill="#f24660" fill-rule="evenodd"/><path d="M35.079,77.535l8.6-10.848c1.006-1.268,1.344-2.182-1.459-1.738L27.59,67.271,26.049,53.076c-.087-.805-.661-1.948-1.333-2.112-.622-.3-1.773.223-2.378.766l-9.766,8.761L2.725,49.865c-1.94-2.094-2.254-1.226-2.234.4L.673,64.937c.093,7.518,27.884,18.038,34.406,12.6" transform="translate(69.99 0)" fill="#49d1cc" fill-rule="evenodd"/><path d="M6.61,89.194a1.675,1.675,0,1,0,1,2.146,1.674,1.674,0,0,0-1-2.146" transform="translate(102.814 0)" fill="#fff" fill-rule="evenodd"/><path d="M19.209,84.621a1.675,1.675,0,1,0,1,2.146,1.676,1.676,0,0,0-1-2.146" transform="translate(77.617 0)" fill="#fff" fill-rule="evenodd"/><path d="M31.808,80.049a1.675,1.675,0,1,0,1,2.146,1.674,1.674,0,0,0-1-2.146" transform="translate(52.418 0)" fill="#fff" fill-rule="evenodd"/><path d="M44.407,75.477a1.675,1.675,0,1,0,1,2.146,1.674,1.674,0,0,0-1-2.146" transform="translate(27.22 0)" fill="#fff" fill-rule="evenodd"/><path d="M57.006,70.9a1.675,1.675,0,1,0,1,2.146,1.674,1.674,0,0,0-1-2.146" transform="translate(2.022 0)" fill="#fff" fill-rule="evenodd"/><path d="M15.768,94.782a1.675,1.675,0,1,0,1,2.146,1.674,1.674,0,0,0-1-2.146" transform="translate(84.498 0)" fill="#fff" fill-rule="evenodd"/><path d="M28.367,90.21a1.675,1.675,0,1,0,1,2.146,1.673,1.673,0,0,0-1-2.146" transform="translate(59.302 0)" fill="#fff" fill-rule="evenodd"/><path d="M40.965,85.638a1.675,1.675,0,1,0,1,2.146,1.675,1.675,0,0,0-1-2.146" transform="translate(34.104 0)" fill="#fff" fill-rule="evenodd"/><path d="M53.564,81.066a1.675,1.675,0,1,0,1,2.146,1.674,1.674,0,0,0-1-2.146" transform="translate(8.906 0)" fill="#fff" fill-rule="evenodd"/><path d="M12.326,104.942a1.675,1.675,0,1,0,1,2.146,1.676,1.676,0,0,0-1-2.146" transform="translate(91.382 0)" fill="#fff" fill-rule="evenodd"/><path d="M24.924,100.369a1.675,1.675,0,1,0,1,2.146,1.676,1.676,0,0,0-1-2.146" transform="translate(66.185 0)" fill="#fff" fill-rule="evenodd"/><path d="M37.523,95.8a1.675,1.675,0,1,0,1,2.146,1.676,1.676,0,0,0-1-2.146" transform="translate(40.987 0)" fill="#fff" fill-rule="evenodd"/><path d="M50.122,91.225a1.675,1.675,0,1,0,1,2.146,1.674,1.674,0,0,0-1-2.146" transform="translate(15.79 0)" fill="#fff" fill-rule="evenodd"/><path d="M62.721,86.653a1.675,1.675,0,1,0,1,2.146,1.674,1.674,0,0,0-1-2.146" transform="translate(-9.408 0)" fill="#fff" fill-rule="evenodd"/><path d="M21.483,110.53a1.675,1.675,0,1,0,1,2.147,1.674,1.674,0,0,0-1-2.147" transform="translate(73.068 0)" fill="#fff" fill-rule="evenodd"/><path d="M34.082,105.958a1.675,1.675,0,1,0,1,2.146,1.674,1.674,0,0,0-1-2.146" transform="translate(47.87 0)" fill="#fff" fill-rule="evenodd"/><path d="M46.68,101.385a1.675,1.675,0,1,0,1,2.146,1.677,1.677,0,0,0-1-2.146" transform="translate(22.674 0)" fill="#fff" fill-rule="evenodd"/><path d="M59.278,96.813a1.675,1.675,0,1,0,1,2.146,1.676,1.676,0,0,0-1-2.146" transform="translate(-2.523 0)" fill="#fff" fill-rule="evenodd"/><path d="M30.64,116.118a1.675,1.675,0,1,0,1,2.146,1.676,1.676,0,0,0-1-2.146" transform="translate(54.754 0)" fill="#fff" fill-rule="evenodd"/><path d="M43.238,111.546a1.675,1.675,0,1,0,1,2.146,1.676,1.676,0,0,0-1-2.146" transform="translate(29.557 0)" fill="#fff" fill-rule="evenodd"/><path d="M55.837,106.974a1.675,1.675,0,1,0,1,2.146,1.676,1.676,0,0,0-1-2.146" transform="translate(4.36 0)" fill="#fff" fill-rule="evenodd"/><path d="M48.78,126.816a1.675,1.675,0,1,0,1,2.146,1.675,1.675,0,0,0-1-2.146" transform="translate(18.474 0)" fill="#fff" fill-rule="evenodd"/><path d="M39.8,121.706a1.675,1.675,0,1,0,1,2.146,1.674,1.674,0,0,0-1-2.146" transform="translate(36.44 0)" fill="#fff" fill-rule="evenodd"/><path d="M52.4,117.134a1.675,1.675,0,1,0,1,2.146,1.674,1.674,0,0,0-1-2.146" transform="translate(11.242 0)" fill="#fff" fill-rule="evenodd"/><path d="M65.373,130.411c4.03-3.25,2.492-6.87-2.123-4.861s-14.441.9-13.147-4.363.812-10.984-5.129-6.157c-6.093,4.949-11.808,4.578-14.837-.27-2.977-4.762-8.093-10.317-6.54-1.146,1.278,7.547,6.534,17.51,16.839,21.249a25.753,25.753,0,0,0,24.937-4.452" transform="translate(23.885 0)" fill="#8a321f" fill-rule="evenodd"/></g></g></g></g></svg>