<svg xmlns="http://www.w3.org/2000/svg" xmlns:xlink="http://www.w3.org/1999/xlink" width="141.752" height="87.181" viewBox="0 0 141.752 87.181"><defs><clipPath id="a"><rect width="141.752" height="87.181" fill="none"/></clipPath></defs><g transform="translate(0 0)" clip-path="url(#a)"><path d="M29.254,10.867s.537-7.853-2.148-9.128S6.835,4.491,2.271,8.317s-1.007,12.082,0,13.826Z" transform="translate(0 -0.33)" fill="#5b626d"/><path d="M144.385,9.239s-.271-7.867,2.455-9.051,20.165,3.436,24.6,7.413.6,12.109-.467,13.819Z" transform="translate(-31.776 0)" fill="#5b626d"/><path d="M44.616,73.984a9.073,9.073,0,0,1-7.7-5.548l7.7-21.3c-2.864-7.97-6.333-26.845-8.18-37.6C17.99,11.379,3.474,14.357,1.749,16.8-1,20.69,1.749,40.356,7.656,60.291S17.791,86.536,21.617,88.079C25.026,89.455,49.911,89.338,65.6,89.2l-.756-15.218s-14.229.626-20.225,0" transform="translate(-0.149 -2.099)" fill="#414244"/><path d="M108.762,70.81c4.206-1.432,6.086-11.1,6.086-11.1l-7.16-16.825s3.826-19.591,5.893-34.2c-10.448-.781-21.808-1.324-31.8-1.375A345.609,345.609,0,0,0,46.528,9.046c1.847,10.755,5.316,29.63,8.18,37.6l-7.7,21.3a9.073,9.073,0,0,0,7.7,5.548c6,.627,20.225,0,20.225,0l.756,15.218c1.915-.016,3.7-.034,5.285-.048,1.157-.01,2.44-.031,3.808-.061.534-4.69,1.107-10.311,1.428-15.287,0,0,18.347-1.074,22.553-2.506" transform="translate(-10.24 -1.609)" fill="#2b2b2b"/><path d="M158.353,13.743c-2.168-1.459-16.846-3.384-33.976-4.665-2.068,14.606-5.893,34.2-5.893,34.2L125.642,60.1s-1.879,9.665-6.085,11.1S97,73.7,97,73.7c-.321,4.976-.894,10.6-1.429,15.287,15.852-.338,44.262-1.908,48.279-4.5,4.363-2.819,16.646-47.185,17.451-54.5s.537-13.894-2.954-16.243" transform="translate(-21.035 -1.998)" fill="#414244"/><path d="M35.348,23.469c-4.095,1.75-3.289,10.129,0,20.4.881,2.752,1.763,5.87,2.619,8.988,6.219-8.973,16.6-23.435,24.54-31.939-11.959.528-24.444,1.391-27.159,2.552" transform="translate(-7.169 -4.604)" fill="#49c1b0"/><path d="M64.03,20.813c-7.943,8.5-18.321,22.966-24.54,31.939.679,2.469,1.341,4.935,1.977,7.223,9.644-14.534,25.058-31.67,32.354-39.529-3.067.1-6.406.218-9.791.367" transform="translate(-8.691 -4.5)" fill="#71e2d5"/><path d="M127.523,77.328c7.652-.537,8.591-11.612,9.531-17.72.06-.392.131-.839.211-1.331a226.572,226.572,0,0,0-15.251,19.459c2.2-.168,4.114-.31,5.509-.409" transform="translate(-26.854 -12.826)" fill="#49c1b0"/><path d="M112.528,75.63c2.6-.2,5.144-.4,7.4-.574A226.416,226.416,0,0,1,135.178,55.6c.385-2.384.969-5.849,1.487-9.5-5.974,6.6-16.522,18.65-24.137,29.538" transform="translate(-24.766 -10.144)" fill="#71e2d5"/><path d="M81.057,20.21c-1.972.04-4.24.1-6.678.174-7.3,7.858-22.709,25-32.354,39.529,1.557,5.6,2.949,10.116,4,10.861.89.633,3.237,1.016,7.436,1.161C62.215,59.786,80.32,35.11,93.384,20.228c-4.488-.089-8.805-.09-12.327-.019" transform="translate(-9.249 -4.437)" fill="#49c1b0"/><path d="M130.493,23.719c-.676-.675-2.816-1.224-5.835-1.665-7.921,9-28.36,32.529-41,49.921,1.455-.062,2.964-.129,4.546-.2,0,0,9.229-.746,17.968-1.433C113.79,59.451,124.339,47.4,130.312,40.8c1.041-7.344,1.816-15.45.181-17.082" transform="translate(-18.413 -4.854)" fill="#49c1b0"/><path d="M96.61,20.248C83.546,35.129,65.441,59.806,56.683,71.953c4.605.159,11.446.029,21.04-.376,12.636-17.391,33.076-40.924,41-49.921a201.418,201.418,0,0,0-22.11-1.409" transform="translate(-12.475 -4.456)" fill="#71e2d5"/><path d="M20.91,40.254a3.389,3.389,0,1,1-3.831-2.88,3.389,3.389,0,0,1,3.831,2.88" transform="translate(-3.117 -8.218)" fill="#2b2b2b"/><path d="M20.663,38.516a3.389,3.389,0,1,1-3.831-2.88,3.389,3.389,0,0,1,3.831,2.88" transform="translate(-3.063 -7.835)" fill="#5b626d"/><path d="M23.1,55.71a3.389,3.389,0,1,1-3.831-2.88A3.389,3.389,0,0,1,23.1,55.71" transform="translate(-3.599 -11.62)" fill="#2b2b2b"/><path d="M22.853,53.972a3.389,3.389,0,1,1-3.831-2.88,3.389,3.389,0,0,1,3.831,2.88" transform="translate(-3.545 -11.237)" fill="#5b626d"/><path d="M29.7,46.493a3.389,3.389,0,1,1-3.831-2.88,3.389,3.389,0,0,1,3.831,2.88" transform="translate(-5.052 -9.591)" fill="#2b2b2b"/><path d="M29.453,44.755a3.389,3.389,0,1,1-3.831-2.88,3.389,3.389,0,0,1,3.831,2.88" transform="translate(-4.998 -9.209)" fill="#5b626d"/><path d="M13.982,49.537a3.389,3.389,0,1,1-3.831-2.88,3.389,3.389,0,0,1,3.831,2.88" transform="translate(-1.593 -10.261)" fill="#2b2b2b"/><path d="M13.736,47.8A3.389,3.389,0,1,1,9.9,44.917a3.389,3.389,0,0,1,3.831,2.88" transform="translate(-1.539 -9.878)" fill="#5b626d"/><path d="M155.922,40.254a3.389,3.389,0,1,0,3.83-2.88,3.388,3.388,0,0,0-3.83,2.88" transform="translate(-34.309 -8.218)" fill="#2b2b2b"/><path d="M156.168,38.516A3.389,3.389,0,1,0,160,35.635a3.389,3.389,0,0,0-3.831,2.88" transform="translate(-34.363 -7.835)" fill="#ffd150"/><path d="M153.732,55.71a3.389,3.389,0,1,0,3.83-2.88,3.388,3.388,0,0,0-3.83,2.88" transform="translate(-33.827 -11.62)" fill="#2b2b2b"/><path d="M153.978,53.972a3.389,3.389,0,1,0,3.831-2.88,3.389,3.389,0,0,0-3.831,2.88" transform="translate(-33.881 -11.237)" fill="#1164f4"/><path d="M147.132,46.493a3.389,3.389,0,1,0,3.831-2.88,3.389,3.389,0,0,0-3.831,2.88" transform="translate(-32.375 -9.591)" fill="#2b2b2b"/><path d="M147.378,44.755a3.389,3.389,0,1,0,3.831-2.88,3.389,3.389,0,0,0-3.831,2.88" transform="translate(-32.429 -9.209)" fill="#ff485e"/><path d="M162.849,49.537a3.389,3.389,0,1,0,3.831-2.88,3.389,3.389,0,0,0-3.831,2.88" transform="translate(-35.834 -10.261)" fill="#2b2b2b"/><path d="M163.1,47.8a3.389,3.389,0,1,0,3.831-2.88A3.389,3.389,0,0,0,163.1,47.8" transform="translate(-35.888 -9.878)" fill="#0ba864"/><path d="M66.588,101.081a3.389,3.389,0,1,1-3.832-2.88,3.39,3.39,0,0,1,3.832,2.88" transform="translate(-13.171 -21.605)" fill="#2b2b2b"/><path d="M66.341,99.343a3.389,3.389,0,1,1-3.831-2.88,3.389,3.389,0,0,1,3.831,2.88" transform="translate(-13.116 -21.223)" fill="#5b626d"/><path d="M109.855,101.081a3.389,3.389,0,1,0,3.831-2.88,3.389,3.389,0,0,0-3.831,2.88" transform="translate(-24.17 -21.605)" fill="#2b2b2b"/><path d="M110.1,99.343a3.389,3.389,0,1,0,3.831-2.88,3.389,3.389,0,0,0-3.831,2.88" transform="translate(-24.225 -21.223)" fill="#5b626d"/></g></svg>