<svg xmlns="http://www.w3.org/2000/svg" width="30" height="30" viewBox="0 0 30 30"><path d="M25.607,4.393A14.9,14.9,0,0,0,15,0h0A15,15,0,0,0,1.88,22.275L.032,28.884a.879.879,0,0,0,1.083,1.083l6.61-1.848A15,15,0,0,0,25.607,4.393ZM15,28.242a13.226,13.226,0,0,1-6.711-1.825.879.879,0,0,0-.683-.089L2.146,27.854l1.527-5.46a.879.879,0,0,0-.089-.683A13.243,13.243,0,1,1,15,28.242Z" fill="currentcolor"/><path d="M133.039,126.59a2.858,2.858,0,0,0-4.034,0L128.6,127a.542.542,0,0,1-.761,0l-2.805-2.805a.542.542,0,0,1,0-.76l.408-.408a2.856,2.856,0,0,0,0-4.034l-.815-.815a2.859,2.859,0,0,0-4.034,0l-.608.608a5.765,5.765,0,0,0-1.313,5.388,11.816,11.816,0,0,0,3.317,5.873,11.033,11.033,0,0,0,7.414,3.475h0a5.294,5.294,0,0,0,3.847-1.471l.608-.608a2.856,2.856,0,0,0,0-4.035Zm-.428,3.607L132,130.8a3.581,3.581,0,0,1-2.6.957h0a9.262,9.262,0,0,1-6.171-2.96,10.048,10.048,0,0,1-2.836-4.975,4.081,4.081,0,0,1,.833-3.8l.608-.608a1.1,1.1,0,0,1,1.549,0l.815.815a1.1,1.1,0,0,1,0,1.549l-.408.408a2.3,2.3,0,0,0,0,3.247l2.805,2.8a2.3,2.3,0,0,0,3.247,0l.408-.407a1.1,1.1,0,0,1,1.548,0l.815.815A1.1,1.1,0,0,1,132.611,130.2Z" transform="translate(-111.564 -110.466)" fill="currentcolor"/></svg>